<svg width="24" height="24" fill="none" xmlns="http://www.w3.org/2000/svg" viewBox="0 0 24 24"><title>Save this restaurant</title><path d="M10.475 19.9l-1.75-1.575A66.646 66.646 0 013.938 13.5C2.513 11.9 1.8 10.117 1.8 8.15c0-1.633.542-2.992 1.625-4.075C4.508 2.992 5.867 2.45 7.5 2.45a6 6 0 012.475.525A5.79 5.79 0 0112 4.475a5.82 5.82 0 012.013-1.5A5.97 5.97 0 0116.5 2.45c1.617 0 2.97.542 4.062 1.625S22.2 6.517 22.2 8.15c0 1.967-.713 3.754-2.138 5.362a62.39 62.39 0 01-4.812 4.838l-1.725 1.55a2.129 2.129 0 01-1.525.625 2.13 2.13 0 01-1.525-.625zM11 6.775c-.45-.65-.954-1.154-1.512-1.513-.559-.358-1.221-.537-1.988-.537-.983 0-1.8.325-2.45.975-.65.65-.975 1.467-.975 2.45 0 .867.304 1.783.913 2.75a18.664 18.664 0 002.187 2.812 37.52 37.52 0 002.625 2.55L12 18.2c.567-.517 1.3-1.17 2.2-1.962.9-.792 1.775-1.642 2.625-2.55.85-.909 1.58-1.842 2.188-2.801.608-.958.912-1.87.912-2.737 0-.983-.325-1.8-.975-2.45-.65-.65-1.467-.975-2.45-.975-.767 0-1.429.179-1.987.537-.559.359-1.063.863-1.513 1.513a1.354 1.354 0 01-.462.413 1.152 1.152 0 01-.538.137 1.152 1.152 0 01-1-.55z" fill="currentColor"/></svg>