<svg width="44" height="44" viewBox="0 0 44 44" fill="none" xmlns="http://www.w3.org/2000/svg">
<path fill-rule="evenodd" clip-rule="evenodd" d="M0 5.27083C0 2.35983 2.35983 0 5.27083 0H42.625C43.3844 0 44 0.615608 44 1.375C44 2.13439 43.3844 2.75 42.625 2.75H5.27083C3.87862 2.75 2.75 3.87862 2.75 5.27083C2.75 6.66305 3.87862 7.79167 5.27083 7.79167H6.41667C7.17606 7.79167 7.79167 8.40728 7.79167 9.16667C7.79167 9.92606 7.17606 10.5417 6.41667 10.5417H5.27083C2.35983 10.5417 0 8.18183 0 5.27083Z" fill="#F75400"/>
<path d="M0 36.6667H17.4167V44H7.33333C3.28325 44 0 40.7168 0 36.6667Z" fill="#FF8000"/>
<path d="M11.9167 38.5C11.9167 35.4624 14.3791 33 17.4167 33H23.8334C26.8709 33 29.3334 35.4624 29.3334 38.5C29.3334 41.5376 26.8709 44 23.8334 44H17.4167C14.3791 44 11.9167 41.5376 11.9167 38.5Z" fill="url(#paint0_linear_623_61011)"/>
<path d="M24.75 29.3333H42.1667C42.1667 37.4335 35.6002 44 27.5 44H26.799C25.6674 44 24.75 43.0826 24.75 41.951V29.3333Z" fill="url(#paint1_linear_623_61011)"/>
<path d="M24.75 18.3333H36.6667C40.7168 18.3333 44 21.6166 44 25.6666V31.1666C44 34.2042 41.5376 36.6666 38.5 36.6666H31.1667C27.6228 36.6666 24.75 33.7938 24.75 30.25V18.3333Z" fill="url(#paint2_linear_623_61011)"/>
<path d="M21.0833 8.25H29.5129C37.0076 8.25 43.0833 14.3257 43.0833 21.8205C43.0833 24.4509 40.9509 26.5833 38.3204 26.5833H30.25C25.1874 26.5833 21.0833 22.4793 21.0833 17.4167V8.25Z" fill="url(#paint3_linear_623_61011)"/>
<path d="M3.66669 7.33331H21.0494C24.612 7.33331 27.5 10.2214 27.5 13.7839V23.2561C27.5 26.1062 25.1896 28.4166 22.3395 28.4166H21.0834C11.4644 28.4166 3.66669 20.6189 3.66669 11V7.33331Z" fill="url(#paint4_linear_623_61011)"/>
<circle cx="15.5833" cy="19.25" r="1.83333" fill="black"/>
<path fill-rule="evenodd" clip-rule="evenodd" d="M17.875 10.0834C17.875 9.57709 18.2854 9.16669 18.7917 9.16669H22.4583C22.9646 9.16669 23.375 9.57709 23.375 10.0834C23.375 10.5896 22.9646 11 22.4583 11H18.7917C18.2854 11 17.875 10.5896 17.875 10.0834Z" fill="white" fill-opacity="0.6"/>
<path fill-rule="evenodd" clip-rule="evenodd" d="M41.25 26.5833C41.7563 26.5833 42.1667 26.9937 42.1667 27.5L42.1667 33C42.1667 33.5062 41.7563 33.9166 41.25 33.9166C40.7437 33.9166 40.3333 33.5062 40.3333 33L40.3333 27.5C40.3333 26.9937 40.7437 26.5833 41.25 26.5833Z" fill="white" fill-opacity="0.6"/>
<path fill-rule="evenodd" clip-rule="evenodd" d="M36.8864 14.2919C34.7946 12.2538 32.0364 10.9999 29.3334 10.9998C28.8271 10.9998 28.4167 10.5894 28.4167 10.0831C28.4167 9.57685 28.8272 9.16646 29.3334 9.16648C32.5886 9.16661 35.7888 10.6628 38.1658 12.9788C40.5461 15.2981 42.1668 18.5039 42.1667 21.9998C42.1667 22.5061 41.7563 22.9165 41.2501 22.9165C40.7438 22.9165 40.3334 22.5061 40.3334 21.9998C40.3334 19.0792 38.9749 16.3268 36.8864 14.2919Z" fill="white" fill-opacity="0.6"/>
<defs>
<linearGradient id="paint0_linear_623_61011" x1="19.25" y1="34.375" x2="22.4478" y2="41.6843" gradientUnits="userSpaceOnUse">
<stop stop-color="#FF8000"/>
<stop offset="1" stop-color="#FDB813"/>
</linearGradient>
<linearGradient id="paint1_linear_623_61011" x1="33.4583" y1="33.4583" x2="37.675" y2="41.8916" gradientUnits="userSpaceOnUse">
<stop stop-color="#FF8000"/>
<stop offset="1" stop-color="#FDB813"/>
</linearGradient>
<linearGradient id="paint2_linear_623_61011" x1="34.375" y1="22.4583" x2="40.6969" y2="32.8033" gradientUnits="userSpaceOnUse">
<stop stop-color="#FF8000"/>
<stop offset="1" stop-color="#FDB813"/>
</linearGradient>
<linearGradient id="paint3_linear_623_61011" x1="32.0833" y1="9.625" x2="39.5253" y2="19.7248" gradientUnits="userSpaceOnUse">
<stop stop-color="#FF8000"/>
<stop offset="1" stop-color="#FDB813"/>
</linearGradient>
<linearGradient id="paint4_linear_623_61011" x1="15.5834" y1="7.33331" x2="24.7093" y2="23.1517" gradientUnits="userSpaceOnUse">
<stop stop-color="#FF8000"/>
<stop offset="1" stop-color="#FDB813"/>
</linearGradient>
</defs>
</svg>
