<svg width="44" height="44" viewBox="0 0 44 44" fill="none" xmlns="http://www.w3.org/2000/svg">
<path d="M38.8816 0L41.4143 1.07148L27.3551 31.9506L26.5109 31.5934L38.8816 0Z" fill="url(#paint0_linear_623_60614)"/>
<path d="M31.8556 0L34.5445 0.576128L26.5426 33.5481L25.6463 33.356L31.8556 0Z" fill="url(#paint1_linear_623_60614)"/>
<path d="M40.796 19.2323C41.111 20.2013 41.936 21.0863 42.095 22.0883H2.75C2.912 21.0623 3.725 20.2193 4.046 19.2353C4.367 18.2513 4.205 17.0813 4.673 16.1633C5.141 15.2453 6.188 14.6873 6.794 13.8533C7.4 13.0193 7.613 11.8493 8.339 11.1233C9.065 10.3973 10.241 10.1813 11.069 9.57833C11.897 8.97533 12.47 7.92233 13.379 7.45733C14.288 6.99233 15.482 7.14533 16.451 6.83033C17.42 6.51533 18.308 5.68733 19.307 5.53133C20.306 5.37533 21.377 5.88833 22.421 5.88833C23.465 5.88833 24.509 5.36933 25.538 5.53133C26.567 5.69333 27.407 6.50633 28.391 6.82733C29.375 7.14833 30.545 6.98633 31.463 7.45433C32.381 7.92233 32.939 8.96933 33.773 9.57533C34.607 10.1813 35.777 10.3943 36.503 11.1203C37.229 11.8463 37.445 13.0223 38.048 13.8503C38.651 14.6783 39.704 15.2513 40.169 16.1603C40.634 17.0693 40.481 18.2633 40.796 19.2323Z" fill="url(#paint2_radial_623_60614)"/>
<path fill-rule="evenodd" clip-rule="evenodd" d="M23.0768 17.5266C22.6476 17.2582 22.5171 16.6927 22.7855 16.2634L24.2433 13.9316C24.5117 13.5023 25.0772 13.3719 25.5065 13.6402C25.9358 13.9086 26.0662 14.4742 25.7978 14.9034L24.34 17.2353C24.0717 17.6645 23.5061 17.795 23.0768 17.5266Z" fill="white" fill-opacity="0.6"/>
<path fill-rule="evenodd" clip-rule="evenodd" d="M29.717 14.2047C29.8741 13.7235 30.3916 13.4607 30.8729 13.6178L33.4871 14.4712C33.9684 14.6283 34.2311 15.1458 34.074 15.6271C33.9169 16.1084 33.3994 16.3711 32.9181 16.214L30.3039 15.3606C29.8227 15.2035 29.5599 14.686 29.717 14.2047Z" fill="white" fill-opacity="0.6"/>
<path fill-rule="evenodd" clip-rule="evenodd" d="M25.5061 10.4366C25.1173 10.1124 25.0649 9.53436 25.3892 9.14555L27.1504 7.03356C27.4747 6.64476 28.0527 6.59241 28.4415 6.91665C28.8303 7.24089 28.8827 7.81892 28.5584 8.20773L26.7972 10.3197C26.4729 10.7085 25.8949 10.7609 25.5061 10.4366Z" fill="white" fill-opacity="0.6"/>
<path fill-rule="evenodd" clip-rule="evenodd" d="M36.0795 22.066C35.6907 21.7417 35.6384 21.1637 35.9626 20.7749L37.7239 18.6629C38.0481 18.2741 38.6262 18.2217 39.015 18.546C39.4038 18.8702 39.4561 19.4483 39.1319 19.8371L37.3706 21.9491C37.0464 22.3379 36.4684 22.3902 36.0795 22.066Z" fill="white" fill-opacity="0.6"/>
<path fill-rule="evenodd" clip-rule="evenodd" d="M15.6911 7.7576C16.0331 7.38436 16.613 7.35907 16.9862 7.70111L19.0136 9.55908C19.3869 9.90112 19.4122 10.481 19.0701 10.8542C18.7281 11.2274 18.1482 11.2527 17.775 10.9107L15.7476 9.05273C15.3743 8.71068 15.349 8.13083 15.6911 7.7576Z" fill="white" fill-opacity="0.6"/>
<path d="M27.0981 19.006C28.739 17.0502 31.6547 16.7948 33.6106 18.4357C34.734 19.3782 35.2964 20.7412 35.2607 22.1013L37.4431 21.3067C39.8421 20.4334 42.4949 21.6701 43.3683 24.0691C44.2417 26.468 43.0049 29.1208 40.6059 29.9942L38.4875 30.7655C39.3028 31.7698 39.6944 33.1089 39.4523 34.4829C39.0091 36.9972 36.6117 38.6762 34.0974 38.2331L29.8439 37.4835C29.7863 37.9536 29.6549 38.4228 29.4439 38.8753C28.3652 41.1892 25.6149 42.1905 23.301 41.1117L14.3852 36.9552C12.4901 36.0717 11.4755 34.0669 11.7629 32.0989C11.7229 31.365 11.8579 30.6108 12.1902 29.8981L16.3735 20.925C17.4522 18.6111 20.2025 17.6098 22.5164 18.6885C23.7523 19.2647 24.6137 20.3177 24.9837 21.5263L27.0981 19.006Z" fill="url(#paint3_linear_623_60614)"/>
<path d="M27.0981 19.006C28.739 17.0502 31.6547 16.7948 33.6106 18.4357C34.734 19.3782 35.2964 20.7412 35.2607 22.1013L37.4431 21.3067C39.8421 20.4334 42.4949 21.6701 43.3683 24.0691C44.2417 26.468 43.0049 29.1208 40.6059 29.9942L38.4875 30.7655C39.3028 31.7698 39.6944 33.1089 39.4523 34.4829C39.0091 36.9972 36.6117 38.6762 34.0974 38.2331L29.8439 37.4835C29.7863 37.9536 29.6549 38.4228 29.4439 38.8753C28.3652 41.1892 25.6149 42.1905 23.301 41.1117L14.3852 36.9552C12.4901 36.0717 11.4755 34.0669 11.7629 32.0989C11.7229 31.365 11.8579 30.6108 12.1902 29.8981L16.3735 20.925C17.4522 18.6111 20.2025 17.6098 22.5164 18.6885C23.7523 19.2647 24.6137 20.3177 24.9837 21.5263L27.0981 19.006Z" fill="url(#paint4_linear_623_60614)"/>
<path d="M33.2937 33.1976L25.8332 30.1703" stroke="#E1ED9C" stroke-opacity="0.5" stroke-width="1.00071" stroke-linecap="round"/>
<path fill-rule="evenodd" clip-rule="evenodd" d="M23.4784 28.7654C23.2832 28.9706 23.2397 29.2648 23.3443 29.5096L22.5388 29.746L21.7404 23.2529C21.694 22.8761 21.3509 22.6081 20.9741 22.6545C20.5972 22.7008 20.3293 23.0439 20.3756 23.4207L21.2017 30.1384L18.2656 30.9999C17.9013 31.1068 17.6926 31.4888 17.7995 31.8532C17.9064 32.2175 18.2884 32.4262 18.6528 32.3193L21.515 31.4794C21.6594 31.6225 21.8657 31.7005 22.0831 31.6737C22.38 31.6372 22.6093 31.4166 22.6706 31.1403L38.1253 26.6054C38.4897 26.4985 38.6983 26.1164 38.5914 25.7521C38.4845 25.3878 38.1025 25.1791 37.7382 25.286L25.1805 28.9709L30.9593 22.894C31.2209 22.6188 31.21 22.1837 30.9348 21.922C30.6597 21.6603 30.2245 21.6713 29.9629 21.9464L23.4784 28.7654Z" fill="#E1ED9C" fill-opacity="0.5"/>
<rect x="22.9053" y="23.1035" width="10.4167" height="10.4167" rx="3.12502" transform="rotate(-177.307 22.9053 23.1035)" fill="url(#paint5_linear_623_60614)"/>
<path fill-rule="evenodd" clip-rule="evenodd" d="M12.6496 19.4335L12.6469 19.4927C12.6094 20.2889 12.8733 21.0295 13.338 21.604L19.9332 12.5356L17.7413 12.4325L12.6496 19.4335ZM22.2808 13.4095L15.7586 22.3774C15.6732 22.4949 15.6197 22.6258 15.5966 22.7598C15.6049 22.7602 15.6133 22.7607 15.6216 22.7611L17.6762 22.8577L23.2208 15.2339C23.1208 14.5233 22.7802 13.8852 22.2808 13.4095Z" fill="white" fill-opacity="0.4"/>
<rect x="14.6469" y="21.1531" width="10.4167" height="10.4167" rx="3.12502" transform="rotate(167.089 14.6469 21.1531)" fill="url(#paint6_linear_623_60614)"/>
<path fill-rule="evenodd" clip-rule="evenodd" d="M13.922 19.6135C13.7051 19.6556 13.4723 19.6199 13.269 19.4955L3.5953 13.5755C4.00993 13.1175 4.56417 12.7776 5.21201 12.6291L5.46594 12.5709L13.8566 17.7057L13.9486 18.1072C14.0667 18.6221 14.0501 19.1365 13.922 19.6135ZM12.1806 21.6578L3.04208 16.0654C2.96417 16.0177 2.88196 15.983 2.79797 15.9608C2.81073 16.0978 2.83267 16.2356 2.86426 16.3733L3.32625 18.3887L9.6976 22.2877L11.6009 21.8514C11.8038 21.8049 11.9975 21.7396 12.1806 21.6578Z" fill="white" fill-opacity="0.4"/>
<rect x="22.0502" y="25.2833" width="10.4167" height="10.4167" rx="3.12502" transform="rotate(138.572 22.0502 25.2833)" fill="url(#paint7_linear_623_60614)"/>
<path fill-rule="evenodd" clip-rule="evenodd" d="M19.4106 22.2921L8.67578 24.1263C8.7895 23.4425 9.13029 22.7921 9.69049 22.2977L9.97821 22.0438L17.9843 20.6759L19.4106 22.2921ZM10.6412 28.0979L9.479 26.781C9.60978 26.5485 9.84042 26.3748 10.1238 26.3264L20.7257 24.5149C20.8286 25.1628 20.7262 25.8342 20.425 26.4262L10.6412 28.0979Z" fill="white" fill-opacity="0.4"/>
<path d="M10.6065 22.105C12.1012 22.968 12.6133 24.8792 11.7504 26.3739L9.66701 29.9823C8.80406 31.477 6.89282 31.9891 5.39815 31.1262L1.78969 29.0428C0.295012 28.1799 -0.217101 26.2686 0.645849 24.774L2.7292 21.1655C3.59215 19.6708 5.50338 19.1587 6.99805 20.0217L10.6065 22.105Z" fill="url(#paint8_linear_623_60614)"/>
<path fill-rule="evenodd" clip-rule="evenodd" d="M8.82526 30.9283C8.31925 30.9443 7.89609 30.5471 7.88011 30.0411L7.57419 20.3543L9.4425 21.4329L9.71014 29.9076L9.66702 29.9823C9.44674 30.3639 9.15815 30.6814 8.82561 30.9283C8.8255 30.9283 8.82538 30.9283 8.82526 30.9283ZM5.50245 31.1838L5.13716 19.617C4.47135 19.6814 3.83295 19.9584 3.32825 20.4193L3.63422 30.1077L5.39817 31.1261C5.43271 31.1461 5.46748 31.1653 5.50245 31.1838Z" fill="white" fill-opacity="0.4"/>
<path d="M38.1528 40.8419C37.2457 42.7696 35.3068 44 33.1763 44L10.8236 44C8.69314 44 6.75429 42.7696 5.84713 40.8419L-3.05176e-05 28.4167L44 28.4167L38.1528 40.8419Z" fill="url(#paint9_linear_623_60614)"/>
<path d="M39.1161 33.8415C38.2649 35.4653 36.5626 38.7128 35.7114 40.3366" stroke="white" stroke-opacity="0.6" stroke-width="2" stroke-linecap="round"/>
<path d="M40.6059 31L40.393 31.406" stroke="white" stroke-opacity="0.6" stroke-width="2" stroke-linecap="round"/>
<defs>
<linearGradient id="paint0_linear_623_60614" x1="40.1479" y1="0.535742" x2="35.1391" y2="11.8832" gradientUnits="userSpaceOnUse">
<stop stop-color="#DF8858"/>
<stop offset="1" stop-color="#723319"/>
</linearGradient>
<linearGradient id="paint1_linear_623_60614" x1="33.2001" y1="0.288064" x2="30.4143" y2="12.375" gradientUnits="userSpaceOnUse">
<stop stop-color="#DF8858"/>
<stop offset="1" stop-color="#723319"/>
</linearGradient>
<radialGradient id="paint2_radial_623_60614" cx="0" cy="0" r="1" gradientUnits="userSpaceOnUse" gradientTransform="translate(22 22) rotate(-77.5749) scale(16.8957 17.9043)">
<stop stop-color="white"/>
<stop offset="1" stop-color="#FFCAAB"/>
</radialGradient>
<linearGradient id="paint3_linear_623_60614" x1="37.847" y1="18.245" x2="35.1472" y2="36.234" gradientUnits="userSpaceOnUse">
<stop stop-color="#7CC362"/>
<stop offset="0.653413" stop-color="#038A39"/>
</linearGradient>
<linearGradient id="paint4_linear_623_60614" x1="30.3977" y1="25.7102" x2="30.6855" y2="22.4821" gradientUnits="userSpaceOnUse">
<stop stop-color="#038A39"/>
<stop offset="1" stop-color="#038A39" stop-opacity="0"/>
</linearGradient>
<linearGradient id="paint5_linear_623_60614" x1="23.9756" y1="30.5196" x2="31.1925" y2="26.3529" gradientUnits="userSpaceOnUse">
<stop offset="0.541667" stop-color="#FFA0B7"/>
<stop offset="1" stop-color="#FD4343"/>
</linearGradient>
<linearGradient id="paint6_linear_623_60614" x1="15.7172" y1="28.5692" x2="22.9342" y2="24.4025" gradientUnits="userSpaceOnUse">
<stop offset="0.541667" stop-color="#FFA0B7"/>
<stop offset="1" stop-color="#FD4343"/>
</linearGradient>
<linearGradient id="paint7_linear_623_60614" x1="23.1205" y1="32.6994" x2="30.3375" y2="28.5327" gradientUnits="userSpaceOnUse">
<stop offset="0.541667" stop-color="#FFA0B7"/>
<stop offset="1" stop-color="#FD4343"/>
</linearGradient>
<linearGradient id="paint8_linear_623_60614" x1="6.3552" y1="20.8864" x2="6.3552" y2="29.2198" gradientUnits="userSpaceOnUse">
<stop offset="0.541667" stop-color="#FFA0B7"/>
<stop offset="1" stop-color="#FD4343"/>
</linearGradient>
<linearGradient id="paint9_linear_623_60614" x1="24.3097" y1="23.375" x2="30.8081" y2="41.8813" gradientUnits="userSpaceOnUse">
<stop stop-color="white"/>
<stop offset="1" stop-color="#FFA0B7"/>
</linearGradient>
</defs>
</svg>
