<svg width="44" height="44" viewBox="0 0 44 44" fill="none" xmlns="http://www.w3.org/2000/svg">
<rect x="42.7517" y="35.8862" width="9.70928" height="5.29597" rx="1.76532" transform="rotate(135 42.7517 35.8862)" stroke="black" stroke-width="1.76532"/>
<rect x="11.8586" y="4.9931" width="9.70928" height="5.29597" rx="1.76532" transform="rotate(135 11.8586 4.9931)" stroke="black" stroke-width="1.76532"/>
<circle cx="21.9335" cy="22.0666" r="21.1839" transform="rotate(90 21.9335 22.0666)" fill="url(#paint0_linear_623_60836)"/>
<path d="M21.9311 40.0661C22.9039 40.0661 23.9019 40.5469 24.8356 40.3988C25.7692 40.2506 26.5939 39.4819 27.4968 39.1883C28.3998 38.8948 29.5124 39.0374 30.3594 38.6041C31.2064 38.1708 31.7403 37.1896 32.5119 36.6277C33.2834 36.0658 34.3792 35.8645 35.0557 35.188C35.7322 34.5115 35.9307 33.4213 36.4954 32.6442C37.0601 31.867 38.0357 31.3471 38.4718 30.4917C38.9079 29.6363 38.7569 28.546 39.056 27.6291C39.3552 26.7122 40.1127 25.9295 40.2637 24.9706C40.4146 24.0118 39.931 23.039 39.931 22.0662C39.931 21.0933 40.409 20.0954 40.2637 19.1645C40.1183 18.2336 39.3468 17.4061 39.0533 16.5032C38.7597 15.6003 38.9023 14.4877 38.469 13.6406C38.0357 12.7936 37.0545 12.2597 36.4926 11.4881C35.9307 10.7166 35.7295 9.62078 35.053 8.94428C34.3765 8.26778 33.2862 8.0693 32.5091 7.50462C31.732 6.93994 31.212 5.96433 30.3566 5.52823C29.5012 5.09214 28.4109 5.2431 27.494 4.94398C26.5771 4.64487 25.7916 3.8873 24.8356 3.73635C23.8795 3.58539 22.9039 4.069 21.9311 4.069C20.9583 4.069 19.9603 3.58819 19.0266 3.73635C18.0929 3.8845 17.2683 4.65325 16.3653 4.94678C15.4624 5.2403 14.3498 5.09773 13.5028 5.53103C12.6558 5.96432 12.1218 6.94553 11.3503 7.50742C10.5787 8.0693 9.48291 8.27058 8.80641 8.94708C8.12991 9.62358 7.93143 10.7138 7.36675 11.4909C6.80207 12.2681 5.82645 12.788 5.39036 13.6434C4.95427 14.4989 5.10522 15.5891 4.80611 16.506C4.507 17.4229 3.74663 18.2084 3.59568 19.1673C3.44472 20.1261 3.92834 21.0989 3.92834 22.0717C3.92834 23.0446 3.44752 24.0425 3.59568 24.9762C3.74384 25.9099 4.51259 26.7346 4.80611 27.6375C5.09963 28.5404 4.95706 29.653 5.39036 30.5C5.82366 31.3471 6.80486 31.881 7.36675 32.6526C7.92864 33.4241 8.12991 34.5199 8.80641 35.1964C9.48291 35.8729 10.5731 36.0714 11.3503 36.6361C12.1274 37.2008 12.6474 38.1764 13.5028 38.6125C14.3582 39.0486 15.4484 38.8976 16.3653 39.1967C17.2822 39.4958 18.0678 40.2562 19.0266 40.4071C19.9854 40.5581 20.9583 40.0745 21.9311 40.0745L21.9311 40.0661Z" fill="url(#paint1_linear_623_60836)"/>
<path fill-rule="evenodd" clip-rule="evenodd" d="M34.1416 11.2699C33.751 11.6604 33.1179 11.6604 32.7273 11.2699C32.5753 11.1179 32.3454 10.9898 31.9481 10.8108C31.9037 10.7907 31.856 10.7696 31.8056 10.7474C31.4697 10.5987 31.0165 10.3982 30.6301 10.1175C30.2429 9.83615 29.9126 9.46617 29.6682 9.19245C29.6317 9.1515 29.5971 9.11271 29.5644 9.07669C29.2727 8.75446 29.0806 8.57552 28.8883 8.4775C28.6953 8.37913 28.4379 8.32865 28.0065 8.28136C27.9585 8.2761 27.9071 8.27082 27.8528 8.26526C27.4877 8.22778 26.9946 8.17716 26.5382 8.02826C26.0848 7.88037 25.6596 7.63363 25.3442 7.45064C25.2959 7.42262 25.2502 7.39609 25.2073 7.37164C24.8336 7.15843 24.5945 7.04768 24.376 7.01318C23.8304 6.92705 23.458 6.41499 23.5442 5.86946C23.6303 5.32394 24.1423 4.95152 24.6879 5.03765C25.3023 5.13466 25.8219 5.41969 26.1985 5.63452C26.2577 5.66834 26.3137 5.70051 26.3669 5.73108C26.6974 5.92105 26.9206 6.04928 27.1584 6.12686C27.3971 6.20472 27.6563 6.23241 28.0415 6.27355C28.0995 6.27975 28.1603 6.28625 28.2244 6.29327C28.654 6.34036 29.2443 6.4141 29.7966 6.69566C30.3496 6.97759 30.7567 7.41361 31.0471 7.73436C31.091 7.78289 31.1325 7.82903 31.1721 7.87295C31.431 8.16052 31.6045 8.35329 31.8057 8.49948C32.0077 8.64622 32.2458 8.75275 32.5993 8.91086C32.6534 8.93507 32.7102 8.96048 32.77 8.98744C33.1643 9.16519 33.7041 9.41829 34.1415 9.85565C34.532 10.2462 34.5321 10.8793 34.1416 11.2699ZM32.0287 34.0931C32.3538 34.5395 32.2555 35.165 31.809 35.4901C31.6089 35.6359 31.4338 35.8297 31.1738 36.1175C31.1338 36.1618 31.0918 36.2082 31.0475 36.2571C30.7567 36.5772 30.3486 37.0134 29.8003 37.2939C29.2512 37.5748 28.6569 37.6499 28.2265 37.6977C28.1587 37.7052 28.0946 37.7122 28.0336 37.7188C27.6499 37.7602 27.3924 37.7881 27.1598 37.8637C26.9256 37.9398 26.6979 38.0699 26.3606 38.2627C26.3082 38.2926 26.2532 38.3241 26.1951 38.3571C25.8188 38.5707 25.294 38.8588 24.6886 38.9549C24.1002 39.0482 23.3161 38.9437 22.7969 38.8571C22.5124 38.8096 22.2568 38.7581 22.0725 38.7186C21.9801 38.6988 21.9047 38.6818 21.8517 38.6696L21.7895 38.655L21.772 38.6508L21.7668 38.6496L21.7652 38.6492L21.7646 38.649L21.7644 38.649C21.7643 38.6489 21.7642 38.6489 21.9825 37.7543L21.7642 38.6489C21.2277 38.518 20.8988 37.977 21.0297 37.4404C21.1606 36.9039 21.7016 36.5751 22.2381 36.7059M22.2382 36.7059L22.2404 36.7064L22.252 36.7092L22.3015 36.7208C22.3456 36.7309 22.4107 36.7457 22.492 36.7631C22.6551 36.7981 22.8796 36.8432 23.1261 36.8844C23.6689 36.9749 24.1501 37.0153 24.3752 36.9796C24.5834 36.9466 24.8246 36.8353 25.2077 36.6178C25.2506 36.5934 25.2965 36.567 25.3448 36.5391C25.6641 36.3549 26.0933 36.1074 26.5416 35.9616C26.9902 35.8158 27.4824 35.7647 27.8477 35.7267C27.9035 35.7209 27.9564 35.7154 28.0056 35.7099C28.4411 35.6616 28.7006 35.61 28.8895 35.5133C29.0791 35.4163 29.2727 35.2364 29.5671 34.9123C29.6 34.876 29.635 34.837 29.6719 34.7958C29.9174 34.5218 30.248 34.1527 30.6317 33.8733C31.0782 33.5482 31.7036 33.6466 32.0287 34.0931M8.04461 30.2333C7.55294 30.4849 6.95044 30.2902 6.6989 29.7985C6.41799 29.2494 6.34291 28.6552 6.29508 28.2248C6.28755 28.1571 6.28062 28.0929 6.27403 28.032C6.23254 27.6483 6.2047 27.3908 6.1291 27.1583C6.05297 26.9241 5.92285 26.6964 5.73009 26.3592C5.70014 26.3068 5.66868 26.2517 5.63568 26.1936C5.42207 25.8174 5.13387 25.2926 5.0378 24.6872C4.94138 24.0796 5.05523 23.495 5.143 23.0739C5.15544 23.0143 5.16745 22.9574 5.17893 22.903C5.26004 22.5187 5.31529 22.2569 5.31529 22C5.31529 21.7464 5.26112 21.4927 5.18059 21.1155C5.16846 21.0587 5.15573 20.999 5.1425 20.9362C5.05334 20.5127 4.9405 19.9308 5.03761 19.3139C5.13465 18.6976 5.42069 18.1771 5.63627 17.8001C5.67039 17.7404 5.70284 17.6841 5.73366 17.6306C5.92396 17.3002 6.05206 17.0778 6.12942 16.8407C6.30071 16.3157 6.86521 16.0289 7.39026 16.2002C7.91531 16.3715 8.20208 16.936 8.03079 17.461C7.88278 17.9147 7.63525 18.3403 7.45184 18.6557C7.42367 18.7041 7.39701 18.7499 7.37246 18.7929C7.15875 19.1666 7.04777 19.4059 7.01327 19.625C6.97886 19.8436 7.01095 20.1031 7.09959 20.5241C7.10949 20.5712 7.12044 20.6214 7.13198 20.6744C7.20988 21.032 7.31529 21.5159 7.31529 22C7.31529 22.4844 7.21031 22.9723 7.13249 23.3339C7.12127 23.3861 7.11061 23.4356 7.10091 23.4821C7.01149 23.9111 6.98041 24.1679 7.01308 24.3738C7.04611 24.5818 7.15737 24.823 7.37487 25.2061C7.39928 25.2491 7.42571 25.2949 7.45359 25.3432C7.63782 25.6625 7.88537 26.0916 8.03111 26.5399C8.17696 26.9886 8.22811 27.4807 8.26608 27.846C8.27188 27.9018 8.27737 27.9546 8.28285 28.0039C8.33123 28.4393 8.3828 28.6988 8.47943 28.8876C8.73096 29.3793 8.53629 29.9818 8.04461 30.2333Z" fill="white" fill-opacity="0.4"/>
<rect x="37.6714" y="21.3338" width="8.82661" height="8.82661" rx="2.64798" transform="rotate(120 37.6714 21.3338)" fill="url(#paint2_linear_623_60836)"/>
<rect x="19.9081" y="25.3381" width="8.82661" height="8.82661" rx="2.64798" transform="rotate(75 19.9081 25.3381)" fill="url(#paint3_linear_623_60836)"/>
<rect x="22.8161" y="10.2285" width="8.82661" height="8.82661" rx="2.64798" transform="rotate(105 22.8161 10.2285)" fill="url(#paint4_linear_623_60836)"/>
<path fill-rule="evenodd" clip-rule="evenodd" d="M21.7379 24.0593C24.2644 22.6006 24.7514 20.5894 23.5092 18.4378C22.8093 17.2256 23.8518 15.3135 25.064 14.6136C26.2762 13.9138 28.4533 13.967 29.1532 15.1792C31.9102 19.9546 30.857 24.6474 24.8994 28.087C20.1528 30.8275 14.6162 29.1032 11.8591 24.3278C11.1593 23.1156 11.219 21.7709 11.8461 21.4088C12.4732 21.0467 13.6677 21.6674 14.3676 22.8796C15.6098 25.0311 19.2113 25.518 21.7379 24.0593Z" fill="url(#paint5_radial_623_60836)"/>
<path fill-rule="evenodd" clip-rule="evenodd" d="M26.6286 15.5715C27.1414 15.3664 27.7234 15.6158 27.9285 16.1286C29.1936 19.2915 28.8086 21.9331 27.5114 23.9332C26.2464 25.8838 24.1906 27.1091 22.2833 27.6725C21.7536 27.8289 21.1974 27.5263 21.041 26.9967C20.8845 26.467 21.1871 25.9108 21.7168 25.7544C23.2901 25.2897 24.8905 24.2989 25.8334 22.8449C26.7441 21.4406 27.1188 19.4895 26.0715 16.8714C25.8664 16.3586 26.1158 15.7767 26.6286 15.5715ZM18.0077 26.876C18.0762 26.328 18.576 25.9392 19.124 26.0077C19.225 26.0204 19.3288 26.03 19.4353 26.0366C19.9866 26.0705 20.4059 26.545 20.3719 27.0962C20.338 27.6474 19.8636 28.0668 19.3123 28.0328C19.1654 28.0237 19.0198 28.0103 18.876 27.9923C18.328 27.9238 17.9392 27.424 18.0077 26.876Z" fill="white" fill-opacity="0.5"/>
<defs>
<linearGradient id="paint0_linear_623_60836" x1="21.9334" y1="12.9879" x2="37.8716" y2="44.8646" gradientUnits="userSpaceOnUse">
<stop stop-color="#343536"/>
<stop offset="1" stop-color="#BCBEC0"/>
</linearGradient>
<linearGradient id="paint1_linear_623_60836" x1="24.2732" y1="10.1506" x2="37.389" y2="33.1098" gradientUnits="userSpaceOnUse">
<stop stop-color="#FF8000"/>
<stop offset="1" stop-color="#D56B2A"/>
</linearGradient>
<linearGradient id="paint2_linear_623_60836" x1="38.5783" y1="27.6178" x2="44.6936" y2="24.0872" gradientUnits="userSpaceOnUse">
<stop offset="0.541667" stop-color="#FDB813"/>
<stop offset="1" stop-color="#FF8000"/>
</linearGradient>
<linearGradient id="paint3_linear_623_60836" x1="20.9679" y1="27.4995" x2="26.4485" y2="32.6232" gradientUnits="userSpaceOnUse">
<stop offset="0.541667" stop-color="#FDB813"/>
<stop offset="1" stop-color="#FF8000"/>
</linearGradient>
<linearGradient id="paint4_linear_623_60836" x1="27.2294" y1="10.2285" x2="27.2294" y2="19.0551" gradientUnits="userSpaceOnUse">
<stop offset="0.541667" stop-color="#FDB813"/>
<stop offset="1" stop-color="#FF8000"/>
</linearGradient>
<radialGradient id="paint5_radial_623_60836" cx="0" cy="0" r="1" gradientUnits="userSpaceOnUse" gradientTransform="translate(24.6698 21.1273) rotate(159.864) scale(11.569 22.8435)">
<stop stop-color="#038A39"/>
<stop offset="1" stop-color="#B2EF76"/>
</radialGradient>
</defs>
</svg>
