<svg xmlns="http://www.w3.org/2000/svg" xmlnsXlink="http://www.w3.org/1999/xlink" style="display: none;"><symbol viewBox="0 0 24 24" id="arrow" xmlns="http://www.w3.org/2000/svg"><path fill="none" d="M0 0h24v24H0z"/><path fill="currentColor" d="M21.09 11.98l-6.55 6.54L12.07 21l-2.48-2.48L3 11.93l2.48-2.47s2.87 3.15 4.82 5.3V3h3.5v11.8c1.94-2.13 4.81-5.29 4.81-5.29l2.48 2.47zm0 0"/></symbol><symbol viewBox="0 0 24 24" id="bag" xmlns="http://www.w3.org/2000/svg"><path fill="none" d="M0 0h24v24H0z"/><path fill="currentColor" d="M21 18.28L19.8 7h-2.74c0-2.79-2.27-5.06-5.06-5.06-2.79 0-5.06 2.27-5.06 5.06H4.2L3 18.28v-.02c-.12 1.39.91 2.61 2.29 2.73.12.01.24.02.35.01h12.72c1.39.07 2.57-.99 2.64-2.38.01-.12.01-.24 0-.36v.02zM12 4.5c1.4 0 2.54 1.12 2.56 2.52L9.44 7v.02C9.46 5.62 10.6 4.5 12 4.5zM8.12 12c-.83 0-1.5-.67-1.5-1.5S7.29 9 8.12 9s1.5.67 1.5 1.5-.67 1.5-1.5 1.5zm7.76 0c-.83 0-1.5-.67-1.5-1.5s.67-1.5 1.5-1.5 1.5.67 1.5 1.5-.67 1.5-1.5 1.5zm0 0"/></symbol><symbol viewBox="0 0 24 24" id="bell" xmlns="http://www.w3.org/2000/svg"><path fill="none" d="M0 0h24v24H0z"/><path fill="currentColor" d="M20.71 13.21l-.49-.21c-1.23-.65-1.74-.84-1.74-2.24V8.51c.13-3.61-2.7-6.64-6.31-6.76-3.61-.13-6.63 2.7-6.76 6.31-.01.15-.01.3 0 .45v2.21c0 1.39-.27 1.59-1.5 2.24l-.48.26c-.27.22-.42.55-.42.9V16H21v-2a.858.858 0 0 0-.29-.79zM8.55 18v.02c.3 1.9 2.09 3.2 4 2.9a3.501 3.501 0 0 0 2.91-2.96L8.55 18zm0 0"/></symbol><symbol viewBox="0 0 24 24" id="bike" xmlns="http://www.w3.org/2000/svg"><path fill="none" d="M0 0h24v24H0z"/><path fill="currentColor" d="M5.9 14.22c-2.15 0-3.9 1.75-3.9 3.9s1.75 3.9 3.9 3.9 3.9-1.75 3.9-3.9v-.03a3.94 3.94 0 0 0-3.94-3.87h.04zM22 18c0 2.21-1.79 4-4 4s-4-1.79-4-4 1.79-4 4-4 4 1.79 4 4zM15.85 3.99c0 1.1-.9 2-2 2s-2-.9-2-2 .9-2 2-2 2 .9 2 2zm1.71 7.91v-2c-2.51.09-3.47-1.19-4.44-2.38-.77-.82-1.45-1.56-2.7-1.47-.39 0-.77.46-.87.55l-2.7 3c-.5.58-.44 1.45.14 1.96.02.01.04.03.06.04l3.37 2.4.76 4h1.62v-4.94l.06.06c-.71-.78-1.49-1.5-2.33-2.13l1.35-1.63c1.06 1.28 2.2 2.72 5.68 2.54zm0 0"/></symbol><symbol viewBox="0 0 24 24" id="bolt" xmlns="http://www.w3.org/2000/svg"><path fill="none" d="M0 0h24v24H0z"/><path fill="currentColor" d="M10.56 23v-9h-6l10-13v9h5l-9 13zm0 0"/></symbol><symbol fill="none" viewBox="0 0 24 24" id="briefcase" xmlns="http://www.w3.org/2000/svg"><path fill-rule="evenodd" clip-rule="evenodd" d="M10.2 4.768h3.6v.885h-3.6v-.885zm9 .885v-.885h-1.8v.885h-1.8V3.884A.892.892 0 0 0 14.7 3H9.3c-.497 0-.9.396-.9.884v1.769H6.6v-.885H4.8v.885c-.993 0-1.8.793-1.8 1.768v10.61c0 .976.807 1.769 1.8 1.769h14.4c.994 0 1.8-.793 1.8-1.768V7.422c0-.976-.806-1.77-1.8-1.77z" fill="currentColor"/></symbol><symbol viewBox="0 0 24 24" id="calendar" xmlns="http://www.w3.org/2000/svg"><path fill="none" d="M0 0h24v24H0z"/><path fill="currentColor" d="M21 6h-3V3h-3v3H9V3H6v3H3v15h18V6zm-2.54 6H5.52V8.55h12.94V12zm0 0"/></symbol><symbol viewBox="0 0 24 24" id="camera" xmlns="http://www.w3.org/2000/svg"><path fill="none" d="M0 0h24v24H0z"/><path fill="currentColor" d="M15.5 12.5c0 1.93-1.57 3.5-3.5 3.5s-3.5-1.57-3.5-3.5S10.07 9 12 9s3.5 1.57 3.5 3.5zM17 6l-2.12-3h-6L7 6H3v14h18V6h-4zm-5 12c-3.04 0-5.5-2.46-5.5-5.5S8.96 7 12 7s5.5 2.46 5.5 5.5S15.04 18 12 18zm0 0"/></symbol><symbol viewBox="0 0 24 24" id="car" xmlns="http://www.w3.org/2000/svg"><path fill="none" d="M0 0h24v24H0z"/><path fill="currentColor" d="M18.9 4c-.21-.6-.77-1-1.41-1H6.47c-.64 0-1.21.41-1.41 1.01L3 11v9c0 .55.45 1 1 1h1c.55 0 1-.45 1-1v-1.46h12V20c0 .55.45 1 1 1h1c.55 0 1-.45 1-1v-9l-2.1-7zM6.72 15.85c-.93 0-1.69-.76-1.69-1.69 0-.93.76-1.69 1.69-1.69.93 0 1.69.76 1.69 1.69 0 .93-.76 1.69-1.69 1.69zm10.48 0c-.93 0-1.69-.76-1.69-1.69 0-.93.76-1.69 1.69-1.69.93 0 1.69.76 1.69 1.69v-.01c.03.93-.7 1.72-1.63 1.75h-.06v-.05zM6 9.84L7.33 5.5h9.36L18 9.84H6zm0 0"/></symbol><symbol viewBox="0 0 24 24" id="caret" xmlns="http://www.w3.org/2000/svg"><path fill="none" d="M0 0h24v24H0z"/><path fill="currentColor" d="M18.6 7.51l2.48 2.47-6.6 6.6-2.47 2.47-2.47-2.47-6.55-6.55 2.48-2.47 6.54 6.54 6.59-6.59zm0 0"/></symbol><symbol viewBox="0 0 24 24" id="caret-pair" xmlns="http://www.w3.org/2000/svg"><path fill="none" d="M0 0h24v24H0z"/><path fill="currentColor" d="M12.05 2l-1.93 1.92L5 9.05l1.92 1.92 5.12-5.12 5.08 5.07L19.05 9l-5.08-5.08-.9-.89L12.05 2zM5.06 14.99l5.05 5.05 1.91 1.91 1.9-1.89 5.05-5.05-1.92-1.91-5.04 5.05-5.06-5.06-1.89 1.9zm0 0"/></symbol><symbol viewBox="0 0 24 24" id="chat" xmlns="http://www.w3.org/2000/svg"><path fill="none" d="M0 0h24v24H0z"/><path fill="currentColor" d="M6.86 18.72C3.95 17.15 2 14.28 2 11c0-4.97 4.48-9 10-9s10 4.03 10 9-4.48 9-10 9l-5.14 3.21v-4.49zm9.43-6.15c.78 0 1.42-.64 1.42-1.43 0-.79-.64-1.43-1.42-1.43a1.43 1.43 0 1 0 0 2.86zm-4.29 0a1.43 1.43 0 1 0 0-2.86 1.43 1.43 0 0 0 0 2.86zm-4.3 0h.01a1.43 1.43 0 0 0 .03-2.86 1.43 1.43 0 0 0-1.45 1.41c-.02.79.61 1.44 1.4 1.45h.01zm0 0"/></symbol><symbol viewBox="0 0 24 24" id="check" xmlns="http://www.w3.org/2000/svg"><path fill="none" d="M0 0h24v24H0z"/><path fill="currentColor" d="M10.04 13.9l8.55-8.55 2.47 2.47-8.55 8.55-2.47 2.48-7.07-7.07 2.48-2.47 4.59 4.59zm0 0"/></symbol><symbol viewBox="0 0 24 24" id="chef-hat" xmlns="http://www.w3.org/2000/svg"><path fill="none" d="M0 0h24v24H0z"/><path fill="currentColor" d="M5.98 21h12v-3h-12v3zm12.2-15.51h-.03c-.48.03-.96.11-1.42.25l.03-.05c-.7-2.63-3.4-4.18-6.03-3.48l.02-.01a4.712 4.712 0 0 0-3.52 3.53v-.01c-1.91-.81-4.13.08-4.94 2-.82 1.92.08 4.13 2 4.95l.03.01c.54.22 1.12.33 1.71.32L6 16h12v-3h.01c2.1 0 3.84-1.63 3.99-3.72v-.01c.04-2.05-1.6-3.74-3.65-3.78h-.17zm0 0"/></symbol><symbol viewBox="0 0 24 24" id="clock" xmlns="http://www.w3.org/2000/svg"><path fill="none" d="M0 0h24v24H0z"/><path fill="currentColor" d="M12 2C6.48 2 2 6.48 2 12s4.48 10 10 10 10-4.48 10-10S17.52 2 12 2zm0 17c-3.87 0-7-3.13-7-7s3.13-7 7-7 7 3.13 7 7-3.13 7-7 7zm1.48-11.46h-3V13h.03l3.36 3.36 2.12-2.12-2.51-2.51V7.54zm0 0"/></symbol><symbol viewBox="0 0 24 24" id="clock-back" xmlns="http://www.w3.org/2000/svg"><path fill="none" d="M0 0h24v24H0z"/><path fill="currentColor" d="M10.49 7.53v5.46h.02l3.36 3.36 2.12-2.12-2.5-2.51V7.53h-3zM12 2C6.48 2 2 6.48 2 12H0l3.48 3.46L7 12H5v-.02c0-3.86 3.13-7 7-7s7 3.14 7 7a6.995 6.995 0 0 1-12.28 4.59l-2.08 2.14-.02-.02a10 10 0 0 0 14.13.74c4.1-3.69 4.43-10.02.74-14.12C17.59 3.2 14.89 2 12.05 2H12zm0 0"/></symbol><symbol viewBox="0 0 24 24" id="cog" xmlns="http://www.w3.org/2000/svg"><path fill="none" d="M0 0h24v24H0z"/><path fill="currentColor" d="M19.86 12v.06c0-.33-.02-.66-.06-.98L22 9.25l-2.61-4.5-2.61 1-.01-.01c-.53-.4-1.12-.73-1.74-.98L14.61 2H9.39L9 4.77l.03-.01c-.61.24-1.19.56-1.72.95l-2.69-.94L2 9.25 4.21 11l-.01.07c-.04.33-.06.67-.06 1 .01.34.03.67.08 1L2 14.75l2.61 4.51 2.61-1 .01.01c.53.4 1.12.73 1.74.98L9.39 22h5.22l.4-2.77-.03.01c.61-.24 1.19-.56 1.72-.95l2.69.94L22 14.75 19.79 13l-.01.06c.05-.32.07-.65.08-.98V12zM12 16c-2.21 0-4-1.79-4-4s1.79-4 4-4 4 1.79 4 4-1.79 4-4 4zm0 0"/></symbol><symbol viewBox="0 0 24 24" id="compass" xmlns="http://www.w3.org/2000/svg"><path fill="none" d="M0 0h24v24H0z"/><path fill="currentColor" d="M2 12.5L21 3l-9.5 19v-9.5H2zm0 0"/></symbol><symbol viewBox="0 0 24 24" id="copy" xmlns="http://www.w3.org/2000/svg"><g data-name="Layer 2"><g data-name="icon-copy 2"><path fill="none" d="M0 0h24v24H0z"/><path fill="currentColor" d="M12 8H9v13h11V8zm5 10h-5v-7h5z"/><path fill="currentColor" d="M15 6V3H4v13h3V6h8z"/></g></g></symbol><symbol viewBox="0 0 24 24" id="credit-card" xmlns="http://www.w3.org/2000/svg"><path fill="none" d="M0 0h24v24H0z"/><path fill="currentColor" d="M3 8h18V4.98H3V8zm0 2v9h18v-9H3zm7 7H5v-2h5v2zm0 0"/></symbol><symbol viewBox="0 0 24 24" id="diamond" xmlns="http://www.w3.org/2000/svg"><g fill="none" fill-rule="evenodd"><path fill="none" d="M0 0h24v24H0z"/><path d="M19.82 4.13l3.18 4L12 22 1 8.14l3.18-4-.01.01A3.02 3.02 0 0 1 6.53 3h10.94c.93 0 1.8.43 2.37 1.15l-.02-.02zm-7.91 9l.63 1.87.62-1.87 1.84-.6-1.88-.62-.58-1.91-.63 1.88-1.91.65 1.91.6zm-5.54-3.5L7.5 13l1.13-3.37L12 8.5 8.63 7.37 7.5 4 6.37 7.37 3 8.5l3.37 1.13z" fill="currentColor"/></g></symbol><symbol viewBox="0 0 24 24" id="dollar-sign" xmlns="http://www.w3.org/2000/svg"><path fill="none" d="M0 0h24v24H0z"/><path fill="currentColor" d="M13.52 2v2.4C15.6 4.89 17 6.37 17 9h-3.35c0-1.16-.19-1.88-2-1.79-.91.04-1.37.47-1.37 1.13 0 .12.02.24.06.35.16.46.65.77 1.31 1.07l.61.24c2.07.83 4.99 1.66 5 5.05 0 2.35-1.42 3.93-3.74 4.42V22h-3v-2.45c-2.68-.48-4.19-2.35-4.19-4.89h3.35c.11 1.28.55 2 2.55 2 1.2-.02 1.72-.5 1.72-1.39 0-.89-.72-1.37-1.72-1.81l-.61-.26C9.59 12.4 7 11.52 7 8.3c0-.78.18-1.44.5-2 .58-1.03 1.66-1.67 3.02-1.91V2h3zm0 0"/></symbol><symbol viewBox="0 0 24 24" id="download" xmlns="http://www.w3.org/2000/svg"><path fill="none" d="M0 0h24v24H0z"/><path fill="currentColor" d="M10.55 3v7.49l-3.9-4.14-2.07 2.07L12.06 16l7.51-7.6-2.07-2.07-3.95 4.19V3h-3zM3 21h18v-3H3v3zm0 0"/></symbol><symbol viewBox="0 0 24 24" id="ellipsis" xmlns="http://www.w3.org/2000/svg"><path fill="none" d="M0 0h24v24H0z"/><path fill="currentColor" d="M19.5 14.5a2.5 2.5 0 0 1 0-5 2.5 2.5 0 0 1 0 5zm-7.5 0a2.5 2.5 0 0 1 0-5 2.5 2.5 0 0 1 0 5zm-7.53 0h-.01A2.501 2.501 0 1 1 7 12a2.5 2.5 0 0 1-2.5 2.5h-.03zm0 0"/></symbol><symbol viewBox="0 0 24 24" id="envelope" xmlns="http://www.w3.org/2000/svg"><path fill="none" d="M0 0h24v24H0z"/><path fill="currentColor" d="M21 5H3l9 6 9-6zm-9 8.63l-9-6v11.38h18V7.63l-9 6zm0 0"/></symbol><symbol viewBox="0 0 24 24" id="exclamation" xmlns="http://www.w3.org/2000/svg"><path fill="none" d="M0 0h24v24H0z"/><path fill="currentColor" d="M12 2C6.48 2 2 6.48 2 12s4.48 10 10 10 10-4.48 10-10S17.52 2 12 2zm2 4l-1 8h-2l-1-8h4zm-.78 12.87l.01-.01c-.31.32-.74.5-1.18.49h-.01c-.93.08-1.74-.6-1.82-1.53-.08-.92.6-1.74 1.53-1.82.08 0 .17-.01.26 0 .44-.01.87.17 1.18.49l-.01-.01c.64.67.64 1.72 0 2.39h.04zm0 0"/></symbol><symbol viewBox="0 0 24 24" id="face-happy" xmlns="http://www.w3.org/2000/svg"><path fill="none" d="M0 0h24v24H0z"/><path fill="currentColor" d="M12 2C6.48 2 2 6.48 2 12s4.48 10 10 10 10-4.48 10-10S17.52 2 12 2zM6 8.07c.03-.61.56-1.09 1.18-1.06.51.03.94.4 1.04.91v.02c.11-.61.69-1.02 1.3-.91.5.09.88.51.92 1.02 0 1.22-2.22 2.95-2.22 2.95S6 9.27 6 8.07zm6 9.51A4.58 4.58 0 0 1 7.42 13h9.16A4.58 4.58 0 0 1 12 17.58zM15.78 11s-2.22-1.73-2.22-2.93c.03-.61.56-1.09 1.18-1.06.51.03.94.4 1.04.91v.02c.11-.61.69-1.02 1.3-.91.5.09.88.51.92 1.02C18 9.27 15.78 11 15.78 11zm0 0"/></symbol><symbol viewBox="0 0 24 24" id="face-sad" xmlns="http://www.w3.org/2000/svg"><path fill="none" d="M0 0h24v24H0z"/><path fill="currentColor" d="M12 2C6.48 2 2 6.48 2 12s4.48 10 10 10 10-4.48 10-10S17.52 2 12 2zM6 9c0-1.1.9-2 2-2s2 .9 2 2-.9 2-2 2-2-.9-2-2zm1.42 8v-.03c.13-2.53 2.29-4.47 4.83-4.34 2.37.13 4.26 2.05 4.34 4.42L7.42 17zM16 11c-1.1 0-2-.9-2-2s.9-2 2-2 2 .9 2 2-.9 2-2 2zm0 0"/></symbol><symbol viewBox="0 0 24 24" id="facebook" xmlns="http://www.w3.org/2000/svg"><path fill-rule="evenodd" fill="currentColor" d="M19.12 4H4.88C4.4 4 4 4.4 4 4.88v14.24c0 .48.4.88.88.88h7.67v-6.2h-2.09v-2.41h2.09V9.61c0-2.07 1.26-3.19 3.1-3.19.62-.01 1.25.03 1.87.09v2.16h-1.28c-1.01 0-1.2.48-1.2 1.18v1.54h2.39l-.31 2.41h-2.08V20h4.08c.48 0 .88-.4.88-.88V4.88c0-.48-.4-.88-.88-.88zm0 0"/></symbol><symbol viewBox="0 0 24 24" id="flag" xmlns="http://www.w3.org/2000/svg"><path fill="none" d="M0 0h24v24H0z"/><path fill="currentColor" d="M16.37 6V4.13v.01c.01-.62-.48-1.13-1.1-1.14H8v10h4.83c.62-.02 1.15.47 1.17 1.09V16h7V6h-4.63zM3 21V3h3v18H3zm0 0"/></symbol><symbol viewBox="0 0 24 24" id="flash-auto" xmlns="http://www.w3.org/2000/svg"><path fill="none" d="M0 0h24v24H0z"/><path fill="currentColor" d="M20.51 7.23h-3l-.56 1.59H15L18.08 1h1.83L23 8.82h-1.93l-.56-1.59zM20 5.69l-1-2.77-1 2.77h2zM9.06 23v-9h-6l10-13v9h5l-9 13zm0 0"/></symbol><symbol viewBox="0 0 24 24" id="flash-none" xmlns="http://www.w3.org/2000/svg"><path fill="none" d="M0 0h24v24H0z"/><path fill="currentColor" d="M19.73 19.59L5.87 5.72 4.45 7.14l3.06 3.06L4.59 14h6v9l3.98-5.75L18.32 21l1.41-1.41zM19.59 10h-5V1L9.98 6.98l6.91 6.91 2.7-3.89zm0 0"/></symbol><symbol viewBox="0 0 24 24" id="friends" xmlns="http://www.w3.org/2000/svg"><path fill="none" d="M0 0h24v24H0z"/><path fill="currentColor" d="M19.07 16.94a2.08 2.08 0 0 0-2.34-.29 3.57 3.57 0 0 1-1.72.43 3.73 3.73 0 0 1-1.76-.44 2.17 2.17 0 0 0-2.46.32A5.46 5.46 0 0 0 9 21h11.88a5.47 5.47 0 0 0-1.81-4.06z"/><circle fill="currentColor" cx="15.06" cy="12.23" r="3.23"/><circle fill="currentColor" cx="8.06" cy="6.23" r="3.23"/><path fill="currentColor" d="M10.52 14.77a5.26 5.26 0 0 1-.69-2.54 5.28 5.28 0 0 1 .31-1.72 2 2 0 0 0-.41.14 3.5 3.5 0 0 1-1.73.43 3.73 3.73 0 0 1-1.76-.44 2.16 2.16 0 0 0-2.45.36A5.47 5.47 0 0 0 2 15h8.1zM23 5h-2V3h-2v2h-2v2h2v2h2V7h2V5z"/></symbol><symbol viewBox="0 0 24 24" id="garbage" xmlns="http://www.w3.org/2000/svg"><path fill="none" d="M0 0h24v24H0z"/><path fill="currentColor" d="M5 10h14l-1 11H6L5 10zm11-5h2.84-.01c.65.02 1.17.56 1.17 1.21V8H4V6.21C4 5.54 4.54 5 5.21 5H8l1-2h6l1 2zm0 0"/></symbol><symbol viewBox="0 0 37 20" id="gh-plus" xmlns="http://www.w3.org/2000/svg"><g fill-rule="nonzero" fill="none"><path d="M36.267 20H.35A.35.35 0 0 1 0 19.632V.368A.354.354 0 0 1 .351 0h35.931a.366.366 0 0 1 .351.521l-4.121 9.525a.353.353 0 0 0 0 .306l4.075 9.189a.369.369 0 0 1-.32.459z" fill="currentColor"/><path d="M28.746 8.286h-2.601V5.673a.177.177 0 0 0 0-.117l-.19.029H24.04a.175.175 0 0 0-.19.161v2.54H21.25a.16.16 0 0 0-.132 0 .28.28 0 0 0 0 .118v2.011c0 .098.079.176.176.176h2.601v2.614c.003.049.03.093.073.117a.16.16 0 0 0 .117 0h1.87a.175.175 0 0 0 .19-.161v-2.57h2.602a.19.19 0 0 0 .132 0 .472.472 0 0 0 0-.132V8.521a.177.177 0 0 0-.132-.235zM8.806 3.475a3.748 3.748 0 0 0-1.05-.139 3.245 3.245 0 0 0-2.466.99A3.86 3.86 0 0 0 4.453 7v4.887a3.892 3.892 0 0 0 .853 2.675 3.245 3.245 0 0 0 2.465.99c.355.003.708-.043 1.05-.14a2.898 2.898 0 0 0 1.415-.85 3.829 3.829 0 0 0 .868-2.675V9.197a.203.203 0 0 0-.063-.148.196.196 0 0 0-.15-.053H7.969a.214.214 0 0 0-.213.201v1.995a.214.214 0 0 0 .213.2h.76v.45c.02.346-.077.69-.273.974a.832.832 0 0 1-.7.324.817.817 0 0 1-.685-.324 1.565 1.565 0 0 1-.274-.975V7.017c-.016-.342.08-.68.274-.96a.817.817 0 0 1 .685-.324.832.832 0 0 1 .7.325c.193.28.29.617.274.959v.463a.17.17 0 0 0 .076.14h2.085a.18.18 0 0 0 .134-.044.187.187 0 0 0 .064-.126V7c.06-.972-.251-1.93-.868-2.675a3.034 3.034 0 0 0-1.415-.85zM18.722 3.333h-1.955a.181.181 0 0 0-.166.112.237.237 0 0 0 0 .097v4.564h-2.03V3.542a.203.203 0 0 0-.197-.209h-1.955a.203.203 0 0 0-.197.209v11.74c0 .115.088.208.197.208h1.955a.203.203 0 0 0 .196-.208v-4.725h2v4.805a.237.237 0 0 0 0 .096.165.165 0 0 0 .167.097h1.954a.176.176 0 0 0 .145-.056.199.199 0 0 0 .052-.153V3.542a.205.205 0 0 0-.166-.209z" fill="#FFF"/></g></symbol><symbol viewBox="0 0 24 24" id="gift" xmlns="http://www.w3.org/2000/svg"><path fill="none" d="M0 0h24v24H0z"/><path fill="currentColor" d="M17.57 7H21v3H3V7h3.76l.01.01A3.66 3.66 0 0 1 6 4.72v.03C6 3.25 7.2 2.03 8.7 2h.03c1.55 0 2.93.98 3.43 2.45h.02C12.68 2.98 14.06 2 15.61 2h-.01c1.52 0 2.75 1.23 2.75 2.75v.01c0 .83-.28 1.63-.8 2.27l.02-.03zm-7.22-1.39v.01c0-.89-.73-1.62-1.62-1.62h-.01a.75.75 0 0 0-.72.75v-.01c0 .88.71 1.6 1.59 1.62h.76v-.75zm4.38.75h.01c.89 0 1.62-.73 1.62-1.62A.749.749 0 0 0 15.6 4h-.01c-.88.02-1.59.74-1.59 1.62v.74h.73zM4 21v-9h7v9H4zm9 0v-9h7v9h-7zm0 0"/></symbol><symbol viewBox="0 0 24 24" id="google" xmlns="http://www.w3.org/2000/svg"><path fill-rule="evenodd" fill="currentColor" d="M3.02 11.55c.08-4.64 4.35-8.7 9-8.54 2.22-.11 4.31.86 6.02 2.22-.73.82-1.48 1.62-2.29 2.36-2.05-1.41-4.96-1.82-7.01-.18-2.93 2.02-3.06 6.8-.25 8.98 2.75 2.48 7.93 1.25 8.69-2.55-1.72-.03-3.44 0-5.16-.06 0-1.02-.01-2.05 0-3.07 2.87-.01 5.74-.01 8.61.01.17 2.41-.14 4.97-1.62 6.96-2.25 3.15-6.75 4.07-10.26 2.72-3.53-1.34-6.02-5.06-5.73-8.85zm0 0"/></symbol><symbol viewBox="0 0 24 24" id="heart" xmlns="http://www.w3.org/2000/svg"><path fill="none" d="M0 0h24v24H0z"/><path fill="currentColor" d="M12 21.07S2 13.3 2 7.9C2 2.76 9.78.53 12 7.27 14.22.53 22 2.76 22 7.9c0 5.41-10 13.17-10 13.17zm0 0"/></symbol><symbol fill="none" viewBox="0 0 24 24" id="heart-outline" xmlns="http://www.w3.org/2000/svg"><path fill-rule="evenodd" clip-rule="evenodd" d="M3.57 12.787c1.728 2.64 4.117 4.865 6.538 6.86.586.483 1.892 1.177 1.892 1.177s1.176-.589 1.893-1.177c2.422-1.993 4.81-4.218 6.536-6.857C21.3 11.46 22 9.952 22 8.459c0-2.876-2.257-4.84-4.673-5.215a5.523 5.523 0 0 0-3.733.729c-.595.362-1.317 1.226-1.593 1.933-.294-.726-.998-1.57-1.594-1.933a5.523 5.523 0 0 0-3.732-.729C4.258 3.618 2 5.583 2 8.46c0 1.49.701 3 1.57 4.328zm1.928-3.4c-.196-1.336.833-2.681 2.24-2.681 1.82 0 3.71 2.498 4.262 4.019.57-1.508 2.405-4.02 4.223-4.02 1.485 0 2.53 1.12 2.28 2.682-.279 1.724-2.146 3.589-3.431 4.873a90.78 90.78 0 0 0-.313.313A33.43 33.43 0 0 1 12 17.044a35.164 35.164 0 0 1-2.759-2.475l-.326-.327c-1.276-1.273-3.167-3.16-3.417-4.856z" fill="currentColor"/></symbol><symbol viewBox="0 0 24 24" id="hide-password" xmlns="http://www.w3.org/2000/svg"><g fill="none"><path d="M0 0h24v24H0V0zm0 0h24v24H0V0zm0 0h24v24H0V0zm0 0h24v24H0V0z"/><path fill="currentColor" d="M12 7c2.76 0 5 2.24 5 5 0 .65-.13 1.26-.36 1.83l2.92 2.92c1.51-1.26 2.7-2.89 3.43-4.75-1.73-4.39-6-7.5-11-7.5-1.4 0-2.74.25-3.98.7l2.16 2.16C10.74 7.13 11.35 7 12 7zM2 4.27l2.28 2.28.46.46A11.804 11.804 0 0 0 1 12c1.73 4.39 6 7.5 11 7.5 1.55 0 3.03-.3 4.38-.84l.42.42L19.73 22 21 20.73 3.27 3 2 4.27zM7.53 9.8l1.55 1.55c-.05.21-.08.43-.08.65 0 1.66 1.34 3 3 3 .22 0 .44-.03.65-.08l1.55 1.55c-.67.33-1.41.53-2.2.53-2.76 0-5-2.24-5-5 0-.79.2-1.53.53-2.2zm4.31-.78l3.15 3.15.02-.16c0-1.66-1.34-3-3-3l-.17.01z"/></g></symbol><symbol viewBox="0 0 24 24" id="info" xmlns="http://www.w3.org/2000/svg"><path fill="none" d="M0 0h24v24H0z"/><path fill="currentColor" d="M12 2C6.48 2 2 6.48 2 12s4.48 10 10 10 10-4.48 10-10S17.52 2 12 2zm1.5 16h-3v-7h3v7zM12 9c-.97 0-1.75-.78-1.75-1.75S11.03 5.5 12 5.5s1.75.78 1.75 1.75S12.97 9 12 9zm0 0"/></symbol><symbol viewBox="0 0 24 24" id="instagram" xmlns="http://www.w3.org/2000/svg"><path fill="none" d="M0 0h24v24H0z"/><path fill="currentColor" d="M15.63 3H8.37C5.4 3 3 5.4 3 8.37v7.26C3 18.6 5.4 21 8.37 21h7.26C18.6 21 21 18.6 21 15.63V8.37C21 5.4 18.6 3 15.63 3zm3.44 12.42c0 2.02-1.63 3.65-3.65 3.65H8.58c-2.02 0-3.65-1.63-3.65-3.65V8.58v.01c0-2.02 1.63-3.65 3.65-3.65h6.83c2.02 0 3.65 1.63 3.65 3.65l.01 6.83zM12 7.5c-2.49 0-4.5 2.01-4.5 4.5s2.01 4.5 4.5 4.5 4.5-2.01 4.5-4.5-2.01-4.5-4.5-4.5zm0 6.94c-1.35 0-2.44-1.09-2.44-2.44 0-1.35 1.09-2.44 2.44-2.44 1.35 0 2.44 1.09 2.44 2.44 0 1.35-1.09 2.44-2.44 2.44zm5.74-7c0 .57-.47 1.04-1.04 1.04-.57 0-1.04-.47-1.04-1.04 0-.57.47-1.04 1.04-1.04.57 0 1.04.47 1.04 1.04zm0 0"/></symbol><symbol viewBox="0 0 24 24" id="keylock" xmlns="http://www.w3.org/2000/svg"><path fill="none" d="M0 0h24v24H0z"/><path fill="currentColor" d="M9.56 6.85v1.59C10.32 8.15 11.14 8 12 8c.86 0 1.68.15 2.44.44-.01-.83-.01-1.55-.01-1.55a2.445 2.445 0 0 0-2.26-2.31c-1.35-.09-2.52.92-2.61 2.27zm.71 6.14c-.55.95-.23 2.18.73 2.73V18h2v-2.28a1.995 1.995 0 0 0 0-3.46c-.96-.56-2.18-.23-2.73.73zM17 7v3.1c1.24 1.26 2 2.99 2 4.9 0 3.87-3.13 7-7 7s-7-3.13-7-7c0-1.91.76-3.64 2-4.9V7c0-2.76 2.24-5 5-5s5 2.24 5 5zm0 0"/></symbol><symbol viewBox="0 0 24 24" id="list" xmlns="http://www.w3.org/2000/svg"><path fill="none" d="M0 0h24v24H0z"/><path fill="currentColor" d="M8.99 19.54h12.86v-3H8.99v3zm-2.14-1.5a2.5 2.5 0 0 1-5 0 2.5 2.5 0 0 1 5 0zm2.11-4.5h12.89v-3H8.96v3zm-2.11-1.5a2.5 2.5 0 0 1-5 0 2.5 2.5 0 0 1 5 0zm2.13-4.5h12.88v-3H8.98v3zm-2.13-1.5a2.5 2.5 0 0 1-5 0 2.5 2.5 0 0 1 5 0zm0 0"/></symbol><symbol viewBox="0 0 24 24" id="megaphone" xmlns="http://www.w3.org/2000/svg"><path fill="none" d="M0 0h24v24H0z"/><path fill="currentColor" d="M3 14h3V6H3v8zM21 3L8.02 6v8l5 7h3.86l-4.42-6.32 8.54 1.5V3zm0 0"/></symbol><symbol viewBox="0 0 24 24" id="minus" xmlns="http://www.w3.org/2000/svg"><path fill="none" d="M0 0h24v24H0z"/><path fill="currentColor" d="M21 13.75H3v-3.5h18v3.5zm0 0"/></symbol><symbol viewBox="0 0 24 24" id="pause" xmlns="http://www.w3.org/2000/svg"><path fill="none" d="M0 0h24v24H0z"/><path fill="currentColor" d="M3.98 20.99h6v-18h-6v18zm10 0h6v-18h-6v18zm0 0"/></symbol><symbol viewBox="0 0 24 24" id="paypal" xmlns="http://www.w3.org/2000/svg"><path fill="none" d="M0 0h24v24H0z"/><path fill="currentColor" d="M16.47 8.29c-.66 3.16-2.8 4.26-5.52 4.26h-1.4c-.33 0-.62.24-.67.57v-.14l-.74 4.7h-3a.41.41 0 0 1-.41-.4v-.07l2-12.63c.05-.36.37-.61.73-.58h4.78c5.45 0 4.24 4.26 4.23 4.29zm1.28.92v-.02a5.258 5.258 0 0 1-5.3 4.53h-1.37c-.33 0-.62.24-.67.57l-.59 4.01-.2 1.29c-.03.2.11.38.31.41h2.56a.6.6 0 0 0 .59-.51v-.13l.34-2.39v-.16a.6.6 0 0 1 .59-.51h.37-.04a4.988 4.988 0 0 0 4.8-3.96l.01-.06c.24-1-.03-2.05-.7-2.82-.2-.22-.43-.4-.69-.53.03.07.01.18-.01.28zm0 0"/></symbol><symbol viewBox="0 0 24 24" id="pencil" xmlns="http://www.w3.org/2000/svg"><path fill="none" d="M0 0h24v24H0z"/><path fill="currentColor" d="M14.66 5.1L16.77 3l4.24 4.23-2.11 2.11-4.24-4.24zm-9.4 10.92l3.43 3.43L3 21l1.55-5.67.71.69zm.68-2.19l7.33-7.34 4.23 4.24-7.33 7.33-4.23-4.23zm0 0"/></symbol><symbol viewBox="0 0 24 24" id="people" xmlns="http://www.w3.org/2000/svg"><g fill="currentColor" fill-rule="evenodd"><path d="M5.5 4.95a7.707 7.707 0 0 0-.92 3.667 7.66 7.66 0 0 0 2.376 5.57c-1.2 1.314-1.983 3.09-2.178 5.034H1.4c0-2.31 1.14-4.3 2.782-5.206A4.774 4.774 0 0 1 5.5 4.95zM18.506 4.95a7.707 7.707 0 0 1 .92 3.667 7.66 7.66 0 0 1-2.376 5.57c1.199 1.314 1.983 3.09 2.178 5.034h3.378c0-2.31-1.14-4.3-2.782-5.206a4.774 4.774 0 0 0-1.318-9.065z"/><path fill="currentColor" d="M10.646 14.068C8.32 13.443 6.6 11.242 6.6 8.623 6.6 5.518 9.018 3 12 3s5.4 2.518 5.4 5.623c0 2.619-1.72 4.82-4.046 5.445 2.243.72 3.896 3.184 3.896 6.114H6.75c0-2.93 1.653-5.394 3.896-6.114z"/></g></symbol><symbol viewBox="0 0 24 24" id="person" xmlns="http://www.w3.org/2000/svg"><path fill="none" d="M0 0h24v24H0z"/><path fill="currentColor" d="M17.5 7.5c0 3.04-2.46 5.5-5.5 5.5s-5.5-2.46-5.5-5.5S8.96 2 12 2s5.5 2.46 5.5 5.5zm.5 7.09l.01.01c-.93-.73-2.2-.82-3.22-.23l.02-.01c-1.72.95-3.81.93-5.51-.05l.04.02c-1.01-.6-2.28-.54-3.22.17l.04-.03A8.241 8.241 0 0 0 3 20.95L21 21v-.05c0-2.49-1.12-4.84-3.05-6.4l.05.04zm0 0"/></symbol><symbol viewBox="0 0 24 24" id="phone" xmlns="http://www.w3.org/2000/svg"><path fill="none" d="M0 0h24v24H0z"/><path fill="currentColor" d="M20 14h-5c-.55 0-1 .45-1 1v2.33h-.03a8.398 8.398 0 0 1-7.31-7.31L9 10c.55 0 1-.45 1-1V4c0-.55-.45-1-1-1H4c-.55 0-1 .45-1 1v6l.01.08c.51 5.88 5.23 10.52 11.11 10.93L14 21h6c.55 0 1-.45 1-1v-5c0-.55-.45-1-1-1zm0 0"/></symbol><symbol viewBox="0 0 24 24" id="platter" xmlns="http://www.w3.org/2000/svg"><path fill="none" d="M0 0h24v24H0z"/><path fill="currentColor" d="M21 17.21a9 9 0 0 0-18 0H1v3h22v-3h-2zm-16.08 0c0-3.87 3.13-7 7-7v2c-2.76 0-5 2.24-5 5h-2zM9 6.69h6V4H9v2.69zm0 0"/></symbol><symbol viewBox="0 0 24 24" id="play" xmlns="http://www.w3.org/2000/svg"><path fill="none" d="M0 0h24v24H0z"/><path fill="currentColor" d="M4 3l17.99 8.99-17.99 9V3zm0 0"/></symbol><symbol viewBox="0 0 24 24" id="plus" xmlns="http://www.w3.org/2000/svg"><path fill="none" d="M0 0h24v24H0z"/><path fill="currentColor" d="M13.75 3v7.25H21v3.5h-7.25V21h-3.5v-7.25H3v-3.5h7.25V3h3.5zm0 0"/></symbol><symbol viewBox="0 0 24 24" id="position" xmlns="http://www.w3.org/2000/svg"><path fill="none" d="M0 0h24v24H0z"/><path fill="currentColor" d="M12 12c-1.49 0-2.7-1.21-2.7-2.7 0-1.49 1.21-2.7 2.7-2.7 1.49 0 2.7 1.21 2.7 2.7 0 1.49-1.21 2.7-2.7 2.7zM4.54 9c0 5 7.44 12.89 7.44 12.89S19.42 13.94 19.42 9v-.05A7.2 7.2 0 0 0 11.97 2h.02a7.198 7.198 0 0 0-7.45 6.94v.13V9zm0 0"/></symbol><symbol viewBox="0 0 24 24" id="printer" xmlns="http://www.w3.org/2000/svg"><path fill="none" d="M0 0h24v24H0z"/><path fill="currentColor" d="M21 10v8h-2v3H5v-3H3v-8h18zm-2-2h-3V6H8.05v2H5V3h14v5zm-3.09 10v-3.75H8V18h7.91zm0 0"/></symbol><symbol viewBox="0 0 24 24" id="prize" xmlns="http://www.w3.org/2000/svg"><path fill="none" d="M0 0h24v24H0z"/><path fill="currentColor" d="M12 5C9.51 5 7.5 7.01 7.5 9.5S9.51 14 12 14s4.5-2.01 4.5-4.5S14.49 5 12 5zm7.5 4.5c0 2-.78 3.81-2.05 5.16.81 1.42 2.75 4.81 2.75 4.81l-3.77-.14-2.46 2.61s-1.56-4.35-1.78-4.94h-.35c-.22.6-1.79 4.94-1.79 4.94L7.6 19.33l-3.78.14s1.92-3.36 2.75-4.8A7.46 7.46 0 0 1 4.5 9.5C4.5 5.36 7.86 2 12 2c4.14 0 7.5 3.36 7.5 7.5zm0 0"/></symbol><symbol viewBox="0 0 24 24" id="receipt" xmlns="http://www.w3.org/2000/svg"><path fill="none" d="M0 0h24v24H0z"/><path fill="currentColor" d="M18 4l-2-1-2 1-2-1-2 1-2-1-2 1-2-1v18l2-1 2 1 2-1 2 1 2-1 2 1 2-1 2 1V3l-2 1zm-7 13H6v-2h5v2zm3-4H6v-2h8v2zm0-4H6V7h8v2zm4 4h-2v-2h2v2zm0 4h-4v-2h4v2zm0-8h-2V7h2v2zm0 0"/></symbol><symbol viewBox="0 0 24 24" id="recurrence" xmlns="http://www.w3.org/2000/svg"><path fill="none" d="M0 0h24v24H0z"/><path fill="currentColor" d="M7 1.458V0l4 3-4 3V4.672A7.009 7.009 0 0 0 3 11c0 1.744.64 3.378 1.755 4.637.32.362.757.76 1.309 1.193l-2.03 2.195A9.985 9.985 0 0 1 0 11c0-4.478 2.943-8.268 7-9.542zm6 19.084V22l-4-3 4-3v1.26c.114-.029.254-.059.311-.09a7.009 7.009 0 0 0 2.13-10.576c-.48-.591-.967-1.065-1.462-1.42l2.228-2.015A9.982 9.982 0 0 1 20 11c0 4.478-2.943 8.268-7 9.542z"/></symbol><symbol viewBox="0 0 24 24" id="ribbon" xmlns="http://www.w3.org/2000/svg"><path fill="none" d="M0 0h24v24H0z"/><path fill="currentColor" d="M5 2.98v18.1L12 16l7 5.08V2.98H5zm0 0"/></symbol><symbol viewBox="0 0 24 24" id="search" xmlns="http://www.w3.org/2000/svg"><path fill="none" d="M0 0h24v24H0z"/><path fill="currentColor" d="M10 5c-2.76 0-5 2.24-5 5s2.24 5 5 5 5-2.24 5-5-2.24-5-5-5zm8 5c0 1.64-.49 3.17-1.34 4.44 1.37 1.37 4.45 4.44 4.45 4.44l-2.13 2.13s-3.05-3.06-4.42-4.43C13.26 17.47 11.69 18 10 18c-4.42 0-8-3.58-8-8s3.58-8 8-8 8 3.58 8 8zm0 0"/></symbol><symbol viewBox="0 0 24 24" id="share" xmlns="http://www.w3.org/2000/svg"><path fill="none" d="M0 0h24v24H0z"/><path fill="currentColor" d="M21 6.5c0 1.93-1.57 3.5-3.5 3.5-.94 0-1.79-.37-2.42-.97-1.76.95-3.82 2.05-5.6 3.01 1.73.96 3.74 2.06 5.5 3.03.46-.48 1.07-.83 1.75-.98.25-.06.5-.09.77-.09 1.93 0 3.5 1.57 3.5 3.5S19.43 21 17.5 21c-1.77 0-3.23-1.31-3.47-3.02l-6.16-3.4A3.504 3.504 0 0 1 2 12c0-1.93 1.57-3.5 3.5-3.5.3 0 .58.04.86.11.59.14 1.13.45 1.56.86 1.93-1.04 4.21-2.26 6.09-3.27.15-1.79 1.66-3.2 3.49-3.2C19.43 3 21 4.57 21 6.5zm0 0"/></symbol><symbol viewBox="0 0 24 24" id="show-password" xmlns="http://www.w3.org/2000/svg"><g fill="none"><path d="M0 0h24v24H0z"/><path fill="currentColor" d="M12 4.5C7 4.5 2.73 7.61 1 12c1.73 4.39 6 7.5 11 7.5s9.27-3.11 11-7.5c-1.73-4.39-6-7.5-11-7.5zM12 17c-2.76 0-5-2.24-5-5s2.24-5 5-5 5 2.24 5 5-2.24 5-5 5zm0-8c-1.66 0-3 1.34-3 3s1.34 3 3 3 3-1.34 3-3-1.34-3-3-3z"/></g></symbol><symbol viewBox="0 0 31 20" id="sl-plus" xmlns="http://www.w3.org/2000/svg"><g fill="none" fill-rule="evenodd"><path d="M.732 0C.082 0 0 .26 0 .91v18.34c0 .65.083.75.732.75H30.108a.373.373 0 0 0 .33-.53l-4.18-9.113a.38.38 0 0 1-.004-.312L30.448.523a.369.369 0 0 0-.33-.523H.733z" fill="currentColor"/><path d="M16.705 11.782l.002 2.161c0 .054.028.1.07.132a.212.212 0 0 0 .127.043h2.022c.109 0 .198-.079.198-.175v-2.732h.572v-.002l2.162-.001c.053 0 .1-.03.132-.072a.212.212 0 0 0 .042-.126V8.988c0-.109-.078-.198-.174-.198h-2.734v-.572h-.002l-.001-2.162c0-.053-.029-.099-.071-.131a.211.211 0 0 0-.127-.043h-2.021c-.11 0-.198.079-.198.174V8.791h-.571v.001l-2.162.001a.166.166 0 0 0-.132.072.211.211 0 0 0-.042.126v2.021c0 .11.078.199.174.199h2.733v.57h.001z" fill="#FFF"/><path d="M4.064 11.692v1.505c0 1.879 2.029 2.846 4.11 2.846 2.08 0 4.307-.997 4.307-3.662 0-2.212-1.702-2.943-3.404-3.565-1.014-.375-1.935-.72-1.935-1.523 0-.604.583-.804 1.2-.804.618 0 1.294.248 1.294.707v.737h2.501V6.2c0-1.492-1.889-2.242-3.795-2.242s-4.01.816-4.01 3.42c0 2.14 1.417 2.907 2.915 3.511 1.165.496 2.407.774 2.407 1.674 0 .604-.624.949-1.498.949s-1.609-.345-1.609-.949v-.87H4.064z" fill="#FFF" fill-rule="nonzero"/></g></symbol><symbol viewBox="0 0 24 24" id="sliders" xmlns="http://www.w3.org/2000/svg"><path fill="none" d="M0 0h24v24H0z"/><path fill="currentColor" d="M3 10.54h2.73v3H3v-3zm12 0h6v3h-6v-3zm7-5A2.501 2.501 0 1 1 19.5 3 2.5 2.5 0 0 1 22 5.5v.04zM13 12a2.5 2.5 0 0 1-5 0 2.5 2.5 0 0 1 5 0zM3 4h12v3H3V4zm19 14.5a2.5 2.5 0 0 1-5 0 2.5 2.5 0 0 1 5 0zM3 17h12v3H3v-3zm0 0"/></symbol><symbol viewBox="0 0 24 24" id="sort" xmlns="http://www.w3.org/2000/svg"><path fill="none" d="M0 0h24v24H0z"/><path fill="currentColor" d="M1.95 19h8v-3h-8v3zm0-6h8v-3h-8v3zM2 7.01h19v-3H2v3zm13.49 8.48V9.01h3v6.51l2.44-2.68L23 14.91 17.01 21l-6-6.09 2.08-2.07 2.4 2.65zm0 0"/></symbol><symbol viewBox="0 0 24 24" id="spinner" xmlns="http://www.w3.org/2000/svg"><path fill="none" d="M0 0h24v24H0z"/><path fill="currentColor" d="M12 22v-3c3.87 0 7-3.13 7-7s-3.13-7-7-7-7 3.13-7 7H2C2 6.48 6.48 2 12 2s10 4.48 10 10-4.48 10-10 10zm0 0"/></symbol><symbol viewBox="0 0 24 24" id="star" xmlns="http://www.w3.org/2000/svg"><path fill="none" d="M0 0h24v24H0z"/><path fill="currentColor" d="M16.55 14.37l5.96-4.73h-7.73L11.99 2 9.24 9.64H1.47l6 4.73-1.98 7.64 6.5-4.72 6.5 4.72-1.94-7.64zm0 0"/></symbol><symbol viewBox="0 0 24 24" id="star-half" xmlns="http://www.w3.org/2000/svg"><path fill="none" d="M0 0h24v24H0z"/><path fill="currentColor" d="M11.99 2.82c.01 3.32.01 8.94.01 14.04-.01-.01-5.98 4.33-5.98 4.33l1.82-7.02-5.51-4.33h7.13s.47-1.29 1-2.77c.67-1.85 1.44-3.99 1.52-4.23l.01-.02zm0 0"/></symbol><symbol viewBox="0 0 24 24" id="tag" xmlns="http://www.w3.org/2000/svg"><path fill="none" d="M0 0h24v24H0z"/><path fill="currentColor" d="M13 22l9-9L12 3H3v9l10 10zM7.79 5.79c1.1 0 2 .9 2 2s-.9 2-2 2-2-.9-2-2 .9-2 2-2zm0 0"/></symbol><symbol viewBox="0 0 24 24" id="top-hat" xmlns="http://www.w3.org/2000/svg"><path fill="none" d="M0 0h24v24H0z"/><path fill="currentColor" d="M20 16.1c-.9.6-1.9 1.1-3 1.3L19 4c-2.3-.7-4.6-1-7-1-2.4 0-4.7.3-7 1l1.9 13.4c-1.1-.2-2.1-.7-3-1.3L2 18.4C4 20 7.7 21 12 21s8-1 10-2.6l-2-2.3zM9.4 17.9L7.5 5.5c.4.1 1.9.1 2.2 0l2 12.5s-1.6 0-2.3-.1zm0 0"/></symbol><symbol viewBox="0 0 24 24" id="trophy" xmlns="http://www.w3.org/2000/svg"><path fill="none" d="M0 0h24v24H0z"/><path fill="currentColor" d="M17 4V3H7v1H3v4.49-.01c-.03 1.54.73 2.99 2.01 3.86l5.54 3.58V18H6v3h12v-3h-4.5v-2.11l5.5-3.56-.01.01A4.567 4.567 0 0 0 21 8.48V4h-4zM5.19 8.49v-1.8H7V10v-.01c0 .26.03.52.08.78L6 10c-.51-.34-.81-.91-.81-1.52v.01zm13.62 0v-.01c0 .61-.3 1.18-.81 1.52l-1.11 1c.07-.35.11-.69.11-1.04V6.69h1.81v1.8zm0 0"/></symbol><symbol viewBox="0 0 24 24" id="twitter" xmlns="http://www.w3.org/2000/svg"><path fill="currentColor" d="M9.03 18c6.04 0 9.34-5 9.34-9.34 0-.14 0-.28-.01-.42.64-.47 1.2-1.04 1.64-1.7-.6.26-1.23.44-1.89.51.69-.41 1.2-1.05 1.45-1.81-.65.38-1.35.65-2.09.79a3.28 3.28 0 0 0-3.94-.64c-1.31.7-1.99 2.19-1.65 3.64A9.329 9.329 0 0 1 5.11 5.6c-.87 1.5-.42 3.42 1.02 4.38-.52-.01-1.03-.16-1.49-.41v.04c0 1.56 1.1 2.91 2.63 3.22-.48.13-.99.15-1.48.06a3.3 3.3 0 0 0 3.07 2.28 6.55 6.55 0 0 1-4.08 1.4c-.26 0-.52-.01-.78-.04C5.5 17.49 7.25 18 9.03 18"/></symbol><symbol viewBox="0 0 24 24" id="upload" xmlns="http://www.w3.org/2000/svg"><path fill="none" d="M0 0h24v24H0z"/><path fill="currentColor" d="M3 21h18v-3H3v3zm7.55-5V8.51l-3.9 4.14-2.07-2.07L12.06 3l7.51 7.6-2.07 2.08-3.95-4.2V16h-3zm0 0"/></symbol><symbol viewBox="0 0 24 24" id="utensils" xmlns="http://www.w3.org/2000/svg"><path fill="none" d="M0 0h24v24H0z"/><path fill="currentColor" d="M16 7.93v8h2v5h3v-18c-2.76 0-5 2.24-5 5zm-4.77-.53v.01c0 .93-.47 1.8-1.25 2.3L10 2.93H7V9.7l.02.01a2.742 2.742 0 0 1-1.29-2.27V2.93H3v4.5c0 2.45 1.63 4.61 3.98 5.29L7 20.93h3v-8.22h.02A5.517 5.517 0 0 0 14 7.42V2.93h-2.77V7.4zm0 0"/></symbol><symbol viewBox="0 0 24 24" id="verification" xmlns="http://www.w3.org/2000/svg"><path fill="currentColor" d="M12.678 2.626l1.084 1a1 1 0 0 0 .899.241l1.439-.324a1 1 0 0 1 1.174.678l.439 1.409a1 1 0 0 0 .657.657l1.409.439a1 1 0 0 1 .678 1.174l-.324 1.44a1 1 0 0 0 .24.898l1.001 1.084a1 1 0 0 1 0 1.356l-1 1.084a1 1 0 0 0-.241.898l.324 1.44a1 1 0 0 1-.678 1.174l-1.409.439a1 1 0 0 0-.657.657l-.439 1.409a1 1 0 0 1-1.174.678l-1.44-.324a1 1 0 0 0-.898.24l-1.084 1.001a1 1 0 0 1-1.356 0l-1.084-1a1 1 0 0 0-.899-.241l-1.439.324a1 1 0 0 1-1.174-.678l-.439-1.409a1 1 0 0 0-.657-.657l-1.409-.439a1 1 0 0 1-.678-1.174l.324-1.44a1 1 0 0 0-.24-.898l-1.001-1.084a1 1 0 0 1 0-1.356l1-1.084a1 1 0 0 0 .241-.899L3.543 7.9a1 1 0 0 1 .678-1.174l1.409-.439a1 1 0 0 0 .657-.657l.439-1.409A1 1 0 0 1 7.9 3.543l1.44.324a1 1 0 0 0 .898-.24l1.084-1.001a1 1 0 0 1 1.356 0zm3.184 5.29l-4.988 4.988-2.677-2.677-1.447 1.44 4.124 4.125 1.441-1.447 4.988-4.988-1.441-1.44z"/></symbol><symbol viewBox="0 0 24 24" id="walk" xmlns="http://www.w3.org/2000/svg"><path fill="none" d="M0 0h24v24H0z"/><path fill="currentColor" d="M15.39 3.93c0 1.07-.86 1.93-1.93 1.93a1.925 1.925 0 0 1-1.76-2.72A1.939 1.939 0 0 1 13.46 2c1.07 0 1.93.86 1.93 1.93zM14 7.16l.87 1.14a4.35 4.35 0 0 0 3.79 2.11l-.03 2.23c-1.8.1-3.56-.6-4.82-1.9-.01-.01-.38 1.8-.38 1.8l1.7 1.87c.17.17.27.4.27.63V21h-2.58v-4.65c-.02-.33-.18-.64-.44-.85-.05-.05-.45-.48-.9-.96L9.66 21H7.09s.35-1.4.8-3.17c.54-2.14 1.21-4.81 1.56-6.18 0-.07.01-.15.03-.22.01-.03.07-.31.15-.68C9.78 10.03 10 9 10 9l-1.53.59c-.17.06-.28.23-.28.41v2.47H6V8.91a.9.9 0 0 1 .54-.8s2.28-1.16 4.06-1.62c.44-.12.84-.19 1.18-.19l.25-.02c.74.05 1.44.36 1.97.88zm0 0"/></symbol><symbol viewBox="0 0 24 24" id="x" xmlns="http://www.w3.org/2000/svg"><path fill="none" d="M0 0h24v24H0z"/><path fill="currentColor" d="M17.76 3.77l2.48 2.48s-2.72 2.72-5.77 5.76c3.05 3.04 5.77 5.76 5.77 5.76l-2.48 2.48s-2.72-2.72-5.76-5.77c-3.04 3.05-5.76 5.77-5.76 5.77l-2.48-2.48s2.72-2.72 5.77-5.76C6.48 8.97 3.76 6.25 3.76 6.25l.92-.92 1.56-1.56S8.96 6.49 12 9.54c3.04-3.05 5.76-5.77 5.76-5.77zm0 0"/></symbol><symbol viewBox="0 0 24 24" id="youtube" xmlns="http://www.w3.org/2000/svg"><path fill="currentColor" d="M20.13 8.72s-.16-1.15-.66-1.65c-.63-.66-1.33-.66-1.66-.7C15.49 6.2 12 6.2 12 6.2s-3.49 0-5.81.17c-.32.04-1.03.04-1.66.7-.5.5-.66 1.65-.66 1.65s-.17 1.34-.17 2.69v1.25c0 1.35.17 2.69.17 2.69s.16 1.15.66 1.65c.63.66 1.46.64 1.83.71 1.32.13 5.64.17 5.64.17s3.49-.01 5.81-.18c.33-.04 1.03-.04 1.66-.7.5-.5.66-1.65.66-1.65s.17-1.34.17-2.69v-1.25c0-1.35-.17-2.69-.17-2.69zm-9.84 5.47V9.53l4.48 2.34-4.48 2.32zm0 0"/></symbol></svg>