<svg width="44" height="44" viewBox="0 0 44 44" fill="none" xmlns="http://www.w3.org/2000/svg">
<circle cx="24.7501" cy="24.7501" r="19.2501" fill="url(#paint0_linear_623_61097)"/>
<circle cx="19.2501" cy="19.2501" r="19.2501" fill="url(#paint1_linear_623_61097)"/>
<path d="M35.6066 19.2524C35.6066 18.3683 36.0435 17.4615 35.9089 16.613C35.7742 15.7646 35.0757 15.0152 34.8089 14.1947C34.5422 13.3742 34.6718 12.3631 34.278 11.5934C33.8843 10.8237 32.9926 10.3385 32.482 9.63742C31.9715 8.93631 31.7886 7.94052 31.1738 7.32577C30.5591 6.71102 29.5684 6.53067 28.8622 6.01753C28.156 5.50439 27.6835 4.61784 26.9061 4.22156C26.1288 3.82527 25.1381 3.96245 24.3049 3.69064C23.4717 3.41883 22.7604 2.73041 21.8891 2.59324C21.0178 2.45606 20.1338 2.89553 19.2498 2.89553C18.3657 2.89553 17.4589 2.46115 16.613 2.59324C15.767 2.72533 15.0151 3.42645 14.1946 3.69318C13.3741 3.95991 12.3631 3.83035 11.5934 4.2241C10.8237 4.61784 10.3385 5.50947 9.63736 6.02007C8.93624 6.53067 7.94046 6.71356 7.32571 7.32831C6.71096 7.94306 6.5306 8.93377 6.01747 9.63996C5.50433 10.3462 4.61778 10.8186 4.22149 11.596C3.82521 12.3733 3.96239 13.364 3.69058 14.1972C3.41877 15.0304 2.73035 15.7442 2.59318 16.613C2.456 17.4818 2.89547 18.3683 2.89547 19.2524C2.89547 20.1364 2.45854 21.0433 2.59318 21.8917C2.72781 22.7402 3.42639 23.4895 3.69312 24.31C3.95985 25.1306 3.83029 26.1416 4.22403 26.9113C4.61778 27.681 5.50941 28.1662 6.02001 28.8673C6.5306 29.5684 6.7135 30.5642 7.32825 31.179C7.943 31.7937 8.9337 31.9741 9.6399 32.4872C10.3461 33.0003 10.8186 33.8869 11.5959 34.2832C12.3732 34.6795 13.3639 34.5423 14.1972 34.8141C15.0304 35.0859 15.7442 35.7769 16.6155 35.914C17.4868 36.0512 18.3708 35.6117 19.2548 35.6117C20.1389 35.6117 21.0457 36.0487 21.8942 35.914C22.7426 35.7794 23.492 35.0808 24.3125 34.8141C25.133 34.5474 26.1441 34.6769 26.9138 34.2832C27.6835 33.8894 28.1687 32.9978 28.8698 32.4872C29.5709 31.9766 30.5667 31.7937 31.1814 31.179C31.7962 30.5642 31.9765 29.5735 32.4897 28.8673C33.0028 28.1611 33.8894 27.6886 34.2856 26.9113C34.6819 26.134 34.5448 25.1433 34.8166 24.31C35.0884 23.4768 35.7793 22.763 35.9165 21.8917C36.0537 21.0204 35.6142 20.1364 35.6142 19.2524H35.6066Z" fill="white"/>
<path d="M30.8002 19.2506C30.8002 24.1357 27.7674 28.3124 23.4819 30.0007C21.2563 30.8774 19.2503 28.8613 19.2503 26.4693V12.032C19.2503 9.63992 21.2563 7.62379 23.4819 8.50056C27.7674 10.1888 30.8002 14.3655 30.8002 19.2506Z" fill="url(#paint2_linear_623_61097)"/>
<path d="M19.2504 20.8379V16.3423L27.0739 10.754C27.9758 11.5849 28.7451 12.5576 29.3465 13.6367L19.399 20.7421C19.3505 20.7767 19.3009 20.8087 19.2504 20.8379Z" fill="white" fill-opacity="0.4"/>
<path d="M30.5428 21.6869C30.7114 20.9015 30.8002 20.0864 30.8002 19.2506C30.8002 18.528 30.7339 17.821 30.6069 17.1351L19.2504 25.2469V26.4693C19.2504 27.4683 19.6002 28.4017 20.1699 29.0862C20.2194 29.0574 20.268 29.026 20.3156 28.9921L30.5428 21.6869Z" fill="white" fill-opacity="0.4"/>
<path d="M8.33288 15.4703C7.63722 17.4796 9.42375 19.2506 11.5501 19.2506H15.3999C17.5262 19.2506 19.2499 17.5273 19.2499 15.401C19.2499 14.3791 19.2499 13.2255 19.2499 12.0324C19.2499 9.64031 17.2439 7.62382 15.0183 8.50058C11.8943 9.73129 9.43593 12.2844 8.33288 15.4703Z" fill="url(#paint3_linear_623_61097)"/>
<path d="M15.4697 30.1674C17.4789 30.863 19.25 29.0765 19.25 26.9502L19.25 23.1004C19.25 20.9741 17.5266 19.2504 15.4003 19.2504C14.3784 19.2504 13.2249 19.2504 12.0317 19.2504C9.63964 19.2504 7.62315 21.2564 8.49991 23.482C9.73061 26.606 12.2837 29.0643 15.4697 30.1674Z" fill="url(#paint4_linear_623_61097)"/>
<defs>
<linearGradient id="paint0_linear_623_61097" x1="24.7501" y1="39.8752" x2="29.2435" y2="46.4111" gradientUnits="userSpaceOnUse">
<stop stop-color="#343536"/>
<stop offset="1" stop-color="#BCBEC0"/>
</linearGradient>
<linearGradient id="paint1_linear_623_61097" x1="19.2501" y1="11.0002" x2="33.7334" y2="39.967" gradientUnits="userSpaceOnUse">
<stop stop-color="#343536"/>
<stop offset="1" stop-color="#BCBEC0"/>
</linearGradient>
<linearGradient id="paint2_linear_623_61097" x1="25.0253" y1="7.70078" x2="25.0253" y2="30.8005" gradientUnits="userSpaceOnUse">
<stop stop-color="#FDB813"/>
<stop offset="1" stop-color="#FF9248"/>
</linearGradient>
<linearGradient id="paint3_linear_623_61097" x1="18.3333" y1="18.7919" x2="11" y2="13.7502" gradientUnits="userSpaceOnUse">
<stop stop-color="#A7D382"/>
<stop offset="1" stop-color="#038A39"/>
</linearGradient>
<linearGradient id="paint4_linear_623_61097" x1="11" y1="25.2086" x2="18.7917" y2="20.1669" gradientUnits="userSpaceOnUse">
<stop stop-color="#B2EF76"/>
<stop offset="1" stop-color="#E1ED9C"/>
</linearGradient>
</defs>
</svg>
