<svg width="44" height="44" viewBox="0 0 44 44" fill="none" xmlns="http://www.w3.org/2000/svg">
<path d="M7.88704 7.09417C13.8955 1.64185 23.069 1.66689 29.0476 7.15193C35.631 13.1919 35.8529 23.5009 29.5353 29.8184L20.9401 38.4137L2.6153 20.0889C0.27241 17.746 0.36519 13.9198 2.81888 11.6932L7.88704 7.09417Z" fill="#F89C1B"/>
<path d="M34.5807 18.8172C31.3651 21.9486 26.4774 22.266 23.6638 19.526C23.1836 19.0584 22.7949 18.5319 22.4963 17.9648C21.867 16.7693 20.5305 15.856 19.183 15.7577C18.49 15.7072 17.8009 15.5499 17.1353 15.2767C16.3992 14.9746 15.4997 15.179 14.9865 15.7871C13.9524 17.0125 12.538 17.884 10.8812 18.1827C6.84976 18.9095 2.91055 15.9687 2.08276 11.6142C1.25496 7.25974 3.85204 3.14057 7.88351 2.41379C9.24957 2.16751 10.605 2.34236 11.8325 2.85062C13.0875 3.37032 14.6931 3.11791 15.6837 2.18846C17.8389 0.16639 20.8732 -0.592301 23.532 0.499102C25.1914 1.18029 26.4232 2.4667 27.1192 4.04605C27.6915 5.34464 29.1292 6.31629 30.5483 6.32209C32.3287 6.32937 34.032 6.94317 35.3085 8.18621C38.1221 10.9262 37.7962 15.6859 34.5807 18.8172Z" fill="url(#paint0_linear_623_61108)"/>
<path d="M32.6873 22.5594C35.5618 21.3854 36.7206 17.5656 35.2756 14.0278C34.0096 10.9281 31.1647 9.07321 28.5462 9.45101C26.9619 6.324 23.7123 4.70461 21.015 5.80633C20.1664 6.15292 19.4674 6.73005 18.9407 7.46243C17.1343 5.489 14.551 4.68835 12.398 5.66343C10.5068 6.51991 9.42646 8.52955 9.38933 10.808C7.24245 10.0374 4.97851 10.3396 3.50932 11.8087C1.31374 14.0043 1.72448 17.9748 4.42673 20.6771C7.12899 23.3793 11.0995 23.79 13.295 21.5945C14.1338 20.7557 14.5922 19.658 14.6878 18.4709C15.8341 18.8016 17.0251 18.7601 18.1073 18.27C18.8528 17.9323 19.4723 17.4155 19.9516 16.7737C21.3864 18.3527 23.3265 19.1787 25.1561 18.9148C26.7404 22.0418 29.99 23.6612 32.6873 22.5594Z" fill="url(#paint1_linear_623_61108)"/>
<path d="M36.3826 26.0868C39.2571 24.9127 40.4159 21.0929 38.9709 17.5551C37.7049 14.4555 34.8601 12.6006 32.2416 12.9783C30.6573 9.85134 27.4077 8.23195 24.7104 9.33367C23.8619 9.68026 23.1628 10.2574 22.6361 10.9898C20.8298 9.01634 18.2465 8.21569 16.0934 9.19078C14.2023 10.0473 13.1219 12.0569 13.0848 14.3353C10.9379 13.5647 8.67394 13.8669 7.20475 15.3361C5.00917 17.5317 5.41991 21.5021 8.12217 24.2044C10.8244 26.9067 14.7949 27.3174 16.9905 25.1218C17.8292 24.2831 18.2876 23.1854 18.3832 21.9983C19.5295 22.3289 20.7205 22.2874 21.8028 21.7973C22.5483 21.4597 23.1678 20.9429 23.647 20.301C25.0818 21.88 27.0219 22.706 28.8515 22.4421C30.4357 25.5691 33.6853 27.1885 36.3826 26.0868Z" fill="url(#paint2_linear_623_61108)"/>
<path fill-rule="evenodd" clip-rule="evenodd" d="M7.14153 12.1233C7.72416 12.2204 8.11776 12.7714 8.02066 13.3541L7.08656 18.9587C6.98945 19.5413 6.43841 19.9349 5.85578 19.8378C5.27314 19.7407 4.87954 19.1896 4.97665 18.607L5.91074 13.0024C6.00785 12.4198 6.55889 12.0262 7.14153 12.1233Z" fill="url(#paint3_linear_623_61108)"/>
<path fill-rule="evenodd" clip-rule="evenodd" d="M9.13458 7.32913C9.17154 6.73961 9.67939 6.29167 10.2689 6.32862L15.9397 6.68408C16.5292 6.72103 16.9771 7.22889 16.9402 7.8184C16.9032 8.40792 16.3954 8.85586 15.8058 8.81891L10.1351 8.46345C9.54557 8.4265 9.09763 7.91864 9.13458 7.32913Z" fill="url(#paint4_linear_623_61108)"/>
<path fill-rule="evenodd" clip-rule="evenodd" d="M29.2126 5.35352C29.4527 5.8932 29.2098 6.52533 28.6701 6.76542L23.5231 9.05524C22.9834 9.29534 22.3513 9.05248 22.1112 8.5128C21.8711 7.97313 22.114 7.341 22.6536 7.10091L27.8007 4.81108C28.3403 4.57099 28.9725 4.81385 29.2126 5.35352Z" fill="url(#paint5_linear_623_61108)"/>
<path d="M14.5184 15.4784C14.8271 15.1697 15.1213 14.852 15.401 14.5262L15.4399 14.565C21.7095 8.61949 31.6128 8.72006 37.7595 14.8668C44.0085 21.1157 44.0085 31.2473 37.7595 37.4963L32.9278 42.328C30.6985 44.5573 27.0839 44.5573 24.8546 42.328L2.23352 19.7069C4.46355 21.9279 8.07175 21.925 10.2983 19.6985L14.5184 15.4784Z" fill="url(#paint6_linear_623_61108)"/>
<path fill-rule="evenodd" clip-rule="evenodd" d="M38.7249 29.9504C39.2637 29.9504 39.7005 30.3872 39.7005 30.9261L39.7005 31.1129C39.7005 31.6517 39.2637 32.0885 38.7249 32.0885C38.1861 32.0885 37.7493 31.6517 37.7493 31.1129L37.7493 30.9261C37.7493 30.3872 38.1861 29.9504 38.7249 29.9504Z" fill="#D56B2A" fill-opacity="0.5"/>
<path fill-rule="evenodd" clip-rule="evenodd" d="M30.318 35.5551C30.8569 35.5551 31.2937 35.9918 31.2937 36.5307L31.2937 36.7175C31.2937 37.2563 30.8569 37.6931 30.318 37.6931C29.7792 37.6931 29.3424 37.2563 29.3424 36.7175L29.3424 36.5307C29.3424 35.9918 29.7792 35.5551 30.318 35.5551Z" fill="#D56B2A" fill-opacity="0.5"/>
<path fill-rule="evenodd" clip-rule="evenodd" d="M30.318 27.1482C30.8569 27.1482 31.2937 27.585 31.2937 28.1238L31.2937 28.3106C31.2937 28.8494 30.8569 29.2862 30.318 29.2862C29.7792 29.2862 29.3424 28.8494 29.3424 28.3106L29.3424 28.1238C29.3424 27.585 29.7792 27.1482 30.318 27.1482Z" fill="#D56B2A" fill-opacity="0.5"/>
<defs>
<linearGradient id="paint0_linear_623_61108" x1="21.4441" y1="8.93392" x2="18.7482" y2="-1.84938" gradientUnits="userSpaceOnUse">
<stop stop-color="#038A39"/>
<stop offset="1" stop-color="#E1ED9C"/>
</linearGradient>
<linearGradient id="paint1_linear_623_61108" x1="12.7737" y1="14.8917" x2="9.03408" y2="9.9055" gradientUnits="userSpaceOnUse">
<stop stop-color="#723319"/>
<stop offset="1" stop-color="#D56B2A"/>
</linearGradient>
<linearGradient id="paint2_linear_623_61108" x1="18.7316" y1="7.10078" x2="22.2752" y2="11.7075" gradientUnits="userSpaceOnUse">
<stop stop-color="#D56B2A"/>
<stop offset="1" stop-color="#723319"/>
</linearGradient>
<linearGradient id="paint3_linear_623_61108" x1="6.49865" y1="12.1086" x2="6.49865" y2="19.8525" gradientUnits="userSpaceOnUse">
<stop stop-color="#FDB813"/>
<stop offset="1" stop-color="#F89C1B"/>
</linearGradient>
<linearGradient id="paint4_linear_623_61108" x1="9.18575" y1="7.97013" x2="16.889" y2="7.1774" gradientUnits="userSpaceOnUse">
<stop stop-color="#FDB813"/>
<stop offset="1" stop-color="#F89C1B"/>
</linearGradient>
<linearGradient id="paint5_linear_623_61108" x1="28.7003" y1="4.63061" x2="22.6234" y2="9.23571" gradientUnits="userSpaceOnUse">
<stop stop-color="#FDB813"/>
<stop offset="1" stop-color="#F89C1B"/>
</linearGradient>
<linearGradient id="paint6_linear_623_61108" x1="29.563" y1="13.0586" x2="40.7078" y2="42.2604" gradientUnits="userSpaceOnUse">
<stop stop-color="#FFF45F"/>
<stop offset="1" stop-color="#D56B2A"/>
</linearGradient>
</defs>
</svg>
