<svg width="45" height="44" viewBox="0 0 45 44" fill="none" xmlns="http://www.w3.org/2000/svg">
<path d="M3.54691 25.6669H22.2094C24.1445 25.6669 25.7116 24.6007 25.7116 23.2875V19.3646C25.7116 17.2354 24.8519 15.1468 23.2277 13.3208L17.8951 7.33337H7.83645L2.4144 13.3709C0.863157 15.1656 0.0447083 17.2072 0.0447083 19.2864L0.0447086 23.2875C0.0447086 24.6007 1.61182 25.6638 3.5469 25.6638L3.54691 25.6669Z" fill="url(#paint0_linear_641_53544)"/>
<path d="M23.1956 38.5002L2.56069 38.5002C1.17129 38.5002 0.0451661 39.6386 0.045166 41.0433C0.0451659 43.1726 1.75497 44 3.86128 44L21.895 44C24.0013 43.9968 25.7111 43.1694 25.7111 41.0433C25.7111 39.6386 24.585 38.5002 23.1956 38.5002Z" fill="url(#paint1_linear_641_53544)"/>
<path d="M23.5259 24.7505L2.23038 24.7505C1.02491 24.7505 0.0446777 25.8079 0.0446777 27.1083L0.0446898 38.6161C0.0446898 39.564 0.758453 40.334 1.63717 40.334H24.1191C24.9978 40.334 25.7116 39.564 25.7116 38.6161L25.7116 27.1083C25.7116 25.8045 24.7313 24.7505 23.5259 24.7505Z" fill="url(#paint2_linear_641_53544)"/>
<path d="M7.83661 3.66656H17.9197V7.33313H7.83661L7.83661 3.66656Z" fill="#FFA0B7"/>
<path d="M17.0596 2.04653e-05L8.69652 0C7.71521 6.58946e-08 6.91989 0.795314 6.91989 1.77663L6.91989 4.9675L18.8362 4.96752V1.77665C18.8362 0.795334 18.0409 2.03994e-05 17.0596 2.04653e-05Z" fill="url(#paint3_linear_641_53544)"/>
<path d="M0.0446789 26.5837H25.7116L25.7116 38.5005H0.0446777L0.0446789 26.5837Z" fill="url(#paint4_linear_641_53544)"/>
<path d="M6.92001 5.49982H18.8364V6.87478H6.92001L6.92001 5.49982Z" fill="url(#paint5_linear_641_53544)"/>
<path fill-rule="evenodd" clip-rule="evenodd" d="M2.33644 18.3337C1.83019 18.3337 1.4198 18.7441 1.4198 19.2504L1.4198 22.917C1.4198 23.4232 1.83019 23.8336 2.33644 23.8336C2.84269 23.8336 3.25308 23.4232 3.25308 22.917L3.25308 19.2504C3.25308 18.7441 2.84269 18.3337 2.33644 18.3337Z" fill="white" fill-opacity="0.7"/>
<path fill-rule="evenodd" clip-rule="evenodd" d="M2.33644 15.5837C1.83019 15.5837 1.4198 15.9941 1.4198 16.5004L1.4198 16.9587C1.4198 17.465 1.83019 17.8753 2.33644 17.8753C2.84269 17.8753 3.25308 17.465 3.25308 16.9587L3.25308 16.5004C3.25308 15.9941 2.84269 15.5837 2.33644 15.5837Z" fill="white" fill-opacity="0.7"/>
<path fill-rule="evenodd" clip-rule="evenodd" d="M8.75316 0.91687C8.24691 0.91687 7.83652 1.32726 7.83652 1.83351L7.83652 2.29183C7.83652 2.79808 8.24691 3.20848 8.75316 3.20848C9.25941 3.20848 9.6698 2.79808 9.6698 2.29183L9.6698 1.83351C9.6698 1.32726 9.25941 0.91687 8.75316 0.91687Z" fill="white" fill-opacity="0.7"/>
<path d="M15 12.4888H44.0071C41.5078 21.1401 41.5078 30.4655 44.0071 39.1168H15C17.4993 30.4655 17.4993 21.1401 15 12.4888Z" fill="url(#paint6_linear_641_53544)"/>
<path d="M40.9148 16.8439C40.8739 16.9461 40.8313 17.0669 40.7875 17.2052M40.9148 37.5915C39.0974 31.1007 39.5351 23.8456 40.2219 19.7433" stroke="white" stroke-opacity="0.9" stroke-width="2" stroke-linecap="round"/>
<path d="M15 42.0808C15 43.0279 16.0049 43.637 16.8446 43.199L18.0425 42.5739C18.408 42.3832 18.8437 42.3832 19.2093 42.5739L21.6684 43.857C22.0339 44.0477 22.4696 44.0477 22.8351 43.857L25.2943 42.5739C25.6598 42.3832 26.0955 42.3832 26.461 42.5739L28.9201 43.857C29.2857 44.0477 29.7214 44.0477 30.0869 43.857L32.546 42.5739C32.9116 42.3832 33.3472 42.3832 33.7128 42.5739L36.1719 43.857C36.5374 44.0477 36.9731 44.0477 37.3387 43.857L39.7978 42.5739C40.1633 42.3832 40.599 42.3832 40.9645 42.5739L42.1625 43.199C43.0021 43.637 44.007 43.0279 44.007 42.0808V39.1166H15V42.0808Z" fill="url(#paint7_linear_641_53544)"/>
<path d="M44.007 9.60117C44.007 8.65411 43.0021 8.04496 42.1625 8.48303L40.9645 9.10805C40.599 9.29877 40.1633 9.29877 39.7978 9.10805L37.3387 7.82503C36.9731 7.63431 36.5374 7.63431 36.1719 7.82503L33.7128 9.10805C33.3472 9.29876 32.9116 9.29876 32.546 9.10805L30.0869 7.82503C29.7214 7.63431 29.2857 7.63431 28.9201 7.82503L26.461 9.10805C26.0955 9.29876 25.6598 9.29876 25.2943 9.10805L22.8351 7.82503C22.4696 7.63431 22.0339 7.63431 21.6684 7.82503L19.2093 9.10805C18.8437 9.29876 18.408 9.29876 18.0425 9.10805L16.8446 8.48303C16.0049 8.04495 15 8.65411 15 9.60117L15 12.5654L44.007 12.5654L44.007 9.60117Z" fill="url(#paint8_linear_641_53544)"/>
<circle cx="29.5036" cy="26.3968" r="8.19764" fill="url(#paint9_linear_641_53544)"/>
<path fill-rule="evenodd" clip-rule="evenodd" d="M28.0658 21.143C28.6648 19.9647 30.1056 19.4951 31.2839 20.0941C34.5869 21.7732 35.9033 25.8121 34.2241 29.1151C32.5449 32.4181 28.5061 33.7345 25.2031 32.0553C24.0248 31.4563 23.5552 30.0155 24.1542 28.8372C24.7532 27.6589 26.194 27.1893 27.3723 27.7883C28.3187 28.2694 29.476 27.8922 29.9571 26.9458C30.4382 25.9994 30.061 24.8422 29.1146 24.3611C27.9363 23.7621 27.4667 22.3213 28.0658 21.143Z" fill="url(#paint10_linear_641_53544)"/>
<defs>
<linearGradient id="paint0_linear_641_53544" x1="7" y1="8.5" x2="12.9086" y2="26.0551" gradientUnits="userSpaceOnUse">
<stop stop-color="#FFA0B7"/>
<stop offset="1" stop-color="#FD4343"/>
</linearGradient>
<linearGradient id="paint1_linear_641_53544" x1="2.87047" y1="39.7087" x2="5.58963" y2="46.0359" gradientUnits="userSpaceOnUse">
<stop stop-color="#FFA0B7"/>
<stop offset="1" stop-color="#FD4343"/>
</linearGradient>
<linearGradient id="paint2_linear_641_53544" x1="6.5" y1="21.5" x2="11.5259" y2="36.0619" gradientUnits="userSpaceOnUse">
<stop stop-color="#FFA0B7"/>
<stop offset="1" stop-color="#FD4343"/>
</linearGradient>
<linearGradient id="paint3_linear_641_53544" x1="12.878" y1="-5.24931e-06" x2="12.878" y2="4.96752" gradientUnits="userSpaceOnUse">
<stop stop-color="#FD4343"/>
<stop offset="1" stop-color="#C7222B"/>
</linearGradient>
<linearGradient id="paint4_linear_641_53544" x1="4.41263" y1="30.035" x2="8.18592" y2="44.4391" gradientUnits="userSpaceOnUse">
<stop stop-color="#FD4343"/>
<stop offset="1" stop-color="#C7222B"/>
</linearGradient>
<linearGradient id="paint5_linear_641_53544" x1="12.8782" y1="5.49987" x2="12.8782" y2="6.87483" gradientUnits="userSpaceOnUse">
<stop stop-color="#FD4343"/>
<stop offset="1" stop-color="#C7222B"/>
</linearGradient>
<linearGradient id="paint6_linear_641_53544" x1="29.5035" y1="20.0191" x2="22.8062" y2="36.2337" gradientUnits="userSpaceOnUse">
<stop stop-color="#FFF45F"/>
<stop offset="1" stop-color="#FDB813"/>
</linearGradient>
<linearGradient id="paint7_linear_641_53544" x1="29.5035" y1="44.1614" x2="31.6201" y2="40.267" gradientUnits="userSpaceOnUse">
<stop stop-color="#FDB813"/>
<stop offset="1" stop-color="#FF8000"/>
</linearGradient>
<linearGradient id="paint8_linear_641_53544" x1="29.5035" y1="9.81832" x2="28.0675" y2="14.1489" gradientUnits="userSpaceOnUse">
<stop stop-color="#FFF45F"/>
<stop offset="1" stop-color="#FDB813"/>
</linearGradient>
<linearGradient id="paint9_linear_641_53544" x1="29.5036" y1="27.3427" x2="28.0178" y2="34.2761" gradientUnits="userSpaceOnUse">
<stop stop-color="white"/>
<stop offset="1" stop-color="#FFF45F"/>
</linearGradient>
<linearGradient id="paint10_linear_641_53544" x1="28.2113" y1="20.3762" x2="25.486" y2="26.5607" gradientUnits="userSpaceOnUse">
<stop stop-color="#FDB813"/>
<stop offset="1" stop-color="#FF8000"/>
</linearGradient>
</defs>
</svg>
