<svg width="44" height="45" viewBox="0 0 44 45" fill="none" xmlns="http://www.w3.org/2000/svg">
<path d="M40.2919 15.6369L28.6151 3.96003C24.6866 0.0315379 18.3724 -0.0235587 14.5118 3.83696L13.2755 5.07329C9.41498 8.93382 9.47007 15.2481 13.3986 19.1765L25.0754 30.8534C29.0039 34.7819 35.3181 34.837 39.1787 30.9765L40.415 29.7401C44.2755 25.8796 44.2204 19.5654 40.2919 15.6369Z" fill="url(#paint0_linear_623_60540)"/>
<path d="M14.9276 40.9937L3.2196 29.2857C-0.719366 25.3467 -0.782956 19.024 3.07757 15.1634L4.31389 13.9271C8.17442 10.0666 14.4971 10.1302 18.4361 14.0691L30.1441 25.7771C34.0831 29.7161 34.1467 36.0388 30.2861 39.8994L29.0498 41.1357C25.1893 44.9962 18.8666 44.9326 14.9276 40.9937Z" fill="url(#paint1_linear_623_60540)"/>
<path d="M41.107 29.258L14.7757 2.92672C11.1652 -0.683796 5.5788 -0.951174 2.29812 2.32951L2.29576 2.33187C-0.984926 5.61256 -0.717549 11.199 2.89297 14.8095L29.2243 41.1408C32.8348 44.7513 38.4212 45.0187 41.7019 41.738L41.7042 41.7356C44.9849 38.4549 44.7175 32.8685 41.107 29.258Z" fill="url(#paint2_linear_623_60540)"/>
<path d="M21.684 12.6602L13.3447 4.32094" stroke="white" stroke-opacity="0.5" stroke-width="2" stroke-linecap="round"/>
<path d="M24.7806 15.7776L24.4638 15.4401" stroke="white" stroke-opacity="0.5" stroke-width="2" stroke-linecap="round"/>
<path d="M39.4636 37.6482C38.8365 38.2995 37.8391 37.9016 37.5178 37.0564C37.2543 36.3631 36.827 35.6639 36.0665 34.9034C34.5387 33.3756 33.2583 33.1927 31.7763 32.9802C30.1301 32.7435 28.2607 32.4772 26.1976 30.4141C24.1346 28.3511 23.8656 26.4844 23.6316 24.8355C23.4191 23.3535 23.2362 22.0731 21.7111 20.548C20.186 19.0229 18.9056 18.84 17.4236 18.6275C15.7774 18.3908 13.908 18.1245 11.845 16.0615C9.7819 13.9984 9.51293 12.1317 9.27891 10.4829C9.06642 9.00078 8.88352 7.72045 7.35841 6.19534C6.91191 5.74884 6.91191 5.02797 7.35841 4.58147C7.80491 4.13497 8.52578 4.13497 8.97228 4.58147C11.0353 6.64453 11.3043 8.51124 11.5383 10.1601C11.7508 11.6421 11.9337 12.9225 13.4588 14.4476C14.9839 15.9727 16.2643 16.1556 17.7463 16.3681C19.3925 16.6048 21.2619 16.8711 23.325 18.9341C25.388 20.9972 25.657 22.8639 25.891 24.5128C26.1035 25.9948 26.2864 27.2752 27.8115 28.8003C29.3366 30.3254 30.6196 30.511 32.1017 30.7235C33.7479 30.9602 35.6173 31.2265 37.6803 33.2895C38.8349 34.4441 39.4276 35.5372 39.7667 36.565C39.8876 36.9315 39.7313 37.3703 39.4636 37.6482Z" fill="url(#paint3_linear_623_60540)"/>
<defs>
<linearGradient id="paint0_linear_623_60540" x1="45.3522" y1="21.2814" x2="39.42" y2="27.2136" gradientUnits="userSpaceOnUse">
<stop stop-color="#FFA0B7"/>
<stop offset="1" stop-color="#D56B2A"/>
<stop offset="1" stop-color="#D56B2A"/>
</linearGradient>
<linearGradient id="paint1_linear_623_60540" x1="20.5864" y1="46.0683" x2="26.5186" y2="40.1361" gradientUnits="userSpaceOnUse">
<stop stop-color="#F7ACB6"/>
<stop offset="1" stop-color="#D56B2A"/>
</linearGradient>
<linearGradient id="paint2_linear_623_60540" x1="46.7666" y1="35.2377" x2="35.2227" y2="46.7816" gradientUnits="userSpaceOnUse">
<stop stop-color="#FFA0B7"/>
<stop offset="1" stop-color="#C7222B"/>
</linearGradient>
<linearGradient id="paint3_linear_623_60540" x1="10.9581" y1="11.3016" x2="35.3739" y2="35.7174" gradientUnits="userSpaceOnUse">
<stop stop-color="#FFF45F"/>
<stop offset="1" stop-color="#FDB813"/>
</linearGradient>
</defs>
</svg>
