<svg width="44" height="44" viewBox="0 0 44 44" fill="none" xmlns="http://www.w3.org/2000/svg">
<path d="M35.0888 36.2673C30.5188 36.0489 26.8829 32.6272 26.9679 28.6247C26.9822 27.948 27.1021 27.298 27.3134 26.686C27.7659 25.3754 27.5153 23.7327 26.6483 22.6506C26.2091 22.1025 25.851 21.4844 25.5939 20.8042C25.3071 20.0455 24.5291 19.5174 23.7191 19.5579C22.0867 19.6395 20.4534 19.1916 19.0785 18.1647C15.733 15.6658 15.1848 10.6849 17.8541 7.03947C20.5234 3.39402 25.3994 2.4645 28.7449 4.96334C29.8734 5.80626 30.6837 6.93162 31.1595 8.19287C31.6515 9.49721 32.9654 10.5254 34.3562 10.6207C37.3546 10.8262 40.0216 12.5583 41.0554 15.2932C41.6995 16.9972 41.6007 18.8028 40.9148 20.4153C40.3447 21.7555 40.6225 23.515 41.6092 24.5862C42.8339 25.9159 43.5558 27.6064 43.5174 29.4157C43.4324 33.4181 39.6588 36.4857 35.0888 36.2673Z" fill="url(#paint0_linear_623_60878)"/>
<path d="M8.69223 9.87089C8.91064 14.4409 12.3323 18.0768 16.3348 17.9918C17.0115 17.9774 17.6615 17.8576 18.2735 17.6463C19.5841 17.1938 21.2268 17.4444 22.3089 18.3114C22.857 18.7506 23.4751 19.1087 24.1553 19.3658C24.914 19.6526 25.4421 20.4305 25.4016 21.2406C25.32 22.873 25.7679 24.5063 26.7948 25.8811C29.2936 29.2267 34.2746 29.7749 37.92 27.1056C41.5655 24.4363 42.495 19.5603 39.9962 16.2148C39.1532 15.0862 38.0279 14.276 36.7666 13.8002C35.4623 13.3082 34.4341 11.9943 34.3388 10.6035C34.1333 7.60511 32.4012 4.93805 29.6663 3.9043C27.9623 3.2602 26.1567 3.35897 24.5442 4.04489C23.204 4.61495 21.4445 4.33721 20.3733 3.35051C19.0436 2.12573 17.3531 1.40385 15.5438 1.44226C11.5414 1.52723 8.47382 5.30085 8.69223 9.87089Z" fill="url(#paint1_linear_623_60878)"/>
<path d="M25.8845 0L30.1203 22.523L29.254 22.6859C23.0344 23.8556 17.0443 19.7618 15.8746 13.5423C14.705 7.32272 18.7987 1.33257 25.0183 0.162912L25.8845 0Z" fill="url(#paint2_linear_623_60878)"/>
<path d="M26.4767 3.14773L29.5285 19.3755L28.9044 19.4928C24.4232 20.3356 20.1073 17.386 19.2646 12.9049C18.4219 8.42371 21.3714 4.10784 25.8526 3.26511L26.4767 3.14773Z" fill="url(#paint3_radial_623_60878)"/>
<path fill-rule="evenodd" clip-rule="evenodd" d="M27.5178 41.9068C31.1502 43.4324 35.617 41.045 37.4946 36.5744C39.1397 32.6575 38.2516 28.4411 35.5635 26.4306C36.9477 22.2037 35.4851 17.8352 32.0766 16.4036C31.0043 15.9532 29.8592 15.8438 28.7295 16.0284C28.8794 12.6372 27.28 9.60115 24.4735 8.54429C22.0083 7.61598 19.2359 8.4497 17.1585 10.4606C15.9236 7.84302 13.6213 6.08289 10.985 6.08289C7.04525 6.08289 3.85145 10.0137 3.85145 14.8626C3.85145 19.7115 7.04525 23.6424 10.985 23.6424C12.49 23.6424 13.8861 23.0688 15.0369 22.0895C15.7688 23.4147 16.8746 24.446 18.2853 24.9773C19.2571 25.3432 20.2767 25.4353 21.2826 25.2894C21.1533 27.9933 22.1527 30.475 24.0309 31.8797C22.6467 36.1067 24.1093 40.4752 27.5178 41.9068Z" fill="url(#paint4_linear_623_60878)"/>
<path d="M18.0905 19.0522L40.8417 21.8103L40.7357 22.6854C39.974 28.968 34.2636 33.4436 27.981 32.682C21.6984 31.9204 17.2227 26.2099 17.9844 19.9273L18.0905 19.0522Z" fill="url(#paint5_linear_623_60878)"/>
<path d="M21.2701 19.4376L37.6622 21.4248L37.5858 22.0553C37.0371 26.5819 32.9227 29.8065 28.3961 29.2578C23.8695 28.709 20.6449 24.5947 21.1936 20.0681L21.2701 19.4376Z" fill="url(#paint6_radial_623_60878)"/>
<path d="M38.4522 37.5599C29.8654 46.1467 15.9435 46.1467 7.35674 37.5599C-1.23002 28.9732 -1.23002 15.0512 7.35675 6.46448L38.4522 37.5599Z" fill="url(#paint7_linear_623_60878)"/>
<path d="M31.2201 34.7013L31.2201 34.889" stroke="#D56B2A" stroke-opacity="0.5" stroke-width="1.94004" stroke-linecap="round"/>
<path d="M22.7751 40.3314L22.7751 40.5191" stroke="#D56B2A" stroke-opacity="0.5" stroke-width="1.94004" stroke-linecap="round"/>
<path d="M22.7751 31.8863L22.7751 32.074" stroke="#D56B2A" stroke-opacity="0.5" stroke-width="1.94004" stroke-linecap="round"/>
<defs>
<linearGradient id="paint0_linear_623_60878" x1="33.3175" y1="19.6037" x2="39.4784" y2="10.0949" gradientUnits="userSpaceOnUse">
<stop stop-color="#038A39"/>
<stop offset="1" stop-color="#E1ED9C"/>
</linearGradient>
<linearGradient id="paint1_linear_623_60878" x1="25.3559" y1="11.6423" x2="34.8647" y2="5.48132" gradientUnits="userSpaceOnUse">
<stop stop-color="#038A39"/>
<stop offset="1" stop-color="#E1ED9C"/>
</linearGradient>
<linearGradient id="paint2_linear_623_60878" x1="28.3084" y1="7.42649" x2="17.6465" y2="8.16193" gradientUnits="userSpaceOnUse">
<stop stop-color="#EF4848"/>
<stop offset="1" stop-color="#C3363E"/>
</linearGradient>
<radialGradient id="paint3_radial_623_60878" cx="0" cy="0" r="1" gradientUnits="userSpaceOnUse" gradientTransform="translate(28.7534 11.0524) rotate(168.368) scale(8.79564 16.3348)">
<stop stop-color="#F0656F"/>
<stop offset="1" stop-color="#EF4848"/>
</radialGradient>
<linearGradient id="paint4_linear_623_60878" x1="28.7155" y1="9.03602" x2="27.7617" y2="16.3486" gradientUnits="userSpaceOnUse">
<stop stop-color="#D56B2A"/>
<stop offset="1" stop-color="#723319"/>
</linearGradient>
<linearGradient id="paint5_linear_623_60878" x1="37.9642" y1="23.5026" x2="21.5005" y2="26.5124" gradientUnits="userSpaceOnUse">
<stop stop-color="#EF4848"/>
<stop offset="1" stop-color="#C3363E"/>
</linearGradient>
<radialGradient id="paint6_radial_623_60878" cx="0" cy="0" r="1" gradientUnits="userSpaceOnUse" gradientTransform="translate(29.4932 19.6523) rotate(95.9311) scale(8.79564 16.3348)">
<stop stop-color="#F0656F"/>
<stop offset="1" stop-color="#EF4848"/>
</radialGradient>
<linearGradient id="paint7_linear_623_60878" x1="22.9045" y1="22.0122" x2="7.35679" y2="37.5599" gradientUnits="userSpaceOnUse">
<stop stop-color="#FFCAAB"/>
<stop offset="1" stop-color="#D56B2A"/>
</linearGradient>
</defs>
</svg>
