<svg viewBox="0 0 24 19" fill="none" xmlns="http://www.w3.org/2000/svg" height="16" aria-label="Grubhub plus flag logo" data-testid="subscription-badge"><path d="M23.661 18.672H.33A.339.339 0 010 18.325V.349C0 .155.147 0 .33 0h23.34c.24 0 .4.26.3.49L20.17 9.378c-.04.093-.04.2.002.29l3.788 8.506c.103.234-.056.498-.298.498z" fill="#FCCF42"/><path d="M16.564 7.595H12.53v-.849h-.003l-.002-3.21a.244.244 0 00-.106-.196.317.317 0 00-.187-.062H9.25c-.161 0-.292.116-.292.26v4.06h-.844V7.6l-3.188.002a.242.242 0 00-.193.107.322.322 0 00-.063.188v3.005c0 .162.116.294.258.294H8.96v.85h.002l.003 3.21c0 .08.041.147.105.195.051.037.116.063.187.063h2.983c.162 0 .293-.116.293-.26v-4.063h.843v-.002l3.189-.002a.242.242 0 00.193-.107.323.323 0 00.062-.188V7.89c.003-.162-.115-.295-.255-.295z" fill="#000"/></svg>