<svg width="44" height="44" viewBox="0 0 44 44" fill="none" xmlns="http://www.w3.org/2000/svg">
<path d="M24.1108 30.1224L30.1224 24.1108L36.1474 30.1358C37.9845 28.6025 40.7213 28.6982 42.4461 30.4229C44.2721 32.249 44.2721 35.2096 42.4461 37.0357C41.3278 38.1539 39.7841 38.5874 38.336 38.336C38.5874 39.7841 38.1539 41.3279 37.0357 42.4461C35.2096 44.2722 32.249 44.2722 30.4229 42.4461C28.6982 40.7214 28.6025 37.9845 30.1358 36.1474L24.1108 30.1224Z" fill="url(#paint0_linear_623_60861)"/>
<path d="M34.3593 22.3496C33.3974 21.5023 32.5209 20.3647 32.4762 19.0836C32.32 14.6105 30.2707 9.83129 26.4626 6.02324C19.4904 -0.948974 9.26275 -2.02555 3.6186 3.6186C-2.02555 9.26275 -0.948974 19.4904 6.02324 26.4626C9.83126 30.2706 14.6105 32.32 19.0836 32.4762C20.3647 32.5209 21.5023 33.3974 22.3496 34.3593C22.4153 34.434 22.4838 34.507 22.5551 34.5783C24.3811 36.4043 27.3417 36.4043 29.1678 34.5783C30.286 33.46 30.7195 31.9163 30.4682 30.4682C31.9163 30.7195 33.46 30.286 34.5783 29.1678C36.4043 27.3417 36.4043 24.3811 34.5783 22.5551C34.507 22.4838 34.434 22.4153 34.3593 22.3496Z" fill="url(#paint1_radial_623_60861)"/>
<path d="M13.0737 2.99636L13.5536 2.99634M29.8692 19.312C28.3607 9.95925 21.3197 5.42762 16.4328 3.76057" stroke="white" stroke-opacity="0.5" stroke-width="2" stroke-linecap="round"/>
<defs>
<linearGradient id="paint0_linear_623_60861" x1="33.9632" y1="26" x2="38.6996" y2="37.4589" gradientUnits="userSpaceOnUse">
<stop stop-color="#D56B2A"/>
<stop offset="1" stop-color="#FFCAAB"/>
</linearGradient>
<radialGradient id="paint1_radial_623_60861" cx="0" cy="0" r="1" gradientUnits="userSpaceOnUse" gradientTransform="translate(13.5536 3.95611) rotate(57.0613) scale(40.5968 29.3679)">
<stop offset="0.403319" stop-color="#FF9248"/>
<stop offset="1" stop-color="#723319"/>
</radialGradient>
</defs>
</svg>
