<svg width="44" height="44" viewBox="0 0 44 44" fill="none" xmlns="http://www.w3.org/2000/svg">
<path fill-rule="evenodd" clip-rule="evenodd" d="M25.7931 44C35.8485 44 44 35.8485 44 25.7931C44 15.7377 35.8485 7.58618 25.7931 7.58618C15.7377 7.58618 7.58624 15.7377 7.58624 25.7931C7.58624 35.8485 15.7377 44 25.7931 44ZM25.7932 20.3755C28.7852 20.3755 31.2108 22.801 31.2108 25.7931C31.2108 28.7851 28.7852 31.2107 25.7932 31.2107C22.8011 31.2107 20.3756 28.7851 20.3756 25.7931C20.3756 22.801 22.8011 20.3755 25.7932 20.3755Z" fill="url(#paint0_linear_623_60588)"/>
<path d="M41.3616 24.8407C41.3616 23.0191 42.0825 21.1045 41.5477 19.4586C41.0128 17.8126 39.2687 16.6318 38.2352 15.2133C37.2016 13.7948 36.6513 11.7949 35.2198 10.7536C33.7884 9.71228 31.7523 9.81305 30.047 9.26011C28.3416 8.70717 26.8068 7.42816 24.9852 7.42816C23.1636 7.42816 21.5668 8.72525 19.9235 9.26011C18.2801 9.79497 16.1691 9.72003 14.7506 10.7536C13.3321 11.7871 12.7765 13.7818 11.7352 15.2133C10.694 16.6447 8.97311 17.7532 8.42017 19.4586C7.86723 21.1639 8.60621 23.0165 8.60621 24.8407C8.60621 26.6649 7.88531 28.5769 8.42017 30.2229C8.95503 31.8688 10.6991 33.0496 11.7327 34.4681C12.7662 35.8867 13.3166 37.8865 14.748 38.9278C16.1795 39.9691 18.2155 39.8684 19.9209 40.4213C21.6262 40.9742 23.161 42.2532 24.9826 42.2532C26.8042 42.2532 28.4011 40.9562 30.0444 40.4213C31.6877 39.8864 33.7987 39.9614 35.2172 38.9278C36.6358 37.8943 37.1913 35.8996 38.2326 34.4681C39.2739 33.0367 40.9921 31.9282 41.5451 30.2229C42.098 28.5175 41.359 26.6649 41.359 24.8407H41.3616Z" fill="url(#paint1_radial_623_60588)"/>
<path fill-rule="evenodd" clip-rule="evenodd" d="M18.2069 36.4138C28.2623 36.4138 36.4138 28.2623 36.4138 18.2069C36.4138 8.1515 28.2623 0 18.2069 0C8.1515 0 0 8.1515 0 18.2069C0 28.2623 8.1515 36.4138 18.2069 36.4138ZM18.2069 12.7893C21.199 12.7893 23.6245 15.2148 23.6245 18.2069C23.6245 21.1989 21.199 23.6245 18.2069 23.6245C15.2149 23.6245 12.7893 21.1989 12.7893 18.2069C12.7893 15.2148 15.2149 12.7893 18.2069 12.7893Z" fill="url(#paint2_radial_623_60588)"/>
<path d="M10.977 6.73884C10.6337 7.3735 9.84097 7.60973 9.20631 7.26647C8.57165 6.92322 8.33542 6.13046 8.67868 5.4958C8.8475 5.18365 9.50413 4.63393 10.1279 4.15585C10.6423 3.76158 11.3535 4.14628 11.3051 4.79258C11.2465 5.57627 11.1458 6.42669 10.977 6.73884Z" fill="white"/>
<path d="M3.85234 11.403C4.43587 11.8273 4.56489 12.6444 4.1405 13.228C3.71611 13.8115 2.89903 13.9405 2.31549 13.5161C2.02849 13.3074 1.5707 12.5837 1.17956 11.902C0.856989 11.3399 1.33261 10.6859 1.96679 10.8196C2.73577 10.9817 3.56533 11.1942 3.85234 11.403Z" fill="white"/>
<path d="M9.40817 20.9727C9.20496 21.6651 8.47898 22.0616 7.78665 21.8584C7.09432 21.6552 6.6978 20.9292 6.90101 20.2368C7.00096 19.8963 7.52836 19.2217 8.03856 18.6239C8.45931 18.1309 9.23523 18.3587 9.32281 19.0008C9.42901 19.7795 9.50811 20.6322 9.40817 20.9727Z" fill="white"/>
<path d="M10.1599 29.924C10.7928 29.5774 11.5868 29.8095 11.9333 30.4424C12.2799 31.0752 12.0478 31.8692 11.415 32.2158C11.1037 32.3862 10.2538 32.4913 9.47044 32.5541C8.8244 32.6059 8.43599 31.8966 8.82757 31.3801C9.30239 30.7539 9.84867 30.0944 10.1599 29.924Z" fill="white"/>
<path d="M22.9064 6.85385C23.4861 7.28345 23.6078 8.10165 23.1782 8.68136C22.7486 9.26107 21.9304 9.38277 21.3507 8.95317C21.0656 8.74188 20.6143 8.01409 20.2293 7.32899C19.9117 6.76399 20.3932 6.11428 21.0262 6.25364C21.7937 6.42261 22.6213 6.64256 22.9064 6.85385Z" fill="white"/>
<path d="M30.1159 13.9469C29.4549 14.2361 28.6846 13.9347 28.3954 13.2736C28.1062 12.6126 28.4076 11.8423 29.0687 11.5531C29.3938 11.4108 30.2497 11.3814 31.0355 11.3882C31.6836 11.3938 32.0077 12.1347 31.572 12.6144C31.0436 13.1962 30.4411 13.8047 30.1159 13.9469Z" fill="white"/>
<path d="M27.5277 24.5962C26.8759 24.2867 26.5985 23.5075 26.908 22.8557C27.2175 22.2039 27.9967 21.9264 28.6485 22.2359C28.9691 22.3881 29.5525 23.015 30.0626 23.6128C30.4833 24.1058 30.1365 24.8363 29.4885 24.8219C28.7028 24.8044 27.8483 24.7485 27.5277 24.5962Z" fill="white"/>
<path d="M21.431 35.2656C20.7792 34.9561 20.5017 34.1768 20.8112 33.5251C21.1207 32.8733 21.9 32.5958 22.5518 32.9053C22.8724 33.0575 23.4558 33.6844 23.9659 34.2822C24.3866 34.7752 24.0397 35.5057 23.3918 35.4913C22.6061 35.4737 21.7516 35.4178 21.431 35.2656Z" fill="white"/>
<circle cx="11.1055" cy="11.7681" r="0.762102" fill="#231F20"/>
<circle cx="17.2025" cy="2.62294" r="0.762102" fill="#231F20"/>
<circle cx="27.1096" cy="4.90926" r="0.762102" fill="#231F20"/>
<circle cx="26.3477" cy="18.627" r="0.762102" fill="#231F20"/>
<circle cx="24.8233" cy="30.0585" r="0.762102" fill="#231F20"/>
<circle cx="15.6782" cy="25.486" r="0.762102" fill="#231F20"/>
<circle cx="6.53291" cy="27.7724" r="0.762102" fill="#231F20"/>
<circle cx="1.19826" cy="22.4376" r="0.762102" fill="#231F20"/>
<defs>
<linearGradient id="paint0_linear_623_60588" x1="25.7931" y1="7.58618" x2="25.7931" y2="44" gradientUnits="userSpaceOnUse">
<stop stop-color="#723319"/>
<stop offset="1" stop-color="#D56B2A"/>
</linearGradient>
<radialGradient id="paint1_radial_623_60588" cx="0" cy="0" r="1" gradientUnits="userSpaceOnUse" gradientTransform="translate(20.7574 20.1667) rotate(43.9949) scale(18.476 17.7919)">
<stop offset="0.705231" stop-color="#BAE5EE"/>
<stop offset="1" stop-color="white"/>
</radialGradient>
<radialGradient id="paint2_radial_623_60588" cx="0" cy="0" r="1" gradientUnits="userSpaceOnUse" gradientTransform="translate(18.2069 18.2069) rotate(90) scale(18.2069)">
<stop stop-color="#D56B2A"/>
<stop offset="1" stop-color="#FDB813"/>
</radialGradient>
</defs>
</svg>
