<svg width="44" height="44" viewBox="0 0 44 44" fill="none" xmlns="http://www.w3.org/2000/svg">
<mask id="mask0_1652_2637" style="mask-type:alpha" maskUnits="userSpaceOnUse" x="2" y="3" width="40" height="41">
<path d="M2.15947 3.56461H41.8404L36.9075 41.9917C36.7601 43.1395 35.7719 44 34.6009 44H9.39892C8.22795 44 7.23971 43.1395 7.09235 41.9917L2.15947 3.56461Z" fill="url(#paint0_linear_1652_2637)"/>
</mask>
<g mask="url(#mask0_1652_2637)">
<path d="M2.1595 3.56462H41.8404L36.9075 41.9917C36.7602 43.1396 35.7719 44 34.601 44H9.39895C8.22798 44 7.23974 43.1396 7.09238 41.9917L2.1595 3.56462Z" fill="url(#paint1_linear_1652_2637)"/>
<rect x="2.15947" y="7.8" width="39.6809" height="2.93335" fill="url(#paint2_linear_1652_2637)"/>
<rect x="2.15947" y="41.0667" width="39.6809" height="2.93335" fill="url(#paint3_linear_1652_2637)"/>
</g>
<path d="M0.11187 2.99638C-0.36715 1.51417 0.75209 0 2.32673 0H41.6733C43.2479 0 44.3672 1.51417 43.8881 2.99638L43.8721 3.046C43.5364 4.08479 42.5595 4.78987 41.4559 4.78987H2.54411C1.44054 4.78987 0.46362 4.08479 0.127905 3.046L0.11187 2.99638Z" fill="url(#paint4_linear_1652_2637)"/>
<path d="M9.62358 17.5496L14.801 18.9609C19.5123 20.2451 24.4877 20.2451 29.199 18.9609L34.3764 17.5496V26.5098C34.3764 29.338 32.5914 31.866 29.9052 32.8423L22 35.7155L14.0948 32.8423C11.4086 31.866 9.62358 29.338 9.62358 26.5098V17.5496Z" fill="url(#paint5_linear_1652_2637)"/>
<path d="M18.3896 26.8979H25.6102L25.1479 29.5243C24.9444 30.6806 23.9288 31.5247 22.7411 31.5247H21.2587C20.071 31.5247 19.0554 30.6806 18.8519 29.5243L18.3896 26.8979Z" fill="#F4A15B"/>
<rect x="12.3177" y="23.1457" width="18.9288" height="1.63666" rx="0.818329" fill="#F4A15B"/>
<defs>
<linearGradient id="paint0_linear_1652_2637" x1="21.9999" y1="-1.9493" x2="30.679" y2="33.6857" gradientUnits="userSpaceOnUse">
<stop stop-color="#0C5AA2"/>
<stop offset="1" stop-color="#6CA5D9"/>
</linearGradient>
<linearGradient id="paint1_linear_1652_2637" x1="22" y1="-1.94929" x2="30.679" y2="33.6857" gradientUnits="userSpaceOnUse">
<stop stop-color="#0C5AA2"/>
<stop offset="1" stop-color="#6CA5D9"/>
</linearGradient>
<linearGradient id="paint2_linear_1652_2637" x1="21.9999" y1="7.8" x2="22.2897" y2="10.7044" gradientUnits="userSpaceOnUse">
<stop stop-color="white"/>
<stop offset="1" stop-color="#BCBEC0"/>
</linearGradient>
<linearGradient id="paint3_linear_1652_2637" x1="21.9999" y1="41.0667" x2="22.2156" y2="43.9841" gradientUnits="userSpaceOnUse">
<stop stop-color="white"/>
<stop offset="1" stop-color="#BCBEC0"/>
</linearGradient>
<linearGradient id="paint4_linear_1652_2637" x1="22" y1="-5.96993" x2="23.1884" y2="1.89156" gradientUnits="userSpaceOnUse">
<stop stop-color="white"/>
<stop offset="1" stop-color="#BAE5EE"/>
</linearGradient>
<linearGradient id="paint5_linear_1652_2637" x1="22" y1="13.2426" x2="26.1192" y2="24.492" gradientUnits="userSpaceOnUse">
<stop stop-color="#BCBEC0"/>
<stop offset="1" stop-color="white"/>
</linearGradient>
</defs>
</svg>
