<svg width="44" height="44" viewBox="0 0 44 44" fill="none" xmlns="http://www.w3.org/2000/svg">
<path d="M3.66667 11.9167H32.5C36.8262 11.9167 40.3333 15.4238 40.3333 19.75V40.3334H3.66667V11.9167Z" fill="url(#paint0_linear_623_60706)"/>
<path d="M3.66667 11.9167H19.6667C23.9929 11.9167 27.5 15.4238 27.5 19.75V40.3334H3.66667V11.9167Z" fill="url(#paint1_linear_623_60706)"/>
<rect x="3.66667" y="18.3333" width="18.3333" height="8.25" fill="#723319"/>
<rect x="3.66667" y="32.0833" width="18.3333" height="8.25" fill="#723319"/>
<rect y="40.3333" width="44" height="3.66667" fill="url(#paint2_linear_623_60706)"/>
<path d="M12.8333 9.27632C12.8333 7.22705 14.2083 4.64912 16.3978 4.64912H18.4787C20.3782 4.64912 22.0646 3.86247 22.6653 1.3372L23.0569 0L25.693 2.97254C26.8271 4.56186 27.2231 6.91271 26.7159 9.045C26.3317 10.6604 25.2529 11.9167 24.0378 11.9167H14.5985C13.6236 11.9167 12.8333 10.6425 12.8333 9.27632Z" fill="url(#paint3_linear_623_60706)"/>
<path d="M23.8333 3.66669C22.9167 6.4167 20.1667 6.41667 16.9584 6.41669" stroke="white" stroke-opacity="0.8" stroke-width="1.83333" stroke-linecap="round"/>
<path d="M38.0416 31.1667C38.0416 33 38.0417 36.6667 38.0417 38.5" stroke="white" stroke-opacity="0.6" stroke-width="2" stroke-linecap="round"/>
<path d="M38.0417 27.9583L38.0417 28.4166" stroke="white" stroke-opacity="0.6" stroke-width="1.83333" stroke-linecap="round"/>
<path d="M14.4552 8.15558L14.4198 8.80279" stroke="white" stroke-opacity="0.8" stroke-width="1.83333" stroke-linecap="round"/>
<defs>
<linearGradient id="paint0_linear_623_60706" x1="22" y1="11.9167" x2="29.5551" y2="32.5215" gradientUnits="userSpaceOnUse">
<stop stop-color="#D56B2A"/>
<stop offset="1" stop-color="#723319"/>
</linearGradient>
<linearGradient id="paint1_linear_623_60706" x1="15.5833" y1="23.8334" x2="9.80104" y2="37.9679" gradientUnits="userSpaceOnUse">
<stop stop-color="#D56B2A"/>
<stop offset="1" stop-color="#723319"/>
</linearGradient>
<linearGradient id="paint2_linear_623_60706" x1="22" y1="39.4166" x2="22.3793" y2="43.9684" gradientUnits="userSpaceOnUse">
<stop stop-color="white"/>
<stop offset="1" stop-color="#FDB813"/>
</linearGradient>
<linearGradient id="paint3_linear_623_60706" x1="19.8833" y1="5.5" x2="19.8833" y2="16.0417" gradientUnits="userSpaceOnUse">
<stop stop-color="#FFEBAF"/>
<stop offset="1" stop-color="#D66C2A"/>
</linearGradient>
</defs>
</svg>
