<svg width="44" height="44" viewBox="0 0 44 44" fill="none" xmlns="http://www.w3.org/2000/svg">
<rect x="20.1667" width="4.58333" height="12.8333" fill="url(#paint0_linear_623_61041)"/>
<path d="M6.53882 16.9279H37.8277L34.1964 42.4252C34.0678 43.3287 33.2941 44 32.3814 44H11.9851C11.0725 44 10.2988 43.3287 10.1701 42.4252L6.53882 16.9279Z" fill="url(#paint1_linear_623_61041)"/>
<path d="M34.8333 20.1666C34.2936 24.7444 27.5 25.6666 22.4583 22.9166C17.4167 20.1666 9.16668 17.875 9.62501 21.0833L11.8629 39.8127C11.9585 40.6122 12.6365 41.214 13.4416 41.214H31.0551C31.8647 41.214 32.545 40.6056 32.6351 39.801L34.8333 20.1666Z" fill="url(#paint2_linear_623_61041)"/>
<path d="M9.53314 20.6305C10.0729 25.2083 20.1667 27.0417 24.2917 22.9167C28.4167 18.7917 35.2917 17.4167 34.8333 20.6305L32.5686 40.3003C32.4762 41.1027 31.7969 41.7083 30.9892 41.7083H13.3773C12.5696 41.7083 11.8903 41.1027 11.7979 40.3003L9.53314 20.6305Z" fill="url(#paint3_linear_623_61041)"/>
<path d="M5.46655 12.4809C5.63509 11.6206 6.38906 11 7.26568 11H37.101C37.9776 11 38.7316 11.6206 38.9001 12.4809L39.7834 16.9889H4.58334L5.46655 12.4809Z" fill="url(#paint4_linear_623_61041)"/>
<path d="M33.9472 13.4107L23.7808 13.4195" stroke="white" stroke-opacity="0.8" stroke-width="1.83333" stroke-linecap="round"/>
<path d="M36.6584 13.4085L36.3206 13.4088" stroke="white" stroke-opacity="0.8" stroke-width="1.83333" stroke-linecap="round"/>
<path d="M30.3497 35.7766L31.6521 25.6939" stroke="white" stroke-opacity="0.7" stroke-width="1.83333" stroke-linecap="round"/>
<path d="M30.0025 38.4655L30.0458 38.1305" stroke="white" stroke-opacity="0.7" stroke-width="1.83333" stroke-linecap="round"/>
<defs>
<linearGradient id="paint0_linear_623_61041" x1="22.4584" y1="0" x2="28.6776" y2="7.99615" gradientUnits="userSpaceOnUse">
<stop stop-color="#A874DB"/>
<stop offset="1" stop-color="#661A94"/>
</linearGradient>
<linearGradient id="paint1_linear_623_61041" x1="22.1833" y1="6.41669" x2="29.3187" y2="35.3663" gradientUnits="userSpaceOnUse">
<stop stop-color="#661A94"/>
<stop offset="1" stop-color="#BCBEC0"/>
</linearGradient>
<linearGradient id="paint2_linear_623_61041" x1="22.2184" y1="18.5711" x2="22.2184" y2="27.0416" gradientUnits="userSpaceOnUse">
<stop stop-color="#A874DB"/>
<stop offset="1" stop-color="#661A94"/>
</linearGradient>
<linearGradient id="paint3_linear_623_61041" x1="22.1832" y1="18.7691" x2="22.1832" y2="41.2141" gradientUnits="userSpaceOnUse">
<stop stop-color="#E4C8FF"/>
<stop offset="1" stop-color="#661A94"/>
</linearGradient>
<linearGradient id="paint4_linear_623_61041" x1="22.1833" y1="9.625" x2="23.0055" y2="14.9992" gradientUnits="userSpaceOnUse">
<stop stop-color="white"/>
<stop offset="1" stop-color="#E4C8FF"/>
</linearGradient>
</defs>
</svg>
