<svg width="44" height="44" viewBox="0 0 44 44" fill="none" xmlns="http://www.w3.org/2000/svg">
<path d="M6.97039 7.09417C12.9789 1.64185 22.1523 1.66689 28.131 7.15193C34.7144 13.1919 34.9362 23.5009 28.6187 29.8184L20.0235 38.4137L1.69865 20.0889C-0.644239 17.746 -0.551459 13.9198 1.90223 11.6932L6.97039 7.09417Z" fill="#F89C1B"/>
<path d="M33.664 18.8172C30.4485 21.9486 25.5608 22.266 22.7472 19.526C22.267 19.0584 21.8782 18.5319 21.5797 17.9648C20.9503 16.7693 19.6139 15.856 18.2664 15.7577C17.5734 15.7072 16.8843 15.5499 16.2187 15.2767C15.4826 14.9746 14.5831 15.179 14.0699 15.7871C13.0358 17.0125 11.6213 17.884 9.96462 18.1827C5.93315 18.9095 1.99394 15.9687 1.16615 11.6142C0.338349 7.25974 2.93543 3.14057 6.9669 2.41379C8.33296 2.16751 9.68843 2.34236 10.9158 2.85062C12.1709 3.37032 13.7765 3.11791 14.7671 2.18846C16.9223 0.16639 19.9566 -0.592301 22.6154 0.499102C24.2748 1.18029 25.5066 2.4667 26.2026 4.04605C26.7749 5.34464 28.2126 6.31629 29.6317 6.32209C31.4121 6.32937 33.1154 6.94317 34.3918 8.18621C37.2055 10.9262 36.8796 15.6859 33.664 18.8172Z" fill="url(#paint0_linear_623_60894)"/>
<path d="M31.7707 22.5594C34.6452 21.3854 35.804 17.5656 34.359 14.0278C33.0929 10.9281 30.248 9.07321 27.6295 9.45101C26.0452 6.324 22.7956 4.70461 20.0983 5.80633C19.2498 6.15292 18.5507 6.73005 18.024 7.46243C16.2177 5.489 13.6344 4.68835 11.4813 5.66343C9.59018 6.51991 8.50979 8.52955 8.47266 10.808C6.32579 10.0374 4.06185 10.3396 2.59266 11.8087C0.397076 14.0043 0.807815 17.9748 3.51007 20.6771C6.21232 23.3793 10.1828 23.79 12.3784 21.5945C13.2171 20.7557 13.6755 19.658 13.7711 18.4709C14.9174 18.8016 16.1084 18.7601 17.1907 18.27C17.9362 17.9323 18.5557 17.4155 19.0349 16.7737C20.4698 18.3527 22.4099 19.1787 24.2395 18.9148C25.8238 22.0418 29.0733 23.6612 31.7707 22.5594Z" fill="url(#paint1_linear_623_60894)"/>
<path d="M35.466 26.0868C38.3405 24.9127 39.4993 21.0929 38.0543 17.5551C36.7883 14.4555 33.9435 12.6006 31.325 12.9783C29.7407 9.85134 26.4911 8.23195 23.7938 9.33367C22.9452 9.68026 22.2462 10.2574 21.7195 10.9898C19.9132 9.01634 17.3299 8.21569 15.1768 9.19078C13.2857 10.0473 12.2053 12.0569 12.1681 14.3353C10.0213 13.5647 7.75733 13.8669 6.28814 15.3361C4.09256 17.5317 4.5033 21.5021 7.20555 24.2044C9.9078 26.9067 13.8783 27.3174 16.0739 25.1218C16.9126 24.2831 17.371 23.1854 17.4666 21.9983C18.6129 22.3289 19.8039 22.2874 20.8861 21.7973C21.6316 21.4597 22.2511 20.9429 22.7304 20.301C24.1652 21.88 26.1053 22.706 27.9348 22.4421C29.5191 25.5691 32.7687 27.1885 35.466 26.0868Z" fill="url(#paint2_linear_623_60894)"/>
<path fill-rule="evenodd" clip-rule="evenodd" d="M6.22488 12.1233C6.80751 12.2204 7.20111 12.7714 7.10401 13.3541L6.16991 18.9587C6.07281 19.5413 5.52177 19.9349 4.93913 19.8378C4.35649 19.7407 3.96289 19.1896 4.06 18.607L4.99409 13.0024C5.0912 12.4198 5.64224 12.0262 6.22488 12.1233Z" fill="url(#paint3_linear_623_60894)"/>
<path fill-rule="evenodd" clip-rule="evenodd" d="M8.21791 7.32913C8.25487 6.73961 8.76272 6.29167 9.35224 6.32862L15.023 6.68408C15.6125 6.72103 16.0604 7.22889 16.0235 7.8184C15.9865 8.40792 15.4787 8.85586 14.8892 8.81891L9.21842 8.46345C8.6289 8.4265 8.18096 7.91864 8.21791 7.32913Z" fill="url(#paint4_linear_623_60894)"/>
<path fill-rule="evenodd" clip-rule="evenodd" d="M28.2959 5.35352C28.536 5.8932 28.2931 6.52533 27.7535 6.76542L22.6064 9.05524C22.0668 9.29534 21.4346 9.05248 21.1945 8.5128C20.9544 7.97313 21.1973 7.341 21.737 7.10091L26.884 4.81108C27.4237 4.57099 28.0558 4.81385 28.2959 5.35352Z" fill="url(#paint5_linear_623_60894)"/>
<path d="M13.6018 15.4784C13.9105 15.1697 14.2047 14.852 14.4844 14.5262L14.5232 14.565C20.7929 8.61949 30.6962 8.72006 36.8429 14.8668C43.0919 21.1157 43.0919 31.2473 36.8429 37.4963L32.0112 42.328C29.7818 44.5573 26.1673 44.5573 23.938 42.328L1.31691 19.7069C3.54694 21.9279 7.15514 21.925 9.38168 19.6985L13.6018 15.4784Z" fill="url(#paint6_linear_623_60894)"/>
<path fill-rule="evenodd" clip-rule="evenodd" d="M37.8083 29.9504C38.3471 29.9504 38.7839 30.3872 38.7839 30.9261L38.7839 31.1129C38.7839 31.6517 38.3471 32.0885 37.8083 32.0885C37.2694 32.0885 36.8326 31.6517 36.8326 31.1129L36.8326 30.9261C36.8326 30.3872 37.2694 29.9504 37.8083 29.9504Z" fill="#D56B2A" fill-opacity="0.5"/>
<path fill-rule="evenodd" clip-rule="evenodd" d="M29.4014 35.5551C29.9403 35.5551 30.377 35.9918 30.377 36.5307L30.377 36.7175C30.377 37.2563 29.9403 37.6931 29.4014 37.6931C28.8626 37.6931 28.4258 37.2563 28.4258 36.7175L28.4258 36.5307C28.4258 35.9918 28.8626 35.5551 29.4014 35.5551Z" fill="#D56B2A" fill-opacity="0.5"/>
<path fill-rule="evenodd" clip-rule="evenodd" d="M29.4014 27.1482C29.9403 27.1482 30.377 27.585 30.377 28.1238L30.377 28.3106C30.377 28.8494 29.9403 29.2862 29.4014 29.2862C28.8626 29.2862 28.4258 28.8494 28.4258 28.3106L28.4258 28.1238C28.4258 27.585 28.8626 27.1482 29.4014 27.1482Z" fill="#D56B2A" fill-opacity="0.5"/>
<defs>
<linearGradient id="paint0_linear_623_60894" x1="20.5274" y1="8.93392" x2="17.8316" y2="-1.84938" gradientUnits="userSpaceOnUse">
<stop stop-color="#038A39"/>
<stop offset="1" stop-color="#E1ED9C"/>
</linearGradient>
<linearGradient id="paint1_linear_623_60894" x1="11.8571" y1="14.8917" x2="8.11742" y2="9.9055" gradientUnits="userSpaceOnUse">
<stop stop-color="#723319"/>
<stop offset="1" stop-color="#D56B2A"/>
</linearGradient>
<linearGradient id="paint2_linear_623_60894" x1="17.8149" y1="7.10078" x2="21.3586" y2="11.7075" gradientUnits="userSpaceOnUse">
<stop stop-color="#D56B2A"/>
<stop offset="1" stop-color="#723319"/>
</linearGradient>
<linearGradient id="paint3_linear_623_60894" x1="5.582" y1="12.1086" x2="5.582" y2="19.8525" gradientUnits="userSpaceOnUse">
<stop stop-color="#FDB813"/>
<stop offset="1" stop-color="#F89C1B"/>
</linearGradient>
<linearGradient id="paint4_linear_623_60894" x1="8.26908" y1="7.97013" x2="15.9723" y2="7.1774" gradientUnits="userSpaceOnUse">
<stop stop-color="#FDB813"/>
<stop offset="1" stop-color="#F89C1B"/>
</linearGradient>
<linearGradient id="paint5_linear_623_60894" x1="27.7837" y1="4.63061" x2="21.7068" y2="9.23571" gradientUnits="userSpaceOnUse">
<stop stop-color="#FDB813"/>
<stop offset="1" stop-color="#F89C1B"/>
</linearGradient>
<linearGradient id="paint6_linear_623_60894" x1="28.6464" y1="13.0586" x2="39.7912" y2="42.2604" gradientUnits="userSpaceOnUse">
<stop stop-color="#FFF45F"/>
<stop offset="1" stop-color="#D56B2A"/>
</linearGradient>
</defs>
</svg>
