<svg width="44" height="44" viewBox="0 0 44 44" fill="none" xmlns="http://www.w3.org/2000/svg">
<path fill-rule="evenodd" clip-rule="evenodd" d="M22 40C31.9411 40 40 31.9411 40 22C40 12.0589 31.9411 4 22 4C12.0589 4 4 12.0589 4 22C4 31.9411 12.0589 40 22 40ZM22 44C34.1503 44 44 34.1503 44 22C44 9.84974 34.1503 0 22 0C9.84974 0 0 9.84974 0 22C0 34.1503 9.84974 44 22 44Z" fill="#FF8000"/>
<path d="M0 0L2.0916 9.12017C2.98352 13.0093 6.12687 15.9804 10.06 16.6519L18.1802 18.0384L16.8065 9.99293C16.1286 6.02222 13.1083 2.86048 9.17269 2.00166L0 0Z" fill="url(#paint0_linear_623_61225)"/>
<path d="M14.9728 17.9674L17.9674 14.9728L44 41L41 44L14.9728 17.9674Z" fill="#FDB813"/>
<path d="M18.9656 0L16.9692 1.99638C12.8346 6.13102 12.8346 12.8346 16.9692 16.9692L18.9656 18.9656L20.962 16.9692C25.0966 12.8346 25.0966 6.13102 20.962 1.99638L18.9656 0Z" fill="url(#paint1_linear_623_61225)"/>
<path d="M0 18.9656L1.99638 16.9693C6.13102 12.8346 12.8346 12.8346 16.9692 16.9693L18.9656 18.9656L16.9692 20.962C12.8346 25.0967 6.13102 25.0967 1.99638 20.962L0 18.9656Z" fill="url(#paint2_linear_623_61225)"/>
<path d="M25.4538 6.48822L23.4575 8.4846C19.3228 12.6192 19.3228 19.3228 23.4575 23.4575L25.4538 25.4538L27.4502 23.4575C31.5849 19.3228 31.5849 12.6192 27.4502 8.4846L25.4538 6.48822Z" fill="url(#paint3_linear_623_61225)"/>
<path d="M6.48825 25.4538L8.48463 23.4574C12.6193 19.3228 19.3228 19.3228 23.4575 23.4574L25.4539 25.4538L23.4575 27.4502C19.3228 31.5848 12.6193 31.5848 8.48463 27.4502L6.48825 25.4538Z" fill="url(#paint4_linear_623_61225)"/>
<path d="M31.9421 12.9765L29.9457 14.9729C25.8111 19.1075 25.8111 25.8111 29.9457 29.9457L31.9421 31.9421L33.9385 29.9457C38.0731 25.8111 38.0731 19.1075 33.9385 14.9729L31.9421 12.9765Z" fill="url(#paint5_linear_623_61225)"/>
<path d="M12.9765 31.9421L14.9729 29.9457C19.1075 25.8111 25.8111 25.8111 29.9457 29.9457L31.9421 31.9421L29.9457 33.9385C25.8111 38.0731 19.1075 38.0731 14.9729 33.9385L12.9765 31.9421Z" fill="url(#paint6_linear_623_61225)"/>
<path d="M38.4303 19.4647L36.4339 21.4611C32.2993 25.5957 32.2993 32.2993 36.4339 36.434L38.4303 38.4303L40.4267 36.434C44.5613 32.2993 44.5613 25.5957 40.4267 21.4611L38.4303 19.4647Z" fill="url(#paint7_linear_623_61225)"/>
<path d="M19.4647 38.4304L21.4611 36.434C25.5957 32.2993 32.2993 32.2993 36.434 36.434L38.4303 38.4304L36.434 40.4267C32.2993 44.5614 25.5957 44.5614 21.4611 40.4267L19.4647 38.4304Z" fill="url(#paint8_linear_623_61225)"/>
<path fill-rule="evenodd" clip-rule="evenodd" d="M38.3284 8L8 38.3284L5.17157 35.5L35.5 5.17157L38.3284 8Z" fill="#FF8000"/>
<defs>
<linearGradient id="paint0_linear_623_61225" x1="14.9728" y1="14.9728" x2="2.49545" y2="2.49546" gradientUnits="userSpaceOnUse">
<stop stop-color="#FDB813"/>
<stop offset="1" stop-color="#FFF45F"/>
</linearGradient>
<linearGradient id="paint1_linear_623_61225" x1="14.2242" y1="4.7414" x2="23.707" y2="14.2242" gradientUnits="userSpaceOnUse">
<stop stop-color="#FFF45F"/>
<stop offset="1" stop-color="#FDB813"/>
</linearGradient>
<linearGradient id="paint2_linear_623_61225" x1="4.7414" y1="14.2242" x2="14.2242" y2="23.707" gradientUnits="userSpaceOnUse">
<stop stop-color="#FFF45F"/>
<stop offset="1" stop-color="#FDB813"/>
</linearGradient>
<linearGradient id="paint3_linear_623_61225" x1="20.7124" y1="11.2296" x2="30.1952" y2="20.7124" gradientUnits="userSpaceOnUse">
<stop stop-color="#FFF45F"/>
<stop offset="1" stop-color="#FDB813"/>
</linearGradient>
<linearGradient id="paint4_linear_623_61225" x1="11.2297" y1="20.7124" x2="20.7125" y2="30.1952" gradientUnits="userSpaceOnUse">
<stop stop-color="#FFF45F"/>
<stop offset="1" stop-color="#FDB813"/>
</linearGradient>
<linearGradient id="paint5_linear_623_61225" x1="27.2007" y1="17.7179" x2="36.6835" y2="27.2007" gradientUnits="userSpaceOnUse">
<stop stop-color="#FFF45F"/>
<stop offset="1" stop-color="#FDB813"/>
</linearGradient>
<linearGradient id="paint6_linear_623_61225" x1="17.7179" y1="27.2007" x2="27.2007" y2="36.6835" gradientUnits="userSpaceOnUse">
<stop stop-color="#FFF45F"/>
<stop offset="1" stop-color="#FDB813"/>
</linearGradient>
<linearGradient id="paint7_linear_623_61225" x1="33.6889" y1="24.2061" x2="43.1717" y2="33.6889" gradientUnits="userSpaceOnUse">
<stop stop-color="#FFF45F"/>
<stop offset="1" stop-color="#FDB813"/>
</linearGradient>
<linearGradient id="paint8_linear_623_61225" x1="24.2061" y1="33.689" x2="33.6889" y2="43.1718" gradientUnits="userSpaceOnUse">
<stop stop-color="#FFF45F"/>
<stop offset="1" stop-color="#FDB813"/>
</linearGradient>
</defs>
</svg>
