<svg width="44" height="44" viewBox="0 0 44 44" fill="none" xmlns="http://www.w3.org/2000/svg">
<path d="M2.14207 8.29785L35.7021 41.8579L33.56 44L-4.587e-05 10.44L2.14207 8.29785Z" fill="#D56B2A"/>
<path d="M29.9898 8.29785C33.1446 8.29785 35.7021 10.8554 35.7021 14.0102L35.7021 41.8579L2.14209 8.29785L29.9898 8.29785Z" fill="url(#paint0_linear_623_61165)"/>
<path fill-rule="evenodd" clip-rule="evenodd" d="M34.7801 39.632L34.7801 14.0102C34.7801 11.3646 32.6354 9.21985 29.9898 9.21985L4.36799 9.21985L34.7801 39.632ZM35.7021 14.0102C35.7021 10.8554 33.1446 8.29785 29.9898 8.29785L2.14209 8.29785L35.7021 41.8579L35.7021 14.0102Z" fill="#D56B2A"/>
<path d="M13.1034 21.5042C10.5715 21.9325 8.17179 20.2271 7.74353 17.6952C7.49756 16.2411 7.95541 14.8305 8.86944 13.812L6.67991 12.9977C4.27309 12.1027 3.04757 9.42596 3.94264 7.01914C4.8377 4.61232 7.51441 3.3868 9.92122 4.28187L12.0466 5.07226C12.0768 3.77141 12.6499 2.49038 13.7312 1.59584C15.7098 -0.0409918 18.6406 0.236031 20.2775 2.21459L23.0465 5.56173C23.3971 5.23919 23.8037 4.96548 24.2603 4.75642C26.5951 3.68745 29.3544 4.71359 30.4233 7.04837L34.5422 16.0445C35.4175 17.9564 34.888 20.153 33.3854 21.4729C32.9375 22.0616 32.3422 22.5516 31.6227 22.881L22.5686 27.0264C20.2338 28.0953 17.4745 27.0692 16.4056 24.7344C15.8346 23.4874 15.8614 22.1193 16.3659 20.9524L13.1034 21.5042Z" fill="url(#paint1_linear_623_61165)"/>
<path d="M13.1034 21.5042C10.5715 21.9325 8.17179 20.2271 7.74353 17.6952C7.49756 16.2411 7.95541 14.8305 8.86944 13.812L6.67991 12.9977C4.27309 12.1027 3.04757 9.42596 3.94264 7.01914C4.8377 4.61232 7.51441 3.3868 9.92122 4.28187L12.0466 5.07226C12.0768 3.77141 12.6499 2.49038 13.7312 1.59584C15.7098 -0.0409918 18.6406 0.236031 20.2775 2.21459L23.0465 5.56173C23.3971 5.23919 23.8037 4.96548 24.2603 4.75642C26.5951 3.68745 29.3544 4.71359 30.4233 7.04837L34.5422 16.0445C35.4175 17.9564 34.888 20.153 33.3854 21.4729C32.9375 22.0616 32.3422 22.5516 31.6227 22.881L22.5686 27.0264C20.2338 28.0953 17.4745 27.0692 16.4056 24.7344C15.8346 23.4874 15.8614 22.1193 16.3659 20.9524L13.1034 21.5042Z" fill="url(#paint2_linear_623_61165)"/>
<path d="M21.2713 30.5402C20.8209 33.0683 22.5053 35.4827 25.0334 35.933C26.4854 36.1917 27.8999 35.7461 28.9263 34.841L29.7215 37.0376C30.5955 39.4521 33.2614 40.701 35.676 39.8269C38.0905 38.9529 39.3393 36.287 38.4653 33.8724L37.6934 31.7402C38.9944 31.7212 40.2803 31.1593 41.1842 30.0859C42.8383 28.1217 42.5868 25.1886 40.6226 23.5345L37.2996 20.7363C37.6252 20.3885 37.9024 19.9844 38.1154 19.5296C39.2047 17.2043 38.2027 14.4361 35.8773 13.3468L26.9174 9.1497C25.0129 8.25755 22.8113 8.76826 21.4784 10.2599C20.8863 10.7026 20.3915 11.2933 20.056 12.0096L15.8318 21.0271C14.7425 23.3525 15.7446 26.1207 18.07 27.2099C19.3119 27.7917 20.6802 27.7769 21.8515 27.2826L21.2713 30.5402Z" fill="url(#paint3_linear_623_61165)"/>
<path d="M21.2713 30.5402C20.8209 33.0683 22.5053 35.4827 25.0334 35.933C26.4854 36.1917 27.8999 35.7461 28.9263 34.841L29.7215 37.0376C30.5955 39.4521 33.2614 40.701 35.676 39.8269C38.0905 38.9529 39.3393 36.287 38.4653 33.8724L37.6934 31.7402C38.9944 31.7212 40.2803 31.1593 41.1842 30.0859C42.8383 28.1217 42.5868 25.1886 40.6226 23.5345L37.2996 20.7363C37.6252 20.3885 37.9024 19.9844 38.1154 19.5296C39.2047 17.2043 38.2027 14.4361 35.8773 13.3468L26.9174 9.1497C25.0129 8.25755 22.8113 8.76826 21.4784 10.2599C20.8863 10.7026 20.3915 11.2933 20.056 12.0096L15.8318 21.0271C14.7425 23.3525 15.7446 26.1207 18.07 27.2099C19.3119 27.7917 20.6802 27.7769 21.8515 27.2826L21.2713 30.5402Z" fill="url(#paint4_linear_623_61165)"/>
<path d="M42.0732 31.6123C37.6115 36.0739 30.3778 36.0739 25.9162 31.6123C21.4546 27.1507 21.4546 19.917 25.9162 15.4554C29.495 19.0342 33.6892 23.2284 42.0732 31.6123Z" fill="url(#paint5_linear_623_61165)"/>
<path d="M27.9145 18.1795C23.4529 22.6411 16.2191 22.6411 11.7575 18.1795C7.29591 13.7178 7.29591 6.48414 11.7575 2.02252C15.3363 5.60132 19.5305 9.79554 27.9145 18.1795Z" fill="url(#paint6_linear_623_61165)"/>
<path d="M20.2696 26.4195C18.3901 26.4195 16.8665 24.8959 16.8665 23.0164L16.8665 6.4263L36.8597 26.4195L20.2696 26.4195Z" fill="url(#paint7_linear_623_61165)"/>
<path fill-rule="evenodd" clip-rule="evenodd" d="M20.7349 24.5075C20.4927 24.9936 19.9023 25.1915 19.4161 24.9493L18.9759 24.7301C18.4898 24.4879 18.2919 23.8975 18.5341 23.4113C18.7762 22.9251 19.3667 22.7273 19.8529 22.9694L20.293 23.1887C20.7792 23.4308 20.977 24.0213 20.7349 24.5075Z" fill="white" fill-opacity="0.5"/>
<path fill-rule="evenodd" clip-rule="evenodd" d="M28.205 24.1675C28.205 24.7107 27.7647 25.151 27.2216 25.151L23.195 25.151C22.6519 25.151 22.2115 24.7107 22.2115 24.1675C22.2115 23.6244 22.6519 23.1841 23.195 23.1841L27.2216 23.1841C27.7647 23.1841 28.205 23.6244 28.205 24.1675Z" fill="white" fill-opacity="0.5"/>
<path d="M10.4401 -1.46695e-06L44.0001 33.56L41.858 35.7021L8.29799 2.14213L10.4401 -1.46695e-06Z" fill="#D56B2A"/>
<path d="M38.2878 -2.49694e-07C41.4426 -1.11792e-07 44.0001 2.5575 44.0001 5.71234L44.0001 33.56L10.4401 -1.46695e-06L38.2878 -2.49694e-07Z" fill="url(#paint8_linear_623_61165)"/>
<path fill-rule="evenodd" clip-rule="evenodd" d="M43.0781 31.3341L43.0781 5.71234C43.0781 3.06671 40.9334 0.921997 38.2878 0.921997L12.666 0.921996L43.0781 31.3341ZM44.0001 5.71234C44.0001 2.5575 41.4426 -1.11792e-07 38.2878 -2.49694e-07L10.4401 -1.46695e-06L44.0001 33.56L44.0001 5.71234Z" fill="#D56B2A"/>
<defs>
<linearGradient id="paint0_linear_623_61165" x1="33.6439" y1="10.3203" x2="20.275" y2="22.3063" gradientUnits="userSpaceOnUse">
<stop stop-color="#D56B2A"/>
<stop offset="1" stop-color="#FFCAAB"/>
</linearGradient>
<linearGradient id="paint1_linear_623_61165" x1="4.37443" y1="15.0794" x2="11.977" y2="8.93674" gradientUnits="userSpaceOnUse">
<stop stop-color="#7CC362"/>
<stop offset="1" stop-color="#038A39"/>
</linearGradient>
<linearGradient id="paint2_linear_623_61165" x1="13.36" y1="15.3907" x2="9.67201" y2="16.3128" gradientUnits="userSpaceOnUse">
<stop stop-color="#038A39"/>
<stop offset="1" stop-color="#038A39" stop-opacity="0"/>
</linearGradient>
<linearGradient id="paint3_linear_623_61165" x1="27.6196" y1="39.3248" x2="39.7575" y2="25.6343" gradientUnits="userSpaceOnUse">
<stop stop-color="#7CC362"/>
<stop offset="0.653413" stop-color="#038A39"/>
</linearGradient>
<linearGradient id="paint4_linear_623_61165" x1="28.5729" y1="28.7602" x2="26.268" y2="31.0652" gradientUnits="userSpaceOnUse">
<stop stop-color="#038A39"/>
<stop offset="1" stop-color="#038A39" stop-opacity="0"/>
</linearGradient>
<linearGradient id="paint5_linear_623_61165" x1="32.261" y1="25.5334" x2="27.19" y2="31.0654" gradientUnits="userSpaceOnUse">
<stop stop-color="#C7222B"/>
<stop offset="1" stop-color="#FFCAAB"/>
</linearGradient>
<linearGradient id="paint6_linear_623_61165" x1="18.1023" y1="12.1005" x2="13.0313" y2="17.6325" gradientUnits="userSpaceOnUse">
<stop stop-color="#C7222B"/>
<stop offset="1" stop-color="#FFCAAB"/>
</linearGradient>
<linearGradient id="paint7_linear_623_61165" x1="22.58" y1="16.7743" x2="17.9701" y2="21.3843" gradientUnits="userSpaceOnUse">
<stop stop-color="#FDB813"/>
<stop offset="1" stop-color="#FFF45F"/>
</linearGradient>
<linearGradient id="paint8_linear_623_61165" x1="41.9419" y1="2.0225" x2="28.573" y2="14.0085" gradientUnits="userSpaceOnUse">
<stop stop-color="#D56B2A"/>
<stop offset="1" stop-color="#FFCAAB"/>
</linearGradient>
</defs>
</svg>
