<svg width="44" height="44" viewBox="0 0 44 44" fill="none" xmlns="http://www.w3.org/2000/svg">
<path d="M2.2876 5.23202C2.14798 3.55142 3.55142 2.14798 5.23201 2.2876L9.03318 2.60339L17.5344 0.35179C25.3177 -1.70966 32.3089 5.63659 29.8648 13.3083C27.3556 21.1844 21.1844 27.3556 13.3083 29.8648C5.63659 32.3089 -1.70966 25.3177 0.35179 17.5344L2.60339 9.03318L2.2876 5.23202Z" fill="url(#paint0_radial_623_60719)"/>
<path opacity="0.7" fill-rule="evenodd" clip-rule="evenodd" d="M5.20896 5.26248C5.56407 4.90737 6.13981 4.90737 6.49492 5.26248L11.6388 10.4063C11.9939 10.7614 11.9939 11.3372 11.6388 11.6923C11.2836 12.0474 10.7079 12.0474 10.3528 11.6923L5.20896 6.54844C4.85385 6.19333 4.85385 5.61758 5.20896 5.26248Z" fill="#D56B2A"/>
<path opacity="0.7" fill-rule="evenodd" clip-rule="evenodd" d="M7.32276 4.47327C7.58115 4.04264 8.1397 3.903 8.57033 4.16138C10.0708 5.06171 12.608 5.85097 14.7689 4.77088C15.2181 4.54635 15.7642 4.72848 15.9888 5.17769C16.2133 5.6269 16.0312 6.17308 15.582 6.39761C12.5984 7.88891 9.34903 6.74948 7.63464 5.72083C7.20401 5.46245 7.06438 4.9039 7.32276 4.47327Z" fill="#D56B2A"/>
<path opacity="0.7" fill-rule="evenodd" clip-rule="evenodd" d="M4.41981 7.37618C3.98918 7.63457 3.84955 8.19312 4.10793 8.62375C5.00825 10.1243 5.79752 12.6614 4.71743 14.8223C4.4929 15.2715 4.67503 15.8177 5.12424 16.0422C5.57345 16.2667 6.11962 16.0846 6.34416 15.6354C7.83546 12.6519 6.69603 9.40245 5.66738 7.68807C5.409 7.25744 4.85044 7.1178 4.41981 7.37618Z" fill="#D56B2A"/>
<path d="M15.9273 18.8717C15.7876 17.1911 17.1911 15.7876 18.8717 15.9272L22.6728 16.243L31.1741 13.9914C38.9573 11.93 45.9486 19.2762 43.5045 26.948C40.9953 34.8241 34.8241 40.9953 26.948 43.5045C19.2762 45.9486 11.93 38.9573 13.9914 31.174L16.243 22.6728L15.9273 18.8717Z" fill="url(#paint1_radial_623_60719)"/>
<path opacity="0.7" fill-rule="evenodd" clip-rule="evenodd" d="M18.8486 18.9022C19.2037 18.5471 19.7795 18.5471 20.1346 18.9022L25.2784 24.046C25.6335 24.4011 25.6335 24.9769 25.2784 25.332C24.9233 25.6871 24.3476 25.6871 23.9925 25.332L18.8486 20.1881C18.4935 19.833 18.4935 19.2573 18.8486 18.9022Z" fill="#D56B2A"/>
<path opacity="0.7" fill-rule="evenodd" clip-rule="evenodd" d="M20.9624 18.1129C21.2208 17.6823 21.7794 17.5427 22.21 17.801C23.7105 18.7014 26.2477 19.4906 28.4085 18.4105C28.8577 18.186 29.4039 18.3681 29.6284 18.8173C29.853 19.2665 29.6708 19.8127 29.2216 20.0373C26.2381 21.5286 22.9887 20.3891 21.2743 19.3605C20.8437 19.1021 20.704 18.5435 20.9624 18.1129Z" fill="#D56B2A"/>
<path opacity="0.7" fill-rule="evenodd" clip-rule="evenodd" d="M18.0595 21.0159C17.6288 21.2743 17.4892 21.8328 17.7476 22.2635C18.6479 23.764 19.4372 26.3011 18.3571 28.462C18.1326 28.9112 18.3147 29.4574 18.7639 29.6819C19.2131 29.9064 19.7593 29.7243 19.9838 29.2751C21.4751 26.2916 20.3357 23.0422 19.307 21.3278C19.0487 20.8971 18.4901 20.7575 18.0595 21.0159Z" fill="#D56B2A"/>
<defs>
<radialGradient id="paint0_radial_623_60719" cx="0" cy="0" r="1" gradientUnits="userSpaceOnUse" gradientTransform="translate(15.5502 15.5502) rotate(90) scale(19.9591)">
<stop stop-color="white"/>
<stop offset="0.770833" stop-color="#FFCAAB"/>
</radialGradient>
<radialGradient id="paint1_radial_623_60719" cx="0" cy="0" r="1" gradientUnits="userSpaceOnUse" gradientTransform="translate(29.1898 29.1898) rotate(90) scale(19.9591)">
<stop stop-color="white"/>
<stop offset="0.760417" stop-color="#FFCAAB"/>
</radialGradient>
</defs>
</svg>
