<svg width="44" height="44" viewBox="0 0 44 44" fill="none" xmlns="http://www.w3.org/2000/svg">
<path d="M13.7026 1.77313L1.77307 13.7027L3.34925 20.754C3.60154 21.8827 4.16976 22.9163 4.98753 23.734L23.5664 42.3129C24.7073 43.4538 26.5859 43.4249 27.7625 42.2484L42.2483 27.7625C43.4249 26.586 43.4538 24.7074 42.3129 23.5665L23.734 4.9876C22.9162 4.16982 21.8826 3.6016 20.754 3.34931L13.7026 1.77313Z" fill="url(#paint0_linear_644_53626)"/>
<path d="M0.352956 13.4187C-0.117652 12.948 -0.117652 12.185 0.352956 11.7144L11.7144 0.352956C12.185 -0.117652 12.948 -0.117652 13.4187 0.352956C13.8893 0.823563 13.8893 1.58657 13.4187 2.05718L2.05718 13.4187C1.58657 13.8893 0.823564 13.8893 0.352956 13.4187Z" fill="#FFF45F"/>
<path d="M27.3364 42.6744L42.6744 27.3364L43.7322 28.3942C44.0892 28.7512 44.0892 29.33 43.7322 29.687L29.6871 43.7321C29.3301 44.0892 28.7512 44.0892 28.3942 43.7321L27.3364 42.6744Z" fill="#FDB813"/>
<path d="M7.45398 26.2003L26.2004 7.45386L36.0944 17.3478L17.3479 36.0942L7.45398 26.2003Z" fill="#038A39"/>
<path d="M13.1346 25.0641C10.311 22.2405 10.311 17.6624 13.1346 14.8388L14.3655 13.608C17.1891 10.7843 21.7671 10.7843 24.5908 13.608L30.5082 19.5254C33.3319 22.3491 33.3319 26.9271 30.5082 29.7507L29.2774 30.9816C26.4538 33.8052 21.8757 33.8052 19.0521 30.9816L13.1346 25.0641Z" fill="url(#paint1_linear_644_53626)"/>
<path d="M32.8475 17.127L40.8005 25.08" stroke="white" stroke-opacity="0.9" stroke-width="2.09605" stroke-linecap="round"/>
<path d="M29.439 13.7186L30.007 14.2866" stroke="white" stroke-opacity="0.9" stroke-width="2.09605" stroke-linecap="round"/>
<defs>
<linearGradient id="paint0_linear_644_53626" x1="20.4567" y1="1.14217" x2="31.1607" y2="38.4174" gradientUnits="userSpaceOnUse">
<stop stop-color="#B2EF76"/>
<stop offset="1" stop-color="#038A39"/>
</linearGradient>
<linearGradient id="paint1_linear_644_53626" x1="19.4828" y1="18.9587" x2="25.9942" y2="34.5861" gradientUnits="userSpaceOnUse">
<stop stop-color="#FFF45F"/>
<stop offset="0.635417" stop-color="#FDB813"/>
</linearGradient>
</defs>
</svg>
