<svg width="44" height="44" viewBox="0 0 44 44" fill="none" xmlns="http://www.w3.org/2000/svg">
<path fill-rule="evenodd" clip-rule="evenodd" d="M28.6429 1.85425C25.3391 1.85425 22.6166 4.61648 22.6166 8.07925V12.0526C22.6166 12.5647 22.2015 12.9798 21.6894 12.9798C21.1774 12.9798 20.7623 12.5647 20.7623 12.0526V8.07925C20.7623 3.642 24.2661 0 28.6429 0C33.0196 0 36.5235 3.642 36.5235 8.07925V12.0526C36.5235 12.5647 36.1084 12.9798 35.5963 12.9798C35.0843 12.9798 34.6692 12.5647 34.6692 12.0526V8.07925C34.6692 4.61648 31.9467 1.85425 28.6429 1.85425Z" fill="url(#paint0_linear_623_61262)"/>
<path d="M38.7821 6.91492H41.2739L43.9961 42.0067C43.9961 43.11 43.1061 44 42.0028 44H36.0599L38.7821 6.91492Z" fill="#DF8858"/>
<path d="M6.79621 7.22087L10.4676 8.76917L13.5457 6.91492L16.6238 8.76917L19.7111 6.91492L22.7891 8.76917L25.8672 6.91492L28.9453 8.76917L32.0233 6.91492L35.1107 8.76917L38.7914 6.91492L36.0691 44H5.52959C4.72299 44 4.07401 43.2397 4.07401 42.3126L6.79621 7.22087Z" fill="url(#paint1_linear_623_61262)"/>
<path fill-rule="evenodd" clip-rule="evenodd" d="M22.5573 1.85425C18.941 1.85425 16.0674 4.67277 16.0674 8.07925V12.0526C16.0674 12.5647 15.6523 12.9798 15.1403 12.9798C14.6283 12.9798 14.2132 12.5647 14.2132 12.0526V8.07925C14.2132 3.58571 17.981 0 22.5573 0C27.1336 0 30.9014 3.58571 30.9014 8.07925V12.0526C30.9014 12.5647 30.4864 12.9798 29.9743 12.9798C29.4623 12.9798 29.0472 12.5647 29.0472 12.0526V8.07925C29.0472 4.67277 26.1736 1.85425 22.5573 1.85425Z" fill="url(#paint2_linear_623_61262)"/>
<path fill-rule="evenodd" clip-rule="evenodd" d="M1.4706 8.27966L9.85626 12.0913C11.314 12.7539 12.2499 14.2074 12.2499 15.8086V20.4076H9.52768V15.8086C9.52768 15.2749 9.21571 14.7904 8.72981 14.5695L0.344147 10.7579L1.4706 8.27966Z" fill="url(#paint3_linear_623_61262)"/>
<path d="M1.24533 23.929H21.1718L18.8419 42.9742C18.7702 43.5598 18.2729 44 17.6829 44H4.73419C4.1442 44 3.64691 43.5598 3.57527 42.9742L1.24533 23.929Z" fill="url(#paint4_linear_623_61262)"/>
<path d="M0.562445 21.0968C0.669781 20.549 1.14995 20.1537 1.70823 20.1537H20.709C21.2673 20.1537 21.7474 20.549 21.8548 21.0968L22.4172 23.9678H-3.05176e-05L0.562445 21.0968Z" fill="url(#paint5_linear_623_61262)"/>
<path d="M18.7005 21.689L12.2259 21.6946" stroke="white" stroke-opacity="0.8" stroke-width="1.16757" stroke-linecap="round"/>
<path d="M20.4271 21.6876L20.212 21.6878" stroke="white" stroke-opacity="0.8" stroke-width="1.16757" stroke-linecap="round"/>
<path d="M17.5 38.4212L18.3294 32" stroke="white" stroke-opacity="0.7" stroke-width="2" stroke-linecap="round"/>
<path d="M17 42.1337L17.0275 41.9203" stroke="white" stroke-opacity="0.7" stroke-width="2" stroke-linecap="round"/>
<defs>
<linearGradient id="paint0_linear_623_61262" x1="28.6429" y1="-3.70851" x2="28.6429" y2="9.73483" gradientUnits="userSpaceOnUse">
<stop stop-color="#DF8858"/>
<stop offset="1" stop-color="#984721"/>
</linearGradient>
<linearGradient id="paint1_linear_623_61262" x1="19.8352" y1="15.7226" x2="39.7155" y2="43.861" gradientUnits="userSpaceOnUse">
<stop stop-color="#DF8858"/>
<stop offset="1" stop-color="#984721"/>
</linearGradient>
<linearGradient id="paint2_linear_623_61262" x1="22.5573" y1="0.927127" x2="22.5573" y2="15.2976" gradientUnits="userSpaceOnUse">
<stop stop-color="#DF8858"/>
<stop offset="1" stop-color="#984721"/>
</linearGradient>
<linearGradient id="paint3_linear_623_61262" x1="6.29701" y1="8.27966" x2="6.29701" y2="20.4076" gradientUnits="userSpaceOnUse">
<stop stop-color="#BAE5EE"/>
<stop offset="1" stop-color="#0C90A2"/>
</linearGradient>
<linearGradient id="paint4_linear_623_61262" x1="11.2086" y1="19.957" x2="15.7528" y2="38.3937" gradientUnits="userSpaceOnUse">
<stop stop-color="#FDB813"/>
<stop offset="1" stop-color="#FFF45F"/>
</linearGradient>
<linearGradient id="paint5_linear_623_61262" x1="11.2086" y1="19.2781" x2="11.7322" y2="22.7007" gradientUnits="userSpaceOnUse">
<stop stop-color="white"/>
<stop offset="1" stop-color="#FF8000"/>
</linearGradient>
</defs>
</svg>
