<svg width="44" height="44" viewBox="0 0 44 44" fill="none" xmlns="http://www.w3.org/2000/svg">
<path d="M6.03001 25.5989C2.85032 25.5989 0.272681 23.0213 0.27268 19.8416C0.27268 17.7166 1.42399 15.8604 3.13688 14.8629L3.06769 14.8229C0.31399 13.2331 -0.629498 9.71196 0.960346 6.95826C2.55019 4.20457 6.07133 3.26108 8.82502 4.85092L9.98188 5.51884C10.0629 3.61642 11.0851 1.79487 12.8563 0.772298C15.61 -0.817548 19.1311 0.125942 20.721 2.87963L22.3262 5.65988C23.0715 4.67771 24.1368 3.92648 25.42 3.58265C28.4913 2.75969 31.6483 4.58235 32.4712 7.6537L35.6422 19.4879C35.8836 20.3888 35.8974 21.2972 35.7187 22.1518C36.1763 25.0269 34.3956 27.8409 31.5215 28.611L19.6111 31.8024C16.5398 32.6254 13.3828 30.8027 12.5599 27.7313C12.3679 27.015 12.3199 26.2939 12.3981 25.5989H6.03001Z" fill="url(#paint0_linear_623_61126)"/>
<path d="M6.03001 25.5989C2.85032 25.5989 0.272681 23.0213 0.27268 19.8416C0.27268 17.7166 1.42399 15.8604 3.13688 14.8629L3.06769 14.8229C0.31399 13.2331 -0.629498 9.71196 0.960346 6.95826C2.55019 4.20457 6.07133 3.26108 8.82502 4.85092L9.98188 5.51884C10.0629 3.61642 11.0851 1.79487 12.8563 0.772298C15.61 -0.817548 19.1311 0.125942 20.721 2.87963L22.3262 5.65988C23.0715 4.67771 24.1368 3.92648 25.42 3.58265C28.4913 2.75969 31.6483 4.58235 32.4712 7.6537L35.6422 19.4879C35.8836 20.3888 35.8974 21.2972 35.7187 22.1518C36.1763 25.0269 34.3956 27.8409 31.5215 28.611L19.6111 31.8024C16.5398 32.6254 13.3828 30.8027 12.5599 27.7313C12.3679 27.015 12.3199 26.2939 12.3981 25.5989H6.03001Z" fill="url(#paint1_radial_623_61126)"/>
<path fill-rule="evenodd" clip-rule="evenodd" d="M16.3511 7.05109C16.6494 6.91851 16.9988 7.05286 17.1313 7.35118L21.361 17.1772L26.8127 20.0269C27.102 20.1781 27.2139 20.5352 27.0627 20.8246C26.9115 21.1139 26.5543 21.2258 26.265 21.0746L21.0126 18.329C20.7865 18.3492 20.5625 18.237 20.4464 18.033L5.01862 9.96851C4.72931 9.81728 4.61737 9.46015 4.76861 9.17083C4.91984 8.88152 5.27697 8.76958 5.56628 8.92081L19.7004 16.3091L16.051 7.83131C15.9184 7.533 16.0528 7.18368 16.3511 7.05109ZM18.3561 19.1333C18.6823 19.1191 18.9352 18.8432 18.921 18.5171C18.9068 18.1909 18.6309 17.938 18.3048 17.9522L7.1987 18.4351C6.87255 18.4492 6.61965 18.7251 6.63383 19.0513C6.64801 19.3774 6.9239 19.6303 7.25005 19.6161L18.3561 19.1333Z" fill="#E1ED9C" fill-opacity="0.5"/>
<path d="M1.11216 13.0406L22.7511 20.5894L22.4608 21.4216C20.3763 27.3971 13.8424 30.5513 7.86694 28.4668C1.89151 26.3822 -1.2627 19.8484 0.821821 13.8729L1.11216 13.0406Z" fill="url(#paint2_linear_623_61126)"/>
<path d="M4.13632 14.0955L19.7271 19.5344L19.5179 20.134C18.016 24.4393 13.3084 26.7119 9.00311 25.21C4.69784 23.7081 2.42525 19.0005 3.92713 14.6952L4.13632 14.0955Z" fill="url(#paint3_radial_623_61126)"/>
<path d="M21.1465 12.5377L40.4096 0.121529L40.8872 0.862418C44.3158 6.18178 42.7831 13.2734 37.4637 16.702C32.1444 20.1307 25.0527 18.5979 21.6241 13.2786L21.1465 12.5377Z" fill="url(#paint4_linear_623_61126)"/>
<path d="M23.8386 10.8024L37.7176 1.85663L38.0617 2.39044C40.532 6.22301 39.4276 11.3325 35.5951 13.8028C31.7625 16.2731 26.653 15.1688 24.1827 11.3362L23.8386 10.8024Z" fill="url(#paint5_radial_623_61126)"/>
<path d="M23.0589 14.4993C23.8173 11.669 26.7265 9.98934 29.5568 10.7477C31.1825 11.1833 32.4285 12.3284 33.051 13.7606L34.9359 11.8757C37.0079 9.80373 40.3671 9.80373 42.4391 11.8757C44.511 13.9476 44.511 17.3069 42.4391 19.3789L40.6094 21.2085C41.9447 21.8579 43.0015 23.061 43.4159 24.6077C44.1743 27.438 42.4946 30.3473 39.6643 31.1056L34.8761 32.3886C35.0442 32.9056 35.1351 33.4575 35.1351 34.0306C35.1351 36.9607 32.7597 39.3361 29.8295 39.3361H18.5393C16.1395 39.3361 14.1119 37.7428 13.4564 35.5564C13.0588 34.8122 12.8333 33.9622 12.8333 33.0594L12.8333 21.6965C12.8333 18.7663 15.2087 16.391 18.1389 16.391C19.7039 16.391 21.1106 17.0686 22.0817 18.1464L23.0589 14.4993Z" fill="url(#paint6_linear_623_61126)"/>
<path d="M23.0589 14.4993C23.8173 11.669 26.7265 9.98934 29.5568 10.7477C31.1825 11.1833 32.4285 12.3284 33.051 13.7606L34.9359 11.8757C37.0079 9.80373 40.3671 9.80373 42.4391 11.8757C44.511 13.9476 44.511 17.3069 42.4391 19.3789L40.6094 21.2085C41.9447 21.8579 43.0015 23.061 43.4159 24.6077C44.1743 27.438 42.4946 30.3473 39.6643 31.1056L34.8761 32.3886C35.0442 32.9056 35.1351 33.4575 35.1351 34.0306C35.1351 36.9607 32.7597 39.3361 29.8295 39.3361H18.5393C16.1395 39.3361 14.1119 37.7428 13.4564 35.5564C13.0588 34.8122 12.8333 33.9622 12.8333 33.0594L12.8333 21.6965C12.8333 18.7663 15.2087 16.391 18.1389 16.391C19.7039 16.391 21.1106 17.0686 22.0817 18.1464L23.0589 14.4993Z" fill="url(#paint7_linear_623_61126)"/>
<path d="M36.6584 26.2571L27.4296 26.726" stroke="#E1ED9C" stroke-opacity="0.5" stroke-width="1.14855" stroke-linecap="round"/>
<path fill-rule="evenodd" clip-rule="evenodd" d="M24.8636 27.2025C24.563 27.1016 24.4011 26.776 24.5021 26.4753L27.9405 16.2372C28.0415 15.9365 28.3671 15.7746 28.6678 15.8756C28.9684 15.9766 29.1303 16.3022 29.0293 16.6028L25.7107 26.4841L37.5866 16.033C37.8247 15.8235 38.1875 15.8467 38.3971 16.0848C38.6066 16.3229 38.5834 16.6857 38.3453 16.8953L24.3619 29.2011C24.4801 29.4595 24.3911 29.7717 24.1437 29.9263C23.9519 30.0462 23.7166 30.039 23.5365 29.9274L20.8603 32.2826C20.6222 32.4921 20.2593 32.469 20.0498 32.2309C19.8402 31.9928 19.8634 31.6299 20.1015 31.4204L22.8748 28.9797L18.661 22.2376C18.4929 21.9687 18.5747 21.6144 18.8437 21.4463C19.1126 21.2782 19.4669 21.3599 19.635 21.6289L23.7487 28.2108L24.8863 27.2096C24.8787 27.2074 24.8712 27.2051 24.8636 27.2025Z" fill="#E1ED9C" fill-opacity="0.5"/>
<path d="M44 25.6667C44 35.792 35.7919 44.0001 25.6667 44.0001L18.3333 44.0001C8.20811 44.0001 6.68316e-07 35.7919 1.49273e-06 25.6667L44 25.6667Z" fill="url(#paint8_linear_623_61126)"/>
<path d="M26 41.2083C31.4306 40.9012 36.2508 37.8753 38.9971 33.4167M40.6686 29.75C40.7459 29.5025 40.8174 29.2525 40.883 29" stroke="white" stroke-opacity="0.5" stroke-width="2" stroke-linecap="round"/>
<defs>
<linearGradient id="paint0_linear_623_61126" x1="17.7541" y1="23.9866" x2="17.7544" y2="-0.838022" gradientUnits="userSpaceOnUse">
<stop stop-color="#038A39"/>
<stop offset="1" stop-color="#7CC362"/>
</linearGradient>
<radialGradient id="paint1_radial_623_61126" cx="0" cy="0" r="1" gradientUnits="userSpaceOnUse" gradientTransform="translate(27.59 11.3402) rotate(89.9994) scale(13.1149 13.1346)">
<stop stop-color="#038A39"/>
<stop offset="0.383505" stop-color="#038A39" stop-opacity="0"/>
</radialGradient>
<linearGradient id="paint2_linear_623_61126" x1="19.5788" y1="21.6287" x2="2.85205" y2="21.0566" gradientUnits="userSpaceOnUse">
<stop stop-color="#EF4848"/>
<stop offset="1" stop-color="#C3363E"/>
</linearGradient>
<radialGradient id="paint3_radial_623_61126" cx="0" cy="0" r="1" gradientUnits="userSpaceOnUse" gradientTransform="translate(12.1243 16.0598) rotate(108.25) scale(8.79564 16.3348)">
<stop stop-color="#F0656F"/>
<stop offset="1" stop-color="#EF4848"/>
</radialGradient>
<linearGradient id="paint4_linear_623_61126" x1="39.2775" y1="3.26196" x2="28.5366" y2="16.0972" gradientUnits="userSpaceOnUse">
<stop stop-color="#EF4848"/>
<stop offset="1" stop-color="#C3363E"/>
</linearGradient>
<radialGradient id="paint5_radial_623_61126" cx="0" cy="0" r="1" gradientUnits="userSpaceOnUse" gradientTransform="translate(30.3012 5.71308) rotate(56.2149) scale(8.79564 16.3348)">
<stop stop-color="#F0656F"/>
<stop offset="1" stop-color="#EF4848"/>
</radialGradient>
<linearGradient id="paint6_linear_623_61126" x1="33.8712" y1="8.4948" x2="39.7868" y2="28.517" gradientUnits="userSpaceOnUse">
<stop stop-color="#E1ED9C"/>
<stop offset="0.469359" stop-color="#7CC362"/>
<stop offset="1" stop-color="#038A39"/>
</linearGradient>
<linearGradient id="paint7_linear_623_61126" x1="24.7699" y1="24.4217" x2="25.2249" y2="20.3262" gradientUnits="userSpaceOnUse">
<stop stop-color="#038A39"/>
<stop offset="1" stop-color="#038A39" stop-opacity="0"/>
</linearGradient>
<linearGradient id="paint8_linear_623_61126" x1="24.3097" y1="16.5" x2="30.0928" y2="32.9693" gradientUnits="userSpaceOnUse">
<stop stop-color="white"/>
<stop offset="1" stop-color="#FFA0B7"/>
</linearGradient>
</defs>
</svg>
