<svg width="44" height="44" viewBox="0 0 44 44" fill="none" xmlns="http://www.w3.org/2000/svg">
<path d="M13.1463 9.95507C13.1463 7.75586 14.4185 5.97304 15.9879 5.97304H19.2047C21.2432 5.97304 23.053 4.14509 23.6977 1.43504L24.1179 0L26.9469 3.19005C28.164 4.89565 28.589 7.41852 28.0447 9.70683C27.6323 11.4404 26.4746 12.6098 25.1706 12.6098H15.0407C13.9944 12.6098 13.1463 11.4212 13.1463 9.95507Z" fill="url(#paint0_linear_623_60759)"/>
<circle cx="14.1301" cy="16.7236" r="4.9187" fill="#C7222B"/>
<circle cx="27.9024" cy="16.7236" r="4.9187" fill="#C7222B"/>
<path d="M31.1667 16.5C31.1667 14.4749 29.525 12.8333 27.5 12.8333" stroke="white" stroke-opacity="0.7" stroke-width="0.916667" stroke-linecap="round"/>
<circle cx="21.0163" cy="15.7399" r="4.9187" fill="url(#paint1_linear_623_60759)"/>
<path d="M24.75 15.5834C24.75 13.5583 23.1084 11.9167 21.0833 11.9167" stroke="white" stroke-opacity="0.7" stroke-width="0.916667" stroke-linecap="round"/>
<path d="M2.32526 19.6747H38.7236C40.3535 19.6747 41.6749 20.996 41.6749 22.626V40.3333H2.32526V19.6747Z" fill="url(#paint2_linear_623_60759)"/>
<path d="M2.32526 19.6747H34.7887V40.3333H2.32526V19.6747Z" fill="url(#paint3_linear_623_60759)"/>
<path fill-rule="evenodd" clip-rule="evenodd" d="M34.7887 19.6747H14.1301V19.6748H2.32526V37.3821H31.8375V23.6097H34.7887V19.6747Z" fill="url(#paint4_linear_623_60759)"/>
<path d="M34.7886 19.6747H38.7235C40.3534 19.6747 41.6748 20.996 41.6748 22.626V23.6097H34.7886V19.6747Z" fill="#FDB813"/>
<rect y="40.3333" width="44" height="3.66667" fill="url(#paint5_linear_623_60759)"/>
<path fill-rule="evenodd" clip-rule="evenodd" d="M22 19.6747H18.065V19.6748H14.1301V31.4796C14.1301 32.5662 15.011 33.4471 16.0976 33.4471C17.1842 33.4471 18.0651 32.5662 18.0651 31.4796V22.6443C18.0749 23.7225 18.952 24.5934 20.0325 24.5934C21.1191 24.5934 22 23.7126 22 22.626V19.6747Z" fill="url(#paint6_linear_623_60759)"/>
<defs>
<linearGradient id="paint0_linear_623_60759" x1="20.7122" y1="2.75" x2="25.8916" y2="11.6536" gradientUnits="userSpaceOnUse">
<stop stop-color="#FFF5D8"/>
<stop offset="1" stop-color="#FFF45F"/>
</linearGradient>
<linearGradient id="paint1_linear_623_60759" x1="21.0163" y1="14.2083" x2="22.8135" y2="20.1114" gradientUnits="userSpaceOnUse">
<stop stop-color="#FD4343"/>
<stop offset="1" stop-color="#C7222B"/>
</linearGradient>
<linearGradient id="paint2_linear_623_60759" x1="22.0001" y1="19.6747" x2="22.0001" y2="40.3333" gradientUnits="userSpaceOnUse">
<stop stop-color="#D56B2A"/>
<stop offset="1" stop-color="#723319"/>
</linearGradient>
<linearGradient id="paint3_linear_623_60759" x1="18.557" y1="19.6747" x2="18.557" y2="40.3333" gradientUnits="userSpaceOnUse">
<stop stop-color="#FFCAAB"/>
<stop offset="1" stop-color="#D56B2A"/>
</linearGradient>
<linearGradient id="paint4_linear_623_60759" x1="18.557" y1="16.5" x2="23.2666" y2="32.6244" gradientUnits="userSpaceOnUse">
<stop stop-color="#FFF5D8"/>
<stop offset="1" stop-color="#FFF45F"/>
</linearGradient>
<linearGradient id="paint5_linear_623_60759" x1="22" y1="38.9583" x2="22.3855" y2="43.9703" gradientUnits="userSpaceOnUse">
<stop stop-color="white"/>
<stop offset="1" stop-color="#FDB813"/>
</linearGradient>
<linearGradient id="paint6_linear_623_60759" x1="18.065" y1="22.4583" x2="23.5557" y2="28.1556" gradientUnits="userSpaceOnUse">
<stop stop-color="#FD4343"/>
<stop offset="1" stop-color="#C7222B"/>
</linearGradient>
</defs>
</svg>
