<svg width="47" height="44" viewBox="0 0 47 44" fill="none" xmlns="http://www.w3.org/2000/svg">
<path d="M43.8361 5.49823L43.7431 8.76096L3.53374 6.52727L3.56471 5.4397L43.8361 5.49823Z" fill="url(#paint0_linear_623_60912)"/>
<path d="M43.7448 0L43.8327 3.26287L3.56127 3.25945L3.53197 2.17182L43.7448 0Z" fill="url(#paint1_linear_623_60912)"/>
<path d="M9.9194 5.50002C9.9194 4.4875 10.7402 3.66669 11.7527 3.66669C12.7653 3.66669 13.5861 4.4875 13.5861 5.50002V19.25H9.9194V5.50002Z" fill="url(#paint2_linear_623_60912)"/>
<path d="M17.2527 5.50002C17.2527 4.4875 18.0735 3.66669 19.0861 3.66669C20.0986 3.66669 20.9194 4.4875 20.9194 5.50002V19.25H17.2527V5.50002Z" fill="url(#paint3_linear_623_60912)"/>
<path d="M24.5861 5.50002C24.5861 4.4875 25.4069 3.66669 26.4194 3.66669C27.4319 3.66669 28.2527 4.4875 28.2527 5.50002V19.25H24.5861V5.50002Z" fill="url(#paint4_linear_623_60912)"/>
<path d="M13.5861 5.50002C13.5861 4.4875 14.4069 3.66669 15.4194 3.66669C16.4319 3.66669 17.2527 4.4875 17.2527 5.50002V19.25H13.5861V5.50002Z" fill="url(#paint5_linear_623_60912)"/>
<path d="M20.9194 5.50002C20.9194 4.4875 21.7402 3.66669 22.7527 3.66669C23.7653 3.66669 24.5861 4.4875 24.5861 5.50002V19.25H20.9194V5.50002Z" fill="url(#paint6_linear_623_60912)"/>
<path d="M15.8406 18.8767H40.924L37.5377 41.6544C37.3373 43.0022 36.1802 44 34.8176 44H15.8406L15.8406 18.8767Z" fill="url(#paint7_linear_623_60912)"/>
<path d="M14.258 18.8767H2.58599L0.409795 21.5747C-0.557472 22.7739 0.296107 24.5591 1.83679 24.5591H9.67471L14.258 18.8767Z" fill="url(#paint8_linear_623_60912)"/>
<path d="M2.58601 18.8767H27.6694V44H8.95932C7.60864 44 6.45791 43.0191 6.24402 41.6855L2.58601 18.8767Z" fill="url(#paint9_linear_623_60912)"/>
<path d="M27.8002 18.8767H40.924L43.484 21.4507C44.6099 22.614 43.7856 24.5591 42.1667 24.5591H35.2426C34.0011 24.5591 32.8127 24.0554 31.9493 23.1634L27.8002 18.8767Z" fill="url(#paint10_linear_623_60912)"/>
<path fill-rule="evenodd" clip-rule="evenodd" d="M25.3037 11.2546C24.4608 12.1988 24.5428 13.6474 25.487 14.4904C26.4311 15.3333 27.8798 15.2512 28.7227 14.3071L30.7741 16.1386C28.9197 18.2156 25.7326 18.3961 23.6555 16.5417C21.5784 14.6873 21.3979 11.5002 23.2523 9.42316L25.3037 11.2546Z" fill="url(#paint11_radial_623_60912)"/>
<path fill-rule="evenodd" clip-rule="evenodd" d="M12.026 8.74145C12.6602 9.83671 14.0623 10.2104 15.1575 9.57615C16.2528 8.94189 16.6265 7.53984 15.9922 6.44458L18.372 5.06646C19.7674 7.47603 18.9452 10.5605 16.5357 11.9559C14.1261 13.3513 11.0416 12.5291 9.64621 10.1196L12.026 8.74145Z" fill="url(#paint12_radial_623_60912)"/>
<defs>
<linearGradient id="paint0_linear_623_60912" x1="43.7896" y1="7.1296" x2="3.54922" y2="5.98348" gradientUnits="userSpaceOnUse">
<stop stop-color="#DF8858"/>
<stop offset="1" stop-color="#723319"/>
</linearGradient>
<linearGradient id="paint1_linear_623_60912" x1="43.7887" y1="1.63144" x2="3.54662" y2="2.71563" gradientUnits="userSpaceOnUse">
<stop stop-color="#DF8858"/>
<stop offset="1" stop-color="#723319"/>
</linearGradient>
<linearGradient id="paint2_linear_623_60912" x1="11.0866" y1="6.61945" x2="11.0867" y2="18.9944" gradientUnits="userSpaceOnUse">
<stop stop-color="#FFF45F"/>
<stop offset="1" stop-color="#FDB813"/>
</linearGradient>
<linearGradient id="paint3_linear_623_60912" x1="18.42" y1="6.61945" x2="18.42" y2="18.9944" gradientUnits="userSpaceOnUse">
<stop stop-color="#FFF45F"/>
<stop offset="1" stop-color="#FDB813"/>
</linearGradient>
<linearGradient id="paint4_linear_623_60912" x1="25.7533" y1="6.61945" x2="25.7533" y2="18.9944" gradientUnits="userSpaceOnUse">
<stop stop-color="#FFF45F"/>
<stop offset="1" stop-color="#FDB813"/>
</linearGradient>
<linearGradient id="paint5_linear_623_60912" x1="14.5027" y1="11.6611" x2="14.7534" y2="18.9944" gradientUnits="userSpaceOnUse">
<stop stop-color="#FDB813"/>
<stop offset="1" stop-color="#D56B2A"/>
</linearGradient>
<linearGradient id="paint6_linear_623_60912" x1="21.836" y1="11.6611" x2="22.0867" y2="18.9944" gradientUnits="userSpaceOnUse">
<stop stop-color="#FDB813"/>
<stop offset="1" stop-color="#D56B2A"/>
</linearGradient>
<linearGradient id="paint7_linear_623_60912" x1="28.3823" y1="17.4167" x2="36.8336" y2="33" gradientUnits="userSpaceOnUse">
<stop stop-color="#D56B2A"/>
<stop offset="1" stop-color="#FDB813"/>
</linearGradient>
<linearGradient id="paint8_linear_623_60912" x1="7.04704" y1="17.4167" x2="8.60841" y2="22.4305" gradientUnits="userSpaceOnUse">
<stop stop-color="#723319"/>
<stop offset="1" stop-color="#FFF45F"/>
</linearGradient>
<linearGradient id="paint9_linear_623_60912" x1="15.4193" y1="9.625" x2="24.0892" y2="29.1503" gradientUnits="userSpaceOnUse">
<stop stop-color="#FFF5D8"/>
<stop offset="1" stop-color="#FFF45F"/>
</linearGradient>
<linearGradient id="paint10_linear_623_60912" x1="35.586" y1="16.9583" x2="37.3779" y2="21.2522" gradientUnits="userSpaceOnUse">
<stop stop-color="white"/>
<stop offset="1" stop-color="#FFF45F"/>
</linearGradient>
<radialGradient id="paint11_radial_623_60912" cx="0" cy="0" r="1" gradientUnits="userSpaceOnUse" gradientTransform="translate(25.3343 14.6613) rotate(131.758) scale(2.52083 5.04167)">
<stop stop-color="#FD4343"/>
<stop offset="1" stop-color="#C7222B"/>
</radialGradient>
<radialGradient id="paint12_radial_623_60912" cx="0" cy="0" r="1" gradientUnits="userSpaceOnUse" gradientTransform="translate(15.2724 9.77447) rotate(59.9249) scale(2.52083 5.04167)">
<stop stop-color="#B2EF76"/>
<stop offset="1" stop-color="#038A39"/>
</radialGradient>
</defs>
</svg>
