<svg width="44" height="44" viewBox="0 0 44 44" fill="none" xmlns="http://www.w3.org/2000/svg">
<path fill-rule="evenodd" clip-rule="evenodd" d="M27.4305 40.565C27.2773 42.8464 29.4115 44.839 31.3582 43.6397C32.8262 42.7353 34.213 41.6469 35.4854 40.3745C44.2834 31.5766 44.2834 17.3124 35.4854 8.51447C26.6875 -0.283468 12.4233 -0.283469 3.62539 8.51447C2.35296 9.7869 1.26457 11.1736 0.360197 12.6416C-0.839081 14.5884 1.15352 16.7225 3.43486 16.5694C9.69524 16.1492 16.0977 18.3317 20.8829 23.117C25.6682 27.9022 27.8507 34.3047 27.4305 40.565Z" fill="url(#paint0_linear_623_60699)"/>
<path d="M41.0658 32.3957C42.3893 32.3957 43.5503 31.4754 43.7224 30.1631C44.7611 22.2396 42.2368 13.9382 36.1493 7.85072C30.0618 1.76324 21.7605 -0.761208 13.837 0.277424C12.5247 0.449438 11.6043 1.61043 11.6043 2.93393L11.6043 18.1689C11.6043 19.251 12.231 20.226 13.1725 20.7593C15.2183 21.9183 17.1434 23.3695 18.887 25.113C20.6305 26.8566 22.0817 28.7817 23.2407 30.8275C23.774 31.769 24.749 32.3957 25.8311 32.3957L41.0658 32.3957Z" fill="url(#paint1_linear_623_60699)"/>
<path d="M42.3486 19.1482C43.6968 18.5617 44.3798 17.0299 43.7824 15.6864C42.3045 12.3627 40.2026 9.24915 37.4768 6.5233C34.7509 3.79739 31.6373 1.69548 28.3134 0.217581C26.97 -0.379765 25.4382 0.30316 24.8516 1.65134L15.9963 22.0045C15.4883 23.1723 15.8366 24.526 16.774 25.3879C17.0916 25.6799 17.4044 25.9799 17.7123 26.2878C18.0202 26.5956 18.3201 26.9084 18.612 27.2259C19.474 28.1633 20.8277 28.5116 21.9954 28.0036L42.3486 19.1482Z" fill="url(#paint2_linear_623_60699)"/>
<path d="M39.6887 13.5985C35.124 7.20789 32.3852 5.83849 27.8205 3.09967" stroke="white" stroke-opacity="0.4" stroke-width="2" stroke-linecap="round"/>
<defs>
<linearGradient id="paint0_linear_623_60699" x1="12.2541" y1="11.3162" x2="20.9913" y2="32.8823" gradientUnits="userSpaceOnUse">
<stop stop-color="#FDB813"/>
<stop offset="1" stop-color="#FF9248"/>
</linearGradient>
<linearGradient id="paint1_linear_623_60699" x1="17.8326" y1="11.7726" x2="23.0831" y2="28.876" gradientUnits="userSpaceOnUse">
<stop stop-color="#FF9248"/>
<stop offset="1" stop-color="#D56B2A"/>
</linearGradient>
<linearGradient id="paint2_linear_623_60699" x1="17.5756" y1="1.27379" x2="27.0529" y2="26.466" gradientUnits="userSpaceOnUse">
<stop stop-color="#FDB813"/>
<stop offset="1" stop-color="#FF9248"/>
</linearGradient>
</defs>
</svg>
