<svg width="44" height="44" viewBox="0 0 44 44" fill="none" xmlns="http://www.w3.org/2000/svg">
<path d="M18.4538 19.7874C17.9955 18.9282 18.9281 17.9956 19.7874 18.4538C20.1497 18.6471 20.5846 18.6471 20.947 18.4538L22.0859 17.8464C23.1601 17.2735 24.4492 17.2735 25.5234 17.8464C26.5976 18.4193 27.8867 18.4193 28.9609 17.8464C30.0351 17.2735 31.3242 17.2735 32.3984 17.8464C33.4726 18.4193 34.7617 18.4193 35.8359 17.8464C36.9101 17.2735 38.1992 17.2735 39.2734 17.8464L40.4124 18.4538C40.7747 18.6471 41.2096 18.6471 41.572 18.4538C42.4312 17.9956 43.3638 18.9282 42.9056 19.7874C42.7123 20.1498 42.7123 20.5846 42.9056 20.947L43.513 22.086C44.0859 23.1602 44.0859 24.4492 43.513 25.5235C42.9401 26.5977 42.9401 27.8867 43.513 28.961C44.0859 30.0352 44.0859 31.3242 43.513 32.3985C42.9401 33.4727 42.9401 34.7617 43.513 35.836C44.0859 36.9102 44.0859 38.1992 43.513 39.2735L42.9056 40.4124C42.7123 40.7748 42.7123 41.2096 42.9056 41.572C43.3638 42.4312 42.4312 43.3639 41.572 42.9056C41.2096 42.7123 40.7747 42.7123 40.4124 42.9056L39.2734 43.513C38.1992 44.086 36.9101 44.086 35.8359 43.513C34.7617 42.9401 33.4726 42.9401 32.3984 43.513C31.3242 44.086 30.0351 44.086 28.9609 43.513C27.8867 42.9401 26.5976 42.9401 25.5234 43.513C24.4492 44.086 23.1601 44.086 22.0859 43.513L20.947 42.9056C20.5846 42.7123 20.1497 42.7123 19.7874 42.9056C18.9281 43.3639 17.9955 42.4312 18.4538 41.572C18.647 41.2096 18.647 40.7748 18.4538 40.4124L17.8463 39.2735C17.2734 38.1992 17.2734 36.9102 17.8463 35.836C18.4193 34.7617 18.4193 33.4727 17.8463 32.3985C17.2734 31.3242 17.2734 30.0352 17.8463 28.961C18.4193 27.8867 18.4193 26.5977 17.8463 25.5235C17.2734 24.4492 17.2734 23.1602 17.8463 22.086L18.4538 20.947C18.647 20.5846 18.647 20.1498 18.4538 19.7874Z" fill="url(#paint0_linear_623_60849)"/>
<rect x="21.513" y="21.513" width="18.3333" height="18.3333" rx="6.41667" fill="url(#paint1_linear_623_60849)"/>
<path fill-rule="evenodd" clip-rule="evenodd" d="M30.6797 23.3464C30.6797 22.8401 31.0901 22.4297 31.5964 22.4297C31.9511 22.4297 32.3006 22.455 32.6428 22.5039C33.144 22.5756 33.4921 23.04 33.4205 23.5411C33.3488 24.0423 32.8844 24.3905 32.3832 24.3188C32.1267 24.2821 31.864 24.263 31.5964 24.263C31.0901 24.263 30.6797 23.8526 30.6797 23.3464ZM34.1182 23.7899C34.3794 23.3563 34.9428 23.2166 35.3764 23.4779C37.5036 24.7597 38.9297 27.0944 38.9297 29.763V31.5964C38.9297 32.1026 38.5193 32.513 38.013 32.513C37.5068 32.513 37.0964 32.1026 37.0964 31.5964V29.763C37.0964 27.7634 36.0298 26.012 34.4302 25.0482C33.9966 24.7869 33.8569 24.2235 34.1182 23.7899Z" fill="white" fill-opacity="0.7"/>
<path d="M21.0292 34.9194C15.6501 36.3607 10.121 33.1685 8.67967 27.7894C14.0588 26.3481 19.5879 29.5403 21.0292 34.9194Z" fill="url(#paint2_linear_623_60849)"/>
<path d="M1.03712 2.3707C0.578865 1.51148 1.51148 0.578865 2.3707 1.03712C2.73309 1.23039 3.16795 1.23039 3.53034 1.03712L4.66927 0.429687C5.74349 -0.143229 7.03255 -0.143229 8.10677 0.429687C9.18099 1.0026 10.4701 1.0026 11.5443 0.429687C12.6185 -0.143229 13.9076 -0.143229 14.9818 0.429687C16.056 1.0026 17.3451 1.0026 18.4193 0.429687C19.4935 -0.143229 20.7826 -0.143229 21.8568 0.429687L22.9957 1.03712C23.3581 1.23039 23.793 1.23039 24.1553 1.03712C25.0146 0.578865 25.9472 1.51148 25.4889 2.3707C25.2957 2.73309 25.2957 3.16795 25.4889 3.53034L26.0964 4.66927C26.6693 5.74349 26.6693 7.03255 26.0964 8.10677C25.5234 9.18099 25.5234 10.4701 26.0964 11.5443C26.6693 12.6185 26.6693 13.9076 26.0964 14.9818C25.5234 16.056 25.5234 17.3451 26.0964 18.4193C26.6693 19.4935 26.6693 20.7826 26.0964 21.8568L25.4889 22.9957C25.2957 23.3581 25.2957 23.793 25.4889 24.1553C25.9472 25.0146 25.0146 25.9472 24.1553 25.4889C23.793 25.2957 23.3581 25.2957 22.9957 25.4889L21.8568 26.0964C20.7826 26.6693 19.4935 26.6693 18.4193 26.0964C17.3451 25.5234 16.056 25.5234 14.9818 26.0964C13.9076 26.6693 12.6185 26.6693 11.5443 26.0964C10.4701 25.5234 9.18099 25.5234 8.10677 26.0964C7.03255 26.6693 5.74349 26.6693 4.66927 26.0964L3.53034 25.4889C3.16795 25.2957 2.73309 25.2957 2.3707 25.4889C1.51148 25.9472 0.578865 25.0146 1.03712 24.1553C1.23039 23.793 1.23039 23.3581 1.03712 22.9957L0.429687 21.8568C-0.143229 20.7826 -0.143229 19.4935 0.429687 18.4193C1.0026 17.3451 1.0026 16.056 0.429687 14.9818C-0.143229 13.9076 -0.143229 12.6185 0.429687 11.5443C1.0026 10.4701 1.0026 9.18099 0.429687 8.10677C-0.143229 7.03255 -0.143229 5.74349 0.429687 4.66927L1.03712 3.53034C1.23039 3.16795 1.23039 2.73309 1.03712 2.3707Z" fill="url(#paint3_linear_623_60849)"/>
<rect x="4.09634" y="4.09637" width="18.3333" height="18.3333" rx="6.41667" fill="url(#paint4_linear_623_60849)"/>
<path fill-rule="evenodd" clip-rule="evenodd" d="M13.263 5.92967C13.263 5.42341 13.6734 5.013 14.1797 5.013C14.5345 5.013 14.8839 5.03826 15.2262 5.08722C15.7273 5.1589 16.0755 5.62329 16.0038 6.12445C15.9321 6.62561 15.4677 6.97376 14.9666 6.90208C14.71 6.86539 14.4474 6.84633 14.1797 6.84633C13.6734 6.84633 13.263 6.43593 13.263 5.92967ZM16.7015 6.37324C16.9628 5.93961 17.5261 5.7999 17.9597 6.06119C20.087 7.34297 21.513 9.67767 21.513 12.3463V14.1797C21.513 14.6859 21.1026 15.0963 20.5964 15.0963C20.0901 15.0963 19.6797 14.6859 19.6797 14.1797V12.3463C19.6797 10.3467 18.6132 8.59534 17.0136 7.63148C16.5799 7.3702 16.4402 6.80686 16.7015 6.37324Z" fill="white" fill-opacity="0.7"/>
<path d="M24.263 12.5963C27.9334 8.40816 34.304 7.98844 38.4921 11.6588C34.8217 15.847 28.4511 16.2667 24.263 12.5963Z" fill="url(#paint5_linear_623_60849)"/>
<path d="M3.9561 14.6124C2.51477 9.23332 5.70698 3.70425 11.0861 2.26292C12.5274 7.64204 9.33522 13.1711 3.9561 14.6124Z" fill="url(#paint6_linear_623_60849)"/>
<defs>
<linearGradient id="paint0_linear_623_60849" x1="30.6797" y1="16.9297" x2="42.0984" y2="38.3397" gradientUnits="userSpaceOnUse">
<stop stop-color="#FDB813"/>
<stop offset="1" stop-color="#FFF45F"/>
</linearGradient>
<linearGradient id="paint1_linear_623_60849" x1="30.6797" y1="21.513" x2="37.0015" y2="37.3176" gradientUnits="userSpaceOnUse">
<stop stop-color="#FFF45F"/>
<stop offset="1" stop-color="#FDB813"/>
</linearGradient>
<linearGradient id="paint2_linear_623_60849" x1="9.98455" y1="32.6593" x2="16.2026" y2="26.4964" gradientUnits="userSpaceOnUse">
<stop stop-color="#038A39"/>
<stop offset="1" stop-color="#B2EF76"/>
</linearGradient>
<linearGradient id="paint3_linear_623_60849" x1="13.263" y1="-0.486979" x2="24.6817" y2="20.9231" gradientUnits="userSpaceOnUse">
<stop stop-color="#FDB813"/>
<stop offset="1" stop-color="#FFF45F"/>
</linearGradient>
<linearGradient id="paint4_linear_623_60849" x1="13.263" y1="4.09637" x2="19.5849" y2="19.901" gradientUnits="userSpaceOnUse">
<stop stop-color="#FFF45F"/>
<stop offset="1" stop-color="#FDB813"/>
</linearGradient>
<linearGradient id="paint5_linear_623_60849" x1="34.7005" y1="8.33592" x2="32.9572" y2="16.9154" gradientUnits="userSpaceOnUse">
<stop stop-color="#038A39"/>
<stop offset="1" stop-color="#B2EF76"/>
</linearGradient>
<linearGradient id="paint6_linear_623_60849" x1="6.21622" y1="3.5678" x2="12.3792" y2="9.78587" gradientUnits="userSpaceOnUse">
<stop stop-color="#038A39"/>
<stop offset="1" stop-color="#B2EF76"/>
</linearGradient>
</defs>
</svg>
