<svg width="44" height="44" viewBox="0 0 44 44" fill="none" xmlns="http://www.w3.org/2000/svg">
<path d="M38.0607 1.22109C38.5071 0.166456 39.7461 -0.298766 40.7762 0.2015L41.1474 0.381762C42.1617 0.874307 42.5685 2.10745 42.0465 3.10683L27.3551 31.232L25.5109 30.8748L38.0607 1.22109Z" fill="url(#paint0_linear_623_61181)"/>
<path d="M43.251 24.7048C43.0029 24.1729 42.7551 23.6418 42.6094 23.0901C42.4639 22.5393 42.4116 21.9335 42.3593 21.3264C42.2903 20.5263 42.2212 19.724 41.9381 19.0432C41.6557 18.3639 41.1708 17.8271 40.6861 17.2905C40.3164 16.8813 39.9468 16.4722 39.6675 16.0002C39.3881 15.5281 39.1863 14.9703 38.9843 14.4117C38.7195 13.6796 38.4543 12.9463 38.0134 12.4038C37.5727 11.8615 36.9791 11.5365 36.385 11.2112C35.9313 10.9628 35.4774 10.7142 35.0908 10.3686C34.7042 10.0229 34.373 9.56829 34.0419 9.11385C33.6084 8.51881 33.175 7.92406 32.6178 7.5745C32.0612 7.22531 31.418 7.14236 30.7734 7.05924C30.28 6.99562 29.7858 6.93189 29.329 6.74853C28.8753 6.56639 28.4502 6.264 28.0251 5.9617C27.4634 5.56216 26.9018 5.16276 26.2747 5.04127C25.6509 4.92041 25.0218 5.08728 24.3906 5.25474C23.9072 5.38298 23.4225 5.51156 22.9378 5.51156C22.4495 5.51156 21.9556 5.38254 21.4651 5.2544C20.8329 5.08926 20.2063 4.92556 19.6041 5.04127C18.9966 5.158 18.4274 5.56037 17.8589 5.96226C17.4266 6.26788 16.9947 6.57324 16.5465 6.75249C16.099 6.93151 15.6066 6.99578 15.1132 7.06019C14.463 7.14507 13.8111 7.23017 13.2578 7.57845C12.7057 7.92594 12.2695 8.52269 11.8334 9.11908C11.5008 9.57403 11.1684 10.0288 10.7848 10.3725C10.4012 10.7163 9.9478 10.9646 9.49389 11.2131C8.89891 11.539 8.30303 11.8653 7.86215 12.4078C7.42142 12.9501 7.15728 13.6805 6.89289 14.4116C6.69102 14.9698 6.48901 15.5285 6.20813 16.0041C5.92721 16.4798 5.55777 16.8874 5.18846 17.2948C4.70489 17.8283 4.22155 18.3615 3.93747 19.0472C3.65369 19.7321 3.58628 20.5236 3.51874 21.3167C3.46703 21.9238 3.41524 22.532 3.26623 23.094C3.11808 23.6528 2.87203 24.1771 2.62614 24.7011C2.31811 25.3575 2.01032 26.0134 1.8955 26.736H1.87878C1.88128 26.7554 1.88392 26.7748 1.8867 26.7942C1.88392 26.8135 1.88128 26.8329 1.87878 26.8524H1.8955C2.01032 27.5749 2.31811 28.2308 2.62614 28.8872C2.87203 29.4112 3.11808 29.9355 3.26623 30.4943C3.41524 31.0564 3.46703 31.6645 3.51874 32.2717C19 32.2717 36.385 32.262 42.3593 32.262C42.4116 31.6549 42.4639 31.049 42.6094 30.4983C42.7551 29.9465 43.0029 29.4154 43.251 28.8836C43.56 28.2214 43.8695 27.5581 43.9831 26.8524H44C43.9975 26.8329 43.9949 26.8135 43.992 26.7942C43.9949 26.7748 43.9975 26.7554 44 26.736H43.9831C43.8695 26.0303 43.56 25.367 43.251 24.7048Z" fill="url(#paint1_radial_623_61181)"/>
<path fill-rule="evenodd" clip-rule="evenodd" d="M26.2845 8.87141C26.4416 8.39014 26.9591 8.12736 27.4404 8.28448L30.0546 9.13791C30.5359 9.29502 30.7986 9.81253 30.6415 10.2938C30.4844 10.7751 29.9669 11.0378 29.4856 10.8807L26.8714 10.0273C26.3902 9.87018 26.1274 9.35267 26.2845 8.87141Z" fill="white" fill-opacity="0.6"/>
<path fill-rule="evenodd" clip-rule="evenodd" d="M30.4464 14.6712C30.2059 14.2257 30.3721 13.6696 30.8176 13.4291L33.2376 12.1228C33.6831 11.8823 34.2392 12.0485 34.4797 12.494C34.7201 12.9395 34.5539 13.4956 34.1084 13.7361L31.6885 15.0424C31.243 15.2829 30.6869 15.1167 30.4464 14.6712Z" fill="white" fill-opacity="0.6"/>
<path fill-rule="evenodd" clip-rule="evenodd" d="M37.1726 18.6276C36.6671 18.656 36.2343 18.2693 36.2059 17.7639L36.0515 15.0182C36.023 14.5127 36.4097 14.0799 36.9152 14.0515C37.4207 14.0231 37.8535 14.4098 37.8819 14.9152L38.0363 17.6609C38.0648 18.1664 37.6781 18.5992 37.1726 18.6276Z" fill="white" fill-opacity="0.6"/>
<path fill-rule="evenodd" clip-rule="evenodd" d="M29.5706 19.0486C29.193 19.3859 28.6136 19.3532 28.2763 18.9757L26.4442 16.9248C26.107 16.5472 26.1396 15.9678 26.5172 15.6305C26.8947 15.2932 27.4742 15.3259 27.8115 15.7034L29.6435 17.7543C29.9808 18.1319 29.9481 18.7114 29.5706 19.0486Z" fill="white" fill-opacity="0.6"/>
<path d="M6.37254 6.37882C8.21041 4.03242 11.4296 2.98768 13.9728 4.54189C18.0581 7.03858 19.703 10.3973 19.1315 15.091C18.7562 18.1735 15.7129 20.0283 12.6152 19.812L3.22611 19.1565C0.456983 18.9632 -0.970098 15.7531 0.741593 13.5678L6.37254 6.37882Z" fill="url(#paint2_radial_623_61181)"/>
<path d="M16.7807 9.83062C20.0241 8.42506 23.7293 10.4173 24.3454 13.8981L24.6598 15.6743L23.1171 15.722C19.7475 15.8261 16.9218 13.1989 16.7807 9.83062Z" fill="url(#paint3_linear_623_61181)"/>
<path d="M16.7807 9.83065C19.8253 7.68161 20.2891 3.34663 17.7679 0.602153L17.2442 0.0319825L17.0153 0.237878C14.1954 2.77415 14.0882 7.15958 16.7807 9.83065Z" fill="url(#paint4_linear_623_61181)"/>
<path d="M16.7807 9.83066C20.5208 11.3786 24.7904 9.44182 26.0893 5.60809L26.1661 5.3813L25.9315 5.30196C22.1539 4.02437 18.0561 6.05236 16.7807 9.83066Z" fill="url(#paint5_linear_623_61181)"/>
<path d="M5.61046 16.702C7.25268 14.2147 10.3769 12.9132 13.0374 14.2568C17.3111 16.4151 19.2221 19.63 19.0318 24.3545C18.9069 27.4572 16.0234 29.5519 12.9184 29.5867L3.50702 29.6922C0.731333 29.7233 -0.950523 26.639 0.578951 24.3225L5.61046 16.702Z" fill="url(#paint6_radial_623_61181)"/>
<path d="M16.2635 19.3013C19.3828 17.6382 23.2368 19.3244 24.1322 22.744L24.5891 24.4891L23.0553 24.6613C19.7052 25.0374 16.6764 22.6471 16.2635 19.3013Z" fill="url(#paint7_linear_623_61181)"/>
<path d="M16.2635 19.3013C19.1245 16.9132 19.2364 12.555 16.5017 10.0232L15.9335 9.49725L15.722 9.72098C13.1164 12.4769 13.3639 16.8566 16.2635 19.3013Z" fill="url(#paint8_linear_623_61181)"/>
<path d="M16.2635 19.3013C20.1165 20.5419 24.2157 18.2664 25.2004 14.3402L25.2587 14.108L25.0184 14.0478C21.1499 13.0797 17.2295 15.4323 16.2635 19.3013Z" fill="url(#paint9_linear_623_61181)"/>
<path d="M38.1528 40.8419C37.2457 42.7696 35.3068 44 33.1763 44L10.8237 44C8.69317 44 6.75432 42.7696 5.84716 40.8419L0 28.4167L44 28.4167L38.1528 40.8419Z" fill="url(#paint10_linear_623_61181)"/>
<path d="M39.1162 33.8415C38.265 35.4653 36.5626 38.7128 35.7114 40.3366" stroke="white" stroke-opacity="0.6" stroke-width="2" stroke-linecap="round"/>
<path d="M40.6059 31L40.393 31.406" stroke="white" stroke-opacity="0.6" stroke-width="2" stroke-linecap="round"/>
<defs>
<linearGradient id="paint0_linear_623_61181" x1="40.1479" y1="-0.182856" x2="35.1391" y2="11.1646" gradientUnits="userSpaceOnUse">
<stop stop-color="#BCBEC0"/>
<stop offset="1" stop-color="#E4C8FF"/>
</linearGradient>
<radialGradient id="paint1_radial_623_61181" cx="0" cy="0" r="1" gradientUnits="userSpaceOnUse" gradientTransform="translate(22.4871 26.8524) rotate(79.8487) scale(22.0817 19.3201)">
<stop stop-color="#A874DB"/>
<stop offset="1" stop-color="#661A94"/>
</radialGradient>
<radialGradient id="paint2_radial_623_61181" cx="0" cy="0" r="1" gradientUnits="userSpaceOnUse" gradientTransform="translate(9.37971 13.443) rotate(158.071) scale(10.0623 8.34435)">
<stop offset="0.552083" stop-color="#FFA0B7"/>
<stop offset="1" stop-color="#FD4343"/>
</radialGradient>
<linearGradient id="paint3_linear_623_61181" x1="23.8207" y1="10.8098" x2="18.7792" y2="15.0566" gradientUnits="userSpaceOnUse">
<stop stop-color="#038A39"/>
<stop offset="1" stop-color="#B2EF76"/>
</linearGradient>
<linearGradient id="paint4_linear_623_61181" x1="20.064" y1="2.88546" x2="13.585" y2="4.10024" gradientUnits="userSpaceOnUse">
<stop stop-color="#038A39"/>
<stop offset="1" stop-color="#B2EF76"/>
</linearGradient>
<linearGradient id="paint5_linear_623_61181" x1="24.9656" y1="9.11488" x2="20.6741" y2="4.11133" gradientUnits="userSpaceOnUse">
<stop stop-color="#038A39"/>
<stop offset="1" stop-color="#B2EF76"/>
</linearGradient>
<radialGradient id="paint6_radial_623_61181" cx="0" cy="0" r="1" gradientUnits="userSpaceOnUse" gradientTransform="translate(9.17871 23.5) rotate(153.435) scale(10.0623 8.34435)">
<stop offset="0.552083" stop-color="#FFA0B7"/>
<stop offset="1" stop-color="#FD4343"/>
</radialGradient>
<linearGradient id="paint7_linear_623_61181" x1="23.3597" y1="19.7083" x2="18.6778" y2="24.3487" gradientUnits="userSpaceOnUse">
<stop stop-color="#038A39"/>
<stop offset="1" stop-color="#B2EF76"/>
</linearGradient>
<linearGradient id="paint8_linear_623_61181" x1="18.9748" y1="12.1135" x2="12.6152" y2="13.8479" gradientUnits="userSpaceOnUse">
<stop stop-color="#038A39"/>
<stop offset="1" stop-color="#B2EF76"/>
</linearGradient>
<linearGradient id="paint9_linear_623_61181" x1="24.3637" y1="17.9264" x2="19.6819" y2="13.286" gradientUnits="userSpaceOnUse">
<stop stop-color="#038A39"/>
<stop offset="1" stop-color="#B2EF76"/>
</linearGradient>
<linearGradient id="paint10_linear_623_61181" x1="24.3097" y1="23.375" x2="30.8081" y2="41.8813" gradientUnits="userSpaceOnUse">
<stop stop-color="#E4C8FF"/>
<stop offset="1" stop-color="#A874DB"/>
</linearGradient>
</defs>
</svg>
