<svg width="44" height="44" viewBox="0 0 44 44" fill="none" xmlns="http://www.w3.org/2000/svg">
<circle cx="22" cy="22" r="22" fill="url(#paint0_linear_623_61069)"/>
<path d="M21.8221 40.5097C22.8324 40.5097 23.8688 41.0091 24.8385 40.8552C25.8081 40.7013 26.6646 39.9029 27.6023 39.5981C28.54 39.2933 29.6954 39.4413 30.5751 38.9914C31.4548 38.5414 32.0093 37.5224 32.8105 36.9388C33.6118 36.3553 34.7498 36.1463 35.4524 35.4437C36.155 34.7411 36.3611 33.6089 36.9475 32.8018C37.534 31.9948 38.5472 31.4548 39.0001 30.5664C39.4529 29.678 39.2962 28.5458 39.6068 27.5936C39.9175 26.6413 40.7042 25.8285 40.861 24.8327C41.0177 23.8369 40.5155 22.8266 40.5155 21.8163C40.5155 20.806 41.0119 19.7696 40.861 18.8028C40.71 17.8361 39.9087 16.9767 39.6039 16.039C39.2991 15.1013 39.4471 13.9458 38.9972 13.0662C38.5472 12.1865 37.5282 11.632 36.9446 10.8308C36.3611 10.0295 36.1521 8.89146 35.4495 8.18889C34.7469 7.48633 33.6147 7.28021 32.8076 6.69377C32.0006 6.10733 31.4606 5.09413 30.5722 4.64124C29.6838 4.18835 28.5516 4.34512 27.5994 4.03448C26.6471 3.72384 25.8313 2.93709 24.8385 2.78032C23.8456 2.62355 22.8324 3.12579 21.8221 3.12579C20.8118 3.12579 19.7754 2.62645 18.8057 2.78032C17.8361 2.93418 16.9796 3.73255 16.0419 4.03738C15.1042 4.34221 13.9487 4.19415 13.0691 4.64414C12.1894 5.09413 11.6349 6.11314 10.8337 6.69667C10.0324 7.2802 8.89435 7.48923 8.19178 8.1918C7.48922 8.89436 7.2831 10.0266 6.69666 10.8337C6.11022 11.6407 5.09702 12.1807 4.64413 13.0691C4.19124 13.9575 4.34801 15.0897 4.03737 16.0419C3.72673 16.9942 2.93708 17.8099 2.7803 18.8057C2.62353 19.8015 3.12578 20.8118 3.12578 21.8221C3.12578 22.8324 2.62644 23.8688 2.7803 24.8385C2.93417 25.8081 3.73254 26.6646 4.03737 27.6023C4.3422 28.54 4.19414 29.6955 4.64413 30.5751C5.09412 31.4548 6.11312 32.0093 6.69666 32.8105C7.28019 33.6118 7.48922 34.7499 8.19178 35.4524C8.89435 36.155 10.0266 36.3611 10.8337 36.9475C11.6407 37.534 12.1807 38.5472 13.0691 39.0001C13.9574 39.453 15.0897 39.2962 16.0419 39.6068C16.9941 39.9175 17.8099 40.7071 18.8057 40.8639C19.8015 41.0207 20.8118 40.5184 21.8221 40.5184L21.8221 40.5097Z" fill="url(#paint1_linear_623_61069)"/>
<path d="M29.9658 33.7988C30.7338 32.9709 31.6377 32.5509 32.1977 31.975C33.1976 30.9671 32.7096 29.5392 33.0776 28.2233C33.3496 26.8874 34.5535 25.8835 34.3375 24.5476C34.1375 23.6996 33.5656 22.9197 33.2616 21.9998C32.9376 21.0879 33.0336 19.956 32.8616 19.076C32.7976 18.7121 32.6136 18.3401 32.5616 18.3681C32.0937 18.0841 31.4017 17.9201 30.9218 17.4882C30.5258 17.1562 30.2778 16.5642 30.1498 16.1683C30.0418 15.8643 29.9858 15.6483 29.8579 15.4643C29.8379 15.4483 29.8499 15.4563 29.8499 15.4643C29.8619 15.4643 29.7579 15.4323 29.5859 15.4203C29.0419 15.3843 28.554 15.4563 27.906 15.2243C27.538 15.0884 27.2261 14.8404 26.9741 14.5844C26.7021 14.3084 26.4261 13.9524 26.1982 13.8245C26.1862 13.8245 26.2102 13.8365 26.2302 13.8365C26.2382 13.8445 26.2302 13.8365 26.1822 13.8525C25.6502 14.0244 24.9983 14.4364 24.3183 14.4524C23.3784 14.5204 22.2665 14.0484 21.5225 14.2924C20.7786 14.7764 20.2466 16.1483 19.3587 16.7202C18.7948 17.1962 17.8788 17.5482 17.5549 18.0521C17.4709 18.3881 17.5749 18.6681 17.7269 19.208C17.8508 19.632 18.0428 20.1399 18.1268 20.8039C18.2508 21.6438 18.1428 22.2638 18.6348 22.7317C18.5388 22.5877 18.2748 22.4438 18.1388 22.4358C18.0988 22.4318 18.1868 22.4278 18.3588 22.3998C18.4508 22.3878 18.5548 22.3678 18.7228 22.3558C18.8908 22.3558 19.1387 22.3238 19.5547 22.4597C20.0667 22.6477 20.3466 22.9037 20.5786 23.0117C20.4626 22.9197 19.9867 22.9197 19.7987 23.0237C19.5707 23.1117 19.3027 23.3677 19.2107 23.5837C19.1787 23.6597 19.1867 23.6277 19.1907 23.5997C19.2187 23.3877 19.2627 22.9197 19.3787 22.6077C19.5027 22.1358 20.0227 21.4878 20.5426 21.2878C20.9066 21.1079 21.3746 21.0399 21.6225 20.9639C21.6625 20.9519 21.6785 20.9399 21.6345 20.9479C21.6105 20.9559 21.4745 20.9959 21.3306 21.1239C21.0946 21.2998 20.9626 21.6438 20.9226 21.8038C20.9266 21.8158 20.8626 21.3598 20.8666 21.2279C20.7746 20.1559 21.4865 19.096 22.5185 18.7921C23.3504 18.5401 23.8743 18.7081 24.4343 18.7841C24.4663 18.7841 24.4943 18.7841 24.3823 18.7681C24.3303 18.7561 24.2463 18.7761 24.2143 18.7681C25.1942 18.3201 26.7141 18.2721 27.566 19.284C28.158 19.952 28.222 20.7119 28.286 21.3958C28.294 21.5038 28.33 21.5398 28.266 21.3558C28.226 21.2278 28.026 20.9319 27.874 20.8319C29.9139 21.6798 30.4858 23.4557 29.3459 25.3555C29.3699 25.2955 29.4019 25.1915 29.4059 24.9355L29.3779 25.2595C29.4339 24.8556 29.3459 24.6876 29.3379 24.6516C29.5099 25.0795 29.7779 25.4195 29.8339 26.1834C29.9418 27.5393 28.8579 28.4633 27.878 28.8392C27.882 28.8232 28.026 28.7712 28.23 28.4393C28.418 28.0873 28.394 27.9193 28.402 27.8953C28.39 28.0673 28.51 28.9352 28.314 29.4552C27.926 30.7951 26.6461 31.243 25.4782 31.211C25.4822 31.203 25.5782 31.211 25.8342 31.059C26.0062 30.9471 26.1942 30.7711 26.2901 30.5751C26.1182 31.083 25.7942 31.991 25.1142 32.4069C23.7424 33.3069 22.0105 33.0629 20.6626 32.9789C19.8067 32.9549 18.9388 33.2989 17.8988 33.3549C17.1709 33.4148 16.315 33.3109 15.615 32.9709C14.8671 32.6069 14.3671 32.119 13.9792 31.715C13.2832 30.987 12.9792 30.4591 12.1873 29.9911C10.4634 29.0632 8.90358 27.9833 8.69959 25.7835C8.55161 24.7636 8.6436 24.0316 8.33962 23.1437C8.02765 22.1558 7.48369 21.2079 7.4157 20.008C7.3597 19.288 7.55569 18.5521 7.79967 18.0121C8.19964 17.0682 8.82758 16.3283 9.15556 15.4923C9.47953 14.6444 9.51153 13.6205 9.8635 12.6646C10.3515 10.9647 12.1553 10.1848 13.4952 9.40482C14.3711 9.01285 16.7189 5.27716 17.6189 6.76504C17.7469 7.05701 17.6229 7.39299 17.3509 7.53697C16.507 7.99294 15.875 9.31683 15.0831 10.1448C14.2751 11.0447 12.9872 11.5446 12.2193 12.3726C11.3754 13.4405 11.7233 14.8484 11.2914 16.1803C10.9754 17.4922 9.8795 18.5281 9.95549 19.792C10.2435 21.0639 11.2794 22.4957 11.3794 23.9116C11.6634 26.2914 11.6394 26.1794 13.7672 27.2474C14.2631 27.4993 14.8911 27.9433 15.2871 28.3393C15.899 28.9072 16.443 29.6392 17.0269 29.9151C17.6389 30.0471 18.0988 29.8311 18.8428 29.6832C19.6827 29.4072 21.3066 29.3912 22.1705 29.4512C22.6624 29.4432 22.8784 29.4352 23.1344 29.3032C23.1424 29.3032 23.2424 29.2392 23.0304 29.3672C22.8984 29.4552 22.7904 29.5712 22.7424 29.6352C22.6344 29.7791 22.6384 29.8071 22.6464 29.7752L22.7304 29.5072C23.1744 27.9553 24.2743 27.4713 25.6942 27.4273C25.7062 27.4273 25.6382 27.4073 25.3622 27.5473C25.2822 27.5913 25.2302 27.6273 25.1342 27.7033C24.8623 27.8953 24.6343 28.3993 24.6343 28.6072C24.3623 26.8634 25.0622 25.8675 26.5141 25.1955C26.2062 25.3475 25.8862 26.0315 25.9502 26.4354C25.9742 26.7194 26.0182 26.7514 26.0022 26.7394C25.8542 26.4554 25.7742 26.3314 25.6262 25.9395C25.5382 25.6715 25.3942 25.2595 25.4902 24.6116L25.4622 24.9355C25.4702 24.1996 25.7502 23.6876 26.0102 23.1717C25.9182 23.4317 25.9502 23.8756 26.1702 24.2236C26.2582 24.3716 26.3381 24.4596 26.4461 24.5556C26.5501 24.6316 26.4821 24.5756 26.3421 24.5116C26.0462 24.3716 25.4182 24.0036 25.1262 23.6597C24.4863 22.9917 24.3743 22.0278 24.3543 21.3078C24.4023 21.3918 24.4383 21.5878 24.6623 21.8358C24.7463 21.9318 24.8503 22.0198 24.9543 22.0838C25.1222 22.2038 25.4862 22.3038 25.6302 22.2838C25.7942 22.2718 25.7542 22.2518 25.6422 22.2838C25.5062 22.3158 25.0143 22.4518 24.7183 22.4757C24.2783 22.5437 23.6064 22.3958 23.3064 22.2918C23.2504 22.2678 23.3224 22.3038 23.5784 22.2238C23.6944 22.1798 23.8543 22.1038 23.9623 21.9958C24.1583 21.8238 24.3263 21.5398 24.3583 21.2758C24.3663 21.2479 24.3583 21.1839 24.3503 21.2359C24.3263 21.5958 24.3743 22.1438 24.2023 22.6477C24.0823 23.2117 23.3464 23.9356 22.8064 24.0596C22.4825 24.1836 22.0145 24.2316 21.8065 24.2516C21.7825 24.2516 21.7665 24.2516 21.8505 24.2156C21.8745 24.1996 21.9545 24.1636 22.0145 24.1116C22.1625 24.0196 22.3425 23.7636 22.3505 23.6757C22.3505 23.6637 22.3425 23.6756 22.3265 23.7236C22.2265 24.1996 22.0665 24.9875 21.6145 25.3995C20.7546 26.2794 19.4547 25.9835 18.6868 25.3235C18.5588 25.2235 18.4668 25.1835 18.5668 25.2155C18.8148 25.2955 18.8828 25.2635 18.8748 25.2675C18.8668 25.2675 18.7948 25.2675 18.7148 25.2755C18.3548 25.3195 17.6509 25.3515 17.1749 25.1035C16.9109 24.9915 16.6469 24.7836 16.459 24.5556L16.547 24.6516C15.559 23.6956 15.471 22.1958 15.427 21.1159C15.1111 19.4 14.2471 17.4802 15.995 15.9763C16.8389 15.2403 17.5469 15.1244 18.2428 14.4524C18.8868 13.7165 19.5907 12.5126 20.6866 12.1406C22.0185 11.6486 23.1104 12.2006 24.2463 12.2766C24.7343 12.2166 25.1542 11.8926 25.7702 11.7926C26.1702 11.6966 26.7741 11.7566 27.1421 11.9726C27.85 12.3486 28.098 12.8805 28.578 13.3205C28.698 13.4085 28.7459 13.4045 29.0299 13.4325C29.6299 13.4885 30.2218 13.4325 30.8818 13.8405C31.7337 14.3444 31.7777 15.4203 32.1577 16.1283C32.5816 16.4562 33.1416 16.5602 33.6415 16.9602C34.9734 17.9321 34.4815 20.3919 34.8094 21.5038C35.1654 22.6477 36.0493 23.8476 35.8694 25.1915C35.7374 26.4514 34.7735 27.4593 34.4415 28.5672C34.1335 29.9431 34.3615 31.847 33.1016 32.8829C32.2897 33.6308 31.4017 34.0228 30.8618 34.5988C30.3178 35.1787 29.4459 34.3868 29.9738 33.7908L29.9658 33.7988Z" fill="url(#paint2_linear_623_61069)"/>
<path d="M15.6711 5.6858C21.1954 6.20781 25.2506 11.1094 24.7286 16.6337C19.2043 16.1117 15.149 11.2102 15.6711 5.6858Z" fill="url(#paint3_linear_623_61069)"/>
<path d="M25.8809 2.74987C29.4306 7.01495 28.8507 13.3501 24.5856 16.8997C21.0359 12.6347 21.6159 6.29955 25.8809 2.74987Z" fill="url(#paint4_linear_623_61069)"/>
<path d="M35.6766 8.52888C34.6552 13.983 29.4056 17.5764 23.9515 16.5549C24.973 11.1008 30.2225 7.50741 35.6766 8.52888Z" fill="url(#paint5_linear_623_61069)"/>
<rect x="31.7719" y="17.4167" width="9.16667" height="9.16667" rx="2.75" transform="rotate(120 31.7719 17.4167)" fill="url(#paint6_linear_623_61069)"/>
<rect x="20.0324" y="34.3774" width="9.16667" height="9.16667" rx="2.75" transform="rotate(-152.295 20.0324 34.3774)" fill="url(#paint7_linear_623_61069)"/>
<defs>
<linearGradient id="paint0_linear_623_61069" x1="22" y1="10.5417" x2="36.8007" y2="35.0685" gradientUnits="userSpaceOnUse">
<stop offset="0.0001" stop-color="#FFCAAB"/>
<stop offset="1" stop-color="#BCBEC0"/>
</linearGradient>
<linearGradient id="paint1_linear_623_61069" x1="24.2544" y1="2.75" x2="40.7578" y2="31.6389" gradientUnits="userSpaceOnUse">
<stop stop-color="#FF8000"/>
<stop offset="1" stop-color="#FD4343"/>
</linearGradient>
<linearGradient id="paint2_linear_623_61069" x1="21.6497" y1="9.62502" x2="35.2175" y2="28.0511" gradientUnits="userSpaceOnUse">
<stop stop-color="white"/>
<stop offset="1" stop-color="#FFA0B7"/>
</linearGradient>
<linearGradient id="paint3_linear_623_61069" x1="25.2012" y1="11.6324" x2="17.2535" y2="15.2287" gradientUnits="userSpaceOnUse">
<stop stop-color="#038A39"/>
<stop offset="1" stop-color="#B2EF76"/>
</linearGradient>
<linearGradient id="paint4_linear_623_61069" x1="28.4469" y1="13.6861" x2="20.2751" y2="10.6331" gradientUnits="userSpaceOnUse">
<stop stop-color="#038A39"/>
<stop offset="1" stop-color="#B2EF76"/>
</linearGradient>
<linearGradient id="paint5_linear_623_61069" x1="28.8893" y1="17.4797" x2="26.0295" y2="9.23831" gradientUnits="userSpaceOnUse">
<stop stop-color="#038A39"/>
<stop offset="1" stop-color="#B2EF76"/>
</linearGradient>
<linearGradient id="paint6_linear_623_61069" x1="32.7138" y1="23.9428" x2="39.0646" y2="20.2761" gradientUnits="userSpaceOnUse">
<stop offset="0.541667" stop-color="#FDB813"/>
<stop offset="1" stop-color="#FF8000"/>
</linearGradient>
<linearGradient id="paint7_linear_623_61069" x1="20.9743" y1="40.9035" x2="27.3252" y2="37.2369" gradientUnits="userSpaceOnUse">
<stop offset="0.541667" stop-color="#FDB813"/>
<stop offset="1" stop-color="#FF8000"/>
</linearGradient>
</defs>
</svg>
