<svg width="44" height="44" viewBox="0 0 44 44" fill="none" xmlns="http://www.w3.org/2000/svg">
<path d="M3.88166 22.644L22.6438 3.88184L42.6319 23.8699C44.456 25.694 44.456 28.6515 42.6319 30.4756L30.4754 42.6321C28.6513 44.4562 25.6939 44.4562 23.8698 42.6321L3.88166 22.644Z" fill="url(#paint0_linear_623_61152)"/>
<path d="M26.6281 26.6283L23.8355 5.07361L42.6319 23.87C44.456 25.6941 44.456 28.6515 42.6319 30.4756L34.8388 38.2687C31.941 41.1666 26.9825 39.1941 26.8669 35.0976L26.6281 26.6283Z" fill="url(#paint1_linear_623_61152)"/>
<path d="M0 12.9355C0 5.79144 5.79143 0 12.9355 0H13.5903C20.7343 0 26.5258 5.79143 26.5258 12.9355V26.5258H12.9355C5.79144 26.5258 0 20.7344 0 13.5903V12.9355Z" fill="#D56B2A"/>
<path d="M4.0416 22.9832C1.71701 20.7814 0.20922 17.7259 0.0201073 14.3186C0.436085 13.4835 1.04939 12.7979 1.78742 12.2862C2.7319 11.6313 3.33496 10.3904 3.20217 9.2488C2.94812 7.06471 3.80538 4.90909 5.60904 3.74291C6.70606 3.03361 7.97729 2.80405 9.21551 2.99598C10.402 3.1799 11.7775 2.64801 12.5017 1.69034C13.0428 0.974791 13.7318 0.400663 14.5291 0.0335693C17.906 0.275801 20.924 1.81424 23.0883 4.15396C23.2106 4.47414 23.3022 4.8043 23.3584 5.14206C23.9255 8.55153 20.6678 11.4457 17.6987 12.0208C17.2602 12.1058 16.8239 12.1281 16.3969 12.0933C15.2575 12.0007 13.9708 12.4904 13.2184 13.351C12.9094 13.7044 12.5502 14.0184 12.1427 14.2818C11.6282 14.6145 11.3622 15.2732 11.5212 15.8649C11.8417 17.0573 11.7712 18.3348 11.2321 19.5136C9.95057 22.3156 7.07925 24.1926 4.0416 22.9832Z" fill="url(#paint2_linear_623_61152)"/>
<path d="M10.7331 26.339C7.30185 25.7504 4.33232 23.8103 2.3921 21.0863C2.64457 19.5318 3.78324 18.2044 5.38224 17.45C3.9844 16.0058 3.40484 14.0787 4.05015 12.365C4.76253 10.4732 6.76856 9.37048 9.0389 9.40033C8.99999 8.7249 9.10587 8.05053 9.37453 7.41088C10.3974 4.97557 13.4313 3.87277 16.456 4.69371C17.5216 3.2346 19.5126 2.52286 21.6218 2.79473C24.2503 4.87939 26.0496 7.9644 26.4441 11.4745C25.2536 12.7414 23.2746 13.2929 21.2305 12.9171C20.236 14.7008 18.0749 15.6376 15.7302 15.4397C15.708 15.8544 15.6241 16.2663 15.4733 16.6666C15.1041 17.6473 14.3872 18.4159 13.4661 18.9246C14.1469 19.7246 14.5456 20.6951 14.5456 21.7413C14.5456 23.8218 12.9687 25.603 10.7331 26.339Z" fill="url(#paint3_linear_623_61152)"/>
<path d="M25.399 7.64744C24.0295 12.0019 20.1207 15.2986 15.2911 15.6585C8.96473 16.1299 3.45403 11.3835 2.98261 5.05713L2.95633 4.70441C3.11681 4.51007 3.28285 4.32051 3.45421 4.13595L21.6072 2.78326C23.232 4.06806 24.5411 5.73458 25.399 7.64744Z" fill="url(#paint4_linear_623_61152)"/>
<path d="M21.6071 2.78308L6.11866 3.93721L6.16597 4.57207C6.50562 9.1302 10.4761 12.55 15.0342 12.2103C19.4576 11.8807 22.8089 8.13174 22.6927 3.74462C22.3492 3.40442 21.9868 3.08332 21.6071 2.78308Z" fill="url(#paint5_radial_623_61152)"/>
<path d="M17.2322 26.5258H12.9355C10.7444 26.5258 8.68059 25.9811 6.87205 25.0196C6.14717 23.462 5.96725 21.7287 6.61625 20.3097C7.03167 19.4014 7.67555 18.6605 8.46051 18.1162C9.40499 17.4613 10.008 16.2204 9.87526 15.0788C9.62121 12.8947 10.4785 10.7391 12.2821 9.57288C13.3791 8.86359 14.6504 8.63402 15.8886 8.82596C17.0751 9.00988 18.4505 8.47798 19.1748 7.52032C19.9549 6.48883 21.0422 5.75122 22.3182 5.50403C22.9077 5.38984 23.5447 5.40214 24.1917 5.52186C25.6626 7.62126 26.5257 10.1776 26.5257 12.9356V17.0481C25.8299 17.435 25.0924 17.7112 24.3718 17.8508C23.9333 17.9358 23.4969 17.958 23.0699 17.9233C21.9306 17.8307 20.6439 18.3203 19.8915 19.1809C19.5825 19.5344 19.2233 19.8483 18.8158 20.1118C18.3013 20.4445 18.0353 21.1031 18.1943 21.6949C18.5148 22.8873 18.4443 24.1647 17.9051 25.3436C17.7145 25.7605 17.4886 26.157 17.2322 26.5258Z" fill="url(#paint6_linear_623_61152)"/>
<path d="M26.5242 12.7369C26.5252 12.803 26.5257 12.8692 26.5257 12.9356L26.5257 26.5258H14.755L19.3439 8.34778L20.2006 8.56405C22.8226 9.22595 25.0042 10.7405 26.5242 12.7369Z" fill="url(#paint7_linear_623_61152)"/>
<path d="M21.7421 26.5258H14.7548L18.5579 11.4607L19.1751 11.6165C23.6068 12.7353 26.2925 17.2348 25.1738 21.6666C24.651 23.7377 23.3897 25.4275 21.7421 26.5258Z" fill="url(#paint8_radial_623_61152)"/>
<defs>
<linearGradient id="paint0_linear_623_61152" x1="12.9107" y1="21.6355" x2="20.4652" y2="39.5773" gradientUnits="userSpaceOnUse">
<stop stop-color="#FFCAAB"/>
<stop offset="1" stop-color="#D56B2A"/>
</linearGradient>
<linearGradient id="paint1_linear_623_61152" x1="36.5537" y1="12.4516" x2="46.5084" y2="34.613" gradientUnits="userSpaceOnUse">
<stop stop-color="#FFCAAB"/>
<stop offset="1" stop-color="#D56B2A"/>
</linearGradient>
<linearGradient id="paint2_linear_623_61152" x1="3.55674" y1="6.0227" x2="9.92883" y2="11.5995" gradientUnits="userSpaceOnUse">
<stop stop-color="#B2EF76"/>
<stop offset="1" stop-color="#038A39"/>
</linearGradient>
<linearGradient id="paint3_linear_623_61152" x1="14.9509" y1="2.73773" x2="21.8963" y2="11.6007" gradientUnits="userSpaceOnUse">
<stop stop-color="#D56B2A"/>
<stop offset="1" stop-color="#723319"/>
</linearGradient>
<linearGradient id="paint4_linear_623_61152" x1="23.2517" y1="6.68613" x2="7.18041" y2="11.2139" gradientUnits="userSpaceOnUse">
<stop stop-color="#EF4848"/>
<stop offset="1" stop-color="#C3363E"/>
</linearGradient>
<radialGradient id="paint5_radial_623_61152" cx="0" cy="0" r="1" gradientUnits="userSpaceOnUse" gradientTransform="translate(14.2473 2.55096) rotate(84.7574) scale(8.81694 16.3743)">
<stop stop-color="#F0656F"/>
<stop offset="1" stop-color="#EF4848"/>
</radialGradient>
<linearGradient id="paint6_linear_623_61152" x1="10.2298" y1="11.8527" x2="16.6019" y2="17.4295" gradientUnits="userSpaceOnUse">
<stop stop-color="#B2EF76"/>
<stop offset="1" stop-color="#038A39"/>
</linearGradient>
<linearGradient id="paint7_linear_623_61152" x1="22.5308" y1="12.1242" x2="21.7457" y2="28.8026" gradientUnits="userSpaceOnUse">
<stop stop-color="#EF4848"/>
<stop offset="1" stop-color="#C3363E"/>
</linearGradient>
<radialGradient id="paint8_radial_623_61152" cx="0" cy="0" r="1" gradientUnits="userSpaceOnUse" gradientTransform="translate(15.7611 19.3596) rotate(13.1868) scale(8.81694 16.3743)">
<stop stop-color="#F0656F"/>
<stop offset="1" stop-color="#EF4848"/>
</radialGradient>
</defs>
</svg>
