<svg width="44" height="44" viewBox="0 0 44 44" fill="none" xmlns="http://www.w3.org/2000/svg">
<path fill-rule="evenodd" clip-rule="evenodd" d="M22 44C34.1503 44 44 34.1503 44 22C44 9.84974 34.1503 0 22 0C9.84974 0 0 9.84974 0 22C0 34.1503 9.84974 44 22 44ZM22 15.4538C25.6154 15.4538 28.5462 18.3846 28.5462 22C28.5462 25.6154 25.6154 28.5462 22 28.5462C18.3846 28.5462 15.4538 25.6154 15.4538 22C15.4538 18.3846 18.3846 15.4538 22 15.4538Z" fill="url(#paint0_linear_623_60778)"/>
<path fill-rule="evenodd" clip-rule="evenodd" d="M41.0249 19.3811C40.9132 20.1633 40.8006 20.9517 40.8006 21.7255H40.7977C40.7977 22.4981 40.9124 23.2752 41.0262 24.0466C41.2231 25.3802 41.4175 26.6971 41.0127 27.9456C40.605 29.2028 39.6494 30.1793 38.6984 31.1511C38.1585 31.7027 37.6202 32.2528 37.1844 32.8518C36.7468 33.4534 36.3835 34.1411 36.0194 34.8301C35.3822 36.0358 34.7429 37.2458 33.6996 38.0059C32.6504 38.7704 31.2733 39.0101 29.9199 39.2456C29.1587 39.3781 28.4051 39.5093 27.7214 39.7318C27.0416 39.9531 26.3687 40.2872 25.6884 40.625C24.4679 41.231 23.2233 41.849 21.8716 41.849C20.531 41.849 19.3249 41.2496 18.1166 40.6492C17.4275 40.3067 16.7376 39.9639 16.0218 39.7318C15.3061 39.4998 14.5399 39.3673 13.7751 39.2351C12.434 39.0033 11.0971 38.7722 10.0436 38.0059C8.98958 37.2391 8.34892 36.0227 7.71384 34.8168C7.35212 34.1301 6.99222 33.4467 6.55879 32.8518C6.12667 32.2587 5.58707 31.7016 5.04504 31.142C4.08884 30.1547 3.12508 29.1596 2.73058 27.9456C2.33978 26.743 2.52907 25.4174 2.72116 24.0723C2.8329 23.2899 2.94558 22.5008 2.94558 21.7255C2.94558 20.9529 2.83088 20.1759 2.717 19.4044C2.52014 18.0709 2.32574 16.754 2.73058 15.5054C3.13805 14.2487 4.09432 13.2725 5.04582 12.3011C5.58654 11.7491 6.12571 11.1987 6.56177 10.5992C6.99939 9.99765 7.36276 9.30999 7.72686 8.62096C8.364 7.41521 9.00335 6.20528 10.0466 5.44519C11.0958 4.68069 12.473 4.44098 13.8264 4.20539C14.5875 4.0729 15.3412 3.94171 16.0248 3.71921C16.7046 3.49796 17.3775 3.16385 18.0579 2.82602C19.2783 2.22002 20.5229 1.60205 21.8746 1.60205C23.2152 1.60205 24.4214 2.20144 25.6296 2.80185C26.3188 3.14431 27.0086 3.48711 27.7244 3.71921C28.4402 3.95129 29.2063 4.08372 29.9711 4.21592C31.3122 4.44773 32.6491 4.67882 33.7026 5.44519C34.7566 6.21191 35.3973 7.42834 36.0324 8.6342C36.3941 9.32099 36.754 10.0043 37.1874 10.5992C37.6196 11.1923 38.1592 11.7494 38.7012 12.3091C39.6574 13.2964 40.6211 14.2914 41.0156 15.5054C41.4066 16.7084 41.217 18.0355 41.0249 19.3811ZM21.9958 31.1618C27.0607 31.1618 31.1666 27.0559 31.1666 21.9909C31.1666 16.926 27.0607 12.82 21.9958 12.82C16.9308 12.82 12.8249 16.926 12.8249 21.9909C12.8249 27.0559 16.9308 31.1618 21.9958 31.1618Z" fill="url(#paint1_linear_623_60778)"/>
<path fill-rule="evenodd" clip-rule="evenodd" d="M11.1613 12.9874C10.5988 12.9107 10.205 12.3925 10.2818 11.8299L11.0202 6.41898C11.097 5.85647 11.6152 5.4627 12.1777 5.53946C12.7402 5.61623 13.134 6.13446 13.0572 6.69697L12.3188 12.1079C12.2421 12.6704 11.7238 13.0642 11.1613 12.9874Z" fill="#E1ED9C"/>
<path fill-rule="evenodd" clip-rule="evenodd" d="M25.238 7.28499C24.8834 7.72838 24.2365 7.80038 23.7932 7.44582L19.5281 4.03513C19.0847 3.68056 19.0127 3.03369 19.3672 2.59031C19.7218 2.14692 20.3687 2.07492 20.8121 2.42948L25.0772 5.84017C25.5205 6.19474 25.5925 6.84161 25.238 7.28499Z" fill="#E4C8FF"/>
<path fill-rule="evenodd" clip-rule="evenodd" d="M41.6077 23.9661C41.7173 24.5231 41.3546 25.0635 40.7975 25.1731L35.4391 26.2271C34.882 26.3367 34.3416 25.974 34.2321 25.4169C34.1225 24.8599 34.4852 24.3195 35.0423 24.2099L40.4007 23.1558C40.9578 23.0463 41.4982 23.409 41.6077 23.9661Z" fill="#FDB813"/>
<path fill-rule="evenodd" clip-rule="evenodd" d="M15.3369 39.2659C14.9655 38.8365 15.0125 38.1873 15.4419 37.8159L19.5725 34.2435C20.0019 33.8722 20.6511 33.9192 21.0225 34.3486C21.3938 34.778 21.3468 35.4272 20.9174 35.7986L16.7868 39.371C16.3574 39.7423 15.7082 39.6953 15.3369 39.2659Z" fill="#6CD2D9"/>
<path fill-rule="evenodd" clip-rule="evenodd" d="M28.6693 28.516C29.2358 28.5533 29.6648 29.0427 29.6275 29.6092L29.2691 35.0586C29.2318 35.6251 28.7424 36.0541 28.1759 36.0168C27.6094 35.9796 27.1804 35.4901 27.2176 34.9236L27.5761 29.4743C27.6133 28.9078 28.1028 28.4787 28.6693 28.516Z" fill="#E1ED9C"/>
<path fill-rule="evenodd" clip-rule="evenodd" d="M6.27456 27.3888C6.56503 26.901 7.19594 26.7411 7.68372 27.0316L12.3759 29.8258C12.8637 30.1162 13.0236 30.7471 12.7331 31.2349C12.4426 31.7227 11.8117 31.8827 11.324 31.5922L6.63181 28.798C6.14403 28.5075 5.98408 27.8766 6.27456 27.3888Z" fill="#FFA0B7"/>
<path fill-rule="evenodd" clip-rule="evenodd" d="M34.3042 15.5525C33.7518 15.4216 33.41 14.8677 33.5409 14.3153L34.7997 9.0012C34.9305 8.44876 35.4845 8.107 36.0369 8.23786C36.5893 8.36872 36.9311 8.92264 36.8002 9.47508L35.5415 14.7891C35.4106 15.3416 34.8567 15.6833 34.3042 15.5525Z" fill="#FFA0B7"/>
<path fill-rule="evenodd" clip-rule="evenodd" d="M2.35037 22.4835C2.09623 21.9758 2.30176 21.3583 2.80943 21.1042L7.69284 18.6596C8.20051 18.4054 8.81807 18.6109 9.0722 19.1186C9.32634 19.6263 9.12081 20.2438 8.61314 20.498L3.72973 22.9426C3.22206 23.1967 2.6045 22.9912 2.35037 22.4835Z" fill="#6CD2D9"/>
<path d="M33 22C33 15.9249 28.0752 11 22 11M13.2917 15.2786C14.3749 13.8772 15.7889 12.7445 17.4167 11.9974" stroke="white" stroke-opacity="0.4" stroke-width="1.83333" stroke-linecap="round"/>
<defs>
<linearGradient id="paint0_linear_623_60778" x1="22" y1="0" x2="38.6657" y2="36.3615" gradientUnits="userSpaceOnUse">
<stop stop-color="#FFCAAB"/>
<stop offset="1" stop-color="#D56B2A"/>
</linearGradient>
<linearGradient id="paint1_linear_623_60778" x1="21.8716" y1="1.60205" x2="37.8038" y2="34.0186" gradientUnits="userSpaceOnUse">
<stop stop-color="#D56B2A"/>
<stop offset="1" stop-color="#723319"/>
</linearGradient>
</defs>
</svg>
