<svg width="44" height="45" viewBox="0 0 44 45" fill="none" xmlns="http://www.w3.org/2000/svg">
<path d="M41.0047 43.8498L17.2961 34.4831L34.4757 17.3035L43.8425 41.0121C44.5428 42.792 42.7847 44.5501 41.0047 43.8498Z" fill="url(#paint0_linear_623_60825)"/>
<path d="M33.7857 34.7562C33.5386 34.0319 34.2311 33.3394 34.9554 33.5865L38.9349 34.9444C39.2051 35.0366 39.4173 35.2487 39.5094 35.5189L40.8673 39.4984C41.1145 40.2228 40.422 40.9152 39.6976 40.6681L35.7181 39.3102C35.448 39.218 35.2358 39.0059 35.1436 38.7357L33.7857 34.7562Z" fill="url(#paint1_linear_623_60825)"/>
<path d="M31.0213 26.463C30.7742 25.7386 31.4667 25.0462 32.191 25.2933L36.1705 26.6512C36.4407 26.7434 36.6529 26.9555 36.745 27.2257L38.1029 31.2052C38.35 31.9295 37.6576 32.622 36.9332 32.3749L32.9537 31.017C32.6836 30.9248 32.4714 30.7126 32.3792 30.4425L31.0213 26.463Z" fill="url(#paint2_linear_623_60825)"/>
<path d="M25.4925 31.9917C25.2454 31.2674 25.9379 30.5749 26.6622 30.8221L30.6417 32.1799C30.9119 32.2721 31.124 32.4843 31.2162 32.7544L32.5741 36.7339C32.8212 37.4583 32.1288 38.1508 31.4044 37.9036L27.4249 36.5458C27.1548 36.4536 26.9426 36.2414 26.8504 35.9712L25.4925 31.9917Z" fill="url(#paint3_linear_623_60825)"/>
<path d="M27.9762 7.05422C27.3853 6.12776 26.6995 5.25237 25.8898 4.44263C19.9663 -1.48088 10.3661 -1.48088 4.44263 4.44263C-1.48088 10.3661 -1.48088 19.9663 4.44263 25.8898C5.12835 26.5755 5.86515 27.1664 6.62382 27.6917C5.59523 30.5878 6.22989 33.9361 8.54969 36.2559C11.7595 39.4657 16.9608 39.4584 20.1633 36.2559C21.5639 34.8553 22.3517 33.0753 22.5268 31.2516C24.8029 31.3975 27.1227 30.6096 28.8589 28.8734C30.4419 27.2904 31.2443 25.2187 31.2589 23.1469C32.8273 22.8478 34.3228 22.0964 35.5337 20.8855C38.7435 17.6757 38.7362 12.4744 35.5337 9.27189C33.4766 7.21471 30.6024 6.48522 27.9689 7.06152L27.9762 7.05422Z" fill="url(#paint4_radial_623_60825)"/>
<path fill-rule="evenodd" clip-rule="evenodd" d="M23.0489 5.39899C22.7104 5.77902 22.128 5.8127 21.7479 5.47422C19.0481 3.06959 14.8181 2.60968 11.3883 3.89586C10.9118 4.07455 10.3806 3.83312 10.202 3.35661C10.0233 2.8801 10.2647 2.34896 10.7412 2.17027C14.6831 0.692054 19.6678 1.1536 22.9737 4.09801C23.3537 4.43649 23.3874 5.01895 23.0489 5.39899Z" fill="white" fill-opacity="0.8"/>
<path fill-rule="evenodd" clip-rule="evenodd" d="M36.0745 15.0029C35.5708 15.0748 35.104 14.7248 35.032 14.221C34.8522 12.9619 33.9279 11.79 32.6482 11.0222C31.3608 10.2497 29.9155 10.007 28.8639 10.3576C28.3811 10.5185 27.8593 10.2576 27.6984 9.77479C27.5374 9.29199 27.7983 8.77015 28.2811 8.60921C29.9941 8.03822 32.0043 8.48662 33.5964 9.44189C35.1963 10.4018 36.5756 11.9944 36.8565 13.9604C36.9284 14.4642 36.5783 14.9309 36.0745 15.0029Z" fill="white" fill-opacity="0.8"/>
<path fill-rule="evenodd" clip-rule="evenodd" d="M25.7545 7.47656C25.4149 7.85546 24.8324 7.88731 24.4535 7.54769L24.2006 7.32106C23.8217 6.98145 23.7899 6.39898 24.1295 6.02008C24.4691 5.64118 25.0516 5.60933 25.4305 5.94894L25.6833 6.17557C26.0622 6.51519 26.0941 7.09766 25.7545 7.47656Z" fill="white" fill-opacity="0.8"/>
<defs>
<linearGradient id="paint0_linear_623_60825" x1="43.3537" y1="12.7085" x2="50.5286" y2="27.705" gradientUnits="userSpaceOnUse">
<stop stop-color="#723319"/>
<stop offset="1" stop-color="#D56B2A"/>
</linearGradient>
<linearGradient id="paint1_linear_623_60825" x1="37.3265" y1="34.3629" x2="37.3265" y2="39.8917" gradientUnits="userSpaceOnUse">
<stop stop-color="#723319"/>
<stop offset="1" stop-color="#723319" stop-opacity="0"/>
</linearGradient>
<linearGradient id="paint2_linear_623_60825" x1="34.5621" y1="26.0697" x2="34.5621" y2="31.5985" gradientUnits="userSpaceOnUse">
<stop stop-color="#723319"/>
<stop offset="1" stop-color="#723319" stop-opacity="0"/>
</linearGradient>
<linearGradient id="paint3_linear_623_60825" x1="29.0333" y1="31.5984" x2="29.0333" y2="37.1272" gradientUnits="userSpaceOnUse">
<stop stop-color="#723319"/>
<stop offset="1" stop-color="#723319" stop-opacity="0"/>
</linearGradient>
<radialGradient id="paint4_radial_623_60825" cx="0" cy="0" r="1" gradientUnits="userSpaceOnUse" gradientTransform="translate(14.2899 6.25824) rotate(73.5399) scale(21.1385 23.3546)">
<stop stop-color="white"/>
<stop offset="1" stop-color="#FFA0B7"/>
</radialGradient>
</defs>
</svg>
