<svg width="45" height="45" viewBox="0 0 45 45" fill="none" xmlns="http://www.w3.org/2000/svg">
<path d="M0.507114 28.6875L0.627327 24.5401C0.808225 18.2991 5.9197 13.3337 12.1633 13.3337C15.5209 13.3337 18.7121 11.8714 20.9044 9.32832L24.0883 5.63504C27.0195 2.23482 31.6795 0.88193 35.9759 2.18385C40.7613 3.63399 44.0339 8.04518 44.0339 13.0455L44.0339 14.4611C44.0339 16.7271 43.4531 18.9552 42.347 20.9329L34.0251 35.8114C30.8662 41.459 24.9009 44.9575 18.4299 44.9575L16.3124 44.9575C7.40023 44.9575 0.248899 37.5959 0.507114 28.6875Z" fill="url(#paint0_linear_623_61081)"/>
<path d="M0 25.1661L6.83577e-07 21.9942C2.06715e-06 15.5743 5.21953 10.3699 11.6394 10.3699C14.5398 10.3699 17.3354 9.28564 19.4773 7.33L23.538 3.62243C25.4145 1.90909 27.8638 0.959151 30.4048 0.959151C36.2936 0.959151 40.955 5.93876 40.5667 11.8147L40.524 12.4607C40.4208 14.0221 39.9793 15.5424 39.23 16.9161L31.3704 31.3254C28.3449 36.8721 22.4476 40.236 16.1332 40.017L14.2983 39.9533C6.33105 39.6769 -3.39635e-06 33.138 0 25.1661Z" fill="url(#paint1_linear_623_61081)"/>
<path fill-rule="evenodd" clip-rule="evenodd" d="M9.14461 12.4184C9.90331 12.3868 10.544 12.9762 10.5756 13.7349L11.4922 35.7341C11.5238 36.4928 10.9344 37.1335 10.1757 37.1651C9.41701 37.1967 8.77633 36.6073 8.74472 35.8486L7.82809 13.8494C7.79648 13.0907 8.3859 12.45 9.14461 12.4184Z" fill="#723319"/>
<path fill-rule="evenodd" clip-rule="evenodd" d="M2.70238 19.2729C3.22364 18.7207 4.09385 18.6956 4.64605 19.2168L21.1453 34.7914C21.6975 35.3126 21.7225 36.1828 21.2013 36.735C20.68 37.2872 19.8098 37.3123 19.2576 36.7911L2.75842 21.2165C2.20622 20.6953 2.18113 19.8251 2.70238 19.2729Z" fill="#723319"/>
<path fill-rule="evenodd" clip-rule="evenodd" d="M8.12071 12.9426C8.58986 12.3455 9.45423 12.2418 10.0513 12.7109L29.3007 27.8353C29.8978 28.3044 30.0015 29.1688 29.5323 29.7659C29.0632 30.363 28.1988 30.4667 27.6017 29.9976L8.35239 14.8732C7.75529 14.4041 7.65156 13.5397 8.12071 12.9426Z" fill="#723319"/>
<path fill-rule="evenodd" clip-rule="evenodd" d="M11.4237 18.8517C11.6667 18.5601 12.1002 18.5207 12.3919 18.7637L17.8917 23.3469C18.1833 23.59 18.2228 24.0235 17.9797 24.3151C17.7366 24.6068 17.3031 24.6462 17.0114 24.4032L11.5117 19.82C11.22 19.5769 11.1806 19.1434 11.4237 18.8517Z" fill="white" fill-opacity="0.3"/>
<path fill-rule="evenodd" clip-rule="evenodd" d="M21.4847 15.6711C21.7125 15.3674 22.1435 15.3058 22.4472 15.5336L26.1137 18.2836C26.4175 18.5114 26.479 18.9424 26.2512 19.2461C26.0234 19.5498 25.5925 19.6114 25.2887 19.3836L21.6222 16.6336C21.3185 16.4057 21.2569 15.9748 21.4847 15.6711Z" fill="white" fill-opacity="0.3"/>
<path fill-rule="evenodd" clip-rule="evenodd" d="M5.0207 25.2524C5.27245 24.9682 5.70694 24.9419 5.99116 25.1936L7.82434 26.8174C8.10855 27.0692 8.13487 27.5037 7.88312 27.7879C7.63136 28.0721 7.19688 28.0984 6.91266 27.8467L5.07948 26.2229C4.79527 25.9711 4.76895 25.5366 5.0207 25.2524Z" fill="white" fill-opacity="0.3"/>
<path fill-rule="evenodd" clip-rule="evenodd" d="M12.3912 31.9683C12.6645 31.7048 13.0997 31.7128 13.3633 31.9861L16.5715 35.3141C16.835 35.5875 16.8271 36.0227 16.5537 36.2862C16.2804 36.5497 15.8452 36.5417 15.5816 36.2684L12.3734 32.9404C12.1099 32.6671 12.1178 32.2318 12.3912 31.9683Z" fill="white" fill-opacity="0.3"/>
<path fill-rule="evenodd" clip-rule="evenodd" d="M22.4266 27.6606C22.6719 27.3708 23.1057 27.3347 23.3955 27.58L27.062 30.6834C27.3518 30.9287 27.3879 31.3624 27.1426 31.6522C26.8973 31.9421 26.4635 31.9781 26.1737 31.7328L22.5072 28.6295C22.2174 28.3842 22.1813 27.9504 22.4266 27.6606Z" fill="white" fill-opacity="0.3"/>
<path fill-rule="evenodd" clip-rule="evenodd" d="M18.6344 10.2291C19.0835 9.61676 19.9439 9.48438 20.5563 9.93344L34.3057 20.0163C34.9181 20.4654 35.0505 21.3258 34.6014 21.9382C34.1523 22.5505 33.2919 22.6829 32.6795 22.2338L18.9301 12.151C18.3177 11.7019 18.1854 10.8415 18.6344 10.2291Z" fill="#723319"/>
<path fill-rule="evenodd" clip-rule="evenodd" d="M19.2339 9.66815C19.9928 9.64005 20.6307 10.2324 20.6588 10.9913L21.5754 35.7403C21.6035 36.4992 21.0112 37.1371 20.2523 37.1652C19.4935 37.1933 18.8555 36.6009 18.8274 35.8421L17.9108 11.093C17.8827 10.3342 18.4751 9.69626 19.2339 9.66815Z" fill="#723319"/>
<path fill-rule="evenodd" clip-rule="evenodd" d="M27.4583 3.25264C28.2165 3.21052 28.8653 3.79102 28.9074 4.54921L30.2823 29.2986C30.3244 30.0568 29.7439 30.7055 28.9857 30.7477C28.2275 30.7898 27.5788 30.2093 27.5366 29.4511L26.1618 4.70174C26.1196 3.94355 26.7001 3.29476 27.4583 3.25264Z" fill="#723319"/>
<defs>
<linearGradient id="paint0_linear_623_61081" x1="28.9095" y1="40.3743" x2="13.29" y2="19.5485" gradientUnits="userSpaceOnUse">
<stop stop-color="#D56B2A"/>
<stop offset="1" stop-color="#723319"/>
</linearGradient>
<linearGradient id="paint1_linear_623_61081" x1="-6.70681" y1="20.6769" x2="20.8264" y2="0.0270253" gradientUnits="userSpaceOnUse">
<stop stop-color="#D56B2A"/>
<stop offset="1" stop-color="#723319"/>
</linearGradient>
</defs>
</svg>
