<svg width="44" height="44" viewBox="0 0 44 44" fill="none" xmlns="http://www.w3.org/2000/svg">
<path fill-rule="evenodd" clip-rule="evenodd" d="M24.5689 1.85425C21.2651 1.85425 18.5425 4.61648 18.5425 8.07925V12.0526C18.5425 12.5647 18.1275 12.9798 17.6154 12.9798C17.1034 12.9798 16.6883 12.5647 16.6883 12.0526V8.07925C16.6883 3.642 20.1921 0 24.5689 0C28.9456 0 32.4494 3.642 32.4494 8.07925V12.0526C32.4494 12.5647 32.0344 12.9798 31.5223 12.9798C31.0103 12.9798 30.5952 12.5647 30.5952 12.0526V8.07925C30.5952 4.61648 27.8727 1.85425 24.5689 1.85425Z" fill="url(#paint0_linear_623_61289)"/>
<path d="M34.7081 6.91492H37.1999L39.9221 42.0067C39.9221 43.11 39.0321 44 37.9288 44H31.9859L34.7081 6.91492Z" fill="#DF8858"/>
<path d="M2.7222 7.22087L6.39362 8.76917L9.47169 6.91492L12.5497 8.76917L15.6371 6.91492L18.7151 8.76917L21.7932 6.91492L24.8713 8.76917L27.9493 6.91492L31.0367 8.76917L34.7173 6.91492L31.9951 44H1.45559C0.648989 44 0 43.2397 0 42.3126L2.7222 7.22087Z" fill="url(#paint1_linear_623_61289)"/>
<path fill-rule="evenodd" clip-rule="evenodd" d="M18.4833 1.85425C14.867 1.85425 11.9934 4.67277 11.9934 8.07925V12.0526C11.9934 12.5647 11.5783 12.9798 11.0663 12.9798C10.5542 12.9798 10.1392 12.5647 10.1392 12.0526V8.07925C10.1392 3.58571 13.907 0 18.4833 0C23.0596 0 26.8274 3.58571 26.8274 8.07925V12.0526C26.8274 12.5647 26.4124 12.9798 25.9003 12.9798C25.3883 12.9798 24.9732 12.5647 24.9732 12.0526V8.07925C24.9732 4.67277 22.0996 1.85425 18.4833 1.85425Z" fill="url(#paint2_linear_623_61289)"/>
<path d="M17.6136 34.3659C17.6136 33.2475 18.5202 32.3409 19.6386 32.3409H41.3613C42.4797 32.3409 43.3863 33.2475 43.3863 34.3659V36.4522C43.3863 37.5706 42.4797 38.4772 41.3613 38.4772H19.6386C18.5202 38.4772 17.6136 37.5706 17.6136 36.4522V34.3659Z" fill="url(#paint3_linear_623_61289)"/>
<path d="M19.4545 32.4023V30.5H41.5454V32.4023L32.8059 37.3748C31.5994 38.0612 30.1255 38.082 28.9002 37.4298L19.4545 32.4023Z" fill="url(#paint4_linear_623_61289)"/>
<path d="M18.0799 29.825H42.9202C44.5053 32.3426 41.0371 33.3901 39.3805 31.8497C39.2314 35.5404 34.7173 34.6854 33.9156 31.8497C33.579 35.9901 27.4211 35.9901 27.0845 31.8497C26.2828 34.6854 21.7687 35.5404 21.6196 31.8497C19.963 33.3901 16.4948 32.3426 18.0799 29.825Z" fill="url(#paint5_linear_623_61289)"/>
<path d="M30.9501 36.95L30.6501 36.95" stroke="white" stroke-opacity="0.5" stroke-width="1.2" stroke-linecap="round"/>
<path d="M35 35L33.8 35.6" stroke="white" stroke-opacity="0.5" stroke-width="1.2" stroke-linecap="round"/>
<path d="M17 28.3703C17 22.0907 22.0907 17 28.3703 17H32.6297C38.9093 17 44 22.0907 44 28.3703C44 29.2076 43.3212 29.8864 42.484 29.8864H18.516C17.6788 29.8864 17 29.2076 17 28.3703Z" fill="url(#paint6_linear_623_61289)"/>
<path d="M17.6136 39.8273C17.6136 39.0817 18.218 38.4773 18.9636 38.4773H42.0363C42.7819 38.4773 43.3863 39.0817 43.3863 39.8273V40.625C43.3863 42.489 41.8753 44 40.0113 44H20.9886C19.1246 44 17.6136 42.489 17.6136 40.625V39.8273Z" fill="url(#paint7_linear_623_61289)"/>
<path d="M31.4642 23.4607C31.4642 23.9933 31.0325 24.425 30.4999 24.425C29.9674 24.425 29.5356 23.9933 29.5356 23.4607C29.5356 23.2024 29.7624 22.6277 29.9961 22.1041C30.1951 21.658 30.8047 21.658 31.0038 22.1041C31.2374 22.6277 31.4642 23.2024 31.4642 23.4607Z" fill="url(#paint8_linear_623_61289)"/>
<path d="M35.9478 20.239C36.409 20.5053 36.567 21.0951 36.3008 21.5563C36.0345 22.0175 35.4447 22.1755 34.9835 21.9092C34.7598 21.7801 34.3755 21.2963 34.0389 20.8322C33.7521 20.4367 34.0569 19.9088 34.5428 19.9595C35.113 20.0189 35.7241 20.1099 35.9478 20.239Z" fill="url(#paint9_linear_623_61289)"/>
<path d="M24.5852 20.239C24.124 20.5053 23.9659 21.0951 24.2322 21.5563C24.4985 22.0175 25.0883 22.1755 25.5495 21.9092C25.7731 21.7801 26.1575 21.2963 26.4941 20.8322C26.7809 20.4367 26.4761 19.9088 25.9902 19.9595C25.42 20.0189 24.8089 20.1099 24.5852 20.239Z" fill="url(#paint10_linear_623_61289)"/>
<defs>
<linearGradient id="paint0_linear_623_61289" x1="24.5689" y1="-3.70851" x2="24.5689" y2="9.73483" gradientUnits="userSpaceOnUse">
<stop stop-color="#DF8858"/>
<stop offset="1" stop-color="#984721"/>
</linearGradient>
<linearGradient id="paint1_linear_623_61289" x1="15.7612" y1="15.7226" x2="30.5014" y2="36.5857" gradientUnits="userSpaceOnUse">
<stop stop-color="#DF8858"/>
<stop offset="1" stop-color="#984721"/>
</linearGradient>
<linearGradient id="paint2_linear_623_61289" x1="18.4833" y1="0.927127" x2="18.4833" y2="15.2976" gradientUnits="userSpaceOnUse">
<stop stop-color="#DF8858"/>
<stop offset="1" stop-color="#984721"/>
</linearGradient>
<linearGradient id="paint3_linear_623_61289" x1="28.6999" y1="42.2" x2="32.6614" y2="36.0529" gradientUnits="userSpaceOnUse">
<stop stop-color="#D56B2A"/>
<stop offset="1" stop-color="#723319"/>
</linearGradient>
<linearGradient id="paint4_linear_623_61289" x1="30.2" y1="29.3" x2="35.2164" y2="35.3197" gradientUnits="userSpaceOnUse">
<stop stop-color="#D56B2A"/>
<stop offset="1" stop-color="#FDB813"/>
</linearGradient>
<linearGradient id="paint5_linear_623_61289" x1="51.5" y1="25.1" x2="34.5178" y2="10.7547" gradientUnits="userSpaceOnUse">
<stop stop-color="#038A39"/>
<stop offset="1" stop-color="#7CC362"/>
</linearGradient>
<linearGradient id="paint6_linear_623_61289" x1="27.5" y1="14.9555" x2="33.9608" y2="25.7235" gradientUnits="userSpaceOnUse">
<stop stop-color="#FFCAAB"/>
<stop offset="1" stop-color="#D56B2A"/>
</linearGradient>
<linearGradient id="paint7_linear_623_61289" x1="41.6345" y1="28.1683" x2="46.2779" y2="38.2643" gradientUnits="userSpaceOnUse">
<stop stop-color="#FFCAAB"/>
<stop offset="1" stop-color="#D56B2A"/>
</linearGradient>
<linearGradient id="paint8_linear_623_61289" x1="29.5999" y1="21.2" x2="30.7769" y2="23.6992" gradientUnits="userSpaceOnUse">
<stop offset="0.291084" stop-color="#FFF5D8"/>
<stop offset="1" stop-color="#FFCAAB"/>
</linearGradient>
<linearGradient id="paint9_linear_623_61289" x1="33.3779" y1="19.8688" x2="35.6619" y2="21.8404" gradientUnits="userSpaceOnUse">
<stop offset="0.291084" stop-color="#FFF5D8"/>
<stop offset="1" stop-color="#FFCAAB"/>
</linearGradient>
<linearGradient id="paint10_linear_623_61289" x1="23.9001" y1="20" x2="25.6936" y2="21.8404" gradientUnits="userSpaceOnUse">
<stop offset="0.291084" stop-color="#FFF5D8"/>
<stop offset="1" stop-color="#FFCAAB"/>
</linearGradient>
</defs>
</svg>
