<svg width="44" height="44" viewBox="0 0 44 44" fill="none" xmlns="http://www.w3.org/2000/svg">
<path d="M0.116577 12.8334C12.1134 3.78897 31.7843 3.75834 43.7395 12.8334L34.1846 19.8353C27.4154 24.7958 16.5721 24.8097 9.78017 19.8665L0.116577 12.8334Z" fill="#C3363E"/>
<rect x="18.8205" width="6.17041" height="29.8236" rx="0.916667" fill="url(#paint0_linear_623_60796)"/>
<rect x="28.6088" y="1.02838" width="6.04193" height="30.2097" rx="0.916667" transform="rotate(4.91731 28.6088 1.02838)" fill="url(#paint1_linear_623_60796)"/>
<rect width="6.04193" height="30.2097" rx="0.916667" transform="matrix(-0.996319 0.0857179 0.0857179 0.996319 16.103 0.916687)" fill="url(#paint2_linear_623_60796)"/>
<path d="M36.834 4.5117C36.9199 4.01046 37.3973 3.67489 37.898 3.76391L42.0322 4.49898C42.5321 4.58786 42.8645 5.06608 42.7736 5.56558L38.7762 27.537C38.6273 28.3554 37.553 28.5683 37.1032 27.8686L33.9248 22.9244C33.801 22.7318 33.7537 22.4998 33.7924 22.274L36.834 4.5117Z" fill="url(#paint3_linear_623_60796)"/>
<rect width="6.04193" height="30.2097" rx="0.916667" transform="matrix(-0.984558 0.175057 0.175057 0.984558 7.28625 3.60242)" fill="url(#paint4_linear_623_60796)"/>
<rect x="23.9944" y="2.9115" width="6.04193" height="30.2097" rx="0.916667" transform="rotate(3.99741 23.9944 2.9115)" fill="url(#paint5_linear_623_60796)"/>
<rect x="13.6812" y="3.32727" width="6.04193" height="30.2097" rx="0.916667" transform="rotate(-3.92053 13.6812 3.32727)" fill="url(#paint6_linear_623_60796)"/>
<rect x="32.5302" y="5.88391" width="6.04193" height="30.2097" rx="0.916667" transform="rotate(8.98918 32.5302 5.88391)" fill="url(#paint7_linear_623_60796)"/>
<rect x="5.24176" y="6.80713" width="6.04193" height="30.2097" rx="0.916667" transform="rotate(-8.76476 5.24176 6.80713)" fill="url(#paint8_linear_623_60796)"/>
<path d="M0.116577 12.8333L5.75902 41.0522C6.10173 42.7662 7.60662 44 9.35451 44H34.5016C36.2495 44 37.7544 42.7662 38.0971 41.0522L43.7395 12.8333L34.1846 19.8353C27.4154 24.7958 16.5721 24.8097 9.78017 19.8665L0.116577 12.8333Z" fill="url(#paint9_linear_623_60796)"/>
<path d="M31.1138 41.2164L20.9473 41.2253" stroke="white" stroke-opacity="0.7" stroke-width="2" stroke-linecap="round"/>
<path d="M34.8251 41.2142L34.4872 41.2145" stroke="white" stroke-opacity="0.7" stroke-width="2" stroke-linecap="round"/>
<defs>
<linearGradient id="paint0_linear_623_60796" x1="21.9057" y1="0" x2="21.9057" y2="27.0417" gradientUnits="userSpaceOnUse">
<stop offset="0.348958" stop-color="#FBB314"/>
<stop offset="1" stop-color="#D56B2A"/>
</linearGradient>
<linearGradient id="paint1_linear_623_60796" x1="31.6297" y1="1.02838" x2="31.6297" y2="31.238" gradientUnits="userSpaceOnUse">
<stop offset="0.348958" stop-color="#FBB314"/>
<stop offset="1" stop-color="#D56B2A"/>
</linearGradient>
<linearGradient id="paint2_linear_623_60796" x1="3.02097" y1="0" x2="3.02097" y2="30.2097" gradientUnits="userSpaceOnUse">
<stop offset="0.348958" stop-color="#FBB314"/>
<stop offset="1" stop-color="#D56B2A"/>
</linearGradient>
<linearGradient id="paint3_linear_623_60796" x1="39.9641" y1="4.13126" x2="35.4867" y2="29.3129" gradientUnits="userSpaceOnUse">
<stop offset="0.348958" stop-color="#FBB314"/>
<stop offset="1" stop-color="#D56B2A"/>
</linearGradient>
<linearGradient id="paint4_linear_623_60796" x1="3.02097" y1="0" x2="3.02097" y2="30.2097" gradientUnits="userSpaceOnUse">
<stop offset="0.348958" stop-color="#FBB314"/>
<stop offset="1" stop-color="#D56B2A"/>
</linearGradient>
<linearGradient id="paint5_linear_623_60796" x1="27.0153" y1="2.9115" x2="27.5365" y2="29.6098" gradientUnits="userSpaceOnUse">
<stop stop-color="#FFF45F"/>
<stop offset="0.588542" stop-color="#FDB813"/>
</linearGradient>
<linearGradient id="paint6_linear_623_60796" x1="16.7022" y1="3.32727" x2="16.7022" y2="33.5369" gradientUnits="userSpaceOnUse">
<stop stop-color="#FFF45F"/>
<stop offset="0.588542" stop-color="#FDB813"/>
</linearGradient>
<linearGradient id="paint7_linear_623_60796" x1="35.5511" y1="5.88391" x2="35.5511" y2="36.0936" gradientUnits="userSpaceOnUse">
<stop stop-color="#FFF45F"/>
<stop offset="0.588542" stop-color="#FDB813"/>
</linearGradient>
<linearGradient id="paint8_linear_623_60796" x1="8.26273" y1="6.80713" x2="8.26273" y2="37.0168" gradientUnits="userSpaceOnUse">
<stop stop-color="#FFF45F"/>
<stop offset="0.588542" stop-color="#FDB813"/>
</linearGradient>
<linearGradient id="paint9_linear_623_60796" x1="21.9281" y1="17.4166" x2="29.8374" y2="41.3906" gradientUnits="userSpaceOnUse">
<stop stop-color="#FD4343"/>
<stop offset="1" stop-color="#C7222B"/>
</linearGradient>
</defs>
</svg>
