<svg width="44" height="44" viewBox="0 0 44 44" fill="none" xmlns="http://www.w3.org/2000/svg">
<path fill-rule="evenodd" clip-rule="evenodd" d="M31.088 21.8426C37.1196 21.8426 42.0093 16.953 42.0093 10.9213C42.0093 4.88969 37.1196 6.10352e-05 31.088 6.10352e-05C25.0563 6.10352e-05 20.1667 4.88969 20.1667 10.9213C20.1667 16.953 25.0563 21.8426 31.088 21.8426ZM31.0886 18.5665C35.3108 18.5665 38.7335 15.1437 38.7335 10.9216C38.7335 6.69941 35.3108 3.27667 31.0886 3.27667C26.8664 3.27667 23.4437 6.69941 23.4437 10.9216C23.4437 15.1437 26.8664 18.5665 31.0886 18.5665Z" fill="url(#paint0_radial_623_60971)"/>
<path d="M6.37122 26.4431C3.28204 26.4431 0.777779 23.9388 0.777778 20.8497C0.777779 18.7851 1.89631 16.9818 3.56044 16.0127L3.49322 15.9739C0.817913 14.4293 -0.0987186 11.0084 1.44587 8.33306C2.99046 5.65776 6.41136 4.74113 9.08667 6.28572L10.2106 6.93461C10.2893 5.08635 11.2825 3.31666 13.0032 2.32319C15.6785 0.7786 19.0994 1.69523 20.644 4.37054L22.2035 7.07164C22.9277 6.11743 23.9626 5.38758 25.2092 5.05354C28.1931 4.254 31.2602 6.02479 32.0598 9.0087L35.1405 20.506C35.375 21.3813 35.3884 22.2638 35.2148 23.0941C35.6594 25.8873 33.9294 28.6213 31.1371 29.3695L19.5657 32.47C16.5818 33.2695 13.5147 31.4987 12.7152 28.5148C12.5287 27.8188 12.4821 27.1183 12.558 26.4431H6.37122Z" fill="url(#paint1_linear_623_60971)"/>
<path d="M6.37122 26.4431C3.28204 26.4431 0.777779 23.9388 0.777778 20.8497C0.777779 18.7851 1.89631 16.9818 3.56044 16.0127L3.49322 15.9739C0.817913 14.4293 -0.0987186 11.0084 1.44587 8.33306C2.99046 5.65776 6.41136 4.74113 9.08667 6.28572L10.2106 6.93461C10.2893 5.08635 11.2825 3.31666 13.0032 2.32319C15.6785 0.7786 19.0994 1.69523 20.644 4.37054L22.2035 7.07164C22.9277 6.11743 23.9626 5.38758 25.2092 5.05354C28.1931 4.254 31.2602 6.02479 32.0598 9.0087L35.1405 20.506C35.375 21.3813 35.3884 22.2638 35.2148 23.0941C35.6594 25.8873 33.9294 28.6213 31.1371 29.3695L19.5657 32.47C16.5818 33.2695 13.5147 31.4987 12.7152 28.5148C12.5287 27.8188 12.4821 27.1183 12.558 26.4431H6.37122Z" fill="url(#paint2_radial_623_60971)"/>
<path fill-rule="evenodd" clip-rule="evenodd" d="M15.6686 6.50832C15.9584 6.37951 16.2978 6.51003 16.4266 6.79986L20.1796 15.2442C20.3084 15.534 20.1779 15.8734 19.8881 16.0022C19.5983 16.131 19.2589 16.0004 19.1301 15.7106L15.3771 7.26633C15.2482 6.9765 15.3788 6.63713 15.6686 6.50832ZM5.14572 10.4827C5.29264 10.2016 5.63961 10.0928 5.92069 10.2398L26.5623 21.0297C26.8434 21.1766 26.9521 21.5236 26.8052 21.8047C26.6583 22.0857 26.3113 22.1945 26.0302 22.0476L5.38862 11.2576C5.10754 11.1107 4.99879 10.7637 5.14572 10.4827ZM18.3464 20.1615C18.6633 20.1477 18.909 19.8797 18.8952 19.5628C18.8815 19.246 18.6134 19.0003 18.2966 19.0141L7.50663 19.4832C7.18977 19.497 6.94407 19.765 6.95784 20.0819C6.97162 20.3987 7.23966 20.6444 7.55652 20.6306L18.3464 20.1615Z" fill="#E1ED9C" fill-opacity="0.5"/>
<path fill-rule="evenodd" clip-rule="evenodd" d="M10.9213 31.9259C16.9529 31.9259 21.8426 27.0363 21.8426 21.0047C21.8426 14.973 16.9529 10.0834 10.9213 10.0834C4.88962 10.0834 0 14.973 0 21.0047C0 27.0363 4.88962 31.9259 10.9213 31.9259ZM10.9211 28.6495C15.1433 28.6495 18.566 25.2268 18.566 21.0047C18.566 16.7825 15.1433 13.3598 10.9211 13.3598C6.69894 13.3598 3.2762 16.7825 3.2762 21.0047C3.2762 25.2268 6.69894 28.6495 10.9211 28.6495Z" fill="url(#paint3_radial_623_60971)"/>
<path d="M23.0589 14.4993C23.8173 11.6689 26.7265 9.98928 29.5568 10.7477C31.1825 11.1833 32.4285 12.3284 33.051 13.7605L34.9359 11.8756C37.0079 9.80367 40.3671 9.80367 42.4391 11.8756C44.511 13.9476 44.511 17.3069 42.4391 19.3788L40.6094 21.2085C41.9447 21.8578 43.0015 23.0609 43.4159 24.6076C44.1743 27.438 42.4946 30.3472 39.6643 31.1056L34.8761 32.3886C35.0442 32.9056 35.1351 33.4574 35.1351 34.0305C35.1351 36.9607 32.7597 39.3361 29.8295 39.3361H18.5393C16.1395 39.3361 14.1119 37.7428 13.4564 35.5563C13.0588 34.8122 12.8333 33.9621 12.8333 33.0594L12.8333 21.6965C12.8333 18.7663 15.2087 16.3909 18.1389 16.3909C19.7039 16.3909 21.1106 17.0685 22.0817 18.1463L23.0589 14.4993Z" fill="url(#paint4_linear_623_60971)"/>
<path d="M23.0589 14.4993C23.8173 11.6689 26.7265 9.98928 29.5568 10.7477C31.1825 11.1833 32.4285 12.3284 33.051 13.7605L34.9359 11.8756C37.0079 9.80367 40.3671 9.80367 42.4391 11.8756C44.511 13.9476 44.511 17.3069 42.4391 19.3788L40.6094 21.2085C41.9447 21.8578 43.0015 23.0609 43.4159 24.6076C44.1743 27.438 42.4946 30.3472 39.6643 31.1056L34.8761 32.3886C35.0442 32.9056 35.1351 33.4574 35.1351 34.0305C35.1351 36.9607 32.7597 39.3361 29.8295 39.3361H18.5393C16.1395 39.3361 14.1119 37.7428 13.4564 35.5563C13.0588 34.8122 12.8333 33.9621 12.8333 33.0594L12.8333 21.6965C12.8333 18.7663 15.2087 16.3909 18.1389 16.3909C19.7039 16.3909 21.1106 17.0685 22.0817 18.1463L23.0589 14.4993Z" fill="url(#paint5_linear_623_60971)"/>
<path d="M36.6584 26.2571L27.4296 26.7259" stroke="#E1ED9C" stroke-opacity="0.5" stroke-width="1.14855" stroke-linecap="round"/>
<path fill-rule="evenodd" clip-rule="evenodd" d="M24.8636 27.2025C24.563 27.1015 24.4011 26.7759 24.5021 26.4753L27.9405 16.2371C28.0415 15.9365 28.3671 15.7746 28.6678 15.8756C28.9684 15.9765 29.1303 16.3021 29.0293 16.6028L25.7107 26.484L37.5866 16.033C37.8247 15.8234 38.1875 15.8466 38.3971 16.0847C38.6066 16.3228 38.5834 16.6857 38.3453 16.8952L24.3619 29.201C24.4801 29.4594 24.3911 29.7716 24.1437 29.9263C23.9519 30.0462 23.7166 30.039 23.5365 29.9274L20.8603 32.2825C20.6222 32.492 20.2593 32.4689 20.0498 32.2308C19.8402 31.9927 19.8634 31.6298 20.1015 31.4203L22.8748 28.9797L18.661 22.2376C18.4929 21.9686 18.5747 21.6143 18.8437 21.4462C19.1126 21.2781 19.4669 21.3599 19.635 21.6288L23.7487 28.2107L24.8863 27.2096C24.8787 27.2074 24.8712 27.205 24.8636 27.2025Z" fill="#E1ED9C" fill-opacity="0.5"/>
<path d="M44 25.6667C44 35.792 35.7919 44.0001 25.6667 44.0001L18.3333 44.0001C8.20811 44.0001 6.68316e-07 35.7919 1.49273e-06 25.6667L44 25.6667Z" fill="url(#paint6_linear_623_60971)"/>
<path d="M26 41.7083C31.4306 41.4012 36.2508 38.3753 38.9971 33.9167M40.6686 30.25C40.7459 30.0025 40.8174 29.7525 40.883 29.5" stroke="white" stroke-opacity="0.6" stroke-width="2" stroke-linecap="round"/>
<defs>
<radialGradient id="paint0_radial_623_60971" cx="0" cy="0" r="1" gradientUnits="userSpaceOnUse" gradientTransform="translate(31.088 10.9213) rotate(90) scale(10.9213)">
<stop offset="0.676507" stop-color="#E4C8FF"/>
<stop offset="1" stop-color="#661A94"/>
</radialGradient>
<linearGradient id="paint1_linear_623_60971" x1="17.7616" y1="24.8767" x2="17.7618" y2="0.758709" gradientUnits="userSpaceOnUse">
<stop stop-color="#038A39"/>
<stop offset="1" stop-color="#7CC362"/>
</linearGradient>
<radialGradient id="paint2_radial_623_60971" cx="0" cy="0" r="1" gradientUnits="userSpaceOnUse" gradientTransform="translate(27.3175 12.5903) rotate(89.9994) scale(12.7416 12.7607)">
<stop stop-color="#038A39"/>
<stop offset="0.383505" stop-color="#038A39" stop-opacity="0"/>
</radialGradient>
<radialGradient id="paint3_radial_623_60971" cx="0" cy="0" r="1" gradientUnits="userSpaceOnUse" gradientTransform="translate(10.9213 21.0047) rotate(90) scale(10.9213)">
<stop offset="0.676507" stop-color="#E4C8FF"/>
<stop offset="1" stop-color="#661A94"/>
</radialGradient>
<linearGradient id="paint4_linear_623_60971" x1="33.8712" y1="8.49474" x2="39.7868" y2="28.517" gradientUnits="userSpaceOnUse">
<stop stop-color="#E1ED9C"/>
<stop offset="0.469359" stop-color="#7CC362"/>
<stop offset="1" stop-color="#038A39"/>
</linearGradient>
<linearGradient id="paint5_linear_623_60971" x1="24.7699" y1="24.4216" x2="25.2249" y2="20.3261" gradientUnits="userSpaceOnUse">
<stop stop-color="#038A39"/>
<stop offset="1" stop-color="#038A39" stop-opacity="0"/>
</linearGradient>
<linearGradient id="paint6_linear_623_60971" x1="24.3097" y1="23" x2="30.8743" y2="41.6949" gradientUnits="userSpaceOnUse">
<stop stop-color="#FFF5D8"/>
<stop offset="1" stop-color="#B2EF76"/>
</linearGradient>
</defs>
</svg>
