<svg width="44" height="44" viewBox="0 0 44 44" fill="none" xmlns="http://www.w3.org/2000/svg">
<path d="M0 21.6402L21.6401 0.00012207C26.2297 8.31879 33.0797 15.1688 41.3984 19.7584L19.7583 41.3985C15.1687 33.0798 8.31867 26.2298 0 21.6402Z" fill="url(#paint0_linear_641_53518)"/>
<path d="M22.4751 5.44925C22.5208 5.55592 22.5792 5.67781 22.6497 5.81372M35.4974 18.5064C30.9998 15.5079 26.6693 11.702 24.1213 8.12914" stroke="white" stroke-opacity="0.9" stroke-width="1.81796" stroke-linecap="round"/>
<path d="M0 21.6401L7.24995 10.8631C8.2096 9.4366 9.4366 8.2096 10.8631 7.24995L21.6401 0L17.0787 10.1001C15.7721 12.9933 13.4741 15.3241 10.5996 16.6715L0 21.6401Z" fill="url(#paint1_linear_641_53518)"/>
<path d="M21.9696 43.6098C22.6761 44.3163 23.8803 44.0211 24.1799 43.0679L24.6073 41.7079C24.7377 41.2929 25.0627 40.9679 25.4777 40.8374L28.2695 39.96C28.6844 39.8296 29.0095 39.5046 29.1399 39.0896L30.0173 36.2979C30.1477 35.8829 30.4727 35.5579 30.8877 35.4274L33.6795 34.55C34.0945 34.4196 34.4195 34.0946 34.5499 33.6796L35.4273 30.8878C35.5577 30.4729 35.8828 30.1478 36.2977 30.0174L39.0895 29.14C39.5045 29.0096 39.8295 28.6846 39.9599 28.2696L40.8373 25.4778C40.9677 25.0629 41.2928 24.7378 41.7078 24.6074L43.0677 24.18C44.021 23.8804 44.3162 22.6763 43.6097 21.9697L41.3983 19.7584L19.7582 41.3984L21.9696 43.6098Z" fill="url(#paint2_linear_641_53518)"/>
<circle cx="22.5808" cy="22.5809" r="8.64886" transform="rotate(-45 22.5808 22.5809)" fill="url(#paint3_linear_641_53518)"/>
<path fill-rule="evenodd" clip-rule="evenodd" d="M18.4623 20.1495C18.0933 19.0174 18.712 17.8005 19.8441 17.4315C23.0176 16.3971 26.4288 18.1313 27.4631 21.3048C28.4975 24.4784 26.7633 27.8895 23.5898 28.9239C22.4577 29.2929 21.2408 28.6742 20.8718 27.5421C20.5028 26.41 21.1214 25.1931 22.2535 24.8241C23.1628 24.5278 23.6597 23.5504 23.3634 22.6411C23.067 21.7318 22.0896 21.2349 21.1803 21.5313C20.0482 21.9002 18.8313 21.2816 18.4623 20.1495Z" fill="url(#paint4_linear_641_53518)"/>
<path fill-rule="evenodd" clip-rule="evenodd" d="M12.4913 3.25705C12.7136 2.36577 13.6163 1.82347 14.5076 2.04579C17.006 2.66898 18.5262 5.19954 17.903 7.69795C17.2798 10.1964 14.7492 11.7165 12.2508 11.0933C11.3595 10.871 10.8172 9.96827 11.0396 9.077C11.2619 8.18572 12.1646 7.64342 13.0559 7.86574C13.7718 8.0443 14.4968 7.60873 14.6754 6.89287C14.8539 6.17701 14.4184 5.45194 13.7025 5.27338C12.8112 5.05107 12.2689 4.14832 12.4913 3.25705Z" fill="url(#paint5_linear_641_53518)"/>
<path fill-rule="evenodd" clip-rule="evenodd" d="M6.52341 8.67244C7.36641 8.30754 8.3456 8.69512 8.7105 9.53812C9.73338 11.9012 8.64693 14.6461 6.28384 15.6689C3.92076 16.6918 1.17591 15.6054 0.15303 13.2423C-0.211867 12.3993 0.17571 11.4201 1.01871 11.0552C1.86171 10.6903 2.8409 11.0779 3.2058 11.9209C3.49888 12.5979 4.28535 12.9092 4.96243 12.6162C5.63952 12.3231 5.95082 11.5366 5.65774 10.8595C5.29284 10.0165 5.68041 9.03734 6.52341 8.67244Z" fill="url(#paint6_linear_641_53518)"/>
<path fill-rule="evenodd" clip-rule="evenodd" d="M8.09427 2.5722C8.93511 2.94205 9.31692 3.92351 8.94707 4.76435C7.91031 7.12137 5.15911 8.19166 2.80209 7.1549C0.445063 6.11815 -0.625225 3.36694 0.411531 1.00992C0.78138 0.169083 1.76284 -0.212728 2.60367 0.157121C3.44451 0.52697 3.82632 1.50843 3.45647 2.34926C3.15941 3.02461 3.46608 3.8129 4.14143 4.10996C4.81678 4.40702 5.60507 4.10035 5.90213 3.425C6.27198 2.58417 7.25343 2.20235 8.09427 2.5722Z" fill="url(#paint7_linear_641_53518)"/>
<defs>
<linearGradient id="paint0_linear_641_53518" x1="10.82" y1="10.8202" x2="20.7271" y2="34.6705" gradientUnits="userSpaceOnUse">
<stop stop-color="#FFF45F"/>
<stop offset="1" stop-color="#FDB813"/>
</linearGradient>
<linearGradient id="paint1_linear_641_53518" x1="12.7017" y1="12.7018" x2="13.9198" y2="15.2487" gradientUnits="userSpaceOnUse">
<stop stop-color="#FDB813"/>
<stop offset="1" stop-color="#FF8000"/>
</linearGradient>
<linearGradient id="paint2_linear_641_53518" x1="34.3417" y1="34.3419" x2="33.0154" y2="29.8576" gradientUnits="userSpaceOnUse">
<stop stop-color="#FDB813"/>
<stop offset="1" stop-color="#FF8000"/>
</linearGradient>
<linearGradient id="paint3_linear_641_53518" x1="22.5808" y1="23.5789" x2="21.0133" y2="30.8939" gradientUnits="userSpaceOnUse">
<stop stop-color="white"/>
<stop offset="1" stop-color="#FFF45F"/>
</linearGradient>
<linearGradient id="paint4_linear_641_53518" x1="18.0666" y1="19.5684" x2="20.2701" y2="25.2437" gradientUnits="userSpaceOnUse">
<stop stop-color="#FDB813"/>
<stop offset="1" stop-color="#FF8000"/>
</linearGradient>
<linearGradient id="paint5_linear_641_53518" x1="13.1775" y1="2.84878" x2="14.295" y2="7.71175" gradientUnits="userSpaceOnUse">
<stop stop-color="#FDB813"/>
<stop offset="1" stop-color="#FF8000"/>
</linearGradient>
<linearGradient id="paint6_linear_641_53518" x1="1.69103" y1="10.42" x2="4.08086" y2="12.8116" gradientUnits="userSpaceOnUse">
<stop stop-color="#FDB813"/>
<stop offset="1" stop-color="#FF8000"/>
</linearGradient>
<linearGradient id="paint7_linear_641_53518" x1="1.13366" y1="1.06864" x2="5.36758" y2="5.30257" gradientUnits="userSpaceOnUse">
<stop stop-color="#FDB813"/>
<stop offset="1" stop-color="#FF8000"/>
</linearGradient>
</defs>
</svg>
