<svg width="44" height="45" viewBox="0 0 44 45" fill="none" xmlns="http://www.w3.org/2000/svg">
<path d="M10.5219 8.69543C13.7242 5.49311 15.0967 1.83331 21.0438 1.83331C28.3634 1.83331 27.9059 8.23796 31.1083 10.9828C34.3106 13.7277 37.8478 13.7182 40.2578 16.4725C43.4601 20.1323 45.7474 24.707 42.0877 29.2818C39.2298 32.8541 35.2255 30.1967 30.6508 32.4841C26.076 34.7715 29.3179 40.7959 21.0833 43.0833C19.4805 43.5285 17.948 43.9766 16.5 44C10.7362 44.0929 6.311 40.9287 4.11727 37.5163C0 31.1119 0 26.5372 0 21.0477V21.0472C0 10.0679 7.31959 11.8978 10.5219 8.69543Z" fill="url(#paint0_radial_623_60676)"/>
<circle cx="11.8943" cy="24.707" r="8.23454" fill="url(#paint1_radial_623_60676)"/>
<path fill-rule="evenodd" clip-rule="evenodd" d="M15.4575 19.6265C15.2316 20.0785 14.682 20.2617 14.23 20.0357C13.1274 19.4844 11.5563 19.4538 10.1157 19.9168C8.66098 20.3844 7.60171 21.2643 7.27265 22.2515C7.11285 22.7309 6.5947 22.99 6.11532 22.8302C5.63593 22.6704 5.37686 22.1522 5.53665 21.6728C6.12254 19.9152 7.80812 18.7364 9.55573 18.1747C11.3175 17.6084 13.4062 17.5779 15.0484 18.399C15.5003 18.625 15.6835 19.1745 15.4575 19.6265Z" fill="white" fill-opacity="0.8"/>
<path fill-rule="evenodd" clip-rule="evenodd" d="M16.6713 20.6337C17.0794 20.3357 17.6518 20.4249 17.9498 20.833L18.3314 21.3554C18.6294 21.7635 18.5402 22.3359 18.1321 22.6339C17.724 22.932 17.1516 22.8427 16.8536 22.4347L16.472 21.9122C16.174 21.5041 16.2632 20.9317 16.6713 20.6337Z" fill="white" fill-opacity="0.8"/>
<path fill-rule="evenodd" clip-rule="evenodd" d="M31.0585 10.157C32.2899 8.70119 32.9696 6.85835 32.9783 4.9516L33.0009 0L44 0.0501483L43.9774 5.00174C43.9569 9.4922 42.3563 13.8321 39.4563 17.2606C38.2248 18.7164 37.5452 20.5592 37.5365 22.466C37.516 26.9564 35.9154 31.2963 33.0153 34.7248L29.8175 38.5053L21.4197 31.4017L24.6176 27.6212C25.849 26.1654 26.5287 24.3226 26.5374 22.4158C26.5578 17.9254 28.1584 13.5854 31.0585 10.157Z" fill="url(#paint2_linear_623_60676)"/>
<path fill-rule="evenodd" clip-rule="evenodd" d="M34.2884 12.8891C36.1617 10.6746 37.1955 7.87137 37.2088 4.97088L37.2313 0.0192871L39.7696 0.0308598L39.747 4.98245C39.7311 8.47918 38.4847 11.8587 36.2264 14.5284C34.3532 16.7429 33.3193 19.5462 33.3061 22.4467C33.2901 25.9434 32.0438 29.3229 29.7855 31.9926L26.5876 35.7732L24.6496 34.1339L27.8475 30.3534C29.7207 28.1388 30.7546 25.3356 30.7678 22.4351C30.7838 18.9384 32.0302 15.5589 34.2884 12.8891Z" fill="url(#paint3_linear_623_60676)"/>
<defs>
<radialGradient id="paint0_radial_623_60676" cx="0" cy="0" r="1" gradientUnits="userSpaceOnUse" gradientTransform="translate(15.0967 24.2495) scale(24.7036 24.7036)">
<stop offset="0.390625" stop-color="white"/>
<stop offset="1" stop-color="#FFCAAB"/>
</radialGradient>
<radialGradient id="paint1_radial_623_60676" cx="0" cy="0" r="1" gradientUnits="userSpaceOnUse" gradientTransform="translate(11.8943 21.9622) rotate(76.7595) scale(7.98945)">
<stop stop-color="#FFF45F"/>
<stop offset="1" stop-color="#FDB813"/>
</radialGradient>
<linearGradient id="paint2_linear_623_60676" x1="32.9381" y1="3.22737" x2="40.1422" y2="21.9579" gradientUnits="userSpaceOnUse">
<stop stop-color="#FD4343"/>
<stop offset="1" stop-color="#C7222B"/>
</linearGradient>
<linearGradient id="paint3_linear_623_60676" x1="30.9405" y1="3.68489" x2="42.4678" y2="27.3478" gradientUnits="userSpaceOnUse">
<stop stop-color="#FFA0B7"/>
<stop offset="1" stop-color="#FD4343"/>
</linearGradient>
</defs>
</svg>
