<svg width="44" height="44" viewBox="0 0 44 44" fill="none" xmlns="http://www.w3.org/2000/svg">
<path d="M31.6915 5.08568C33.5174 1.92308 37.5656 0.846146 40.7216 2.6834C43.8617 4.51137 44.932 8.53461 43.1153 11.6812L40.7545 15.7703C42.5048 18.9013 41.4304 22.8672 38.3232 24.6821L36.0134 26.0313C36.1165 26.1801 36.2142 26.3344 36.3064 26.4939C38.1208 29.6365 37.0557 33.6546 33.9228 35.4858L24.9249 40.7452C21.7682 42.5904 17.7129 41.5154 15.8847 38.3489C15.0827 36.9598 14.8433 35.3997 15.0964 33.9331L15.1471 24.459C15.1666 20.8302 18.1137 17.8988 21.7425 17.8988C21.9423 17.8988 22.1399 17.9077 22.3351 17.9251L22.3476 15.4585C22.3659 11.829 25.3134 8.8964 28.943 8.8964C29.1234 8.8964 29.3022 8.90364 29.479 8.91786L31.6915 5.08568Z" fill="url(#paint0_linear_623_61321)"/>
<path d="M31.6915 5.08568C33.5174 1.92308 37.5656 0.846146 40.7216 2.6834C43.8617 4.51137 44.932 8.53461 43.1153 11.6812L40.7545 15.7703C42.5048 18.9013 41.4304 22.8672 38.3232 24.6821L36.0134 26.0313C36.1165 26.1801 36.2142 26.3344 36.3064 26.4939C38.1208 29.6365 37.0557 33.6546 33.9228 35.4858L24.9249 40.7452C21.7682 42.5904 17.7129 41.5154 15.8847 38.3489C15.0827 36.9598 14.8433 35.3997 15.0964 33.9331L15.1471 24.459C15.1666 20.8302 18.1137 17.8988 21.7425 17.8988C21.9423 17.8988 22.1399 17.9077 22.3351 17.9251L22.3476 15.4585C22.3659 11.829 25.3134 8.8964 28.943 8.8964C29.1234 8.8964 29.3022 8.90364 29.479 8.91786L31.6915 5.08568Z" fill="url(#paint1_linear_623_61321)"/>
<path d="M38.4769 5.80176C38.8184 5.9989 38.9353 6.43552 38.7382 6.77697L29.211 23.2786L38.8362 18.6886C39.1678 18.5305 39.5649 18.6711 39.7231 19.0028C39.8813 19.3344 39.7406 19.7315 39.4089 19.8897L28.0365 25.3129L22.7943 34.3925L33.2009 29.4299C33.5568 29.2602 33.9829 29.4111 34.1526 29.767C34.3223 30.1229 34.1714 30.549 33.8155 30.7187L21.3495 36.6634C21.2758 36.7008 21.1945 36.7259 21.108 36.7357C21.0661 36.7406 21.0238 36.7417 20.9813 36.739C20.962 36.7378 20.9426 36.7358 20.9233 36.733C20.8328 36.7198 20.7474 36.6896 20.6707 36.6453C20.5883 36.5981 20.5149 36.5341 20.4559 36.4555C20.4469 36.4436 20.4384 36.4314 20.4303 36.419C20.3903 36.3585 20.3593 36.2914 20.3392 36.2194C20.3244 36.167 20.3159 36.114 20.3134 36.0612L19.3076 22.3388C19.2788 21.9456 19.5742 21.6035 19.9674 21.5746C20.3607 21.5458 20.7028 21.8412 20.7316 22.2344L21.569 33.6593L26.8051 24.59L25.8882 12.08C25.8614 11.7136 26.1367 11.3947 26.5031 11.3679C26.8696 11.341 27.1885 11.6163 27.2153 11.9828L27.9891 22.5394L37.5017 6.06307C37.6988 5.72161 38.1354 5.60462 38.4769 5.80176Z" fill="#E1ED9C" fill-opacity="0.5"/>
<path d="M0.880026 11.8415C-0.936135 8.6958 0.149468 4.67314 3.30165 2.86827C6.43787 1.07254 10.4358 2.15145 12.2427 5.28122L14.5909 9.34842C18.1585 9.39782 21.0403 12.2957 21.0584 15.8748L21.0718 18.5354C21.2513 18.5206 21.4328 18.5131 21.6161 18.5131C25.2254 18.5131 28.1568 21.4288 28.1762 25.0382L28.2317 35.4046C28.2512 39.0414 25.3085 42 21.6716 42C20.0762 42 18.6133 41.4304 17.4758 40.483L9.34014 35.7275C6.22404 33.9061 5.16464 29.9096 6.96933 26.7838C7.06867 26.6117 7.17461 26.4459 7.28665 26.2864L5.16819 25.049C2.05086 23.2281 0.990584 19.2307 2.79566 16.1042C2.88541 15.9488 2.98054 15.7984 3.0807 15.6532L0.880026 11.8415Z" fill="url(#paint2_linear_623_61321)"/>
<path d="M0.880026 11.8415C-0.936135 8.6958 0.149468 4.67314 3.30165 2.86827C6.43787 1.07254 10.4358 2.15145 12.2427 5.28122L14.5909 9.34842C18.1585 9.39782 21.0403 12.2957 21.0584 15.8748L21.0718 18.5354C21.2513 18.5206 21.4328 18.5131 21.6161 18.5131C25.2254 18.5131 28.1568 21.4288 28.1762 25.0382L28.2317 35.4046C28.2512 39.0414 25.3085 42 21.6716 42C20.0762 42 18.6133 41.4304 17.4758 40.483L9.34014 35.7275C6.22404 33.9061 5.16464 29.9096 6.96933 26.7838C7.06867 26.6117 7.17461 26.4459 7.28665 26.2864L5.16819 25.049C2.05086 23.2281 0.990584 19.2307 2.79566 16.1042C2.88541 15.9488 2.98054 15.7984 3.0807 15.6532L0.880026 11.8415Z" fill="url(#paint3_linear_623_61321)"/>
<path d="M4.8715 6.3527C5.21113 6.15661 5.64541 6.27298 5.8415 6.61261L15.3178 23.026L16.1508 12.4522C16.1795 12.0878 16.4982 11.8157 16.8625 11.8444C17.2269 11.8732 17.499 12.1918 17.4703 12.5561L16.486 25.0494L21.7001 34.0805L22.6008 22.6483C22.6316 22.2573 22.9735 21.9653 23.3644 21.9961C23.7554 22.0269 24.0474 22.3688 24.0166 22.7598L22.9376 36.4544C22.9332 36.5365 22.9143 36.619 22.8798 36.6984C22.8632 36.7369 22.8431 36.774 22.8197 36.8092C22.809 36.8252 22.7976 36.8409 22.7856 36.8561C22.7293 36.9276 22.6607 36.9861 22.5845 37.0302C22.5028 37.0776 22.4112 37.1091 22.3141 37.1208C22.2994 37.1226 22.2847 37.1239 22.27 37.1247C22.198 37.129 22.1247 37.1223 22.0527 37.1039C22.0003 37.0906 21.9504 37.0715 21.9036 37.0474L9.58305 31.0893C9.22999 30.9186 9.08219 30.4939 9.25293 30.1409C9.42366 29.7878 9.84828 29.64 10.2013 29.8108L20.4591 34.7713L15.2509 25.7506L4.0189 20.3189C3.68987 20.1597 3.55213 19.764 3.71125 19.435C3.87036 19.106 4.26608 18.9682 4.59511 19.1273L14.0733 23.7109L4.61159 7.32269C4.41551 6.98307 4.53187 6.54878 4.8715 6.3527Z" fill="#E1ED9C" fill-opacity="0.5"/>
<defs>
<linearGradient id="paint0_linear_623_61321" x1="30.7253" y1="0.849652" x2="38.809" y2="21.6365" gradientUnits="userSpaceOnUse">
<stop stop-color="#E1ED9C"/>
<stop offset="0.979167" stop-color="#7CC362"/>
</linearGradient>
<linearGradient id="paint1_linear_623_61321" x1="26.7368" y1="28.1989" x2="33.2941" y2="25.8057" gradientUnits="userSpaceOnUse">
<stop stop-color="#038A39"/>
<stop offset="1" stop-color="#038A39" stop-opacity="0"/>
</linearGradient>
<linearGradient id="paint2_linear_623_61321" x1="19.7215" y1="-5.58545" x2="20.0198" y2="26.7153" gradientUnits="userSpaceOnUse">
<stop stop-color="#E1ED9C"/>
<stop offset="1" stop-color="#7CC362"/>
</linearGradient>
<linearGradient id="paint3_linear_623_61321" x1="21.4217" y1="41.453" x2="12.9385" y2="22.6013" gradientUnits="userSpaceOnUse">
<stop stop-color="#038A39"/>
<stop offset="1" stop-color="#038A39" stop-opacity="0"/>
</linearGradient>
</defs>
</svg>
