<svg width="44" height="44" viewBox="0 0 44 44" fill="none" xmlns="http://www.w3.org/2000/svg">
<path d="M41.1324 40.5917C41.26 43.2283 38.354 44.9061 36.1345 43.4772L5.44409 23.7202C12.2403 11.4014 25.3009 3.86078 39.3674 4.13453L41.1324 40.5917Z" fill="url(#paint0_linear_623_60929)"/>
<circle cx="16.8581" cy="19.7293" r="6.07613" transform="rotate(-120 16.8581 19.7293)" fill="url(#paint1_linear_623_60929)"/>
<path fill-rule="evenodd" clip-rule="evenodd" d="M21.2795 12.193C16.0375 15.2195 11.9098 19.4226 9.03026 24.2765C8.2632 25.5695 6.64196 26.1345 5.29185 25.4731L3.33423 24.514C1.98413 23.8526 1.41802 22.2168 2.16611 20.9127C5.70479 14.744 10.8716 9.39835 17.4674 5.59024C24.0633 1.78213 31.2762 -0.019603 38.3878 0.000160802C39.8912 0.00433886 41.0248 1.31252 40.9225 2.81244L40.7742 4.9873C40.672 6.48723 39.3721 7.60877 37.8688 7.62656C32.2254 7.69336 26.5216 9.16653 21.2795 12.193Z" fill="url(#paint2_linear_623_60929)"/>
<path d="M32.034 12.6736C34.9401 10.9958 38.6562 11.9915 40.3341 14.8977C42.012 17.8038 41.0163 21.5199 38.1101 23.1978C35.2039 24.8757 31.4878 23.88 29.8099 20.9738C28.1321 18.0676 29.1278 14.3515 32.034 12.6736Z" fill="url(#paint3_linear_623_60929)"/>
<path d="M28.1146 29.3749C31.0208 27.697 34.7369 28.6927 36.4148 31.5989C38.0927 34.5051 37.0969 38.2212 34.1908 39.899C31.2846 41.5769 27.5685 40.5812 25.8906 37.675C24.2127 34.7689 25.2085 31.0528 28.1146 29.3749Z" fill="url(#paint4_linear_623_60929)"/>
<path fill-rule="evenodd" clip-rule="evenodd" d="M38.8065 42.5234C38.5547 42.9769 37.9829 43.1405 37.5294 42.8887L35.8363 41.9488C35.3828 41.697 35.2192 41.1252 35.471 40.6717C35.7228 40.2181 36.2946 40.0546 36.7481 40.3063L38.4412 41.2462C38.8947 41.498 39.0583 42.0698 38.8065 42.5234Z" fill="white" fill-opacity="0.7"/>
<path fill-rule="evenodd" clip-rule="evenodd" d="M23.78 33.2112C23.4984 33.6469 22.917 33.7719 22.4813 33.4903L15.897 29.235C15.4613 28.9534 15.3364 28.372 15.6179 27.9363C15.8995 27.5006 16.481 27.3757 16.9167 27.6572L23.501 31.9125C23.9367 32.1941 24.0616 32.7755 23.78 33.2112Z" fill="white" fill-opacity="0.5"/>
<defs>
<linearGradient id="paint0_linear_623_60929" x1="16.0225" y1="49.0185" x2="2.24152" y2="11.6401" gradientUnits="userSpaceOnUse">
<stop stop-color="#FFF45F"/>
<stop offset="0.604224" stop-color="#FDB813"/>
<stop offset="1" stop-color="#FF8000"/>
</linearGradient>
<linearGradient id="paint1_linear_623_60929" x1="12.3687" y1="10.9048" x2="24.7836" y2="12.083" gradientUnits="userSpaceOnUse">
<stop stop-color="#FFA0B7"/>
<stop offset="0.332751" stop-color="#FD4343"/>
<stop offset="1" stop-color="#C7222B"/>
</linearGradient>
<linearGradient id="paint2_linear_623_60929" x1="5.87403" y1="27.6287" x2="18.1897" y2="-20.1059" gradientUnits="userSpaceOnUse">
<stop stop-color="#FFCAAB"/>
<stop offset="0.37723" stop-color="#D56B2A"/>
<stop offset="1" stop-color="#723319"/>
</linearGradient>
<linearGradient id="paint3_linear_623_60929" x1="29.6745" y1="26.2359" x2="24.4874" y2="14.8952" gradientUnits="userSpaceOnUse">
<stop stop-color="#FFA0B7"/>
<stop offset="0.332751" stop-color="#FD4343"/>
<stop offset="1" stop-color="#C7222B"/>
</linearGradient>
<linearGradient id="paint4_linear_623_60929" x1="25.7551" y1="42.9372" x2="20.568" y2="31.5964" gradientUnits="userSpaceOnUse">
<stop stop-color="#FFA0B7"/>
<stop offset="0.332751" stop-color="#FD4343"/>
<stop offset="1" stop-color="#C7222B"/>
</linearGradient>
</defs>
</svg>
