<svg width="45" height="44" viewBox="0 0 45 44" fill="none" xmlns="http://www.w3.org/2000/svg">
<path d="M16.2144 18.0657L19.0483 15.2319L41.2468 37.4304L38.4129 40.2642L16.2144 18.0657Z" fill="#038A39"/>
<path d="M20.1539 6.10352e-05L18.1359 2.0181C13.9564 6.19761 13.9564 12.9739 18.1359 17.1534L20.1539 19.1715L22.172 17.1534C26.3515 12.9739 26.3515 6.19761 22.172 2.0181L20.1539 6.10352e-05Z" fill="url(#paint0_linear_623_61308)"/>
<path d="M0.982491 19.1715L3.00053 17.1534C7.18004 12.9739 13.9564 12.9739 18.1359 17.1534L20.1539 19.1715L18.1359 21.1895C13.9564 25.369 7.18004 25.369 3.00053 21.1895L0.982491 19.1715Z" fill="url(#paint1_linear_623_61308)"/>
<path d="M29.7397 9.58563L27.7216 11.6037C23.5421 15.7832 23.5421 22.5595 27.7216 26.739L29.7397 28.7571L31.7577 26.739C35.9372 22.5595 35.9372 15.7832 31.7577 11.6037L29.7397 9.58563Z" fill="url(#paint2_linear_623_61308)"/>
<path d="M10.9865 28.5933L13.0045 26.5752C17.1841 22.3957 23.9604 22.3957 28.1399 26.5752L30.1579 28.5933L28.1399 30.6113C23.9604 34.7908 17.1841 34.7908 13.0045 30.6113L10.9865 28.5933Z" fill="url(#paint3_linear_623_61308)"/>
<path d="M39.8299 19.676L37.8118 21.694C33.6323 25.8735 33.6323 32.6498 37.8118 36.8293L39.8299 38.8474L41.8479 36.8293C46.0274 32.6498 46.0274 25.8735 41.8479 21.694L39.8299 19.676Z" fill="url(#paint4_linear_623_61308)"/>
<path d="M20.6585 38.8474L22.6765 36.8293C26.856 32.6498 33.6323 32.6498 37.8119 36.8293L39.8299 38.8474L37.8119 40.8654C33.6323 45.0449 26.856 45.0449 22.6765 40.8654L20.6585 38.8474Z" fill="url(#paint5_linear_623_61308)"/>
<path opacity="0.6" fill-rule="evenodd" clip-rule="evenodd" d="M3.65372 19.0075C3.65372 18.549 4.02543 18.1773 4.48396 18.1773H15.9885C16.4471 18.1773 16.8188 18.549 16.8188 19.0075C16.8188 19.466 16.4471 19.8378 15.9885 19.8378H4.48396C4.02543 19.8378 3.65372 19.466 3.65372 19.0075ZM19.9901 3.17133C20.4487 3.17133 20.8204 3.54304 20.8204 4.00156L20.8204 15.0059C20.8204 15.4645 20.4487 15.8362 19.9901 15.8362C19.5316 15.8362 19.1599 15.4645 19.1599 15.0059L19.1599 4.00156C19.1599 3.54303 19.5316 3.17133 19.9901 3.17133Z" fill="#B2EF76"/>
<path opacity="0.6" fill-rule="evenodd" clip-rule="evenodd" d="M13.4875 28.5113C13.4819 28.0528 13.8491 27.6766 14.3075 27.671L25.3204 27.5231C25.7789 27.5175 26.1551 27.8846 26.1607 28.3431C26.1663 28.8016 25.7992 29.1778 25.3407 29.1834L14.3278 29.3313C13.8693 29.3369 13.4931 28.9698 13.4875 28.5113ZM29.8317 12.1827C30.2902 12.187 30.6584 12.5622 30.6541 13.0207L30.5406 24.1875C30.5363 24.646 30.1611 25.0142 29.7026 25.0099C29.2441 25.0056 28.8759 24.6304 28.8802 24.1719L28.9937 13.0051C28.998 12.5466 29.3732 12.1784 29.8317 12.1827Z" fill="#B2EF76"/>
<path opacity="0.6" fill-rule="evenodd" clip-rule="evenodd" d="M23.6617 39.0155C23.6617 38.557 24.0334 38.1853 24.4919 38.1853H34.9961C35.4546 38.1853 35.8263 38.557 35.8263 39.0155C35.8263 39.474 35.4546 39.8458 34.9961 39.8458H24.4919C24.0334 39.8458 23.6617 39.474 23.6617 39.0155ZM39.9981 23.1793C40.4566 23.1793 40.8283 23.551 40.8283 24.0096L40.8283 35.0139C40.8283 35.4725 40.4566 35.8442 39.9981 35.8442C39.5395 35.8442 39.1678 35.4725 39.1678 35.0139V24.0096C39.1678 23.551 39.5395 23.1793 39.9981 23.1793Z" fill="#B2EF76"/>
<defs>
<linearGradient id="paint0_linear_623_61308" x1="15.3611" y1="4.79292" x2="24.9468" y2="14.3786" gradientUnits="userSpaceOnUse">
<stop stop-color="#E1ED9C"/>
<stop offset="1" stop-color="#038A39"/>
</linearGradient>
<linearGradient id="paint1_linear_623_61308" x1="5.77535" y1="14.3786" x2="15.3611" y2="23.9643" gradientUnits="userSpaceOnUse">
<stop stop-color="#E1ED9C"/>
<stop offset="1" stop-color="#038A39"/>
</linearGradient>
<linearGradient id="paint2_linear_623_61308" x1="24.9467" y1="14.3785" x2="34.5325" y2="23.9642" gradientUnits="userSpaceOnUse">
<stop stop-color="#E1ED9C"/>
<stop offset="1" stop-color="#038A39"/>
</linearGradient>
<linearGradient id="paint3_linear_623_61308" x1="15.7793" y1="23.8004" x2="25.365" y2="33.3862" gradientUnits="userSpaceOnUse">
<stop stop-color="#E1ED9C"/>
<stop offset="1" stop-color="#038A39"/>
</linearGradient>
<linearGradient id="paint4_linear_623_61308" x1="35.037" y1="24.4689" x2="44.6227" y2="34.0546" gradientUnits="userSpaceOnUse">
<stop stop-color="#E1ED9C"/>
<stop offset="1" stop-color="#038A39"/>
</linearGradient>
<linearGradient id="paint5_linear_623_61308" x1="25.4513" y1="34.0546" x2="35.037" y2="43.6403" gradientUnits="userSpaceOnUse">
<stop stop-color="#E1ED9C"/>
<stop offset="1" stop-color="#038A39"/>
</linearGradient>
</defs>
</svg>
