<svg width="44" height="44" viewBox="0 0 44 44" fill="none" xmlns="http://www.w3.org/2000/svg">
<path d="M7.33334 28.3798H36.6667L33.7188 41.803C33.4418 43.0644 32.3243 43.9631 31.0328 43.9631H12.9671C11.6756 43.9631 10.5582 43.0644 10.2811 41.8029L7.33334 28.3798Z" fill="url(#paint0_linear_623_60659)"/>
<path fill-rule="evenodd" clip-rule="evenodd" d="M13.7375 27.4631C13.7375 26.9638 13.3327 26.559 12.8334 26.559C12.3341 26.559 11.9293 26.9638 11.9293 27.4631V39.3798C11.9293 39.8791 12.3341 40.2838 12.8334 40.2838C13.3327 40.2838 13.7375 39.8791 13.7375 39.3798V27.4631ZM17.4041 27.4631C17.4041 26.9638 16.9994 26.559 16.5001 26.559C16.0008 26.559 15.596 26.9638 15.596 27.4631V39.3798C15.596 39.8791 16.0008 40.2838 16.5001 40.2838C16.9994 40.2838 17.4041 39.8791 17.4041 39.3798V27.4631ZM20.1667 26.559C20.666 26.559 21.0708 26.9638 21.0708 27.4631V39.3798C21.0708 39.8791 20.666 40.2838 20.1667 40.2838C19.6674 40.2838 19.2627 39.8791 19.2627 39.3798V27.4631C19.2627 26.9638 19.6674 26.559 20.1667 26.559ZM24.7375 27.4631C24.7375 26.9638 24.3327 26.559 23.8334 26.559C23.3341 26.559 22.9293 26.9638 22.9293 27.4631V39.3798C22.9293 39.8791 23.3341 40.2838 23.8334 40.2838C24.3327 40.2838 24.7375 39.8791 24.7375 39.3798V27.4631ZM27.5001 26.559C27.9994 26.559 28.4041 26.9638 28.4041 27.4631V39.3798C28.4041 39.8791 27.9994 40.2838 27.5001 40.2838C27.0008 40.2838 26.596 39.8791 26.596 39.3798V27.4631C26.596 26.9638 27.0008 26.559 27.5001 26.559ZM32.0708 27.4631C32.0708 26.9638 31.666 26.559 31.1667 26.559C30.6674 26.559 30.2627 26.9638 30.2627 27.4631V39.3798C30.2627 39.8791 30.6674 40.2838 31.1667 40.2838C31.666 40.2838 32.0708 39.8791 32.0708 39.3798V27.4631Z" fill="url(#paint1_linear_623_60659)"/>
<path fill-rule="evenodd" clip-rule="evenodd" d="M12.1001 28.9111C10.8182 30.0086 9.15317 30.6714 7.33333 30.6714C3.28324 30.6714 0 27.3882 0 23.3381C0 19.288 3.28324 16.0048 7.33333 16.0048C9.15316 16.0048 10.8182 16.6677 12.1001 17.7651C13.382 16.6677 15.047 16.0048 16.8668 16.0048C18.8654 16.0048 20.6773 16.8043 22 18.1009C23.3228 16.8043 25.1346 16.0048 27.1332 16.0048C28.9531 16.0048 30.6181 16.6677 31.9 17.7652C33.1819 16.6677 34.847 16.0048 36.6668 16.0048C40.7169 16.0048 44.0001 19.288 44.0001 23.3381C44.0001 27.3882 40.7169 30.6714 36.6668 30.6714C34.847 30.6714 33.1819 30.0085 31.9 28.911C30.6181 30.0085 28.9531 30.6714 27.1332 30.6714C25.1346 30.6714 23.3228 29.8719 22 28.5753C20.6773 29.8719 18.8654 30.6714 16.8668 30.6714C15.047 30.6714 13.382 30.0085 12.1001 28.9111Z" fill="url(#paint2_linear_623_60659)"/>
<path d="M6.51343 15.1065C6.51343 11.7693 9.21879 9.06391 12.556 9.06391H19.3967C23.7315 9.06391 27.5801 6.29005 28.9509 2.17763L29.8446 0L35.8603 4.84079C38.4486 7.429 39.3523 11.2574 38.1948 14.7298C37.3179 17.3605 34.8561 19.1349 32.0831 19.1349H10.5418C8.31701 19.1349 6.51343 17.3313 6.51343 15.1065Z" fill="url(#paint3_linear_623_60659)"/>
<defs>
<linearGradient id="paint0_linear_623_60659" x1="22" y1="25.6667" x2="25.4377" y2="38.9879" gradientUnits="userSpaceOnUse">
<stop stop-color="#FD4343"/>
<stop offset="1" stop-color="#FFA0B7"/>
</linearGradient>
<linearGradient id="paint1_linear_623_60659" x1="22.9167" y1="27.0417" x2="25.2397" y2="39.9141" gradientUnits="userSpaceOnUse">
<stop offset="0.614583" stop-color="#FD4343"/>
<stop offset="1" stop-color="#FFA0B7"/>
</linearGradient>
<linearGradient id="paint2_linear_623_60659" x1="22" y1="14.2896" x2="25.546" y2="27.1841" gradientUnits="userSpaceOnUse">
<stop stop-color="white"/>
<stop offset="1" stop-color="#FFA0B7"/>
</linearGradient>
<linearGradient id="paint3_linear_623_60659" x1="22.6022" y1="3.66667" x2="28.7643" y2="16.2269" gradientUnits="userSpaceOnUse">
<stop stop-color="white"/>
<stop offset="1" stop-color="#FFA0B7"/>
</linearGradient>
</defs>
</svg>
