<svg width="44" height="44" viewBox="0 0 44 44" fill="none" xmlns="http://www.w3.org/2000/svg">
<path d="M3.88177 22.6439L22.6439 3.88184L42.6319 23.8699C44.456 25.694 44.456 28.6514 42.6319 30.4755L30.4755 42.632C28.6514 44.4561 25.6939 44.4561 23.8698 42.632L3.88177 22.6439Z" fill="url(#paint0_linear_623_60686)"/>
<path d="M26.6281 26.6282L23.8356 5.07361L42.632 23.8699C44.4561 25.694 44.4561 28.6515 42.632 30.4756L34.8389 38.2687C31.9411 41.1665 26.9826 39.194 26.867 35.0975L26.6281 26.6282Z" fill="url(#paint1_linear_623_60686)"/>
<path d="M0 12.9355C0 5.79144 5.79143 0 12.9355 0H13.5902C20.7343 0 26.5257 5.79143 26.5257 12.9355V26.5257H12.9355C5.79144 26.5257 0 20.7343 0 13.5902V12.9355Z" fill="#D56B2A"/>
<path d="M4.04172 22.9832C1.71714 20.7814 0.209342 17.7259 0.0202026 14.3186C0.43618 13.4835 1.0495 12.798 1.78755 12.2862C2.73202 11.6313 3.33509 10.3904 3.20229 9.24881C2.94824 7.06472 3.8055 4.90911 5.60916 3.74292C6.70617 3.03363 7.9774 2.80407 9.21562 2.996C10.4021 3.17992 11.7776 2.64803 12.5018 1.69037C13.043 0.974798 13.732 0.40066 14.5293 0.0335693C17.9061 0.275829 20.9241 1.81428 23.0883 4.15401C23.2107 4.47417 23.3023 4.80432 23.3585 5.14208C23.9255 8.55154 20.6679 11.4457 17.6988 12.0208C17.2602 12.1058 16.8239 12.1281 16.3969 12.0933C15.2576 12.0007 13.9709 12.4904 13.2185 13.351C12.9095 13.7044 12.5503 14.0184 12.1428 14.2818C11.6283 14.6145 11.3623 15.2731 11.5213 15.8649C11.8418 17.0573 11.7713 18.3347 11.2322 19.5136C9.95068 22.3155 7.07936 24.1926 4.04172 22.9832Z" fill="url(#paint2_linear_623_60686)"/>
<path d="M10.7332 26.339C7.30197 25.7505 4.33244 23.8104 2.39221 21.0864C2.64466 19.5319 3.78334 18.2044 5.38235 17.45C3.98451 16.0059 3.40496 14.0787 4.05026 12.365C4.76264 10.4733 6.76866 9.37052 9.039 9.40037C9.00009 8.72494 9.10597 8.05057 9.37463 7.41092C10.3975 4.97561 13.4314 3.87282 16.456 4.69376C17.5216 3.23466 19.5127 2.52293 21.6218 2.79479C24.2503 4.87945 26.0496 7.96448 26.4441 11.4745C25.2536 12.7415 23.2746 13.2929 21.2305 12.9171C20.2361 14.7009 18.075 15.6376 15.7303 15.4397C15.708 15.8544 15.6241 16.2664 15.4734 16.6667C15.1041 17.6473 14.3873 18.4159 13.4662 18.9246C14.1469 19.7246 14.5457 20.6951 14.5457 21.7413C14.5457 23.8218 12.9688 25.603 10.7332 26.339Z" fill="url(#paint3_linear_623_60686)"/>
<path d="M25.9084 8.97595C26.3092 10.2239 26.5257 11.5544 26.5257 12.9355V26.5257H12.9355C11.8821 26.5257 10.8581 26.3998 9.87778 26.1622C9.60072 24.2611 10.221 22.454 11.522 21.481C10.6647 18.863 11.5706 16.1574 13.6816 15.2708C14.3458 14.9919 15.0549 14.9241 15.7546 15.0384C15.6617 12.938 16.6523 11.0576 18.3906 10.403C19.9174 9.82806 21.6344 10.3444 22.9211 11.5898C23.552 10.2526 24.6328 9.27667 25.9084 8.97595Z" fill="url(#paint4_linear_623_60686)"/>
<path fill-rule="evenodd" clip-rule="evenodd" d="M2.64445 14.0921C2.54424 13.5222 2.92493 12.9791 3.49476 12.8788L8.97607 11.9149C9.54589 11.8147 10.0891 12.1954 10.1893 12.7652C10.2895 13.335 9.90879 13.8782 9.33897 13.9784L3.85765 14.9424C3.28783 15.0426 2.74466 14.6619 2.64445 14.0921Z" fill="#FDB813"/>
<path fill-rule="evenodd" clip-rule="evenodd" d="M20.2532 12.7725C19.68 12.6943 19.2787 12.1662 19.3569 11.5929L20.1094 6.0786C20.1877 5.50535 20.7158 5.10405 21.2891 5.18228C21.8623 5.26051 22.2636 5.78864 22.1854 6.3619L21.4329 11.8762C21.3546 12.4495 20.8265 12.8508 20.2532 12.7725Z" fill="#FDB813"/>
<path fill-rule="evenodd" clip-rule="evenodd" d="M20.2305 22.4322C20.0485 22.9814 19.4558 23.279 18.9066 23.097L13.6238 21.346C13.0746 21.164 12.7769 20.5712 12.959 20.022C13.141 19.4728 13.7338 19.1752 14.2829 19.3572L19.5658 21.1082C20.1149 21.2903 20.4126 21.883 20.2305 22.4322Z" fill="#FDB813"/>
<defs>
<linearGradient id="paint0_linear_623_60686" x1="12.9108" y1="21.6354" x2="20.4653" y2="39.5772" gradientUnits="userSpaceOnUse">
<stop stop-color="#FFCAAB"/>
<stop offset="1" stop-color="#D56B2A"/>
</linearGradient>
<linearGradient id="paint1_linear_623_60686" x1="36.5537" y1="12.4516" x2="46.5084" y2="34.6129" gradientUnits="userSpaceOnUse">
<stop stop-color="#FFCAAB"/>
<stop offset="1" stop-color="#D56B2A"/>
</linearGradient>
<linearGradient id="paint2_linear_623_60686" x1="3.55681" y1="6.02271" x2="9.92888" y2="11.5995" gradientUnits="userSpaceOnUse">
<stop stop-color="#B2EF76"/>
<stop offset="1" stop-color="#038A39"/>
</linearGradient>
<linearGradient id="paint3_linear_623_60686" x1="14.9508" y1="2.73779" x2="21.8963" y2="11.6007" gradientUnits="userSpaceOnUse">
<stop stop-color="#D56B2A"/>
<stop offset="1" stop-color="#723319"/>
</linearGradient>
<linearGradient id="paint4_linear_623_60686" x1="15.666" y1="8.77814" x2="25.1184" y2="24.7745" gradientUnits="userSpaceOnUse">
<stop stop-color="#D56B2A"/>
<stop offset="1" stop-color="#723319"/>
</linearGradient>
</defs>
</svg>
