<svg width="231" height="259" xmlns="http://www.w3.org/2000/svg" xmlns:xlink="http://www.w3.org/1999/xlink"><defs><path id="a" d="M1.03.188h105.403V105.66H1.03z"/></defs><g fill="none" fill-rule="evenodd"><g transform="translate(108.442 .027)"><mask id="b" fill="#fff"><use xlink:href="#a"/></mask><path d="M24.38 50.111c-2.243 3.622-4.377 7.372-6.142 11.285C13.316 72.317 8.48 83.292 3.9 94.382c-1.41 3.413-1.891 7.275-2.87 11.231 3.637.006 7.141-.045 10.643.046 1.405.037 1.841-.706 2.072-2.01.37-2.12.61-4.32 1.324-6.31 2.588-7.215 5.205-14.43 8.099-21.506 2.28-5.576 4.747-11.096 7.556-16.375 3.291-6.183 6.962-12.14 10.627-18.08 2.319-3.756 4.968-7.274 7.368-10.975.4-.618 4.811-5.765 5.609-6.328 3.939-2.782 7.743-5.793 11.69-8.563 5.404-3.793 11.174-6.253 17.799-6.464 7.652-.241 14.148 6.708 11.516 15.124a582.342 582.342 0 0 1-8.655 25.5c-2.14 5.87-4.776 11.525-7.09 17.324-1.753 4.399-3.336 8.876-5.013 13.312-2.092 5.527-4.247 11.027-6.273 16.582-.622 1.7-.909 3.542-1.36 5.36 3.448-.183 6.886-.493 10.324-.497 1.634-.002 2.18-.821 2.622-2.266 1.333-4.354 2.785-8.666 4.125-13.02 2.076-6.754 4.005-13.564 6.167-20.287 3.107-9.655 6.379-19.244 9.555-28.873 1.766-5.353 3.594-10.688 5.171-16.107.86-2.95 2.35-5.919.959-9.202-2.606-6.15-7.422-9.304-13.18-10.657C89.027.48 85.177.557 81.41.27c-5.421-.41-10.704.694-15.422 3.362-6.45 3.648-11.825 8.983-16.96 14.552-5.81 6.3-11.813 12.392-16.492 19.815-2.598 4.126-5.589 7.964-8.156 12.111" fill="#CACACA" mask="url(#b)"/></g><path d="M86.323 105.319c1.769.063 2.347-.958 2.516-2.51.754-6.92 3.294-13.204 6.1-19.328 3.212-7 6.591-13.928 11.496-19.808 1.986-2.383 3.531-5.318 5.812-7.263 4.295-3.661 8.972-6.796 13.507-10.123.986-.726 1.973-1.596 3.083-1.948 2.155-.685 3.384-2.294 4.603-4.166 2.127-3.266 4.452-6.38 6.678-9.57.55-.789 1.044-1.623 1.563-2.437a59.442 59.442 0 0 0-.25-.579c-.614.066-1.274-.001-1.836.219a434.918 434.918 0 0 0-10.39 4.204c-5.613 2.37-10.693 5.788-15.254 9.988-3.47 3.194-6.6 6.82-9.89 10.243-4.741 4.934-8.8 10.52-11.673 16.867-3.823 8.448-7.207 17.14-10.523 25.841-1.245 3.267-1.77 6.856-2.722 10.7 2.835-.148 5.013-.406 7.18-.33M146.982 87.31c-1.903 5.633-3.744 11.29-5.628 16.976.431.147.615.272.794.262 3.437-.209 6.875-.434 10.366-.658.694-2.8 1.26-5.36 1.965-7.873 1.12-3.993 2.464-7.918 3.478-11.94 1.558-6.185 2.785-12.469 4.394-18.637 1.96-7.524 3.161-15.138 2.883-22.96-.124-3.498-.411-7.033-3.178-9.91-.208.224-.425.407-.587.635-2.13 2.991-4.407 5.882-6.287 9.048-.617 1.038-2.27 2.364-.74 4.16 1.634 1.916 1.629 4.315 1.32 6.707-1.524 11.82-5.015 23.044-8.78 34.19M182.886 141.136c-.177 1.143-.315 2.29-.465 3.435-.014.125.053.28-.001.373-1.381 2.36-1.146 4.943-1.79 7.405-.292 1.112-.712 2.246-.768 3.345-.11 2.149-.707 4.149-1.533 6.205-.566 1.408-.6 2.985-.91 4.481-.576 2.768-1.298 5.526-1.749 8.296-.603 3.706-.933 7.421-1.514 11.128-.447 2.847-1.223 5.685-1.645 8.531-.623 4.2-1.448 8.452-1.467 12.588-.02 4.684-1.867 9.226-2.07 13.846-.04.878-.304 1.775-.345 2.654-.042.867-.513 1.048-1.221 1.128-2.146.24-4.292.478-6.439.79-1.113.16-2.224.477-3.59.781.338-2.467.522-4.626.95-6.77.82-4.122 1.861-8.23 2.65-12.354 1.353-7.085 2.545-14.178 3.879-21.263.545-2.904 1.298-5.796 1.949-8.693.575-2.572-.77-3.846-3.288-3.23-1.578.383-3.17.622-4.757.916-3.283.608-6.57 1.17-9.857 1.833-1.004.202-2.083.498-2.98 1.064-1.103.697-2.013.576-3.033.417-.608-.096-1.28-.02-1.925.07-1.049.142-.707 1.11-1.054 1.674-1.319 2.142-1.201 4.485-1.984 6.693-.438 1.231-1.03 2.439-1.352 3.68-.79 3.038-1.445 6.09-2.19 9.133-.763 3.112-1.61 6.215-2.339 9.329-.421 1.804-.712 3.622-.998 5.435-.686 4.341-1.334 8.683-1.998 13.025-.153 1.005-.322 2.012-.513 3.216-3.328-.393-7.054 1.487-10.683.61.487-1.47.97-2.828 1.378-4.197.778-2.612 1.452-5.24 2.28-7.842.629-1.978 1.453-3.926 2.142-5.894.16-.462.12-.959.2-1.441.19-1.121.372-2.246.608-3.368.138-.658.353-1.314.568-1.966.707-2.151 1.424-4.3 2.145-6.449.375-1.12.878-2.23 1.13-3.355.559-2.518.943-5.046 1.511-7.563.23-1.022.667-2.06 1.162-3.03 1.768-3.483 2.775-7.038 3.467-10.747.565-3.05 1.884-6.08 2.867-9.12.373-1.157.99-2.34 1.065-3.467.196-2.976 1.275-5.814 2.14-8.701.402-1.341.414-2.739.715-4.102.714-3.251 1.486-6.499 2.253-9.745.185-.79.357-1.61.71-2.346.213-.447.736-.957 1.165-1.097 1.451-.473 2.92-.87 4.383-1.15 1.591-.304 3.194-.541 4.774-.63 1.097-.06.701 1.024.392 1.553-.833 1.424-1.068 2.809-1.033 4.325.017.809-.342 1.712-.613 2.556-.417 1.284-.993 2.542-1.341 3.835-.558 2.082-1.03 4.18-1.457 6.278-.521 2.565-.892 5.142-1.472 7.702-.185.819-1.02 1.519-.42 2.45.582.903 2.409 1.9 3.533 1.698.42-.077.84.002 1.261-.07 1.403-.242 2.815-.648 4.205-.75a16.713 16.713 0 0 1 4.074.19c1.295.226 2.488.472 3.85-.36.47-.286 1.146-.283 1.685-.226 1.41.152 2.585-.707 2.908-2.247.393-1.867.716-3.743 1.174-5.6.393-1.607.921-3.197 1.412-4.789 1.042-3.39 2.107-6.776 3.126-10.169.262-.867.526-1.765.59-2.635.096-1.368.343-2.377 1.931-2.532 1.67-.162 3.375-.634 4.803.378.199.14.478.403.45.605-.192 1.416-.47 2.83-.69 4.247m-65.99 52.095c-.713 3.47-2.033 6.69-3.752 9.791-1.02 1.838-1.668 3.882-2.534 5.811-.78 1.737-1.651 3.433-2.431 5.17-.156.347-.074.8-.08.861-.747 1.038-1.315 1.709-1.748 2.458-.81 1.401-2.112 2.457-2.46 4.22-.174.872-1.213 1.596-1.916 2.336-1.75 1.838-3.475 3.703-5.324 5.44-.763.716-1.818 1.12-2.735 1.677-.808.49-1.552 1.16-2.423 1.449-.797.263-1.795.348-2.575.103-.798-.253-1.484-.263-2.271-.144-2.967.448-5.393-.934-7.794-2.393-.777-.471-1.552-1.057-2.407-1.264-2.255-.545-3.953-1.957-5.681-3.34-1.833-1.47-3.754-2.857-5.408-4.512-2.02-2.02-2.826-4.693-2.704-7.5.096-2.168-.492-4.146-.972-6.183-.15-.639-.241-1.324-.187-1.973.263-3.093.485-6.197.933-9.266.203-1.388.899-2.702 1.371-4.05.161-.46.328-.917.483-1.379 1.04-3.09 2.004-6.206 3.141-9.26a78.777 78.777 0 0 1 2.618-6.191c-.125-.703-.029-1.47.416-2.235 10.397-17.88 26.338-31.48 45.598-38.877a41.302 41.302 0 0 1 3.177-.096c.07.035.146.057.214.096-.313 2.004-.667 4-.94 6.012l-.194.076a77.057 77.057 0 0 1-.478 2.538c-.162.774-.447 1.537-.785 2.253-.137.294-.537.591-.859.647-1.77.311-3.555.54-5.335.818-.227.035-.453.16-.657.282-.942.562-1.865 1.157-2.816 1.7-.587.337-1.233.572-1.823.905-1.799 1.018-3.677 1.935-5.347 3.14-1.17.845-2.019 2.125-3.067 3.154-.76.744-1.65 1.355-2.41 2.101-.505.496-.822 1.187-1.332 1.68-.977.94-2.151 1.698-3.027 2.72-1.743 2.028-3.462 4.099-4.962 6.309-1.671 2.464-3.182 5.054-4.592 7.68-1.255 2.34-2.323 4.788-3.39 7.224-.885 2.02-1.576 4.125-2.482 6.136-1.186 2.633-1.635 5.407-1.832 8.247-.195 2.813-.72 5.654-.494 8.433.257 3.177 1.237 6.262 3.064 9.013 1.918 2.885 4.22 4.952 7.952 4.777 1.142-.055 2.324.292 3.434.11 2.16-.35 4.281-.82 5.802-2.749.862-1.093 2.278-1.747 3.141-2.838 1.384-1.75 2.529-3.691 3.752-5.567 1.637-2.509 3.03-5.125 4.017-7.985.802-2.324 1.973-4.517 2.882-6.808.626-1.575 1.095-3.214 1.61-4.832.309-.973.72-1.949.81-2.947.09-.987-.612-1.426-1.616-1.355-.27.02-.554-.16-.832-.243-1.224-.359-2.448-.728-3.626.143a.488.488 0 0 1-.253.07c-1.985.125-3.973.245-6.109.376.077-.434.08-.827.213-1.17 1.252-3.227 2.44-6.48 3.867-9.626.271-.6 1.489-.996 2.31-1.074 2.362-.226 4.745-.24 7.12-.343.169-.007.375-.004.495-.097 1.685-1.31 3.679-1.087 5.624-1.255 1.574-.136 3.12-.583 4.686-.858.571-.1 1.164-.096 1.882-.15-.189 2.173-.154 4.387-1.067 6.516-.634 1.476-1.004 3.064-1.489 4.604-1.053 3.346-2.11 6.69-3.146 10.042-.143.461-.152.963-.25 1.442m111.764-87.414c-4.629.174-9.26.324-13.89.512-5.017.202-10.033.49-15.053.641-6.556.199-13.115.231-19.668.476-2.638.098-5.258.658-7.895.841-4.028.281-8.069.335-12.094.643-3.225.248-6.453 1.133-9.645.959-1.837-.101-3.622-.47-5.542-.26-6.262.685-12.547 1.128-18.827 1.613-6.616.51-13.234 1.282-19.855 1.356-8.424.092-16.853-.443-25.28-.63-4.97-.111-9.95-.239-14.917-.061-7.017.25-14.024.848-21.04 1.153-3.145.136-4.076.666-4.255 3.568-.442 7.217-1.964 14.202-3.565 21.193-1.137 4.958-1.707 10.074-2.948 14.997-1.69 6.719-4.142 13.227-5.617 19.99-2.398 11.003-5.97 21.505-10.101 31.839-2.396 5.994-4.589 12.085-6.806 18.16-2.929 8.028-5.853 16.059-8.655 24.14-1.15 3.322-1.977 6.778-2.988 10.302 2.528 1.484 5.512 1.58 8.488 1.56 3.91-.023 7.822-.242 11.732-.234 4.976.008 9.951.276 14.926.212 4.5-.057 8.995-.42 13.491-.624 3.764-.169 7.53-.25 11.29-.48 1.584-.097 3.148-.598 4.734-.705 5.234-.354 10.477-.54 15.71-.93 5.495-.406 10.979-.987 16.47-1.468 7.041-.616 14.085-1.19 21.126-1.813 5.2-.46 10.388-1.114 15.595-1.422 6.138-.365 12.296-.316 18.434-.686 7.81-.473 15.602-1.292 23.413-1.766 6.486-.391 13.005-.9 19.476-.571 3.476.176 5.863-1.065 7.124-3.956a95.716 95.716 0 0 0 4.915-14.323c2.213-8.581 3.997-17.29 6-25.935 1.485-6.412 3.08-12.795 4.531-19.218.974-4.316 1.769-8.68 2.668-13.018.814-3.923 1.766-7.815 2.465-11.76 1.116-6.292 2.02-12.626 3.11-18.925.904-5.205 2.091-10.355 2.897-15.577.875-5.66 1.376-11.386 2.2-17.058.305-2.093-.362-2.801-2.154-2.735" fill="#CACACA"/></g></svg>