<svg width="448" height="126" viewBox="0 0 448 126" fill="none" xmlns="http://www.w3.org/2000/svg">
<path d="M444.875 49.8167C445.13 49.8167 445.295 49.6516 445.295 49.3764C445.295 49.1078 445.13 48.9567 444.875 48.9567H444.463V49.8167H444.875ZM443.974 48.5852H444.972C445.46 48.5852 445.79 48.895 445.79 49.3764C445.79 49.7756 445.529 50.0095 445.316 50.0642V50.0783C445.316 50.0783 445.343 50.1059 445.405 50.2224L445.901 51.1793H445.364L444.882 50.1747H444.463V51.1793H443.974V48.5852ZM444.813 51.9364C445.922 51.9364 446.775 51.0417 446.775 49.8926C446.775 48.7434 445.922 47.8487 444.813 47.8487C443.72 47.8487 442.873 48.7434 442.873 49.8926C442.873 51.0417 443.72 51.9364 444.813 51.9364ZM444.813 47.3808C446.183 47.3808 447.277 48.4959 447.277 49.8926C447.277 51.2892 446.183 52.4043 444.813 52.4043C443.458 52.4043 442.371 51.2892 442.371 49.8926C442.371 48.4959 443.458 47.3808 444.813 47.3808Z" fill="#FF8000"/>
<path d="M432.562 91.0063V91.0458C432.641 92.8205 432.049 94.5573 430.983 95.9772L431.023 96.0563L431.062 96.0168C430.081 97.1833 428.595 97.8007 427.076 97.6745H420.999V84.6522H427.116C428.634 84.526 430.12 85.1439 431.102 86.3099L431.062 86.2704C432.117 87.6161 432.65 89.2982 432.562 91.0063V91.0063ZM420.999 60.5404H426.366C427.708 60.4484 429.022 60.9536 429.956 61.9214L430.035 62.0005C430.968 63.2607 431.415 64.8128 431.299 66.3752C431.447 68.022 430.937 69.7052 429.956 71.0764V71.0369C429.072 72.0631 427.758 72.6172 426.405 72.5365H420.999V60.5404ZM445.111 90.9272V91.0063C445.111 85.9541 442.822 81.1391 438.876 77.9824L438.955 78.0219L439.032 77.9428C442.287 74.817 444.126 70.4986 444.124 65.9863V66.2219C444.288 61.5082 442.651 56.9087 439.546 53.3577L439.625 53.4747C436.275 49.7347 431.466 47.6324 426.445 47.7142H409.318C408.732 47.712 408.255 48.1853 408.252 48.7713C408.252 48.7745 408.252 48.7772 408.252 48.7805V109.119C408.252 109.712 408.725 110.185 409.318 110.185H427.154C432.562 110.263 437.731 107.935 441.204 103.791L441.165 103.831C443.961 100.129 445.358 95.5592 445.111 90.9272" fill="#FF8000"/>
<path d="M398.74 91.756V48.8202C398.701 48.3073 398.267 47.8725 397.755 47.8725H386.743C386.203 47.8248 385.727 48.2239 385.68 48.7639C385.679 48.7693 385.679 48.7747 385.678 48.7807V91.756C385.757 93.4911 385.283 95.1884 384.258 96.5693C382.466 98.5422 379.418 98.7014 377.431 96.9251C377.293 96.8271 377.173 96.7069 377.075 96.5693C376.066 95.1894 375.564 93.503 375.655 91.7955V48.8202C375.616 48.2678 375.142 47.8725 374.589 47.8725H363.618C363.066 47.8725 362.593 48.2678 362.553 48.8202V91.8746C362.197 96.9251 363.857 102.015 367.171 105.962L367.288 106.08C374.984 112.986 386.705 112.907 394.282 105.845L394.123 105.962C397.444 102.003 399.099 96.9105 398.74 91.756" fill="#FF8000"/>
<path d="M352.104 47.8723C352.102 47.8723 352.098 47.8723 352.096 47.8723H352.056H341.362C340.775 47.8701 340.298 48.3434 340.296 48.9294C340.296 48.9326 340.296 48.9353 340.296 48.9386V72.3003H329.445V48.9386C329.448 48.3521 328.974 47.875 328.388 47.8723C328.385 47.8723 328.382 47.8723 328.379 47.8723H317.723C317.136 47.8706 316.66 48.3445 316.658 48.931C316.658 48.9337 316.658 48.9359 316.658 48.9386V109.119C316.658 109.712 317.132 110.185 317.723 110.185H328.419C329.005 110.186 329.481 109.712 329.483 109.126C329.483 109.124 329.483 109.121 329.483 109.119V84.9273H340.335V109.119C340.335 109.712 340.81 110.185 341.401 110.185H352.096C352.682 110.187 353.159 109.714 353.161 109.127C353.161 109.124 353.161 109.121 353.161 109.119V48.9386C353.164 48.3521 352.691 47.875 352.104 47.8723Z" fill="#FF8000"/>
<path d="M296.057 91.0063V91.0458C296.136 92.8205 295.545 94.5573 294.479 95.9772L294.518 96.0563L294.558 96.0168C293.576 97.1833 292.091 97.8007 290.572 97.6745H284.495V84.6522H290.611C292.13 84.526 293.616 85.1439 294.597 86.3099L294.558 86.2704C295.613 87.6161 296.145 89.2982 296.057 91.0063V91.0063ZM284.495 60.5404V60.5388H289.862C291.204 60.4467 292.519 60.9525 293.453 61.9214L293.531 62.0005C294.464 63.2601 294.911 64.8128 294.796 66.3752C294.944 68.022 294.432 69.7052 293.453 71.0764V71.0369C292.568 72.0631 291.254 72.6177 289.901 72.5365H284.495V60.5404ZM308.687 90.9272V91.0854C308.687 85.9936 306.399 81.2182 302.452 78.023H302.451L302.53 77.9428C305.777 74.8229 307.613 70.517 307.619 66.0156C307.667 61.4557 306.041 57.0349 303.042 53.5949V53.6345C299.692 49.8939 294.884 47.7916 289.863 47.8723H272.812C272.226 47.8701 271.749 48.3435 271.746 48.9294C271.746 48.9327 271.746 48.9354 271.746 48.9386V109.119C271.746 109.712 272.22 110.185 272.812 110.185H290.732C296.138 110.263 301.307 107.935 304.781 103.791L304.741 103.831C307.537 100.129 308.935 95.5592 308.687 90.9272" fill="#FF8000"/>
<path d="M262.278 91.7559V48.8201C262.234 48.2856 261.788 47.8734 261.251 47.8724H250.322C249.77 47.8724 249.296 48.2677 249.256 48.8201V91.7542C249.335 93.5306 248.822 95.2684 247.757 96.6478C245.96 98.5822 242.942 98.7284 240.969 96.9646C240.831 96.8666 240.711 96.7463 240.613 96.6088C239.604 95.2289 239.102 93.5425 239.193 91.8349V48.8201C239.19 48.2926 238.76 47.8675 238.233 47.8697C238.211 47.8697 238.19 47.8707 238.167 47.8724H227.195C226.655 47.8242 226.179 48.2228 226.131 48.7621C226.13 48.7681 226.13 48.7741 226.129 48.7806V91.7559C225.775 96.9218 227.43 102.009 230.74 105.954C234.276 109.49 239.125 111.397 244.125 111.211H244.283C249.282 111.397 254.131 109.49 257.667 105.954C260.983 101.996 262.636 96.9072 262.278 91.7559" fill="#FF8000"/>
<path d="M204.108 72.2597H204.148L204.15 72.2608C203.051 73.436 201.493 74.0701 199.887 73.9965H194.639V60.5388H199.847C201.454 60.4662 203.011 61.1015 204.108 62.2772V62.2376C205.22 63.5737 205.796 65.2747 205.727 67.0115V67.0905C205.845 68.9855 205.293 70.8008 204.108 72.2597ZM210.739 83.3503V83.3492L210.779 83.3107C211.883 82.5596 212.87 81.653 213.777 80.6663L213.738 80.7454C217.005 76.9621 218.724 72.0859 218.553 67.0905V66.973C218.638 62.04 216.846 57.258 213.54 53.5949L213.738 53.831C210.456 50.1225 205.785 47.9367 200.834 47.7932H182.878C182.292 47.7911 181.815 48.2644 181.812 48.8503C181.812 48.8536 181.812 48.8563 181.812 48.8595V109.119C181.812 109.712 182.285 110.185 182.878 110.185H193.572C194.159 110.187 194.636 109.714 194.639 109.127C194.639 109.124 194.639 109.121 194.639 109.119V86.8238H198.585L205.333 109.555C205.45 109.988 205.885 110.305 206.358 110.305H217.724C218.065 110.302 218.386 110.141 218.592 109.87C218.75 109.574 218.75 109.219 218.592 108.924L210.739 83.3503" fill="#FF8000"/>
<path d="M168.949 52.1361C165.399 48.5932 160.542 46.6783 155.53 46.8456L155.531 46.8467H155.452C150.438 46.6604 145.574 48.5765 142.034 52.1334L142.153 51.9764C138.76 55.8913 137.02 60.9711 137.299 66.144V91.7949C136.945 96.9609 138.6 102.048 141.91 105.993C145.446 109.529 150.295 111.436 155.294 111.25H155.492C160.506 111.436 165.371 109.518 168.91 105.961C172.23 102.002 173.885 96.9099 173.527 91.7554V77.7448C173.497 77.1528 173.013 76.6866 172.421 76.6784H156.635C156.036 76.6844 155.539 77.1469 155.492 77.7448V88.2407C155.531 88.8721 156.004 89.3465 156.635 89.3465H160.977V91.7538C161.066 93.5593 160.537 95.3416 159.477 96.806L159.518 96.7648C158.57 97.9497 157.11 98.6202 155.61 98.5016H155.531C154.032 98.6186 152.572 98.0288 151.624 96.8439C150.52 95.4142 149.961 93.6379 150.046 91.8328V66.3401C149.97 64.488 150.557 62.6694 151.703 61.2121C152.651 60.0277 154.111 59.3567 155.61 59.4753H155.689C157.189 59.3583 158.647 59.9497 159.597 61.133L159.676 61.2121C160.672 62.7133 161.131 64.5069 160.977 66.3022V68.6699C161.017 69.2233 161.49 69.6176 162.042 69.6176H172.737C173.289 69.6176 173.762 69.2223 173.802 68.6699V66.2626C174.079 61.0935 172.342 56.0413 168.91 52.1361H168.949" fill="#FF8000"/>
<path d="M106.308 37.775C106.07 37.4783 105.887 37.1111 105.853 36.7233V36.7239C104.707 23.8673 102.876 15.3405 102.876 15.3405C102.588 13.8685 101.317 12.7859 99.8592 12.6121L89.594 11.3703C89.5051 11.3595 89.4147 11.3535 89.3226 11.3535C88.1253 11.3535 87.1542 12.3245 87.1542 13.5224V17.0886C87.1532 17.1601 87.0947 17.2175 87.0232 17.2175C86.9907 17.2175 86.9609 17.2056 86.9376 17.1861L86.9382 17.1866C80.7899 11.6492 73.8671 6.27369 66.1981 1.53885C64.7386 0.563504 63.0051 -0.000253794 61.1178 -0.000253794V0.000288292H61.1129V-0.000253794C59.2256 -0.000253794 57.4915 0.563504 56.032 1.53885C20.5938 23.4178 1.08734 58.9846 0.334464 60.938C0.119953 61.3924 0 61.8998 0 62.4359C0 64.0769 1.12606 65.4551 2.64795 65.8402L12.8567 67.8049C14.2203 68.1786 15.2534 69.3516 15.408 70.7857C15.4913 72.5885 17.4204 112.844 19.8441 123.286C20.2409 124.79 21.6141 125.899 23.2428 125.899H23.3197C29.2753 125.75 34.7309 125.651 40.6214 125.572C40.6214 125.572 40.6214 125.572 40.6209 125.572H40.6041L40.6588 125.571C40.8094 125.569 40.9599 125.567 41.1115 125.565C41.7408 125.565 42.251 125.049 42.251 124.419C42.251 124.41 42.251 124.4 42.2504 124.39C42.0116 120.875 41.4966 112.838 41.0796 104.376C41.0693 104.164 41.0525 103.897 41.0422 103.682H41.0428C41.0043 102.946 40.5987 102.305 40.0051 101.944C36.9421 100.111 34.8425 96.8335 34.6475 93.0529C34.1119 78.935 33.84 62.6201 34.6128 49.8534C34.6746 48.7909 35.5465 47.9395 36.628 47.9206C37.762 47.9011 38.6973 48.8044 38.7173 49.9384C38.7184 49.9926 38.7173 50.0462 38.7141 50.0993C38.2104 58.6093 38.1649 68.6704 38.3491 78.5971C38.3723 79.9385 39.4793 81.0081 40.8213 80.9848C42.1627 80.961 43.2317 79.8541 43.2085 78.5121C43.0243 68.5182 43.0736 58.3921 43.5908 49.8534C43.652 48.7909 44.5239 47.9395 45.6054 47.9206C46.7394 47.9011 47.6752 48.8044 47.6947 49.9384C47.6958 49.9926 47.6947 50.0462 47.6915 50.0993C47.1905 58.5643 47.1434 68.5647 47.3238 78.4406C47.3238 78.4422 47.3238 78.4444 47.3238 78.4466C47.3503 79.7842 48.4551 80.8484 49.7933 80.8251C51.1287 80.8018 52.1934 79.7046 52.1788 78.3713C51.9974 68.4229 52.0494 58.3521 52.5633 49.8534C52.6251 48.7909 53.497 47.9395 54.5785 47.9206C55.7125 47.9011 56.6478 48.8044 56.6678 49.9384C56.6689 49.9926 56.6678 50.0462 56.6645 50.0993C55.9302 62.5101 56.1701 78.2196 56.6754 92.0001C56.6754 92.0088 56.6797 92.1203 56.6797 92.129C56.6819 92.1989 56.6835 92.2687 56.6846 92.3386C56.6846 92.3391 56.6846 92.3391 56.6846 92.3397C56.6851 92.3846 56.6851 92.4301 56.6851 92.4756C56.6851 96.2443 54.794 99.5716 51.9091 101.56C51.3946 101.917 51.0464 102.49 51.0009 103.157C51.0009 103.157 50.7475 105.273 51.6838 115.528C52.1198 120.005 52.4528 123.107 52.6066 124.51C52.6678 125.042 53.119 125.454 53.667 125.454C53.986 125.453 54.3055 125.452 54.6321 125.451H54.6185C56.5849 125.443 58.6136 125.439 60.7214 125.438H61.1151H61.5093C64.1732 125.439 66.7115 125.445 69.1577 125.457L74.9486 125.508C74.9508 125.508 74.9529 125.508 74.9551 125.508C75.5064 125.508 75.9575 125.091 76.0371 124.553C77.378 112.264 77.6932 105.363 77.6932 105.363C77.6932 104.742 77.2188 104.276 76.596 104.18L69.5617 103.21C68.4494 103.014 67.7887 102.329 67.5509 101.486C67.4053 100.975 67.4627 100.4 67.4627 100.4C70.3145 59.4395 83.8193 45.6357 83.8193 45.6357C84.2179 45.2296 84.4746 45.0698 84.4746 45.0698C84.831 44.8109 85.2702 44.6577 85.7446 44.6577C86.6603 44.6577 87.4434 45.2285 87.7592 46.0327C87.7592 46.0327 87.8702 46.3181 87.9335 47.0172C89.099 59.8928 88.5303 81.8026 87.809 98.8952C87.197 113.403 86.4567 124.79 86.4567 124.79C86.4562 124.798 86.4562 124.806 86.4562 124.813C86.4562 125.279 86.8342 125.657 87.3005 125.657V125.658C91.1341 125.722 94.9094 125.8 98.9104 125.899H98.9873C100.616 125.899 101.99 124.79 102.386 123.286C104.81 112.844 106.739 72.5885 106.823 70.7857C106.977 69.3516 108.01 68.1786 109.374 67.8049L119.582 65.8402C121.104 65.4551 122.23 64.0769 122.23 62.4359C122.23 61.8998 122.11 61.3924 121.896 60.938C121.51 59.9361 116.187 50.0852 106.308 37.775" fill="#FF8000"/>
</svg>
