<svg width="16px" height="16px" fill="none" xmlns="http://www.w3.org/2000/svg" viewBox="0 0 24 24" aria-label="Star icon" color="#545470"><path d="M12 17.5l-4.175 2.525a.958.958 0 01-.65.163 1.134 1.134 0 01-.6-.238 1.346 1.346 0 01-.387-.5 1.01 1.01 0 01-.063-.65l1.1-4.75-3.675-3.2a.985.985 0 01-.362-.575 1.323 1.323 0 01.037-.65c.067-.2.179-.367.337-.5.159-.133.371-.217.638-.25l4.85-.425 1.9-4.475c.1-.233.246-.408.438-.525a1.156 1.156 0 011.225 0 1.1 1.1 0 01.437.525l1.9 4.475 4.85.425c.267.033.48.117.638.25.158.133.27.3.337.5.067.217.079.433.037.65a.984.984 0 01-.362.575l-3.675 3.2 1.1 4.75c.05.233.029.45-.063.65-.091.2-.22.367-.387.5a1.134 1.134 0 01-.6.238.958.958 0 01-.65-.163L12 17.5z" fill="currentColor"/></svg>