<svg width="162" height="160" viewBox="0 0 162 160" fill="none" xmlns="http://www.w3.org/2000/svg">
<path fill-rule="evenodd" clip-rule="evenodd" d="M63.2109 53H161.012C161.059 52.2413 161.083 51.4764 161.083 50.7059C161.083 30.4338 144.649 14 124.377 14C107.029 14 92.4915 26.0352 88.659 42.2118C86.8739 41.766 85.0061 41.5294 83.083 41.5294C74.5915 41.5294 67.1776 46.1429 63.2109 53Z" fill="url(#paint0_linear_911_42963)"/>
<path fill-rule="evenodd" clip-rule="evenodd" d="M0.922813 39H113.809C111.442 30.4801 103.628 24.2271 94.3542 24.2271C92.6619 24.2271 91.0183 24.4353 89.4475 24.8275C86.0747 10.5915 73.2813 0 58.0141 0C45.0536 0 33.8759 7.6327 28.7307 18.6482C27.2092 18.3346 25.6334 18.1699 24.0191 18.1699C12.0025 18.1699 2.11805 27.2989 0.922813 39Z" fill="url(#paint1_linear_911_42963)"/>
<rect x="11.25" y="117.573" width="144.855" height="24.0938" fill="black"/>
<path fill-rule="evenodd" clip-rule="evenodd" d="M104.883 141.714H59.3274C59.3274 130.006 49.1294 120.514 36.5495 120.514C23.9696 120.514 13.7716 130.006 13.7716 141.714H4.23281C3.18244 141.714 2.29372 140.938 2.15252 139.897L1.30239 133.631C1.01309 131.498 2.67104 129.6 4.82309 129.6L2.9811 120.457C2.65056 118.816 3.11968 116.285 4.00476 114.844L15.3986 96.2858C15.488 95.9806 25.9804 74.2468 25.9804 74.2468C28.2233 69.6922 34.4126 66 39.7846 66H82.1078C89.295 66 98.4596 70.4386 102.577 75.9134L122.78 102.343L139.089 103.876C152.546 104.702 160.8 115.254 157.537 127.403L156.947 129.6C159.883 129.6 161.751 132.74 160.351 135.32L157.477 140.616C157.11 141.293 156.402 141.714 155.632 141.714H150.439C150.439 130.006 140.241 120.514 127.661 120.514C115.081 120.514 104.883 130.006 104.883 141.714Z" fill="url(#paint2_linear_911_42963)"/>
<path fill-rule="evenodd" clip-rule="evenodd" d="M4.47613 119.315C4.24403 117.96 4.92986 116.605 6.15246 115.977C8.24812 114.899 10.7684 116.407 10.7684 118.763V124.875C10.7684 126.339 9.58165 127.525 8.11774 127.525C6.82651 127.525 5.72316 126.595 5.50515 125.322L4.47613 119.315Z" fill="#C7222B"/>
<path d="M120.412 99.2421H13.5859L15.401 96.2858C15.4904 95.9806 25.9829 74.2468 25.9829 74.2468C26.5585 73.0778 27.3942 71.9656 28.4093 70.958H97.1126C99.3157 72.4159 101.222 74.1083 102.58 75.9134L120.412 99.2421Z" fill="#BAE5EE"/>
<path d="M120.411 99.2421H59.5391V70.958H97.1116C99.3148 72.4159 101.221 74.1083 102.579 75.9134L120.411 99.2421Z" fill="url(#paint3_linear_911_42963)"/>
<path fill-rule="evenodd" clip-rule="evenodd" d="M65.8622 93.27C65.2835 91.6596 66.1198 89.8849 67.7303 89.3061L99.9202 77.7378C101.531 77.1591 103.305 77.9954 103.884 79.6059C104.463 81.2164 103.627 82.9911 102.016 83.5698L69.8262 95.1381C68.2157 95.7169 66.441 94.8805 65.8622 93.27Z" fill="white" fill-opacity="0.6"/>
<path fill-rule="evenodd" clip-rule="evenodd" d="M37.8622 91.5933C37.2835 89.9828 38.1198 88.2081 39.7303 87.6294L71.9202 76.0611C73.5306 75.4823 75.3054 76.3187 75.8841 77.9291C76.4629 79.5396 75.6265 81.3143 74.0161 81.8931L41.8262 93.4613C40.2157 94.0401 38.441 93.2037 37.8622 91.5933Z" fill="white" fill-opacity="0.6"/>
<path d="M59.3274 141.714H104.883C104.883 137.219 106.386 133.051 108.95 129.621H55.2604C57.8243 133.051 59.3274 137.219 59.3274 141.714Z" fill="#F75400"/>
<path d="M17.8386 129.621H4.43332C2.47514 129.834 1.03082 131.629 1.30239 133.631L2.15252 139.897C2.29372 140.938 3.18244 141.714 4.23281 141.714H13.7716C13.7716 137.219 15.2747 133.051 17.8386 129.621Z" fill="#F75400"/>
<path d="M157.359 129.621H146.372C148.936 133.051 150.439 137.219 150.439 141.714H155.632C156.402 141.714 157.11 141.293 157.477 140.616L160.351 135.32C161.685 132.863 160.054 129.898 157.359 129.621Z" fill="#F75400"/>
<path d="M59.3267 141.714H104.883C104.883 140.447 105.002 139.206 105.231 138H58.9784C59.2073 139.206 59.3267 140.447 59.3267 141.714Z" fill="black"/>
<path d="M14.1192 138H1.89453L2.15185 139.897C2.29305 140.938 3.18177 141.714 4.23214 141.714H13.7709C13.7709 140.447 13.8903 139.206 14.1192 138Z" fill="black"/>
<path d="M158.896 138H150.09C150.319 139.206 150.438 140.447 150.438 141.714H155.631C156.401 141.714 157.109 141.293 157.477 140.616L158.896 138Z" fill="black"/>
<path fill-rule="evenodd" clip-rule="evenodd" d="M25.5249 75.1854C26.8331 75.4342 27.621 76.8771 27.0215 78.1448L18.6225 95.9035C18.2754 96.6373 17.5364 97.1053 16.7247 97.1053H14.8929L12.3203 101.296H121.977L118.774 97.1053H109.708C108.979 97.1053 108.303 96.7272 107.92 96.1065L96.9887 78.3478C96.1277 76.9491 97.134 75.1479 98.7765 75.1479H101.961C97.5992 70.0308 88.9544 66 82.1054 66H39.7822C34.4102 66 28.2209 69.6922 25.978 74.2468C25.978 74.2468 25.8133 74.5879 25.5249 75.1854ZM33.5631 76.3497C33.9102 75.6159 34.6492 75.1479 35.4609 75.1479H54.8181C55.9776 75.1479 56.9175 76.0879 56.9175 77.2473V95.006C56.9175 96.1654 55.9776 97.1053 54.8181 97.1053H27.0619C25.5213 97.1053 24.5054 95.5011 25.1641 94.1084L33.5631 76.3497ZM87.8685 75.1479C88.5975 75.1479 89.2742 75.5261 89.6563 76.1468L100.588 93.9055C101.449 95.3042 100.443 97.1053 98.8002 97.1053H64.3186C63.1591 97.1053 62.2192 96.1654 62.2192 95.006V77.2473C62.2192 76.0879 63.1591 75.1479 64.3186 75.1479H87.8685Z" fill="url(#paint4_linear_911_42963)"/>
<path fill-rule="evenodd" clip-rule="evenodd" d="M46.9375 69.9234C46.9375 68.8724 47.7895 68.0204 48.8405 68.0204L76.6057 68.0204C77.6567 68.0204 78.5087 68.8724 78.5087 69.9234C78.5087 70.9744 77.6567 71.8264 76.6057 71.8264L48.8405 71.8264C47.7895 71.8264 46.9375 70.9744 46.9375 69.9234Z" fill="white" fill-opacity="0.4"/>
<path fill-rule="evenodd" clip-rule="evenodd" d="M19.3477 108.543C19.3477 107.229 20.4127 106.164 21.7264 106.164L49.4916 106.164C50.8054 106.164 51.8704 107.229 51.8704 108.543C51.8704 109.857 50.8054 110.922 49.4916 110.922L21.7264 110.922C20.4127 110.922 19.3477 109.857 19.3477 108.543Z" fill="white" fill-opacity="0.4"/>
<path fill-rule="evenodd" clip-rule="evenodd" d="M80.5469 69.9234C80.5469 68.8724 81.3989 68.0204 82.4499 68.0204L83.6801 68.0204C84.7311 68.0204 85.5831 68.8724 85.5831 69.9234C85.5831 70.9744 84.7311 71.8264 83.6801 71.8264L82.4499 71.8264C81.3989 71.8264 80.5469 70.9744 80.5469 69.9234Z" fill="white" fill-opacity="0.4"/>
<path fill-rule="evenodd" clip-rule="evenodd" d="M11.7188 108.52C11.7188 107.206 12.7838 106.141 14.0975 106.141L15.3277 106.141C16.6415 106.141 17.7065 107.206 17.7065 108.52C17.7065 109.834 16.6415 110.899 15.3277 110.899L14.0975 110.899C12.7838 110.899 11.7188 109.834 11.7188 108.52Z" fill="white" fill-opacity="0.4"/>
<ellipse cx="147.935" cy="115.82" rx="3.67386" ry="7.3329" transform="rotate(-34 147.935 115.82)" fill="white"/>
<ellipse cx="127.766" cy="142.191" rx="17.8445" ry="17.8085" fill="url(#paint5_radial_911_42963)"/>
<path d="M142.39 142.191C142.39 134.131 135.842 127.597 127.766 127.597" stroke="white" stroke-opacity="0.4" stroke-width="2.86048" stroke-linecap="round"/>
<ellipse cx="127.829" cy="142.192" rx="7.86758" ry="7.79121" fill="url(#paint6_linear_911_42963)"/>
<ellipse cx="36.446" cy="142.191" rx="17.8445" ry="17.8085" fill="url(#paint7_radial_911_42963)"/>
<path d="M51.0694 142.191C51.0694 134.131 44.522 127.597 36.4453 127.597" stroke="white" stroke-opacity="0.4" stroke-width="2.86048" stroke-linecap="round"/>
<ellipse cx="36.5082" cy="142.192" rx="7.86758" ry="7.79121" fill="url(#paint8_linear_911_42963)"/>
<path d="M61.5931 114.436C61.8558 114.249 62.0811 114.048 62.2938 113.811L62.2813 113.823C63.0321 112.947 63.4325 111.821 63.395 110.67V110.645C63.42 109.506 62.9945 108.405 62.2312 107.554L62.2813 107.604C61.518 106.753 60.4418 106.24 59.3031 106.215H55.1487C55.0111 106.215 54.8984 106.328 54.8984 106.465V120.393C54.8984 120.53 55.0111 120.643 55.1487 120.643H57.6138C57.7515 120.643 57.8641 120.53 57.8641 120.393V115.237H58.7776L60.3417 120.493C60.3667 120.593 60.4669 120.668 60.5795 120.668H63.2073C63.2823 120.668 63.3574 120.63 63.4075 120.568C63.445 120.505 63.445 120.418 63.4075 120.355L61.5931 114.436ZM60.0664 111.871C59.8162 112.146 59.4658 112.284 59.0904 112.272H57.8766V109.168H59.0779C59.4533 109.156 59.8036 109.293 60.0664 109.569V109.556C60.3292 109.869 60.4543 110.257 60.4418 110.657V110.67C60.4669 111.12 60.3417 111.533 60.0664 111.871Z" fill="white"/>
<path d="M51.9465 107.229C51.1207 106.415 50.007 105.965 48.8432 106.002H48.8182C47.6545 105.965 46.5408 106.403 45.7149 107.229L45.7399 107.191C44.9516 108.092 44.5512 109.268 44.6137 110.469V116.401C44.5262 117.59 44.9141 118.766 45.6774 119.679C46.4907 120.493 47.6169 120.931 48.7682 120.893H48.8182C49.9819 120.931 51.0956 120.493 51.9215 119.667C52.6848 118.753 53.0727 117.577 52.9851 116.388V113.147C52.9726 113.01 52.8725 112.897 52.7349 112.897H49.0935C48.9559 112.897 48.8432 113.01 48.8307 113.147V115.575C48.8432 115.725 48.9433 115.825 49.0935 115.825H50.0946V116.376C50.1196 116.789 49.9945 117.202 49.7442 117.539L49.7567 117.527C49.544 117.802 49.2061 117.952 48.8557 117.927H48.8432C48.4929 117.952 48.155 117.815 47.9423 117.539C47.692 117.214 47.5544 116.801 47.5794 116.376V110.482C47.5669 110.057 47.692 109.631 47.9673 109.293C48.18 109.018 48.5179 108.868 48.8683 108.893H48.8808C49.2311 108.868 49.569 109.005 49.7817 109.281L49.7942 109.293C50.0195 109.644 50.1321 110.057 50.0946 110.469V111.02C50.1071 111.145 50.2072 111.233 50.3448 111.233H52.8225C52.9476 111.233 53.0602 111.145 53.0727 111.02V110.469C53.1228 109.293 52.7224 108.129 51.9465 107.229Z" fill="white"/>
<path d="M94.2665 106.24H91.7889C91.6512 106.24 91.5386 106.353 91.5386 106.491V111.884H89.036V106.491C89.036 106.353 88.9233 106.24 88.7857 106.24H86.3206C86.1829 106.24 86.0703 106.353 86.0703 106.491V120.393C86.0703 120.531 86.1829 120.643 86.3206 120.643H88.7857C88.9233 120.643 89.036 120.531 89.036 120.393V114.8H91.5386V120.393C91.5386 120.531 91.6512 120.643 91.7889 120.643H94.254C94.3916 120.643 94.5043 120.531 94.5043 120.393V106.491C94.5043 106.353 94.4042 106.24 94.2665 106.24Z" fill="white"/>
<path d="M73.5086 116.376V106.453C73.4961 106.328 73.396 106.24 73.2708 106.24H70.7431C70.618 106.24 70.5054 106.328 70.4929 106.453V116.376C70.5054 116.789 70.3928 117.189 70.1425 117.502C69.7296 117.953 69.0288 117.978 68.5783 117.577C68.5408 117.552 68.5158 117.527 68.4907 117.49C68.253 117.177 68.1404 116.776 68.1654 116.389V106.453C68.1654 106.328 68.0653 106.228 67.9402 106.228H67.9276H65.3874C65.2623 106.215 65.1497 106.303 65.1372 106.428V116.364C65.0496 117.552 65.4375 118.729 66.2008 119.642C67.0142 120.455 68.1404 120.893 69.2916 120.856H69.3291C70.4804 120.893 71.6066 120.455 72.4199 119.642C73.2083 118.741 73.5962 117.565 73.5086 116.376Z" fill="white"/>
<path d="M115.753 116.188V116.2C115.753 115.036 115.227 113.923 114.314 113.197L114.326 113.21L114.339 113.197C115.09 112.471 115.515 111.483 115.515 110.432V110.482C115.553 109.393 115.177 108.329 114.451 107.503L114.464 107.528C113.688 106.665 112.574 106.177 111.423 106.202H107.469C107.331 106.202 107.219 106.315 107.219 106.452V120.392C107.219 120.53 107.331 120.642 107.469 120.642H111.586C112.837 120.655 114.026 120.117 114.827 119.166L114.814 119.178C115.49 118.315 115.815 117.264 115.753 116.188ZM110.184 109.168H111.423C111.736 109.143 112.036 109.268 112.249 109.481L112.262 109.493C112.474 109.781 112.574 110.144 112.549 110.507C112.587 110.882 112.462 111.27 112.237 111.595V111.583C112.036 111.821 111.724 111.946 111.411 111.933H110.159V109.168H110.184ZM112.85 116.2C112.862 116.626 112.737 117.026 112.487 117.351L112.499 117.364L112.512 117.351C112.287 117.627 111.936 117.764 111.586 117.739H110.184V114.736H111.598C111.949 114.711 112.287 114.849 112.524 115.124L112.512 115.112C112.75 115.424 112.875 115.812 112.85 116.2Z" fill="white"/>
<path d="M105.04 116.375V106.452C105.027 106.34 104.927 106.239 104.815 106.239H102.274C102.149 106.227 102.037 106.315 102.024 106.44V116.375C102.037 116.776 101.937 117.164 101.699 117.489C101.286 117.939 100.585 117.977 100.122 117.577C100.085 117.551 100.06 117.526 100.035 117.489C99.7967 117.176 99.6841 116.776 99.7092 116.388V106.452C99.6966 106.327 99.5965 106.239 99.4589 106.239H96.9187C96.7936 106.239 96.6809 106.327 96.6684 106.452V116.4C96.5808 117.564 96.9688 118.74 97.7321 119.654L97.7571 119.679C99.534 121.28 102.249 121.255 103.989 119.629L103.951 119.654C104.739 118.74 105.115 117.564 105.04 116.375Z" fill="white"/>
<path d="M84.2302 116.188V116.225C84.2302 115.049 83.7046 113.948 82.7911 113.21L82.8037 113.197C83.5545 112.471 83.9799 111.483 83.9799 110.444C83.9924 109.393 83.617 108.367 82.9163 107.579V107.566C82.1405 106.703 81.0268 106.215 79.8755 106.24H75.9339C75.7962 106.24 75.6836 106.352 75.6836 106.49V120.392C75.6836 120.53 75.7962 120.642 75.9339 120.642H80.0758C81.3271 120.655 82.5159 120.117 83.3167 119.166L83.3042 119.178C83.9674 118.315 84.2927 117.264 84.2302 116.188ZM78.6367 109.168H79.8755C80.1884 109.143 80.4887 109.268 80.7014 109.493L80.7139 109.506C80.9267 109.793 81.0268 110.156 81.0017 110.519C81.0393 110.895 80.9142 111.283 80.6889 111.608V111.595C80.4887 111.833 80.1759 111.958 79.863 111.946H78.6117V109.168H78.6367ZM81.3146 116.2C81.3271 116.626 81.202 117.026 80.9517 117.351L80.9642 117.364L80.9767 117.351C80.7515 117.627 80.4011 117.764 80.0507 117.739H78.6492V114.736H80.0632C80.4136 114.711 80.7515 114.849 80.9892 115.124L80.9767 115.112C81.2145 115.424 81.3271 115.812 81.3146 116.2Z" fill="white"/>
<defs>
<linearGradient id="paint0_linear_911_42963" x1="112.147" y1="14" x2="112.147" y2="66.7647" gradientUnits="userSpaceOnUse">
<stop stop-color="#BAE5EE"/>
<stop offset="1" stop-color="white" stop-opacity="0"/>
</linearGradient>
<linearGradient id="paint1_linear_911_42963" x1="57.3657" y1="0" x2="57.3657" y2="54.388" gradientUnits="userSpaceOnUse">
<stop stop-color="#BAE5EE"/>
<stop offset="1" stop-color="white" stop-opacity="0"/>
</linearGradient>
<linearGradient id="paint2_linear_911_42963" x1="81.5953" y1="103.857" x2="96.0928" y2="146.834" gradientUnits="userSpaceOnUse">
<stop stop-color="#FF9248"/>
<stop offset="1" stop-color="#F75400"/>
</linearGradient>
<linearGradient id="paint3_linear_911_42963" x1="91.5541" y1="70.958" x2="102.848" y2="93.612" gradientUnits="userSpaceOnUse">
<stop stop-color="#BAE5EE"/>
<stop offset="1" stop-color="#0C90A2"/>
</linearGradient>
<linearGradient id="paint4_linear_911_42963" x1="70.7845" y1="64.6724" x2="80.1599" y2="98.7134" gradientUnits="userSpaceOnUse">
<stop stop-color="#323232"/>
<stop offset="1" stop-color="#723319"/>
</linearGradient>
<radialGradient id="paint5_radial_911_42963" cx="0" cy="0" r="1" gradientUnits="userSpaceOnUse" gradientTransform="translate(127.766 142.191) rotate(90) scale(11.7478 11.7715)">
<stop stop-color="#B6821E"/>
<stop offset="1" stop-color="#32270B"/>
</radialGradient>
<linearGradient id="paint6_linear_911_42963" x1="127.829" y1="142.192" x2="131.391" y2="147.663" gradientUnits="userSpaceOnUse">
<stop stop-color="#FFCAAB"/>
<stop offset="1" stop-color="#FF9248"/>
</linearGradient>
<radialGradient id="paint7_radial_911_42963" cx="0" cy="0" r="1" gradientUnits="userSpaceOnUse" gradientTransform="translate(36.446 142.191) rotate(90) scale(11.7478 11.7715)">
<stop stop-color="#B6821E"/>
<stop offset="1" stop-color="#32270B"/>
</radialGradient>
<linearGradient id="paint8_linear_911_42963" x1="36.5082" y1="142.192" x2="40.0711" y2="147.663" gradientUnits="userSpaceOnUse">
<stop stop-color="#FFCAAB"/>
<stop offset="1" stop-color="#FF9248"/>
</linearGradient>
</defs>
</svg>
