<svg width="160" height="161" viewBox="0 0 160 161" fill="none" xmlns="http://www.w3.org/2000/svg">
<path opacity="0.8" d="M50.6505 49.0716L45.153 49.0716L45.153 47.9226C45.153 47.9226 45.153 47.9226 45.1475 47.9226L45.1475 43.5813C45.1475 43.4729 45.0879 43.3808 45.0066 43.3157C44.9361 43.2669 44.8494 43.229 44.7518 43.229L40.6856 43.229C40.4687 43.229 40.2898 43.3862 40.2898 43.5813L40.2898 49.077L39.1404 49.077C39.1404 49.077 39.1404 49.077 39.1404 49.0824L34.7977 49.0824C34.6893 49.0824 34.5971 49.142 34.5321 49.2233C34.4833 49.2938 34.4453 49.3805 34.4453 49.4781L34.4453 53.5429C34.4453 53.7597 34.6025 53.9386 34.7977 53.9386L40.2898 53.9386L40.2898 55.0876C40.2898 55.0876 40.2898 55.0876 40.2952 55.0876L40.2952 59.4288C40.2952 59.5372 40.3549 59.6294 40.4362 59.6944C40.5067 59.7432 40.5934 59.7811 40.691 59.7811L44.7572 59.7811C44.974 59.7811 45.153 59.624 45.153 59.4288L45.153 53.9386L46.3023 53.9386C46.3023 53.9386 46.3023 53.9386 46.3023 53.9331L50.645 53.9331C50.7535 53.9331 50.8456 53.8735 50.9107 53.7922C50.9595 53.7218 50.9974 53.6351 50.9974 53.5375L50.9974 49.4726C50.9974 49.2504 50.8402 49.0716 50.6505 49.0716Z" fill="#FCCF42"/>
<path opacity="0.8" d="M122.205 25.8426L116.708 25.8426L116.708 24.6936C116.708 24.6936 116.708 24.6936 116.702 24.6936L116.702 20.3523C116.702 20.2439 116.643 20.1518 116.561 20.0867C116.491 20.0379 116.404 20 116.306 20L112.24 20C112.023 20 111.844 20.1572 111.844 20.3523L111.844 25.848L110.695 25.848C110.695 25.848 110.695 25.848 110.695 25.8534L106.352 25.8534C106.244 25.8534 106.152 25.913 106.087 25.9943C106.038 26.0648 106 26.1515 106 26.2491L106 30.3139C106 30.5307 106.157 30.7096 106.352 30.7096L111.844 30.7096L111.844 31.8586C111.844 31.8586 111.844 31.8586 111.85 31.8586L111.85 36.1998C111.85 36.3082 111.91 36.4004 111.991 36.4654C112.061 36.5142 112.148 36.5521 112.246 36.5521L116.312 36.5521C116.529 36.5521 116.708 36.395 116.708 36.1998L116.708 30.7096L117.857 30.7096C117.857 30.7096 117.857 30.7096 117.857 30.7041L122.2 30.7041C122.308 30.7041 122.4 30.6445 122.465 30.5632C122.514 30.4928 122.552 30.4061 122.552 30.3085L122.552 26.2436C122.552 26.0214 122.395 25.8426 122.205 25.8426Z" fill="#FCCF42"/>
<path opacity="0.8" d="M148.433 129.121L139.255 129.121L139.255 127.202C139.255 127.202 139.255 127.202 139.246 127.202L139.246 119.955C139.246 119.774 139.146 119.62 139.011 119.511C138.893 119.43 138.748 119.367 138.585 119.367L131.797 119.367C131.435 119.367 131.136 119.629 131.136 119.955L131.136 129.13L129.217 129.13C129.217 129.13 129.217 129.13 129.217 129.139L121.967 129.139C121.786 129.139 121.632 129.238 121.524 129.374C121.442 129.492 121.379 129.636 121.379 129.799L121.379 136.585C121.379 136.947 121.641 137.246 121.967 137.246L131.136 137.246L131.136 139.164C131.136 139.164 131.136 139.164 131.145 139.164L131.145 146.412C131.145 146.593 131.245 146.747 131.38 146.855C131.498 146.937 131.643 147 131.806 147L138.594 147C138.956 147 139.255 146.738 139.255 146.412L139.255 137.246L141.174 137.246C141.174 137.246 141.174 137.246 141.174 137.237L148.424 137.237C148.605 137.237 148.759 137.137 148.867 137.002C148.949 136.884 149.012 136.739 149.012 136.576L149.012 129.79C149.012 129.419 148.75 129.121 148.433 129.121Z" fill="#FCCF42"/>
<path opacity="0.4" d="M159.565 93.6416L152.708 93.6416L152.708 92.2084C152.708 92.2084 152.708 92.2084 152.701 92.2084L152.701 86.7934C152.701 86.6582 152.626 86.5433 152.525 86.4622C152.437 86.4013 152.329 86.354 152.207 86.354L147.135 86.354C146.865 86.354 146.642 86.5501 146.642 86.7934L146.642 93.6484L145.208 93.6484C145.208 93.6484 145.208 93.6484 145.208 93.6551L139.791 93.6551C139.656 93.6551 139.541 93.7295 139.46 93.8309C139.399 93.9188 139.352 94.027 139.352 94.1486L139.352 99.2189C139.352 99.4893 139.548 99.7124 139.791 99.7124L146.642 99.7124L146.642 101.146C146.642 101.146 146.642 101.146 146.648 101.146L146.648 106.561C146.648 106.696 146.723 106.811 146.824 106.892C146.912 106.953 147.02 107 147.142 107L152.214 107C152.484 107 152.708 106.804 152.708 106.561L152.708 99.7124L154.141 99.7124C154.141 99.7124 154.141 99.7124 154.141 99.7056L159.558 99.7056C159.693 99.7056 159.808 99.6313 159.889 99.5299C159.95 99.442 159.998 99.3338 159.998 99.2121L159.998 94.1419C159.998 93.8647 159.801 93.6416 159.565 93.6416Z" fill="#FCCF42"/>
<path opacity="0.4" d="M149.824 7.14715L143.099 7.14715L143.099 5.74159C143.099 5.74159 143.099 5.74159 143.092 5.74159L143.092 0.430951C143.092 0.29835 143.019 0.18564 142.919 0.10608C142.833 0.0464102 142.727 2.82591e-07 142.608 2.7994e-07L137.634 1.69496e-07C137.368 1.63605e-07 137.149 0.19227 137.149 0.430951L137.149 7.15378L135.743 7.15378C135.743 7.15378 135.743 7.15378 135.743 7.16041L130.431 7.16041C130.298 7.16041 130.186 7.23334 130.106 7.33279C130.046 7.41898 130 7.52506 130 7.6444L130 12.6169C130 12.8821 130.192 13.1009 130.431 13.1009L137.149 13.1009L137.149 14.5065C137.149 14.5065 137.149 14.5065 137.156 14.5065L137.156 19.8171C137.156 19.9497 137.229 20.0624 137.329 20.142C137.415 20.2016 137.521 20.248 137.64 20.248L142.614 20.248C142.88 20.248 143.099 20.0558 143.099 19.8171L143.099 13.1009L144.505 13.1009C144.505 13.1009 144.505 13.1009 144.505 13.0943L149.817 13.0943C149.95 13.0943 150.062 13.0213 150.142 12.9219C150.202 12.8357 150.248 12.7296 150.248 12.6103L150.248 7.63777C150.248 7.36594 150.056 7.14715 149.824 7.14715Z" fill="#FCCF42"/>
<path opacity="0.5" d="M43.507 11.6486L32.5468 11.6486L32.5468 9.35791C32.5468 9.35791 32.5468 9.35791 32.5359 9.35791L32.5359 0.702836C32.5359 0.486729 32.4171 0.303038 32.2549 0.173374C32.1144 0.076126 31.9415 0.000488742 31.7469 0.000488737L23.6402 0.000488557C23.2079 0.000488548 22.8512 0.313843 22.8512 0.702835L22.8512 11.6595L20.5597 11.6595C20.5597 11.6595 20.5597 11.6595 20.5597 11.6703L11.9018 11.6703C11.6856 11.6703 11.5019 11.7891 11.3722 11.9512C11.2749 12.0917 11.1992 12.2646 11.1992 12.459L11.1992 20.5631C11.1992 20.9953 11.5127 21.3518 11.9018 21.3518L22.8512 21.3518L22.8512 23.6426C22.8512 23.6426 22.8512 23.6426 22.862 23.6426L22.862 32.2977C22.862 32.5138 22.9809 32.6975 23.143 32.8271C23.2836 32.9244 23.4565 33 23.6511 33L31.7577 33C32.1901 33 32.5468 32.6866 32.5468 32.2977L32.5468 21.3518L34.8382 21.3518C34.8382 21.3518 34.8382 21.3518 34.8382 21.341L43.4962 21.341C43.7123 21.341 43.8961 21.2222 44.0258 21.0601C44.1231 20.9196 44.1987 20.7467 44.1987 20.5523L44.1987 12.4482C44.1987 12.0052 43.8853 11.6486 43.507 11.6486Z" fill="#FCCF42"/>
<path opacity="0.9" d="M21.4272 55.2685L14.1582 55.2685L14.1582 53.7493C14.1582 53.7493 14.1582 53.7493 14.151 53.7493L14.151 48.009C14.151 47.8657 14.0721 47.7439 13.9646 47.6579C13.8714 47.5934 13.7567 47.5432 13.6277 47.5432L8.25116 47.5432C7.96442 47.5432 7.72785 47.751 7.72785 48.009L7.72785 55.2757L6.20809 55.2757C6.20809 55.2757 6.20809 55.2757 6.20809 55.2829L0.465966 55.2829C0.322592 55.2829 0.200726 55.3617 0.114702 55.4692C0.0501836 55.5624 1.80601e-07 55.677 1.83465e-07 55.806L3.02805e-07 61.1808C3.0917e-07 61.4674 0.207893 61.7039 0.465966 61.7039L7.72785 61.7039L7.72785 63.2232C7.72785 63.2232 7.72785 63.2232 7.73502 63.2232L7.73502 68.9634C7.73502 69.1067 7.81387 69.2286 7.9214 69.3146C8.0146 69.3791 8.1293 69.4292 8.25833 69.4292L13.6349 69.4292C13.9216 69.4292 14.1582 69.2214 14.1582 68.9634L14.1582 61.7039L15.6779 61.7039C15.6779 61.7039 15.6779 61.7039 15.6779 61.6967L21.42 61.6967C21.5634 61.6967 21.6853 61.6179 21.7713 61.5104C21.8358 61.4173 21.886 61.3026 21.886 61.1736L21.886 55.7988C21.886 55.505 21.6781 55.2685 21.4272 55.2685Z" fill="#FCCF42"/>
<path d="M80.7868 37.2867C83.0223 33.4149 87.9732 32.0883 91.8451 34.3237L135.311 59.4188C139.183 61.6542 140.509 66.6051 138.274 70.477L88.8934 156.007C86.658 159.879 81.7071 161.205 77.8352 158.97L34.3693 133.875C30.4974 131.639 29.1708 126.688 31.4062 122.816L80.7868 37.2867Z" fill="#32270B"/>
<path d="M75.1775 34.0489C77.4129 30.1771 82.3638 28.8505 86.2357 31.0859L129.702 56.181C133.574 58.4164 134.9 63.3673 132.665 67.2392L83.2841 152.769C81.0486 156.641 76.0977 157.967 72.2258 155.732L28.7599 130.637C24.888 128.402 23.5614 123.451 25.7968 119.579L75.1775 34.0489Z" fill="url(#paint0_linear_911_43014)"/>
<path fill-rule="evenodd" clip-rule="evenodd" d="M60.8712 142.996C61.3826 142.086 62.535 141.763 63.4452 142.274L71.6241 146.869C72.5343 147.381 72.8575 148.533 72.3462 149.443C71.8348 150.353 70.6824 150.677 69.7722 150.165L61.5933 145.57C60.6832 145.059 60.3599 143.906 60.8712 142.996Z" fill="white" fill-opacity="0.3"/>
<path fill-rule="evenodd" clip-rule="evenodd" d="M74.219 150.585C74.7498 149.686 75.9089 149.387 76.8078 149.918L77.8556 150.537C78.7545 151.068 79.053 152.227 78.5222 153.126C77.9913 154.025 76.8323 154.323 75.9333 153.792L74.8855 153.174C73.9866 152.643 73.6881 151.484 74.219 150.585Z" fill="white" fill-opacity="0.3"/>
<path fill-rule="evenodd" clip-rule="evenodd" d="M81.8702 32.7004C82.4103 31.8071 83.5725 31.5207 84.4658 32.0609L85.3831 32.6155C86.2765 33.1557 86.5628 34.3178 86.0227 35.2112C85.4825 36.1046 84.3204 36.3909 83.427 35.8507L82.5097 35.2961C81.6163 34.7559 81.33 33.5938 81.8702 32.7004Z" fill="white" fill-opacity="0.3"/>
<path fill-rule="evenodd" clip-rule="evenodd" d="M88.3458 36.4111C88.8704 35.5085 90.0274 35.2022 90.93 35.7269L111.351 47.5981C112.254 48.1228 112.56 49.2798 112.036 50.1824C111.511 51.085 110.354 51.3913 109.451 50.8666L89.03 38.9954C88.1274 38.4707 87.8211 37.3137 88.3458 36.4111Z" fill="white" fill-opacity="0.3"/>
<rect x="79.9766" y="38.688" width="53.4282" height="90.6661" transform="rotate(30 79.9766 38.688)" fill="url(#paint1_linear_911_43014)"/>
<path d="M89.2863 110.629L59.8451 93.7852C59.6156 93.6539 59.5407 93.3532 59.6784 93.1126L72.5307 70.648C72.6684 70.4073 72.9656 70.3195 73.1951 70.4508L102.648 87.3012C102.95 87.4741 102.965 87.9137 102.676 88.1292L91.5245 96.4927C91.4088 96.5804 91.3324 96.7138 91.3201 96.8568L90.0178 110.22C89.9813 110.588 89.5915 110.804 89.2863 110.629Z" fill="#FFC61B"/>
<path d="M88.2508 91.6614L83.1609 88.7493L83.768 87.6882L83.765 87.6865L86.058 83.6721C86.1144 83.5735 86.1102 83.4595 86.0636 83.3521C86.0262 83.2691 85.963 83.1906 85.873 83.1391L82.1084 80.9853C81.9049 80.8689 81.6563 80.919 81.5534 81.0988L78.6505 86.1728L77.5867 85.5641L77.585 85.567L73.5602 83.2682C73.4612 83.2116 73.3473 83.2157 73.2398 83.2619C73.1566 83.299 73.0782 83.3619 73.0268 83.4518L70.8787 87.2065C70.7625 87.4094 70.8134 87.6579 70.9937 87.7611L76.0807 90.6714L75.4736 91.7326L75.4766 91.7343L73.1835 95.7486C73.1271 95.8472 73.1314 95.9613 73.1779 96.0687C73.2154 96.1517 73.2785 96.2302 73.3686 96.2817L77.1332 98.4355C77.3367 98.5519 77.5853 98.5017 77.6882 98.3219L80.5927 93.2451L81.6565 93.8537L81.6582 93.8508L85.683 96.1497C85.782 96.2063 85.896 96.2022 86.0034 96.1559C86.0866 96.1188 86.165 96.056 86.2165 95.9661L88.3629 92.2143C88.4818 92.0129 88.4282 91.7629 88.2508 91.6614Z" fill="#32270B"/>
<defs>
<linearGradient id="paint0_linear_911_43014" x1="107.969" y1="43.6335" x2="95.5129" y2="145.026" gradientUnits="userSpaceOnUse">
<stop stop-color="#B6821E"/>
<stop offset="1" stop-color="#32270B"/>
</linearGradient>
<linearGradient id="paint1_linear_911_43014" x1="106.691" y1="38.688" x2="145.521" y2="107.415" gradientUnits="userSpaceOnUse">
<stop stop-color="white"/>
<stop offset="0.854167" stop-color="#FFF5D8"/>
</linearGradient>
</defs>
</svg>
