<svg width="160" height="160" viewBox="0 0 160 160" fill="none" xmlns="http://www.w3.org/2000/svg">
<circle cx="80" cy="80" r="80" fill="url(#paint0_linear_911_42934)" fill-opacity="0.4"/>
<path d="M49.3439 28.6116C51.3036 28.6116 53.004 29.9642 53.4446 31.8737L55.7107 41.6935C56.1428 43.5657 55.2586 45.3776 53.7409 46.2713L56.3249 76.5743C64.9897 85.0126 72.4375 96.6063 72.4375 108.733V150.555C72.4375 155.743 68.2316 159.949 63.0434 159.949L19.8951 159.949C14.7068 159.949 10.501 155.743 10.501 150.555V108.733C10.501 96.6063 17.9488 85.0126 26.6135 76.5743L29.1975 46.2713C27.6799 45.3777 26.7957 43.5657 27.2277 41.6935L29.4938 31.8737C29.9345 29.9642 31.6348 28.6116 33.5945 28.6116L49.3439 28.6116Z" fill="url(#paint1_linear_911_42934)"/>
<path d="M33.691 47.9788L48.7167 47.9788L51.4937 78.6285L55.7405 84.5318C60.0138 90.472 64.8555 97.6046 64.8555 104.922L64.8555 148.18C64.8555 150.989 62.5787 153.266 59.7702 153.266H23.1646C20.356 153.266 18.0793 150.989 18.0793 148.18L18.0792 104.922C18.0792 97.6046 22.9209 90.4719 27.1943 84.5318L31.4409 78.6286L33.691 47.9788Z" fill="#038A39"/>
<path d="M26.9724 131.527C26.9724 139.309 33.2813 145.618 41.0636 145.618H41.5143C49.2966 145.618 55.6055 139.309 55.6055 131.527L55.6055 103.968C55.6055 96.9396 49.7206 91.2422 42.4613 91.2422H40.1166C32.8573 91.2422 26.9724 96.9396 26.9724 103.968L26.9724 131.527Z" fill="url(#paint2_linear_911_42934)"/>
<path d="M49.8843 23C53.7581 23 56.8984 26.1403 56.8984 30.0141L56.8984 34.2935C56.0073 33.384 54.7652 32.8198 53.3913 32.8198C51.7852 32.8198 50.3591 33.591 49.4634 34.7833C48.5676 33.591 47.1415 32.8198 45.5354 32.8198C43.9293 32.8198 42.5034 33.5909 41.6076 34.7831C40.7118 33.5909 39.2858 32.8198 37.6798 32.8198C36.0736 32.8198 34.6476 33.591 33.7518 34.7833C32.856 33.591 31.43 32.8198 29.8238 32.8198C28.2992 32.8198 26.9369 33.5147 26.0363 34.6051L26.0363 30.0141C26.0363 26.1403 29.1767 23 33.0505 23L49.8843 23Z" fill="url(#paint3_linear_911_42934)"/>
<path d="M55.6562 68.71L54.8739 59.5356L41.4711 64.6906L28.0683 59.5357L27.286 68.71L41.4711 74.1658L55.6562 68.71Z" fill="url(#paint4_linear_911_42934)"/>
<path fill-rule="evenodd" clip-rule="evenodd" d="M33.812 46.9666C32.3965 46.9666 31.249 48.1141 31.249 49.5296L31.249 77.9552C31.249 79.3707 32.3965 80.5182 33.812 80.5182C35.2275 80.5182 36.375 79.3707 36.375 77.9552L36.375 49.5296C36.375 48.1141 35.2275 46.9666 33.812 46.9666Z" fill="white"/>
<path d="M17.9062 122.614L17.9063 151.04" stroke="white" stroke-opacity="0.7" stroke-width="5.98663" stroke-linecap="round"/>
<path fill-rule="evenodd" clip-rule="evenodd" d="M33.812 37.4153C32.3965 37.4153 31.249 38.5628 31.249 39.9783L31.249 40.9229C31.249 42.3384 32.3965 43.4859 33.812 43.4859C35.2275 43.4859 36.375 42.3384 36.375 40.9229L36.375 39.9783C36.375 38.5628 35.2275 37.4153 33.812 37.4153Z" fill="white"/>
<path d="M17.9062 115.034L17.9063 115.979" stroke="white" stroke-opacity="0.7" stroke-width="5.98663" stroke-linecap="round"/>
<path d="M68.0039 131.999C68.0039 128.064 71.1939 124.874 75.1289 124.874H138.525C142.46 124.874 145.65 128.064 145.65 131.999V136.236C145.65 140.172 142.46 143.361 138.525 143.361H75.1289C71.1939 143.361 68.0039 140.172 68.0039 136.236V131.999Z" fill="url(#paint5_linear_911_42934)"/>
<path d="M73.5508 125.059V119.328H140.105V125.059L114.755 139.482C110.51 141.898 105.324 141.971 101.013 139.676L73.5508 125.059Z" fill="url(#paint6_linear_911_42934)"/>
<path d="M69.4071 117.294H144.244C149.02 124.879 138.571 128.035 133.58 123.394C133.131 134.513 119.531 131.937 117.116 123.394C116.102 135.868 97.5498 135.868 96.5356 123.394C94.1204 131.937 80.5205 134.513 80.0714 123.394C75.0805 128.035 64.6318 124.879 69.4071 117.294Z" fill="url(#paint7_linear_911_42934)"/>
<path d="M108.184 138.761L107.28 138.761" stroke="white" stroke-opacity="0.5" stroke-width="4.22222" stroke-linecap="round"/>
<path d="M120.383 132.886L116.768 134.693" stroke="white" stroke-opacity="0.5" stroke-width="4.22222" stroke-linecap="round"/>
<path d="M66.1562 112.912C66.1562 93.9931 81.4931 78.6562 100.412 78.6562H113.244C132.163 78.6562 147.5 93.9931 147.5 112.912C147.5 115.434 145.455 117.479 142.933 117.479H70.7237C68.2012 117.479 66.1562 115.434 66.1562 112.912Z" fill="url(#paint8_linear_911_42934)"/>
<path d="M68.0039 148.115C68.0039 145.492 70.1306 143.361 72.7539 143.361H140.9C143.524 143.361 145.65 145.492 145.65 148.115C145.65 154.674 140.334 160 133.775 160H79.8789C73.3205 160 68.0039 154.674 68.0039 148.115Z" fill="url(#paint9_linear_911_42934)"/>
<path d="M109.732 98.121C109.732 99.7255 108.431 101.026 106.827 101.026C105.223 101.026 103.922 99.7255 103.922 98.121C103.922 97.4312 104.459 95.9922 105.071 94.5756C105.753 92.9977 107.901 92.9977 108.583 94.5756C109.195 95.9922 109.732 97.4312 109.732 98.121Z" fill="url(#paint10_linear_911_42934)"/>
<path d="M123.242 88.415C124.631 89.2172 125.107 90.994 124.305 92.3835C123.503 93.773 121.726 94.2491 120.337 93.4468C119.739 93.102 118.762 91.9174 117.841 90.6789C116.815 89.2994 117.889 87.4391 119.597 87.6375C121.13 87.8156 122.644 88.0701 123.242 88.415Z" fill="url(#paint11_linear_911_42934)"/>
<path d="M89.0082 88.415C87.6187 89.2172 87.1426 90.994 87.9448 92.3835C88.7471 93.773 90.5238 94.2491 91.9133 93.4468C92.5107 93.102 93.4885 91.9174 94.4092 90.6789C95.4347 89.2994 94.3606 87.4391 92.6532 87.6375C91.1203 87.8156 89.6056 88.0701 89.0082 88.415Z" fill="url(#paint12_linear_911_42934)"/>
<defs>
<linearGradient id="paint0_linear_911_42934" x1="80" y1="0" x2="80" y2="160" gradientUnits="userSpaceOnUse">
<stop offset="0.21875" stop-color="#FFA0B7"/>
<stop offset="0.46875" stop-color="#FFA0B7" stop-opacity="0"/>
</linearGradient>
<linearGradient id="paint1_linear_911_42934" x1="48.0092" y1="35.339" x2="-2.01706" y2="131.586" gradientUnits="userSpaceOnUse">
<stop stop-color="#B2EF76"/>
<stop offset="1" stop-color="#038A39"/>
</linearGradient>
<linearGradient id="paint2_linear_911_42934" x1="41.5816" y1="90.548" x2="22.5413" y2="135.769" gradientUnits="userSpaceOnUse">
<stop stop-color="#F9F9F9"/>
<stop offset="1" stop-color="#E1ED9C"/>
</linearGradient>
<linearGradient id="paint3_linear_911_42934" x1="45.5219" y1="19.5647" x2="40.9597" y2="30.4731" gradientUnits="userSpaceOnUse">
<stop stop-color="#F9F9F9"/>
<stop offset="1" stop-color="#E1ED9C"/>
</linearGradient>
<linearGradient id="paint4_linear_911_42934" x1="49.2847" y1="59" x2="45.8022" y2="71.8592" gradientUnits="userSpaceOnUse">
<stop stop-color="#F9F9F9"/>
<stop offset="1" stop-color="#E1ED9C"/>
</linearGradient>
<linearGradient id="paint5_linear_911_42934" x1="101.404" y1="154.577" x2="113.339" y2="136.058" gradientUnits="userSpaceOnUse">
<stop stop-color="#D56B2A"/>
<stop offset="1" stop-color="#723319"/>
</linearGradient>
<linearGradient id="paint6_linear_911_42934" x1="105.924" y1="115.713" x2="121.037" y2="133.849" gradientUnits="userSpaceOnUse">
<stop stop-color="#D56B2A"/>
<stop offset="1" stop-color="#FDB813"/>
</linearGradient>
<linearGradient id="paint7_linear_911_42934" x1="170.093" y1="103.059" x2="118.93" y2="59.8406" gradientUnits="userSpaceOnUse">
<stop stop-color="#038A39"/>
<stop offset="1" stop-color="#7CC362"/>
</linearGradient>
<linearGradient id="paint8_linear_911_42934" x1="97.7899" y1="72.4968" x2="117.255" y2="104.938" gradientUnits="userSpaceOnUse">
<stop stop-color="#FFCAAB"/>
<stop offset="1" stop-color="#D56B2A"/>
</linearGradient>
<linearGradient id="paint9_linear_911_42934" x1="140.372" y1="112.303" x2="154.362" y2="142.72" gradientUnits="userSpaceOnUse">
<stop stop-color="#FFCAAB"/>
<stop offset="1" stop-color="#D56B2A"/>
</linearGradient>
<linearGradient id="paint10_linear_911_42934" x1="104.116" y1="91.3101" x2="107.661" y2="98.8395" gradientUnits="userSpaceOnUse">
<stop offset="0.291084" stop-color="#FFF5D8"/>
<stop offset="1" stop-color="#FFCAAB"/>
</linearGradient>
<linearGradient id="paint11_linear_911_42934" x1="115.499" y1="87.2995" x2="122.38" y2="93.2395" gradientUnits="userSpaceOnUse">
<stop offset="0.291084" stop-color="#FFF5D8"/>
<stop offset="1" stop-color="#FFCAAB"/>
</linearGradient>
<linearGradient id="paint12_linear_911_42934" x1="86.9441" y1="87.6949" x2="92.3477" y2="93.2395" gradientUnits="userSpaceOnUse">
<stop offset="0.291084" stop-color="#FFF5D8"/>
<stop offset="1" stop-color="#FFCAAB"/>
</linearGradient>
</defs>
</svg>
