<svg width="149" height="30" viewBox="0 0 149 30" fill="none" xmlns="http://www.w3.org/2000/svg">
<path d="M147.336 1.37778C147.458 1.37778 147.537 1.3015 147.537 1.17445C147.537 1.0504 147.458 0.980622 147.336 0.980622H147.139V1.37778H147.336ZM146.906 0.809054H147.382C147.616 0.809054 147.773 0.95211 147.773 1.17445C147.773 1.35877 147.648 1.46681 147.547 1.49207V1.49858C147.547 1.49858 147.56 1.51133 147.589 1.5651L147.826 2.00703H147.57L147.34 1.54309H147.139V2.00703H146.906V0.809054ZM147.307 2.35667C147.836 2.35667 148.243 1.9435 148.243 1.41279C148.243 0.882083 147.836 0.46892 147.307 0.46892C146.785 0.46892 146.381 0.882083 146.381 1.41279C146.381 1.9435 146.785 2.35667 147.307 2.35667ZM147.307 0.252834C147.96 0.252834 148.483 0.767788 148.483 1.41279C148.483 2.0578 147.96 2.57275 147.307 2.57275C146.66 2.57275 146.141 2.0578 146.141 1.41279C146.141 0.767788 146.66 0.252834 147.307 0.252834Z" fill="#FF8000"/>
<path d="M141.457 20.3991V20.4174C141.494 21.237 141.212 22.039 140.703 22.6948L140.722 22.7313L140.741 22.713C140.272 23.2518 139.563 23.5369 138.838 23.4786H135.937V17.4647H138.857C139.582 17.4064 140.291 17.6918 140.76 18.2303L140.741 18.212C141.244 18.8335 141.498 19.6103 141.457 20.3991V20.3991ZM135.937 6.32953H138.499C139.139 6.28701 139.767 6.52036 140.213 6.96728L140.25 7.0038C140.696 7.58578 140.909 8.30257 140.854 9.0241C140.924 9.78465 140.681 10.562 140.213 11.1952V11.177C139.79 11.6509 139.163 11.9067 138.518 11.8695H135.937V6.32953ZM147.448 20.3626V20.3991C147.448 18.0659 146.355 15.8423 144.471 14.3845L144.508 14.4027L144.545 14.3662C146.099 12.9226 146.977 10.9284 146.976 8.84453V8.95332C147.054 6.77646 146.273 4.65237 144.791 3.01247L144.829 3.06648C143.229 1.3393 140.934 0.368413 138.536 0.406178H130.36C130.08 0.405177 129.853 0.623765 129.852 0.894372C129.851 0.895873 129.851 0.897124 129.852 0.898625V28.7636C129.852 29.0376 130.077 29.2559 130.36 29.2559H138.875C141.457 29.2924 143.924 28.2172 145.582 26.3035L145.563 26.3217C146.898 24.6123 147.565 22.5017 147.448 20.3626" fill="#FF8000"/>
<path d="M60.1698 20.7453V0.916953C60.1486 0.670105 59.9359 0.479779 59.6797 0.479279H54.462C54.1985 0.479279 53.9726 0.661852 53.9532 0.916953V20.7446C53.9909 21.5649 53.7461 22.3675 53.2376 23.0045C52.3798 23.8978 50.9392 23.9654 49.9971 23.1508C49.9315 23.1055 49.8741 23.05 49.8273 22.9865C49.3454 22.3492 49.1057 21.5704 49.1492 20.7819V0.916953C49.1479 0.673356 48.9428 0.477027 48.6913 0.478027C48.6807 0.478027 48.6703 0.478529 48.6597 0.479279H43.4219C43.1641 0.45702 42.9366 0.641095 42.9136 0.890194C42.9134 0.892945 42.9131 0.895695 42.9128 0.898696V20.7453C42.7438 23.131 43.5341 25.4802 45.1142 27.3022C46.8022 28.9354 49.1171 29.8157 51.5036 29.7301H51.5791C53.9656 29.8157 56.2805 28.9354 57.9684 27.3022C59.5517 25.4745 60.3407 23.1243 60.1698 20.7453" fill="#FF8000"/>
<path d="M103.049 0.478632C103.047 0.478632 103.046 0.478632 103.044 0.478632H103.026H97.9204C97.6404 0.477632 97.4126 0.696219 97.4113 0.966827C97.4113 0.968327 97.4113 0.969579 97.4113 0.971079V11.7599H92.2314V0.971079C92.2327 0.700222 92.0067 0.479883 91.7267 0.478632C91.7252 0.478632 91.7239 0.478632 91.7226 0.478632H86.6355C86.3555 0.477882 86.128 0.69672 86.1272 0.967578C86.1272 0.968828 86.1272 0.969829 86.1272 0.971079V28.7631C86.1272 29.037 86.3531 29.2554 86.6355 29.2554H91.7415C92.0212 29.256 92.2487 29.0372 92.2497 28.7664C92.2497 28.7654 92.2497 28.7641 92.2497 28.7631V17.5912H97.4302V28.7631C97.4302 29.037 97.6567 29.2554 97.9392 29.2554H103.044C103.324 29.2565 103.552 29.038 103.553 28.7671C103.553 28.7656 103.553 28.7643 103.553 28.7631V0.971079C103.555 0.700222 103.329 0.479883 103.049 0.478632Z" fill="#FF8000"/>
<path d="M76.2942 20.3991V20.4174C76.332 21.237 76.0497 22.039 75.5406 22.6948L75.5595 22.7313L75.5783 22.713C75.1099 23.2518 74.4007 23.5369 73.6756 23.4786H70.7746V17.4647H73.6944C74.4196 17.4064 75.1288 17.6918 75.5972 18.2303L75.5783 18.212C76.082 18.8335 76.3361 19.6103 76.2942 20.3991V20.3991ZM70.7746 6.32953V6.32878H73.3366C73.9775 6.28626 74.6052 6.51986 75.0512 6.96728L75.0884 7.0038C75.5336 7.58553 75.7472 8.30256 75.6924 9.0241C75.7629 9.78465 75.5186 10.562 75.0512 11.1952V11.177C74.6285 11.6509 74.0013 11.907 73.3555 11.8695H70.7746V6.32953ZM82.3237 20.3626V20.4356C82.3237 18.0842 81.2311 15.8788 79.347 14.4032H79.3464L79.3842 14.3662C80.9341 12.9254 81.8108 10.9369 81.8136 8.85803C81.8366 6.7522 81.0602 4.71064 79.6288 3.12201V3.14026C78.0295 1.41283 75.734 0.441941 73.3374 0.479206H65.1975C64.9175 0.478205 64.6898 0.696793 64.6885 0.9674C64.6885 0.968901 64.6885 0.970152 64.6885 0.971653V28.7636C64.6885 29.0376 64.9149 29.2559 65.1975 29.2559H73.7518C76.3327 29.2924 78.8004 28.2172 80.4586 26.3035L80.4398 26.3217C81.7746 24.6123 82.4418 22.5017 82.3237 20.3626" fill="#FF8000"/>
<path d="M125.314 20.745V0.916629C125.295 0.679785 125.088 0.478955 124.843 0.478955H119.586C119.329 0.456946 119.101 0.641268 119.079 0.890618C119.079 0.893119 119.078 0.895621 119.078 0.898372V20.745C119.116 21.5463 118.889 22.3301 118.4 22.9679C117.545 23.879 116.09 23.9525 115.141 23.1322C115.075 23.0869 115.018 23.0314 114.971 22.9679C114.489 22.3306 114.249 21.5518 114.293 20.7633V0.916629C114.274 0.661528 114.048 0.478955 113.784 0.478955H108.547C108.283 0.478955 108.057 0.661528 108.038 0.916629V20.7998C107.869 23.1322 108.661 25.4829 110.243 27.3054L110.299 27.3601C113.973 30.5494 119.568 30.5129 123.185 27.2514L123.11 27.3054C124.695 25.4771 125.485 23.1255 125.314 20.745" fill="#FF8000"/>
<path d="M32.4004 11.7418H32.4192L32.42 11.7423C31.8957 12.285 31.1519 12.5779 30.3851 12.5439H27.8797V6.32889H30.3662C31.133 6.29538 31.8766 6.58875 32.4004 7.13171V7.11345C32.9309 7.73045 33.2062 8.51601 33.1728 9.31808V9.35459C33.2295 10.2297 32.9658 11.068 32.4004 11.7418ZM35.5658 16.8636V16.8631L35.5847 16.8453C36.1116 16.4984 36.5829 16.0798 37.0162 15.6241L36.9973 15.6606C38.5568 13.9134 39.3776 11.6615 39.2959 9.35459V9.30032C39.3365 7.02217 38.4813 4.81379 36.9029 3.12212L36.9973 3.23116C35.4303 1.51848 33.2005 0.50908 30.8373 0.442804H22.2654C21.9857 0.441803 21.7576 0.660391 21.7566 0.930998C21.7566 0.932499 21.7566 0.933747 21.7566 0.935248V28.7638C21.7566 29.0377 21.9823 29.2561 22.2654 29.2561H27.3706C27.6506 29.2572 27.8784 29.0387 27.8797 28.7678C27.8797 28.7663 27.8797 28.765 27.8797 28.7638V18.4677H29.7636L32.9849 28.9651C33.0407 29.1655 33.2483 29.3115 33.474 29.3115H38.9001C39.063 29.3103 39.216 29.236 39.3148 29.1107C39.39 28.9741 39.39 28.8103 39.3148 28.6738L35.5658 16.8636" fill="#FF8000"/>
<path d="M15.6142 2.44838C13.9196 0.812232 11.6008 -0.0721176 9.20808 0.00516305L9.2086 0.00566373H9.17085C6.77737 -0.0803704 4.45524 0.804481 2.76548 2.44713L2.82211 2.3746C1.20241 4.18257 0.371485 6.5285 0.504887 8.91745V20.7634C0.335808 23.1491 1.12614 25.4983 2.70603 27.3203C4.39423 28.9535 6.70886 29.8338 9.09536 29.7482H9.18972C11.5837 29.834 13.9058 28.9484 15.5954 27.3055C17.1804 25.4773 17.9705 23.1256 17.7993 20.7452V14.2748C17.7854 14.0015 17.5542 13.7861 17.2717 13.7824H9.73574C9.44955 13.7851 9.21247 13.9987 9.18972 14.2748V19.122C9.2086 19.4136 9.43456 19.6327 9.73574 19.6327H11.8084V20.7444C11.851 21.5782 11.5985 22.4013 11.0925 23.0776L11.1116 23.0586C10.6592 23.6058 9.96222 23.9154 9.24635 23.8606H9.2086C8.49299 23.9147 7.79598 23.6423 7.34355 23.0951C6.81641 22.4348 6.54935 21.6145 6.58994 20.7809V9.00799C6.55374 8.15265 6.83425 7.31281 7.3813 6.6398C7.83373 6.09283 8.53073 5.78296 9.24635 5.83773H9.28409C9.99996 5.78371 10.6962 6.05682 11.1494 6.60328L11.1871 6.6398C11.6626 7.33307 11.8818 8.1614 11.8084 8.99048V10.0839C11.8273 10.3395 12.0532 10.5216 12.3167 10.5216H17.4227C17.6861 10.5216 17.9118 10.339 17.9309 10.0839V8.97222C18.063 6.58503 17.2339 4.25185 15.5954 2.44838H15.6142" fill="#FF8000"/>
</svg>
